<svg xmlns="http://www.w3.org/2000/svg" width="900" height="720" viewBox="0 0 900 720">
<rect width="100%" height="100%" fill="#ffffff"/>
<text x="450.0" y="34" text-anchor="middle" font-family="Arial" font-size="22" font-weight="700">4TF scramble 4</text>
<text x="450.0" y="62" text-anchor="middle" font-family="Arial" font-size="16" fill="#555">Pearson r = -0.036, n = 261</text>
<rect x="105" y="92" width="755" height="533" fill="#fbfbfb" stroke="#222" stroke-width="1"/>
<line x1="105.00" y1="92" x2="105.00" y2="625" stroke="#dddddd" stroke-width="1"/>
<line x1="105" y1="625.00" x2="860" y2="625.00" stroke="#dddddd" stroke-width="1"/>
<text x="105.00" y="651" text-anchor="middle" font-family="Arial" font-size="13" fill="#444">-2</text>
<text x="92" y="629.00" text-anchor="end" font-family="Arial" font-size="13" fill="#444">-2</text>
<line x1="293.75" y1="92" x2="293.75" y2="625" stroke="#dddddd" stroke-width="1"/>
<line x1="105" y1="491.75" x2="860" y2="491.75" stroke="#dddddd" stroke-width="1"/>
<text x="293.75" y="651" text-anchor="middle" font-family="Arial" font-size="13" fill="#444">-1</text>
<text x="92" y="495.75" text-anchor="end" font-family="Arial" font-size="13" fill="#444">-1</text>
<line x1="482.50" y1="92" x2="482.50" y2="625" stroke="#dddddd" stroke-width="1"/>
<line x1="105" y1="358.50" x2="860" y2="358.50" stroke="#dddddd" stroke-width="1"/>
<text x="482.50" y="651" text-anchor="middle" font-family="Arial" font-size="13" fill="#444">-1</text>
<text x="92" y="362.50" text-anchor="end" font-family="Arial" font-size="13" fill="#444">-1</text>
<line x1="671.25" y1="92" x2="671.25" y2="625" stroke="#dddddd" stroke-width="1"/>
<line x1="105" y1="225.25" x2="860" y2="225.25" stroke="#dddddd" stroke-width="1"/>
<text x="671.25" y="651" text-anchor="middle" font-family="Arial" font-size="13" fill="#444">0</text>
<text x="92" y="229.25" text-anchor="end" font-family="Arial" font-size="13" fill="#444">0</text>
<line x1="860.00" y1="92" x2="860.00" y2="625" stroke="#dddddd" stroke-width="1"/>
<line x1="105" y1="92.00" x2="860" y2="92.00" stroke="#dddddd" stroke-width="1"/>
<text x="860.00" y="651" text-anchor="middle" font-family="Arial" font-size="13" fill="#444">1</text>
<text x="92" y="96.00" text-anchor="end" font-family="Arial" font-size="13" fill="#444">1</text>
<line x1="105" y1="625" x2="860" y2="92" stroke="#9a4f34" stroke-width="2" stroke-dasharray="7 6"/>
<circle cx="646.82" cy="242.49" r="4.0" fill="#2f6f73" opacity="0.72"/>
<circle cx="665.51" cy="228.76" r="4.0" fill="#2f6f73" opacity="0.72"/>
<circle cx="602.20" cy="262.01" r="4.0" fill="#2f6f73" opacity="0.72"/>
<circle cx="536.66" cy="236.95" r="4.0" fill="#2f6f73" opacity="0.72"/>
<circle cx="606.48" cy="266.40" r="4.0" fill="#2f6f73" opacity="0.72"/>
<circle cx="541.74" cy="269.69" r="4.0" fill="#2f6f73" opacity="0.72"/>
<circle cx="658.14" cy="238.95" r="4.0" fill="#2f6f73" opacity="0.72"/>
<circle cx="819.55" cy="220.66" r="4.0" fill="#2f6f73" opacity="0.72"/>
<circle cx="654.41" cy="238.03" r="4.0" fill="#2f6f73" opacity="0.72"/>
<circle cx="614.90" cy="243.99" r="4.0" fill="#2f6f73" opacity="0.72"/>
<circle cx="606.48" cy="271.18" r="4.0" fill="#2f6f73" opacity="0.72"/>
<circle cx="642.98" cy="233.72" r="4.0" fill="#2f6f73" opacity="0.72"/>
<circle cx="570.83" cy="247.58" r="4.0" fill="#2f6f73" opacity="0.72"/>
<circle cx="738.35" cy="230.17" r="4.0" fill="#2f6f73" opacity="0.72"/>
<circle cx="597.87" cy="263.57" r="4.0" fill="#2f6f73" opacity="0.72"/>
<circle cx="566.13" cy="230.33" r="4.0" fill="#2f6f73" opacity="0.72"/>
<circle cx="546.74" cy="259.75" r="4.0" fill="#2f6f73" opacity="0.72"/>
<circle cx="658.14" cy="234.40" r="4.0" fill="#2f6f73" opacity="0.72"/>
<circle cx="515.68" cy="244.45" r="4.0" fill="#2f6f73" opacity="0.72"/>
<circle cx="531.52" cy="232.31" r="4.0" fill="#2f6f73" opacity="0.72"/>
<circle cx="536.66" cy="232.42" r="4.0" fill="#2f6f73" opacity="0.72"/>
<circle cx="526.31" cy="236.11" r="4.0" fill="#2f6f73" opacity="0.72"/>
<circle cx="551.68" cy="236.97" r="4.0" fill="#2f6f73" opacity="0.72"/>
<circle cx="575.47" cy="225.34" r="4.0" fill="#2f6f73" opacity="0.72"/>
<circle cx="575.47" cy="240.76" r="4.0" fill="#2f6f73" opacity="0.72"/>
<circle cx="556.56" cy="242.50" r="4.0" fill="#2f6f73" opacity="0.72"/>
<circle cx="546.74" cy="238.42" r="4.0" fill="#2f6f73" opacity="0.72"/>
<circle cx="541.74" cy="239.38" r="4.0" fill="#2f6f73" opacity="0.72"/>
<circle cx="606.48" cy="240.52" r="4.0" fill="#2f6f73" opacity="0.72"/>
<circle cx="526.31" cy="234.52" r="4.0" fill="#2f6f73" opacity="0.72"/>
<circle cx="623.13" cy="239.55" r="4.0" fill="#2f6f73" opacity="0.72"/>
<circle cx="756.03" cy="250.73" r="4.0" fill="#2f6f73" opacity="0.72"/>
<circle cx="775.67" cy="261.03" r="4.0" fill="#2f6f73" opacity="0.72"/>
<circle cx="661.84" cy="240.14" r="4.0" fill="#2f6f73" opacity="0.72"/>
<circle cx="635.16" cy="238.44" r="4.0" fill="#2f6f73" opacity="0.72"/>
<circle cx="589.07" cy="237.12" r="4.0" fill="#2f6f73" opacity="0.72"/>
<circle cx="619.04" cy="255.60" r="4.0" fill="#2f6f73" opacity="0.72"/>
<circle cx="654.41" cy="236.43" r="4.0" fill="#2f6f73" opacity="0.72"/>
<circle cx="686.79" cy="253.26" r="4.0" fill="#2f6f73" opacity="0.72"/>
<circle cx="526.31" cy="250.03" r="4.0" fill="#2f6f73" opacity="0.72"/>
<circle cx="614.90" cy="238.75" r="4.0" fill="#2f6f73" opacity="0.72"/>
<circle cx="606.48" cy="244.50" r="4.0" fill="#2f6f73" opacity="0.72"/>
<circle cx="566.13" cy="243.19" r="4.0" fill="#2f6f73" opacity="0.72"/>
<circle cx="561.38" cy="244.34" r="4.0" fill="#2f6f73" opacity="0.72"/>
<circle cx="546.74" cy="246.82" r="4.0" fill="#2f6f73" opacity="0.72"/>
<circle cx="606.48" cy="242.95" r="4.0" fill="#2f6f73" opacity="0.72"/>
<circle cx="570.83" cy="246.65" r="4.0" fill="#2f6f73" opacity="0.72"/>
<circle cx="463.77" cy="238.87" r="4.0" fill="#2f6f73" opacity="0.72"/>
<circle cx="602.20" cy="239.68" r="4.0" fill="#2f6f73" opacity="0.72"/>
<circle cx="551.68" cy="239.63" r="4.0" fill="#2f6f73" opacity="0.72"/>
<circle cx="551.68" cy="244.30" r="4.0" fill="#2f6f73" opacity="0.72"/>
<circle cx="593.50" cy="242.00" r="4.0" fill="#2f6f73" opacity="0.72"/>
<circle cx="570.83" cy="238.35" r="4.0" fill="#2f6f73" opacity="0.72"/>
<circle cx="635.16" cy="240.30" r="4.0" fill="#2f6f73" opacity="0.72"/>
<circle cx="589.07" cy="263.46" r="4.0" fill="#2f6f73" opacity="0.72"/>
<circle cx="606.48" cy="260.63" r="4.0" fill="#2f6f73" opacity="0.72"/>
<circle cx="631.19" cy="254.21" r="4.0" fill="#2f6f73" opacity="0.72"/>
<circle cx="639.09" cy="249.34" r="4.0" fill="#2f6f73" opacity="0.72"/>
<circle cx="597.87" cy="232.58" r="4.0" fill="#2f6f73" opacity="0.72"/>
<circle cx="546.74" cy="223.71" r="4.0" fill="#2f6f73" opacity="0.72"/>
<circle cx="531.52" cy="239.48" r="4.0" fill="#2f6f73" opacity="0.72"/>
<circle cx="584.59" cy="237.04" r="4.0" fill="#2f6f73" opacity="0.72"/>
<circle cx="661.84" cy="237.44" r="4.0" fill="#2f6f73" opacity="0.72"/>
<circle cx="606.48" cy="232.35" r="4.0" fill="#2f6f73" opacity="0.72"/>
<circle cx="669.14" cy="228.63" r="4.0" fill="#2f6f73" opacity="0.72"/>
<circle cx="515.68" cy="236.82" r="4.0" fill="#2f6f73" opacity="0.72"/>
<circle cx="610.71" cy="244.60" r="4.0" fill="#2f6f73" opacity="0.72"/>
<circle cx="654.41" cy="236.06" r="4.0" fill="#2f6f73" opacity="0.72"/>
<circle cx="614.90" cy="240.49" r="4.0" fill="#2f6f73" opacity="0.72"/>
<circle cx="650.64" cy="217.78" r="4.0" fill="#2f6f73" opacity="0.72"/>
<circle cx="661.84" cy="236.54" r="4.0" fill="#2f6f73" opacity="0.72"/>
<circle cx="642.98" cy="232.21" r="4.0" fill="#2f6f73" opacity="0.72"/>
<circle cx="650.64" cy="224.35" r="4.0" fill="#2f6f73" opacity="0.72"/>
<circle cx="635.16" cy="219.27" r="4.0" fill="#2f6f73" opacity="0.72"/>
<circle cx="650.64" cy="239.03" r="4.0" fill="#2f6f73" opacity="0.72"/>
<circle cx="669.14" cy="238.92" r="4.0" fill="#2f6f73" opacity="0.72"/>
<circle cx="631.19" cy="236.71" r="4.0" fill="#2f6f73" opacity="0.72"/>
<circle cx="672.73" cy="245.50" r="4.0" fill="#2f6f73" opacity="0.72"/>
<circle cx="726.10" cy="252.73" r="4.0" fill="#2f6f73" opacity="0.72"/>
<circle cx="669.14" cy="218.70" r="4.0" fill="#2f6f73" opacity="0.72"/>
<circle cx="700.34" cy="235.45" r="4.0" fill="#2f6f73" opacity="0.72"/>
<circle cx="642.98" cy="214.14" r="4.0" fill="#2f6f73" opacity="0.72"/>
<circle cx="584.59" cy="219.17" r="4.0" fill="#2f6f73" opacity="0.72"/>
<circle cx="654.41" cy="219.87" r="4.0" fill="#2f6f73" opacity="0.72"/>
<circle cx="610.71" cy="247.10" r="4.0" fill="#2f6f73" opacity="0.72"/>
<circle cx="593.50" cy="231.25" r="4.0" fill="#2f6f73" opacity="0.72"/>
<circle cx="614.90" cy="242.01" r="4.0" fill="#2f6f73" opacity="0.72"/>
<circle cx="610.71" cy="248.96" r="4.0" fill="#2f6f73" opacity="0.72"/>
<circle cx="619.04" cy="233.81" r="4.0" fill="#2f6f73" opacity="0.72"/>
<circle cx="631.19" cy="249.33" r="4.0" fill="#2f6f73" opacity="0.72"/>
<circle cx="672.73" cy="235.18" r="4.0" fill="#2f6f73" opacity="0.72"/>
<circle cx="536.66" cy="261.86" r="4.0" fill="#2f6f73" opacity="0.72"/>
<circle cx="597.87" cy="234.06" r="4.0" fill="#2f6f73" opacity="0.72"/>
<circle cx="602.20" cy="262.76" r="4.0" fill="#2f6f73" opacity="0.72"/>
<circle cx="561.38" cy="261.37" r="4.0" fill="#2f6f73" opacity="0.72"/>
<circle cx="623.13" cy="231.74" r="4.0" fill="#2f6f73" opacity="0.72"/>
<circle cx="551.68" cy="236.81" r="4.0" fill="#2f6f73" opacity="0.72"/>
<circle cx="606.48" cy="241.74" r="4.0" fill="#2f6f73" opacity="0.72"/>
<circle cx="606.48" cy="238.20" r="4.0" fill="#2f6f73" opacity="0.72"/>
<circle cx="570.83" cy="255.62" r="4.0" fill="#2f6f73" opacity="0.72"/>
<circle cx="602.20" cy="244.27" r="4.0" fill="#2f6f73" opacity="0.72"/>
<circle cx="580.06" cy="253.43" r="4.0" fill="#2f6f73" opacity="0.72"/>
<circle cx="654.41" cy="237.16" r="4.0" fill="#2f6f73" opacity="0.72"/>
<circle cx="627.18" cy="243.66" r="4.0" fill="#2f6f73" opacity="0.72"/>
<circle cx="722.97" cy="236.53" r="4.0" fill="#2f6f73" opacity="0.72"/>
<circle cx="758.90" cy="244.74" r="4.0" fill="#2f6f73" opacity="0.72"/>
<circle cx="642.98" cy="247.02" r="4.0" fill="#2f6f73" opacity="0.72"/>
<circle cx="623.13" cy="246.09" r="4.0" fill="#2f6f73" opacity="0.72"/>
<circle cx="679.82" cy="248.99" r="4.0" fill="#2f6f73" opacity="0.72"/>
<circle cx="683.32" cy="240.49" r="4.0" fill="#2f6f73" opacity="0.72"/>
<circle cx="658.14" cy="244.24" r="4.0" fill="#2f6f73" opacity="0.72"/>
<circle cx="521.03" cy="252.70" r="4.0" fill="#2f6f73" opacity="0.72"/>
<circle cx="499.14" cy="252.32" r="4.0" fill="#2f6f73" opacity="0.72"/>
<circle cx="487.71" cy="244.91" r="4.0" fill="#2f6f73" opacity="0.72"/>
<circle cx="504.73" cy="259.20" r="4.0" fill="#2f6f73" opacity="0.72"/>
<circle cx="541.74" cy="257.63" r="4.0" fill="#2f6f73" opacity="0.72"/>
<circle cx="457.55" cy="252.85" r="4.0" fill="#2f6f73" opacity="0.72"/>
<circle cx="475.93" cy="228.95" r="4.0" fill="#2f6f73" opacity="0.72"/>
<circle cx="463.77" cy="251.31" r="4.0" fill="#2f6f73" opacity="0.72"/>
<circle cx="469.90" cy="271.09" r="4.0" fill="#2f6f73" opacity="0.72"/>
<circle cx="536.66" cy="255.98" r="4.0" fill="#2f6f73" opacity="0.72"/>
<circle cx="444.78" cy="239.45" r="4.0" fill="#2f6f73" opacity="0.72"/>
<circle cx="444.78" cy="250.79" r="4.0" fill="#2f6f73" opacity="0.72"/>
<circle cx="526.31" cy="241.59" r="4.0" fill="#2f6f73" opacity="0.72"/>
<circle cx="481.87" cy="228.58" r="4.0" fill="#2f6f73" opacity="0.72"/>
<circle cx="487.71" cy="253.66" r="4.0" fill="#2f6f73" opacity="0.72"/>
<circle cx="487.71" cy="250.19" r="4.0" fill="#2f6f73" opacity="0.72"/>
<circle cx="631.19" cy="229.44" r="4.0" fill="#2f6f73" opacity="0.72"/>
<circle cx="627.18" cy="235.54" r="4.0" fill="#2f6f73" opacity="0.72"/>
<circle cx="676.30" cy="231.27" r="4.0" fill="#2f6f73" opacity="0.72"/>
<circle cx="654.41" cy="227.24" r="4.0" fill="#2f6f73" opacity="0.72"/>
<circle cx="654.41" cy="238.14" r="4.0" fill="#2f6f73" opacity="0.72"/>
<circle cx="646.82" cy="226.00" r="4.0" fill="#2f6f73" opacity="0.72"/>
<circle cx="639.09" cy="238.09" r="4.0" fill="#2f6f73" opacity="0.72"/>
<circle cx="589.07" cy="237.27" r="4.0" fill="#2f6f73" opacity="0.72"/>
<circle cx="697.00" cy="240.15" r="4.0" fill="#2f6f73" opacity="0.72"/>
<circle cx="642.98" cy="234.54" r="4.0" fill="#2f6f73" opacity="0.72"/>
<circle cx="706.95" cy="234.93" r="4.0" fill="#2f6f73" opacity="0.72"/>
<circle cx="551.68" cy="233.63" r="4.0" fill="#2f6f73" opacity="0.72"/>
<circle cx="716.64" cy="230.68" r="4.0" fill="#2f6f73" opacity="0.72"/>
<circle cx="635.16" cy="233.88" r="4.0" fill="#2f6f73" opacity="0.72"/>
<circle cx="536.66" cy="234.68" r="4.0" fill="#2f6f73" opacity="0.72"/>
<circle cx="504.73" cy="232.40" r="4.0" fill="#2f6f73" opacity="0.72"/>
<circle cx="481.87" cy="232.71" r="4.0" fill="#2f6f73" opacity="0.72"/>
<circle cx="451.22" cy="237.14" r="4.0" fill="#2f6f73" opacity="0.72"/>
<circle cx="475.93" cy="230.55" r="4.0" fill="#2f6f73" opacity="0.72"/>
<circle cx="556.56" cy="233.67" r="4.0" fill="#2f6f73" opacity="0.72"/>
<circle cx="373.66" cy="244.44" r="4.0" fill="#2f6f73" opacity="0.72"/>
<circle cx="556.56" cy="234.96" r="4.0" fill="#2f6f73" opacity="0.72"/>
<circle cx="463.77" cy="237.98" r="4.0" fill="#2f6f73" opacity="0.72"/>
<circle cx="373.66" cy="240.53" r="4.0" fill="#2f6f73" opacity="0.72"/>
<circle cx="438.23" cy="241.72" r="4.0" fill="#2f6f73" opacity="0.72"/>
<circle cx="469.90" cy="240.00" r="4.0" fill="#2f6f73" opacity="0.72"/>
<circle cx="481.87" cy="237.86" r="4.0" fill="#2f6f73" opacity="0.72"/>
<circle cx="475.93" cy="238.50" r="4.0" fill="#2f6f73" opacity="0.72"/>
<circle cx="381.40" cy="239.20" r="4.0" fill="#2f6f73" opacity="0.72"/>
<circle cx="580.06" cy="238.38" r="4.0" fill="#2f6f73" opacity="0.72"/>
<circle cx="650.64" cy="232.02" r="4.0" fill="#2f6f73" opacity="0.72"/>
<circle cx="570.83" cy="237.71" r="4.0" fill="#2f6f73" opacity="0.72"/>
<circle cx="614.90" cy="249.46" r="4.0" fill="#2f6f73" opacity="0.72"/>
<circle cx="619.04" cy="233.34" r="4.0" fill="#2f6f73" opacity="0.72"/>
<circle cx="546.74" cy="236.85" r="4.0" fill="#2f6f73" opacity="0.72"/>
<circle cx="410.87" cy="205.94" r="4.0" fill="#2f6f73" opacity="0.72"/>
<circle cx="551.68" cy="235.41" r="4.0" fill="#2f6f73" opacity="0.72"/>
<circle cx="493.47" cy="237.49" r="4.0" fill="#2f6f73" opacity="0.72"/>
<circle cx="661.84" cy="248.64" r="4.0" fill="#2f6f73" opacity="0.72"/>
<circle cx="602.20" cy="243.28" r="4.0" fill="#2f6f73" opacity="0.72"/>
<circle cx="735.32" cy="245.78" r="4.0" fill="#2f6f73" opacity="0.72"/>
<circle cx="551.68" cy="247.28" r="4.0" fill="#2f6f73" opacity="0.72"/>
<circle cx="561.38" cy="236.34" r="4.0" fill="#2f6f73" opacity="0.72"/>
<circle cx="556.56" cy="244.38" r="4.0" fill="#2f6f73" opacity="0.72"/>
<circle cx="639.09" cy="221.93" r="4.0" fill="#2f6f73" opacity="0.72"/>
<circle cx="676.30" cy="227.28" r="4.0" fill="#2f6f73" opacity="0.72"/>
<circle cx="654.41" cy="232.49" r="4.0" fill="#2f6f73" opacity="0.72"/>
<circle cx="606.48" cy="232.69" r="4.0" fill="#2f6f73" opacity="0.72"/>
<circle cx="606.48" cy="255.81" r="4.0" fill="#2f6f73" opacity="0.72"/>
<circle cx="722.97" cy="231.24" r="4.0" fill="#2f6f73" opacity="0.72"/>
<circle cx="665.51" cy="232.21" r="4.0" fill="#2f6f73" opacity="0.72"/>
<circle cx="783.79" cy="239.25" r="4.0" fill="#2f6f73" opacity="0.72"/>
<circle cx="676.30" cy="238.69" r="4.0" fill="#2f6f73" opacity="0.72"/>
<circle cx="722.97" cy="233.86" r="4.0" fill="#2f6f73" opacity="0.72"/>
<circle cx="593.50" cy="245.98" r="4.0" fill="#2f6f73" opacity="0.72"/>
<circle cx="679.82" cy="228.32" r="4.0" fill="#2f6f73" opacity="0.72"/>
<circle cx="654.41" cy="256.65" r="4.0" fill="#2f6f73" opacity="0.72"/>
<circle cx="669.14" cy="237.99" r="4.0" fill="#2f6f73" opacity="0.72"/>
<circle cx="646.82" cy="284.87" r="4.0" fill="#2f6f73" opacity="0.72"/>
<circle cx="679.82" cy="215.96" r="4.0" fill="#2f6f73" opacity="0.72"/>
<circle cx="772.92" cy="220.63" r="4.0" fill="#2f6f73" opacity="0.72"/>
<circle cx="669.14" cy="228.19" r="4.0" fill="#2f6f73" opacity="0.72"/>
<circle cx="722.97" cy="325.39" r="4.0" fill="#2f6f73" opacity="0.72"/>
<circle cx="764.57" cy="251.11" r="4.0" fill="#2f6f73" opacity="0.72"/>
<circle cx="758.90" cy="234.03" r="4.0" fill="#2f6f73" opacity="0.72"/>
<circle cx="729.20" cy="237.25" r="4.0" fill="#2f6f73" opacity="0.72"/>
<circle cx="778.39" cy="221.52" r="4.0" fill="#2f6f73" opacity="0.72"/>
<circle cx="750.23" cy="232.66" r="4.0" fill="#2f6f73" opacity="0.72"/>
<circle cx="676.30" cy="236.41" r="4.0" fill="#2f6f73" opacity="0.72"/>
<circle cx="710.20" cy="244.69" r="4.0" fill="#2f6f73" opacity="0.72"/>
<circle cx="661.84" cy="226.93" r="4.0" fill="#2f6f73" opacity="0.72"/>
<circle cx="738.35" cy="250.08" r="4.0" fill="#2f6f73" opacity="0.72"/>
<circle cx="758.90" cy="244.00" r="4.0" fill="#2f6f73" opacity="0.72"/>
<circle cx="686.79" cy="242.26" r="4.0" fill="#2f6f73" opacity="0.72"/>
<circle cx="510.24" cy="238.37" r="4.0" fill="#2f6f73" opacity="0.72"/>
<circle cx="531.52" cy="240.55" r="4.0" fill="#2f6f73" opacity="0.72"/>
<circle cx="584.59" cy="239.60" r="4.0" fill="#2f6f73" opacity="0.72"/>
<circle cx="410.87" cy="237.32" r="4.0" fill="#2f6f73" opacity="0.72"/>
<circle cx="566.13" cy="243.27" r="4.0" fill="#2f6f73" opacity="0.72"/>
<circle cx="410.87" cy="235.47" r="4.0" fill="#2f6f73" opacity="0.72"/>
<circle cx="451.22" cy="226.10" r="4.0" fill="#2f6f73" opacity="0.72"/>
<circle cx="424.80" cy="228.30" r="4.0" fill="#2f6f73" opacity="0.72"/>
<circle cx="424.80" cy="229.48" r="4.0" fill="#2f6f73" opacity="0.72"/>
<circle cx="314.64" cy="239.79" r="4.0" fill="#2f6f73" opacity="0.72"/>
<circle cx="373.66" cy="228.70" r="4.0" fill="#2f6f73" opacity="0.72"/>
<circle cx="526.31" cy="237.74" r="4.0" fill="#2f6f73" opacity="0.72"/>
<circle cx="286.26" cy="237.03" r="4.0" fill="#2f6f73" opacity="0.72"/>
<circle cx="403.71" cy="228.05" r="4.0" fill="#2f6f73" opacity="0.72"/>
<circle cx="381.40" cy="235.92" r="4.0" fill="#2f6f73" opacity="0.72"/>
<circle cx="145.45" cy="237.47" r="4.0" fill="#2f6f73" opacity="0.72"/>
<circle cx="255.61" cy="250.18" r="4.0" fill="#2f6f73" opacity="0.72"/>
<circle cx="266.10" cy="236.80" r="4.0" fill="#2f6f73" opacity="0.72"/>
<circle cx="357.71" cy="236.80" r="4.0" fill="#2f6f73" opacity="0.72"/>
<circle cx="295.95" cy="246.49" r="4.0" fill="#2f6f73" opacity="0.72"/>
<circle cx="172.81" cy="242.95" r="4.0" fill="#2f6f73" opacity="0.72"/>
<circle cx="373.66" cy="229.95" r="4.0" fill="#2f6f73" opacity="0.72"/>
<circle cx="396.42" cy="230.01" r="4.0" fill="#2f6f73" opacity="0.72"/>
<circle cx="233.72" cy="240.68" r="4.0" fill="#2f6f73" opacity="0.72"/>
<circle cx="541.74" cy="238.90" r="4.0" fill="#2f6f73" opacity="0.72"/>
<circle cx="396.42" cy="225.54" r="4.0" fill="#2f6f73" opacity="0.72"/>
<circle cx="381.40" cy="242.53" r="4.0" fill="#2f6f73" opacity="0.72"/>
<circle cx="388.98" cy="223.65" r="4.0" fill="#2f6f73" opacity="0.72"/>
<circle cx="424.80" cy="228.17" r="4.0" fill="#2f6f73" opacity="0.72"/>
<circle cx="444.78" cy="228.69" r="4.0" fill="#2f6f73" opacity="0.72"/>
<circle cx="381.40" cy="232.63" r="4.0" fill="#2f6f73" opacity="0.72"/>
<circle cx="561.38" cy="240.55" r="4.0" fill="#2f6f73" opacity="0.72"/>
<circle cx="410.87" cy="233.90" r="4.0" fill="#2f6f73" opacity="0.72"/>
<circle cx="444.78" cy="240.90" r="4.0" fill="#2f6f73" opacity="0.72"/>
<circle cx="526.31" cy="243.11" r="4.0" fill="#2f6f73" opacity="0.72"/>
<circle cx="431.57" cy="237.49" r="4.0" fill="#2f6f73" opacity="0.72"/>
<circle cx="597.87" cy="242.95" r="4.0" fill="#2f6f73" opacity="0.72"/>
<circle cx="623.13" cy="243.57" r="4.0" fill="#2f6f73" opacity="0.72"/>
<circle cx="619.04" cy="245.48" r="4.0" fill="#2f6f73" opacity="0.72"/>
<circle cx="614.90" cy="243.48" r="4.0" fill="#2f6f73" opacity="0.72"/>
<circle cx="650.64" cy="246.76" r="4.0" fill="#2f6f73" opacity="0.72"/>
<circle cx="614.90" cy="244.59" r="4.0" fill="#2f6f73" opacity="0.72"/>
<circle cx="623.13" cy="239.59" r="4.0" fill="#2f6f73" opacity="0.72"/>
<circle cx="614.90" cy="231.80" r="4.0" fill="#2f6f73" opacity="0.72"/>
<circle cx="602.20" cy="259.04" r="4.0" fill="#2f6f73" opacity="0.72"/>
<circle cx="669.14" cy="244.73" r="4.0" fill="#2f6f73" opacity="0.72"/>
<circle cx="627.18" cy="235.46" r="4.0" fill="#2f6f73" opacity="0.72"/>
<circle cx="635.16" cy="244.95" r="4.0" fill="#2f6f73" opacity="0.72"/>
<circle cx="650.64" cy="250.56" r="4.0" fill="#2f6f73" opacity="0.72"/>
<circle cx="631.19" cy="242.31" r="4.0" fill="#2f6f73" opacity="0.72"/>
<circle cx="658.14" cy="259.70" r="4.0" fill="#2f6f73" opacity="0.72"/>
<circle cx="719.82" cy="251.60" r="4.0" fill="#2f6f73" opacity="0.72"/>
<circle cx="770.16" cy="232.55" r="4.0" fill="#2f6f73" opacity="0.72"/>
<circle cx="669.14" cy="234.04" r="4.0" fill="#2f6f73" opacity="0.72"/>
<circle cx="669.14" cy="226.62" r="4.0" fill="#2f6f73" opacity="0.72"/>
<circle cx="646.82" cy="232.00" r="4.0" fill="#2f6f73" opacity="0.72"/>
<circle cx="639.09" cy="231.78" r="4.0" fill="#2f6f73" opacity="0.72"/>
<circle cx="654.41" cy="249.80" r="4.0" fill="#2f6f73" opacity="0.72"/>
<circle cx="646.82" cy="239.85" r="4.0" fill="#2f6f73" opacity="0.72"/>
<circle cx="639.09" cy="245.47" r="4.0" fill="#2f6f73" opacity="0.72"/>
<text x="482.5" y="688" text-anchor="middle" font-family="Arial" font-size="16">Observed Dactivity, log2(variant / WT)</text>
<text x="24" y="358.5" text-anchor="middle" font-family="Arial" font-size="16" transform="rotate(-90 24 358.5)">Predicted Dactivity, log2(variant / WT)</text>
</svg>