<svg xmlns="http://www.w3.org/2000/svg" width="900" height="720" viewBox="0 0 900 720">
<rect width="100%" height="100%" fill="#ffffff"/>
<text x="450.0" y="34" text-anchor="middle" font-family="Arial" font-size="22" font-weight="700">4TF full seed 2</text>
<text x="450.0" y="62" text-anchor="middle" font-family="Arial" font-size="16" fill="#555">Pearson r = 0.832, n = 261</text>
<rect x="105" y="92" width="755" height="533" fill="#fbfbfb" stroke="#222" stroke-width="1"/>
<line x1="105.00" y1="92" x2="105.00" y2="625" stroke="#dddddd" stroke-width="1"/>
<line x1="105" y1="625.00" x2="860" y2="625.00" stroke="#dddddd" stroke-width="1"/>
<text x="105.00" y="651" text-anchor="middle" font-family="Arial" font-size="13" fill="#444">-2</text>
<text x="92" y="629.00" text-anchor="end" font-family="Arial" font-size="13" fill="#444">-2</text>
<line x1="293.75" y1="92" x2="293.75" y2="625" stroke="#dddddd" stroke-width="1"/>
<line x1="105" y1="491.75" x2="860" y2="491.75" stroke="#dddddd" stroke-width="1"/>
<text x="293.75" y="651" text-anchor="middle" font-family="Arial" font-size="13" fill="#444">-1</text>
<text x="92" y="495.75" text-anchor="end" font-family="Arial" font-size="13" fill="#444">-1</text>
<line x1="482.50" y1="92" x2="482.50" y2="625" stroke="#dddddd" stroke-width="1"/>
<line x1="105" y1="358.50" x2="860" y2="358.50" stroke="#dddddd" stroke-width="1"/>
<text x="482.50" y="651" text-anchor="middle" font-family="Arial" font-size="13" fill="#444">-1</text>
<text x="92" y="362.50" text-anchor="end" font-family="Arial" font-size="13" fill="#444">-1</text>
<line x1="671.25" y1="92" x2="671.25" y2="625" stroke="#dddddd" stroke-width="1"/>
<line x1="105" y1="225.25" x2="860" y2="225.25" stroke="#dddddd" stroke-width="1"/>
<text x="671.25" y="651" text-anchor="middle" font-family="Arial" font-size="13" fill="#444">0</text>
<text x="92" y="229.25" text-anchor="end" font-family="Arial" font-size="13" fill="#444">0</text>
<line x1="860.00" y1="92" x2="860.00" y2="625" stroke="#dddddd" stroke-width="1"/>
<line x1="105" y1="92.00" x2="860" y2="92.00" stroke="#dddddd" stroke-width="1"/>
<text x="860.00" y="651" text-anchor="middle" font-family="Arial" font-size="13" fill="#444">1</text>
<text x="92" y="96.00" text-anchor="end" font-family="Arial" font-size="13" fill="#444">1</text>
<line x1="105" y1="625" x2="860" y2="92" stroke="#9a4f34" stroke-width="2" stroke-dasharray="7 6"/>
<circle cx="646.82" cy="242.49" r="4.0" fill="#2f6f73" opacity="0.72"/>
<circle cx="665.51" cy="213.64" r="4.0" fill="#2f6f73" opacity="0.72"/>
<circle cx="602.20" cy="252.77" r="4.0" fill="#2f6f73" opacity="0.72"/>
<circle cx="536.66" cy="223.49" r="4.0" fill="#2f6f73" opacity="0.72"/>
<circle cx="606.48" cy="283.52" r="4.0" fill="#2f6f73" opacity="0.72"/>
<circle cx="541.74" cy="283.11" r="4.0" fill="#2f6f73" opacity="0.72"/>
<circle cx="658.14" cy="282.98" r="4.0" fill="#2f6f73" opacity="0.72"/>
<circle cx="819.55" cy="207.71" r="4.0" fill="#2f6f73" opacity="0.72"/>
<circle cx="654.41" cy="270.76" r="4.0" fill="#2f6f73" opacity="0.72"/>
<circle cx="614.90" cy="255.89" r="4.0" fill="#2f6f73" opacity="0.72"/>
<circle cx="606.48" cy="269.70" r="4.0" fill="#2f6f73" opacity="0.72"/>
<circle cx="642.98" cy="216.07" r="4.0" fill="#2f6f73" opacity="0.72"/>
<circle cx="570.83" cy="229.06" r="4.0" fill="#2f6f73" opacity="0.72"/>
<circle cx="738.35" cy="220.18" r="4.0" fill="#2f6f73" opacity="0.72"/>
<circle cx="597.87" cy="262.24" r="4.0" fill="#2f6f73" opacity="0.72"/>
<circle cx="566.13" cy="248.47" r="4.0" fill="#2f6f73" opacity="0.72"/>
<circle cx="546.74" cy="262.09" r="4.0" fill="#2f6f73" opacity="0.72"/>
<circle cx="658.14" cy="250.05" r="4.0" fill="#2f6f73" opacity="0.72"/>
<circle cx="515.68" cy="251.36" r="4.0" fill="#2f6f73" opacity="0.72"/>
<circle cx="531.52" cy="222.93" r="4.0" fill="#2f6f73" opacity="0.72"/>
<circle cx="536.66" cy="239.74" r="4.0" fill="#2f6f73" opacity="0.72"/>
<circle cx="526.31" cy="247.13" r="4.0" fill="#2f6f73" opacity="0.72"/>
<circle cx="551.68" cy="241.56" r="4.0" fill="#2f6f73" opacity="0.72"/>
<circle cx="575.47" cy="234.18" r="4.0" fill="#2f6f73" opacity="0.72"/>
<circle cx="575.47" cy="224.53" r="4.0" fill="#2f6f73" opacity="0.72"/>
<circle cx="556.56" cy="238.50" r="4.0" fill="#2f6f73" opacity="0.72"/>
<circle cx="546.74" cy="239.08" r="4.0" fill="#2f6f73" opacity="0.72"/>
<circle cx="541.74" cy="223.87" r="4.0" fill="#2f6f73" opacity="0.72"/>
<circle cx="606.48" cy="257.43" r="4.0" fill="#2f6f73" opacity="0.72"/>
<circle cx="526.31" cy="242.14" r="4.0" fill="#2f6f73" opacity="0.72"/>
<circle cx="623.13" cy="266.61" r="4.0" fill="#2f6f73" opacity="0.72"/>
<circle cx="756.03" cy="203.78" r="4.0" fill="#2f6f73" opacity="0.72"/>
<circle cx="775.67" cy="179.84" r="4.0" fill="#2f6f73" opacity="0.72"/>
<circle cx="661.84" cy="224.08" r="4.0" fill="#2f6f73" opacity="0.72"/>
<circle cx="635.16" cy="214.83" r="4.0" fill="#2f6f73" opacity="0.72"/>
<circle cx="589.07" cy="235.71" r="4.0" fill="#2f6f73" opacity="0.72"/>
<circle cx="619.04" cy="248.60" r="4.0" fill="#2f6f73" opacity="0.72"/>
<circle cx="654.41" cy="222.21" r="4.0" fill="#2f6f73" opacity="0.72"/>
<circle cx="686.79" cy="210.81" r="4.0" fill="#2f6f73" opacity="0.72"/>
<circle cx="526.31" cy="344.02" r="4.0" fill="#2f6f73" opacity="0.72"/>
<circle cx="614.90" cy="280.27" r="4.0" fill="#2f6f73" opacity="0.72"/>
<circle cx="606.48" cy="281.39" r="4.0" fill="#2f6f73" opacity="0.72"/>
<circle cx="566.13" cy="333.37" r="4.0" fill="#2f6f73" opacity="0.72"/>
<circle cx="561.38" cy="373.48" r="4.0" fill="#2f6f73" opacity="0.72"/>
<circle cx="546.74" cy="318.98" r="4.0" fill="#2f6f73" opacity="0.72"/>
<circle cx="606.48" cy="316.34" r="4.0" fill="#2f6f73" opacity="0.72"/>
<circle cx="570.83" cy="354.46" r="4.0" fill="#2f6f73" opacity="0.72"/>
<circle cx="463.77" cy="328.96" r="4.0" fill="#2f6f73" opacity="0.72"/>
<circle cx="602.20" cy="267.85" r="4.0" fill="#2f6f73" opacity="0.72"/>
<circle cx="551.68" cy="267.77" r="4.0" fill="#2f6f73" opacity="0.72"/>
<circle cx="551.68" cy="319.38" r="4.0" fill="#2f6f73" opacity="0.72"/>
<circle cx="593.50" cy="196.43" r="4.0" fill="#2f6f73" opacity="0.72"/>
<circle cx="570.83" cy="207.63" r="4.0" fill="#2f6f73" opacity="0.72"/>
<circle cx="635.16" cy="220.48" r="4.0" fill="#2f6f73" opacity="0.72"/>
<circle cx="589.07" cy="213.17" r="4.0" fill="#2f6f73" opacity="0.72"/>
<circle cx="606.48" cy="198.40" r="4.0" fill="#2f6f73" opacity="0.72"/>
<circle cx="631.19" cy="189.09" r="4.0" fill="#2f6f73" opacity="0.72"/>
<circle cx="639.09" cy="199.80" r="4.0" fill="#2f6f73" opacity="0.72"/>
<circle cx="597.87" cy="304.46" r="4.0" fill="#2f6f73" opacity="0.72"/>
<circle cx="546.74" cy="339.31" r="4.0" fill="#2f6f73" opacity="0.72"/>
<circle cx="531.52" cy="213.64" r="4.0" fill="#2f6f73" opacity="0.72"/>
<circle cx="584.59" cy="203.40" r="4.0" fill="#2f6f73" opacity="0.72"/>
<circle cx="661.84" cy="220.77" r="4.0" fill="#2f6f73" opacity="0.72"/>
<circle cx="606.48" cy="261.62" r="4.0" fill="#2f6f73" opacity="0.72"/>
<circle cx="669.14" cy="245.60" r="4.0" fill="#2f6f73" opacity="0.72"/>
<circle cx="515.68" cy="263.80" r="4.0" fill="#2f6f73" opacity="0.72"/>
<circle cx="610.71" cy="245.78" r="4.0" fill="#2f6f73" opacity="0.72"/>
<circle cx="654.41" cy="228.07" r="4.0" fill="#2f6f73" opacity="0.72"/>
<circle cx="614.90" cy="251.43" r="4.0" fill="#2f6f73" opacity="0.72"/>
<circle cx="650.64" cy="225.27" r="4.0" fill="#2f6f73" opacity="0.72"/>
<circle cx="661.84" cy="241.37" r="4.0" fill="#2f6f73" opacity="0.72"/>
<circle cx="642.98" cy="230.33" r="4.0" fill="#2f6f73" opacity="0.72"/>
<circle cx="650.64" cy="238.68" r="4.0" fill="#2f6f73" opacity="0.72"/>
<circle cx="635.16" cy="223.62" r="4.0" fill="#2f6f73" opacity="0.72"/>
<circle cx="650.64" cy="246.43" r="4.0" fill="#2f6f73" opacity="0.72"/>
<circle cx="669.14" cy="247.91" r="4.0" fill="#2f6f73" opacity="0.72"/>
<circle cx="631.19" cy="236.06" r="4.0" fill="#2f6f73" opacity="0.72"/>
<circle cx="672.73" cy="228.82" r="4.0" fill="#2f6f73" opacity="0.72"/>
<circle cx="726.10" cy="237.70" r="4.0" fill="#2f6f73" opacity="0.72"/>
<circle cx="669.14" cy="198.63" r="4.0" fill="#2f6f73" opacity="0.72"/>
<circle cx="700.34" cy="216.72" r="4.0" fill="#2f6f73" opacity="0.72"/>
<circle cx="642.98" cy="228.42" r="4.0" fill="#2f6f73" opacity="0.72"/>
<circle cx="584.59" cy="226.74" r="4.0" fill="#2f6f73" opacity="0.72"/>
<circle cx="654.41" cy="250.99" r="4.0" fill="#2f6f73" opacity="0.72"/>
<circle cx="610.71" cy="248.12" r="4.0" fill="#2f6f73" opacity="0.72"/>
<circle cx="593.50" cy="241.80" r="4.0" fill="#2f6f73" opacity="0.72"/>
<circle cx="614.90" cy="255.39" r="4.0" fill="#2f6f73" opacity="0.72"/>
<circle cx="610.71" cy="232.69" r="4.0" fill="#2f6f73" opacity="0.72"/>
<circle cx="619.04" cy="197.80" r="4.0" fill="#2f6f73" opacity="0.72"/>
<circle cx="631.19" cy="241.20" r="4.0" fill="#2f6f73" opacity="0.72"/>
<circle cx="672.73" cy="206.78" r="4.0" fill="#2f6f73" opacity="0.72"/>
<circle cx="536.66" cy="235.00" r="4.0" fill="#2f6f73" opacity="0.72"/>
<circle cx="597.87" cy="224.39" r="4.0" fill="#2f6f73" opacity="0.72"/>
<circle cx="602.20" cy="264.72" r="4.0" fill="#2f6f73" opacity="0.72"/>
<circle cx="561.38" cy="249.61" r="4.0" fill="#2f6f73" opacity="0.72"/>
<circle cx="623.13" cy="248.90" r="4.0" fill="#2f6f73" opacity="0.72"/>
<circle cx="551.68" cy="252.55" r="4.0" fill="#2f6f73" opacity="0.72"/>
<circle cx="606.48" cy="230.42" r="4.0" fill="#2f6f73" opacity="0.72"/>
<circle cx="606.48" cy="251.80" r="4.0" fill="#2f6f73" opacity="0.72"/>
<circle cx="570.83" cy="258.03" r="4.0" fill="#2f6f73" opacity="0.72"/>
<circle cx="602.20" cy="248.62" r="4.0" fill="#2f6f73" opacity="0.72"/>
<circle cx="580.06" cy="262.28" r="4.0" fill="#2f6f73" opacity="0.72"/>
<circle cx="654.41" cy="246.93" r="4.0" fill="#2f6f73" opacity="0.72"/>
<circle cx="627.18" cy="228.34" r="4.0" fill="#2f6f73" opacity="0.72"/>
<circle cx="722.97" cy="219.37" r="4.0" fill="#2f6f73" opacity="0.72"/>
<circle cx="758.90" cy="247.05" r="4.0" fill="#2f6f73" opacity="0.72"/>
<circle cx="642.98" cy="262.07" r="4.0" fill="#2f6f73" opacity="0.72"/>
<circle cx="623.13" cy="231.63" r="4.0" fill="#2f6f73" opacity="0.72"/>
<circle cx="679.82" cy="123.08" r="4.0" fill="#2f6f73" opacity="0.72"/>
<circle cx="683.32" cy="222.95" r="4.0" fill="#2f6f73" opacity="0.72"/>
<circle cx="658.14" cy="232.83" r="4.0" fill="#2f6f73" opacity="0.72"/>
<circle cx="521.03" cy="306.65" r="4.0" fill="#2f6f73" opacity="0.72"/>
<circle cx="499.14" cy="294.13" r="4.0" fill="#2f6f73" opacity="0.72"/>
<circle cx="487.71" cy="293.73" r="4.0" fill="#2f6f73" opacity="0.72"/>
<circle cx="504.73" cy="302.70" r="4.0" fill="#2f6f73" opacity="0.72"/>
<circle cx="541.74" cy="314.62" r="4.0" fill="#2f6f73" opacity="0.72"/>
<circle cx="457.55" cy="295.60" r="4.0" fill="#2f6f73" opacity="0.72"/>
<circle cx="475.93" cy="290.32" r="4.0" fill="#2f6f73" opacity="0.72"/>
<circle cx="463.77" cy="304.31" r="4.0" fill="#2f6f73" opacity="0.72"/>
<circle cx="469.90" cy="328.45" r="4.0" fill="#2f6f73" opacity="0.72"/>
<circle cx="536.66" cy="289.40" r="4.0" fill="#2f6f73" opacity="0.72"/>
<circle cx="444.78" cy="302.99" r="4.0" fill="#2f6f73" opacity="0.72"/>
<circle cx="444.78" cy="336.01" r="4.0" fill="#2f6f73" opacity="0.72"/>
<circle cx="526.31" cy="303.20" r="4.0" fill="#2f6f73" opacity="0.72"/>
<circle cx="481.87" cy="278.61" r="4.0" fill="#2f6f73" opacity="0.72"/>
<circle cx="487.71" cy="303.87" r="4.0" fill="#2f6f73" opacity="0.72"/>
<circle cx="487.71" cy="288.79" r="4.0" fill="#2f6f73" opacity="0.72"/>
<circle cx="631.19" cy="246.20" r="4.0" fill="#2f6f73" opacity="0.72"/>
<circle cx="627.18" cy="291.31" r="4.0" fill="#2f6f73" opacity="0.72"/>
<circle cx="676.30" cy="239.44" r="4.0" fill="#2f6f73" opacity="0.72"/>
<circle cx="654.41" cy="234.40" r="4.0" fill="#2f6f73" opacity="0.72"/>
<circle cx="654.41" cy="253.24" r="4.0" fill="#2f6f73" opacity="0.72"/>
<circle cx="646.82" cy="213.64" r="4.0" fill="#2f6f73" opacity="0.72"/>
<circle cx="639.09" cy="234.82" r="4.0" fill="#2f6f73" opacity="0.72"/>
<circle cx="589.07" cy="234.88" r="4.0" fill="#2f6f73" opacity="0.72"/>
<circle cx="697.00" cy="253.60" r="4.0" fill="#2f6f73" opacity="0.72"/>
<circle cx="642.98" cy="231.72" r="4.0" fill="#2f6f73" opacity="0.72"/>
<circle cx="706.95" cy="254.40" r="4.0" fill="#2f6f73" opacity="0.72"/>
<circle cx="551.68" cy="243.24" r="4.0" fill="#2f6f73" opacity="0.72"/>
<circle cx="716.64" cy="236.62" r="4.0" fill="#2f6f73" opacity="0.72"/>
<circle cx="635.16" cy="219.94" r="4.0" fill="#2f6f73" opacity="0.72"/>
<circle cx="536.66" cy="350.35" r="4.0" fill="#2f6f73" opacity="0.72"/>
<circle cx="504.73" cy="285.70" r="4.0" fill="#2f6f73" opacity="0.72"/>
<circle cx="481.87" cy="333.58" r="4.0" fill="#2f6f73" opacity="0.72"/>
<circle cx="451.22" cy="371.50" r="4.0" fill="#2f6f73" opacity="0.72"/>
<circle cx="475.93" cy="284.28" r="4.0" fill="#2f6f73" opacity="0.72"/>
<circle cx="556.56" cy="247.52" r="4.0" fill="#2f6f73" opacity="0.72"/>
<circle cx="373.66" cy="362.81" r="4.0" fill="#2f6f73" opacity="0.72"/>
<circle cx="556.56" cy="318.23" r="4.0" fill="#2f6f73" opacity="0.72"/>
<circle cx="463.77" cy="329.96" r="4.0" fill="#2f6f73" opacity="0.72"/>
<circle cx="373.66" cy="368.61" r="4.0" fill="#2f6f73" opacity="0.72"/>
<circle cx="438.23" cy="383.28" r="4.0" fill="#2f6f73" opacity="0.72"/>
<circle cx="469.90" cy="320.28" r="4.0" fill="#2f6f73" opacity="0.72"/>
<circle cx="481.87" cy="313.96" r="4.0" fill="#2f6f73" opacity="0.72"/>
<circle cx="475.93" cy="365.05" r="4.0" fill="#2f6f73" opacity="0.72"/>
<circle cx="381.40" cy="355.00" r="4.0" fill="#2f6f73" opacity="0.72"/>
<circle cx="580.06" cy="294.72" r="4.0" fill="#2f6f73" opacity="0.72"/>
<circle cx="650.64" cy="282.02" r="4.0" fill="#2f6f73" opacity="0.72"/>
<circle cx="570.83" cy="325.16" r="4.0" fill="#2f6f73" opacity="0.72"/>
<circle cx="614.90" cy="200.11" r="4.0" fill="#2f6f73" opacity="0.72"/>
<circle cx="619.04" cy="214.08" r="4.0" fill="#2f6f73" opacity="0.72"/>
<circle cx="546.74" cy="237.35" r="4.0" fill="#2f6f73" opacity="0.72"/>
<circle cx="410.87" cy="341.50" r="4.0" fill="#2f6f73" opacity="0.72"/>
<circle cx="551.68" cy="245.52" r="4.0" fill="#2f6f73" opacity="0.72"/>
<circle cx="493.47" cy="228.56" r="4.0" fill="#2f6f73" opacity="0.72"/>
<circle cx="661.84" cy="187.48" r="4.0" fill="#2f6f73" opacity="0.72"/>
<circle cx="602.20" cy="229.35" r="4.0" fill="#2f6f73" opacity="0.72"/>
<circle cx="735.32" cy="177.21" r="4.0" fill="#2f6f73" opacity="0.72"/>
<circle cx="551.68" cy="242.49" r="4.0" fill="#2f6f73" opacity="0.72"/>
<circle cx="561.38" cy="256.09" r="4.0" fill="#2f6f73" opacity="0.72"/>
<circle cx="556.56" cy="230.75" r="4.0" fill="#2f6f73" opacity="0.72"/>
<circle cx="639.09" cy="226.18" r="4.0" fill="#2f6f73" opacity="0.72"/>
<circle cx="676.30" cy="238.87" r="4.0" fill="#2f6f73" opacity="0.72"/>
<circle cx="654.41" cy="240.25" r="4.0" fill="#2f6f73" opacity="0.72"/>
<circle cx="606.48" cy="216.12" r="4.0" fill="#2f6f73" opacity="0.72"/>
<circle cx="606.48" cy="239.52" r="4.0" fill="#2f6f73" opacity="0.72"/>
<circle cx="722.97" cy="213.89" r="4.0" fill="#2f6f73" opacity="0.72"/>
<circle cx="665.51" cy="234.17" r="4.0" fill="#2f6f73" opacity="0.72"/>
<circle cx="783.79" cy="238.56" r="4.0" fill="#2f6f73" opacity="0.72"/>
<circle cx="676.30" cy="222.00" r="4.0" fill="#2f6f73" opacity="0.72"/>
<circle cx="722.97" cy="214.68" r="4.0" fill="#2f6f73" opacity="0.72"/>
<circle cx="593.50" cy="246.28" r="4.0" fill="#2f6f73" opacity="0.72"/>
<circle cx="679.82" cy="217.17" r="4.0" fill="#2f6f73" opacity="0.72"/>
<circle cx="654.41" cy="259.57" r="4.0" fill="#2f6f73" opacity="0.72"/>
<circle cx="669.14" cy="249.96" r="4.0" fill="#2f6f73" opacity="0.72"/>
<circle cx="646.82" cy="257.24" r="4.0" fill="#2f6f73" opacity="0.72"/>
<circle cx="679.82" cy="193.22" r="4.0" fill="#2f6f73" opacity="0.72"/>
<circle cx="772.92" cy="180.96" r="4.0" fill="#2f6f73" opacity="0.72"/>
<circle cx="669.14" cy="210.50" r="4.0" fill="#2f6f73" opacity="0.72"/>
<circle cx="722.97" cy="261.76" r="4.0" fill="#2f6f73" opacity="0.72"/>
<circle cx="764.57" cy="267.90" r="4.0" fill="#2f6f73" opacity="0.72"/>
<circle cx="758.90" cy="187.90" r="4.0" fill="#2f6f73" opacity="0.72"/>
<circle cx="729.20" cy="177.93" r="4.0" fill="#2f6f73" opacity="0.72"/>
<circle cx="778.39" cy="147.94" r="4.0" fill="#2f6f73" opacity="0.72"/>
<circle cx="750.23" cy="204.41" r="4.0" fill="#2f6f73" opacity="0.72"/>
<circle cx="676.30" cy="175.83" r="4.0" fill="#2f6f73" opacity="0.72"/>
<circle cx="710.20" cy="201.25" r="4.0" fill="#2f6f73" opacity="0.72"/>
<circle cx="661.84" cy="188.15" r="4.0" fill="#2f6f73" opacity="0.72"/>
<circle cx="738.35" cy="205.72" r="4.0" fill="#2f6f73" opacity="0.72"/>
<circle cx="758.90" cy="209.45" r="4.0" fill="#2f6f73" opacity="0.72"/>
<circle cx="686.79" cy="207.23" r="4.0" fill="#2f6f73" opacity="0.72"/>
<circle cx="510.24" cy="233.43" r="4.0" fill="#2f6f73" opacity="0.72"/>
<circle cx="531.52" cy="253.02" r="4.0" fill="#2f6f73" opacity="0.72"/>
<circle cx="584.59" cy="242.73" r="4.0" fill="#2f6f73" opacity="0.72"/>
<circle cx="410.87" cy="300.89" r="4.0" fill="#2f6f73" opacity="0.72"/>
<circle cx="566.13" cy="287.59" r="4.0" fill="#2f6f73" opacity="0.72"/>
<circle cx="410.87" cy="278.81" r="4.0" fill="#2f6f73" opacity="0.72"/>
<circle cx="451.22" cy="335.36" r="4.0" fill="#2f6f73" opacity="0.72"/>
<circle cx="424.80" cy="339.38" r="4.0" fill="#2f6f73" opacity="0.72"/>
<circle cx="424.80" cy="364.51" r="4.0" fill="#2f6f73" opacity="0.72"/>
<circle cx="314.64" cy="395.27" r="4.0" fill="#2f6f73" opacity="0.72"/>
<circle cx="373.66" cy="355.92" r="4.0" fill="#2f6f73" opacity="0.72"/>
<circle cx="526.31" cy="261.94" r="4.0" fill="#2f6f73" opacity="0.72"/>
<circle cx="286.26" cy="463.78" r="4.0" fill="#2f6f73" opacity="0.72"/>
<circle cx="403.71" cy="419.52" r="4.0" fill="#2f6f73" opacity="0.72"/>
<circle cx="381.40" cy="436.20" r="4.0" fill="#2f6f73" opacity="0.72"/>
<circle cx="145.45" cy="490.59" r="4.0" fill="#2f6f73" opacity="0.72"/>
<circle cx="255.61" cy="502.28" r="4.0" fill="#2f6f73" opacity="0.72"/>
<circle cx="266.10" cy="437.59" r="4.0" fill="#2f6f73" opacity="0.72"/>
<circle cx="357.71" cy="443.52" r="4.0" fill="#2f6f73" opacity="0.72"/>
<circle cx="295.95" cy="502.20" r="4.0" fill="#2f6f73" opacity="0.72"/>
<circle cx="172.81" cy="490.59" r="4.0" fill="#2f6f73" opacity="0.72"/>
<circle cx="373.66" cy="429.12" r="4.0" fill="#2f6f73" opacity="0.72"/>
<circle cx="396.42" cy="422.01" r="4.0" fill="#2f6f73" opacity="0.72"/>
<circle cx="233.72" cy="457.20" r="4.0" fill="#2f6f73" opacity="0.72"/>
<circle cx="541.74" cy="260.55" r="4.0" fill="#2f6f73" opacity="0.72"/>
<circle cx="396.42" cy="360.64" r="4.0" fill="#2f6f73" opacity="0.72"/>
<circle cx="381.40" cy="395.90" r="4.0" fill="#2f6f73" opacity="0.72"/>
<circle cx="388.98" cy="364.95" r="4.0" fill="#2f6f73" opacity="0.72"/>
<circle cx="424.80" cy="332.62" r="4.0" fill="#2f6f73" opacity="0.72"/>
<circle cx="444.78" cy="360.07" r="4.0" fill="#2f6f73" opacity="0.72"/>
<circle cx="381.40" cy="299.70" r="4.0" fill="#2f6f73" opacity="0.72"/>
<circle cx="561.38" cy="290.19" r="4.0" fill="#2f6f73" opacity="0.72"/>
<circle cx="410.87" cy="313.65" r="4.0" fill="#2f6f73" opacity="0.72"/>
<circle cx="444.78" cy="251.90" r="4.0" fill="#2f6f73" opacity="0.72"/>
<circle cx="526.31" cy="266.26" r="4.0" fill="#2f6f73" opacity="0.72"/>
<circle cx="431.57" cy="239.82" r="4.0" fill="#2f6f73" opacity="0.72"/>
<circle cx="597.87" cy="238.50" r="4.0" fill="#2f6f73" opacity="0.72"/>
<circle cx="623.13" cy="242.98" r="4.0" fill="#2f6f73" opacity="0.72"/>
<circle cx="619.04" cy="231.83" r="4.0" fill="#2f6f73" opacity="0.72"/>
<circle cx="614.90" cy="235.48" r="4.0" fill="#2f6f73" opacity="0.72"/>
<circle cx="650.64" cy="219.47" r="4.0" fill="#2f6f73" opacity="0.72"/>
<circle cx="614.90" cy="227.00" r="4.0" fill="#2f6f73" opacity="0.72"/>
<circle cx="623.13" cy="204.28" r="4.0" fill="#2f6f73" opacity="0.72"/>
<circle cx="614.90" cy="207.35" r="4.0" fill="#2f6f73" opacity="0.72"/>
<circle cx="602.20" cy="230.01" r="4.0" fill="#2f6f73" opacity="0.72"/>
<circle cx="669.14" cy="218.27" r="4.0" fill="#2f6f73" opacity="0.72"/>
<circle cx="627.18" cy="237.06" r="4.0" fill="#2f6f73" opacity="0.72"/>
<circle cx="635.16" cy="249.31" r="4.0" fill="#2f6f73" opacity="0.72"/>
<circle cx="650.64" cy="237.93" r="4.0" fill="#2f6f73" opacity="0.72"/>
<circle cx="631.19" cy="198.38" r="4.0" fill="#2f6f73" opacity="0.72"/>
<circle cx="658.14" cy="210.13" r="4.0" fill="#2f6f73" opacity="0.72"/>
<circle cx="719.82" cy="222.28" r="4.0" fill="#2f6f73" opacity="0.72"/>
<circle cx="770.16" cy="212.36" r="4.0" fill="#2f6f73" opacity="0.72"/>
<circle cx="669.14" cy="211.21" r="4.0" fill="#2f6f73" opacity="0.72"/>
<circle cx="669.14" cy="234.62" r="4.0" fill="#2f6f73" opacity="0.72"/>
<circle cx="646.82" cy="208.76" r="4.0" fill="#2f6f73" opacity="0.72"/>
<circle cx="639.09" cy="230.89" r="4.0" fill="#2f6f73" opacity="0.72"/>
<circle cx="654.41" cy="207.61" r="4.0" fill="#2f6f73" opacity="0.72"/>
<circle cx="646.82" cy="210.24" r="4.0" fill="#2f6f73" opacity="0.72"/>
<circle cx="639.09" cy="232.75" r="4.0" fill="#2f6f73" opacity="0.72"/>
<text x="482.5" y="688" text-anchor="middle" font-family="Arial" font-size="16">Observed Dactivity, log2(variant / WT)</text>
<text x="24" y="358.5" text-anchor="middle" font-family="Arial" font-size="16" transform="rotate(-90 24 358.5)">Predicted Dactivity, log2(variant / WT)</text>
</svg>