<svg xmlns="http://www.w3.org/2000/svg" width="1160" height="696" viewBox="0 0 1160 696">
<rect width="100%" height="100%" fill="#ffffff"/>
<text x="580.0" y="34" text-anchor="middle" font-family="Arial" font-size="22" font-weight="700">Figure 5B/C/D/I/J: TFBS occupancy around CRE1 and CRE4</text>
<text x="76" y="110" text-anchor="end" font-family="Arial" font-size="13">synCRE_Promega_0</text>
<line x1="88" y1="110" x2="1125" y2="110" stroke="#ddd"/>
<rect x="170.96" y="72" width="110.61" height="78" fill="#f2e7d8" opacity="0.65"/>
<text x="226.27" y="84" text-anchor="middle" font-family="Arial" font-size="11" fill="#6b4a29">CRE1</text>
<rect x="972.91" y="72" width="110.61" height="78" fill="#f2e7d8" opacity="0.65"/>
<text x="1028.21" y="84" text-anchor="middle" font-family="Arial" font-size="11" fill="#6b4a29">CRE4</text>
<rect x="226.27" y="91" width="124.44" height="10" fill="#4c78a8" opacity="0.15"/>
<rect x="323.05" y="91" width="124.44" height="10" fill="#4c78a8" opacity="0.15"/>
<rect x="336.88" y="91" width="124.44" height="10" fill="#4c78a8" opacity="0.15"/>
<rect x="378.36" y="91" width="124.44" height="10" fill="#4c78a8" opacity="0.15"/>
<rect x="433.67" y="91" width="124.44" height="10" fill="#4c78a8" opacity="0.15"/>
<rect x="613.41" y="91" width="124.44" height="10" fill="#4c78a8" opacity="0.15"/>
<rect x="793.16" y="91" width="124.44" height="10" fill="#4c78a8" opacity="0.15"/>
<rect x="820.81" y="91" width="124.44" height="10" fill="#4c78a8" opacity="0.15"/>
<rect x="1097.35" y="91" width="124.44" height="10" fill="#4c78a8" opacity="0.15"/>
<rect x="88.00" y="106" width="179.75" height="10" fill="#72b7b2" opacity="0.63"/>
<rect x="88.00" y="106" width="179.75" height="10" fill="#72b7b2" opacity="0.66"/>
<rect x="585.76" y="106" width="179.75" height="10" fill="#72b7b2" opacity="0.34"/>
<rect x="585.76" y="106" width="179.75" height="10" fill="#72b7b2" opacity="0.46"/>
<rect x="115.65" y="121" width="110.61" height="10" fill="#9a4f34" opacity="0.32"/>
<rect x="129.48" y="121" width="110.61" height="10" fill="#9a4f34" opacity="0.22"/>
<rect x="447.49" y="121" width="110.61" height="10" fill="#9a4f34" opacity="0.30"/>
<rect x="613.41" y="121" width="110.61" height="10" fill="#9a4f34" opacity="0.49"/>
<rect x="627.24" y="121" width="110.61" height="10" fill="#9a4f34" opacity="0.15"/>
<rect x="917.60" y="121" width="110.61" height="10" fill="#9a4f34" opacity="0.42"/>
<rect x="931.43" y="121" width="110.61" height="10" fill="#9a4f34" opacity="0.42"/>
<rect x="101.83" y="136" width="124.44" height="10" fill="#b279a2" opacity="0.28"/>
<rect x="129.48" y="136" width="124.44" height="10" fill="#b279a2" opacity="0.20"/>
<rect x="599.59" y="136" width="124.44" height="10" fill="#b279a2" opacity="0.28"/>
<line x1="170.96" y1="72" x2="170.96" y2="154" stroke="#c7a66f" stroke-dasharray="3 3"/>
<line x1="267.75" y1="72" x2="267.75" y2="154" stroke="#c7a66f" stroke-dasharray="3 3"/>
<line x1="972.91" y1="72" x2="972.91" y2="154" stroke="#c7a66f" stroke-dasharray="3 3"/>
<line x1="1069.69" y1="72" x2="1069.69" y2="154" stroke="#c7a66f" stroke-dasharray="3 3"/>
<text x="76" y="228" text-anchor="end" font-family="Arial" font-size="13">pos 14_A</text>
<line x1="88" y1="228" x2="1125" y2="228" stroke="#ddd"/>
<rect x="170.96" y="190" width="110.61" height="78" fill="#f2e7d8" opacity="0.65"/>
<text x="226.27" y="202" text-anchor="middle" font-family="Arial" font-size="11" fill="#6b4a29">CRE1</text>
<rect x="972.91" y="190" width="110.61" height="78" fill="#f2e7d8" opacity="0.65"/>
<text x="1028.21" y="202" text-anchor="middle" font-family="Arial" font-size="11" fill="#6b4a29">CRE4</text>
<rect x="157.13" y="209" width="124.44" height="10" fill="#4c78a8" opacity="0.15"/>
<rect x="226.27" y="209" width="124.44" height="10" fill="#4c78a8" opacity="0.15"/>
<rect x="323.05" y="209" width="124.44" height="10" fill="#4c78a8" opacity="0.15"/>
<rect x="336.88" y="209" width="124.44" height="10" fill="#4c78a8" opacity="0.15"/>
<rect x="378.36" y="209" width="124.44" height="10" fill="#4c78a8" opacity="0.15"/>
<rect x="433.67" y="209" width="124.44" height="10" fill="#4c78a8" opacity="0.15"/>
<rect x="613.41" y="209" width="124.44" height="10" fill="#4c78a8" opacity="0.15"/>
<rect x="793.16" y="209" width="124.44" height="10" fill="#4c78a8" opacity="0.15"/>
<rect x="820.81" y="209" width="124.44" height="10" fill="#4c78a8" opacity="0.15"/>
<rect x="1097.35" y="209" width="124.44" height="10" fill="#4c78a8" opacity="0.15"/>
<rect x="585.76" y="224" width="179.75" height="10" fill="#72b7b2" opacity="0.34"/>
<rect x="585.76" y="224" width="179.75" height="10" fill="#72b7b2" opacity="0.46"/>
<rect x="115.65" y="239" width="110.61" height="10" fill="#9a4f34" opacity="0.18"/>
<rect x="129.48" y="239" width="110.61" height="10" fill="#9a4f34" opacity="0.17"/>
<rect x="447.49" y="239" width="110.61" height="10" fill="#9a4f34" opacity="0.30"/>
<rect x="613.41" y="239" width="110.61" height="10" fill="#9a4f34" opacity="0.49"/>
<rect x="627.24" y="239" width="110.61" height="10" fill="#9a4f34" opacity="0.15"/>
<rect x="917.60" y="239" width="110.61" height="10" fill="#9a4f34" opacity="0.42"/>
<rect x="931.43" y="239" width="110.61" height="10" fill="#9a4f34" opacity="0.42"/>
<rect x="599.59" y="254" width="124.44" height="10" fill="#b279a2" opacity="0.28"/>
<line x1="170.96" y1="190" x2="170.96" y2="272" stroke="#c7a66f" stroke-dasharray="3 3"/>
<line x1="267.75" y1="190" x2="267.75" y2="272" stroke="#c7a66f" stroke-dasharray="3 3"/>
<line x1="972.91" y1="190" x2="972.91" y2="272" stroke="#c7a66f" stroke-dasharray="3 3"/>
<line x1="1069.69" y1="190" x2="1069.69" y2="272" stroke="#c7a66f" stroke-dasharray="3 3"/>
<text x="76" y="346" text-anchor="end" font-family="Arial" font-size="13">pos 72_A</text>
<line x1="88" y1="346" x2="1125" y2="346" stroke="#ddd"/>
<rect x="170.96" y="308" width="110.61" height="78" fill="#f2e7d8" opacity="0.65"/>
<text x="226.27" y="320" text-anchor="middle" font-family="Arial" font-size="11" fill="#6b4a29">CRE1</text>
<rect x="972.91" y="308" width="110.61" height="78" fill="#f2e7d8" opacity="0.65"/>
<text x="1028.21" y="320" text-anchor="middle" font-family="Arial" font-size="11" fill="#6b4a29">CRE4</text>
<rect x="226.27" y="327" width="124.44" height="10" fill="#4c78a8" opacity="0.15"/>
<rect x="323.05" y="327" width="124.44" height="10" fill="#4c78a8" opacity="0.15"/>
<rect x="336.88" y="327" width="124.44" height="10" fill="#4c78a8" opacity="0.15"/>
<rect x="378.36" y="327" width="124.44" height="10" fill="#4c78a8" opacity="0.15"/>
<rect x="433.67" y="327" width="124.44" height="10" fill="#4c78a8" opacity="0.15"/>
<rect x="613.41" y="327" width="124.44" height="10" fill="#4c78a8" opacity="0.15"/>
<rect x="793.16" y="327" width="124.44" height="10" fill="#4c78a8" opacity="0.15"/>
<rect x="820.81" y="327" width="124.44" height="10" fill="#4c78a8" opacity="0.15"/>
<rect x="959.08" y="327" width="124.44" height="10" fill="#4c78a8" opacity="0.15"/>
<rect x="1097.35" y="327" width="124.44" height="10" fill="#4c78a8" opacity="0.15"/>
<rect x="88.00" y="342" width="179.75" height="10" fill="#72b7b2" opacity="0.63"/>
<rect x="88.00" y="342" width="179.75" height="10" fill="#72b7b2" opacity="0.66"/>
<rect x="585.76" y="342" width="179.75" height="10" fill="#72b7b2" opacity="0.34"/>
<rect x="585.76" y="342" width="179.75" height="10" fill="#72b7b2" opacity="0.46"/>
<rect x="115.65" y="357" width="110.61" height="10" fill="#9a4f34" opacity="0.32"/>
<rect x="129.48" y="357" width="110.61" height="10" fill="#9a4f34" opacity="0.22"/>
<rect x="447.49" y="357" width="110.61" height="10" fill="#9a4f34" opacity="0.30"/>
<rect x="613.41" y="357" width="110.61" height="10" fill="#9a4f34" opacity="0.49"/>
<rect x="627.24" y="357" width="110.61" height="10" fill="#9a4f34" opacity="0.15"/>
<rect x="917.60" y="357" width="110.61" height="10" fill="#9a4f34" opacity="0.15"/>
<rect x="931.43" y="357" width="110.61" height="10" fill="#9a4f34" opacity="0.15"/>
<rect x="101.83" y="372" width="124.44" height="10" fill="#b279a2" opacity="0.28"/>
<rect x="129.48" y="372" width="124.44" height="10" fill="#b279a2" opacity="0.20"/>
<rect x="599.59" y="372" width="124.44" height="10" fill="#b279a2" opacity="0.28"/>
<line x1="170.96" y1="308" x2="170.96" y2="390" stroke="#c7a66f" stroke-dasharray="3 3"/>
<line x1="267.75" y1="308" x2="267.75" y2="390" stroke="#c7a66f" stroke-dasharray="3 3"/>
<line x1="972.91" y1="308" x2="972.91" y2="390" stroke="#c7a66f" stroke-dasharray="3 3"/>
<line x1="1069.69" y1="308" x2="1069.69" y2="390" stroke="#c7a66f" stroke-dasharray="3 3"/>
<text x="76" y="464" text-anchor="end" font-family="Arial" font-size="13">pos 14_T</text>
<line x1="88" y1="464" x2="1125" y2="464" stroke="#ddd"/>
<rect x="170.96" y="426" width="110.61" height="78" fill="#f2e7d8" opacity="0.65"/>
<text x="226.27" y="438" text-anchor="middle" font-family="Arial" font-size="11" fill="#6b4a29">CRE1</text>
<rect x="972.91" y="426" width="110.61" height="78" fill="#f2e7d8" opacity="0.65"/>
<text x="1028.21" y="438" text-anchor="middle" font-family="Arial" font-size="11" fill="#6b4a29">CRE4</text>
<rect x="226.27" y="445" width="124.44" height="10" fill="#4c78a8" opacity="0.15"/>
<rect x="323.05" y="445" width="124.44" height="10" fill="#4c78a8" opacity="0.15"/>
<rect x="336.88" y="445" width="124.44" height="10" fill="#4c78a8" opacity="0.15"/>
<rect x="378.36" y="445" width="124.44" height="10" fill="#4c78a8" opacity="0.15"/>
<rect x="433.67" y="445" width="124.44" height="10" fill="#4c78a8" opacity="0.15"/>
<rect x="613.41" y="445" width="124.44" height="10" fill="#4c78a8" opacity="0.15"/>
<rect x="793.16" y="445" width="124.44" height="10" fill="#4c78a8" opacity="0.15"/>
<rect x="820.81" y="445" width="124.44" height="10" fill="#4c78a8" opacity="0.15"/>
<rect x="1097.35" y="445" width="124.44" height="10" fill="#4c78a8" opacity="0.15"/>
<rect x="88.00" y="460" width="179.75" height="10" fill="#72b7b2" opacity="0.28"/>
<rect x="88.00" y="460" width="179.75" height="10" fill="#72b7b2" opacity="0.31"/>
<rect x="585.76" y="460" width="179.75" height="10" fill="#72b7b2" opacity="0.34"/>
<rect x="585.76" y="460" width="179.75" height="10" fill="#72b7b2" opacity="0.46"/>
<rect x="115.65" y="475" width="110.61" height="10" fill="#9a4f34" opacity="0.28"/>
<rect x="129.48" y="475" width="110.61" height="10" fill="#9a4f34" opacity="0.18"/>
<rect x="447.49" y="475" width="110.61" height="10" fill="#9a4f34" opacity="0.30"/>
<rect x="613.41" y="475" width="110.61" height="10" fill="#9a4f34" opacity="0.49"/>
<rect x="627.24" y="475" width="110.61" height="10" fill="#9a4f34" opacity="0.15"/>
<rect x="917.60" y="475" width="110.61" height="10" fill="#9a4f34" opacity="0.42"/>
<rect x="931.43" y="475" width="110.61" height="10" fill="#9a4f34" opacity="0.42"/>
<rect x="599.59" y="490" width="124.44" height="10" fill="#b279a2" opacity="0.28"/>
<line x1="170.96" y1="426" x2="170.96" y2="508" stroke="#c7a66f" stroke-dasharray="3 3"/>
<line x1="267.75" y1="426" x2="267.75" y2="508" stroke="#c7a66f" stroke-dasharray="3 3"/>
<line x1="972.91" y1="426" x2="972.91" y2="508" stroke="#c7a66f" stroke-dasharray="3 3"/>
<line x1="1069.69" y1="426" x2="1069.69" y2="508" stroke="#c7a66f" stroke-dasharray="3 3"/>
<text x="76" y="582" text-anchor="end" font-family="Arial" font-size="13">pos 72_T</text>
<line x1="88" y1="582" x2="1125" y2="582" stroke="#ddd"/>
<rect x="170.96" y="544" width="110.61" height="78" fill="#f2e7d8" opacity="0.65"/>
<text x="226.27" y="556" text-anchor="middle" font-family="Arial" font-size="11" fill="#6b4a29">CRE1</text>
<rect x="972.91" y="544" width="110.61" height="78" fill="#f2e7d8" opacity="0.65"/>
<text x="1028.21" y="556" text-anchor="middle" font-family="Arial" font-size="11" fill="#6b4a29">CRE4</text>
<rect x="226.27" y="563" width="124.44" height="10" fill="#4c78a8" opacity="0.15"/>
<rect x="323.05" y="563" width="124.44" height="10" fill="#4c78a8" opacity="0.15"/>
<rect x="336.88" y="563" width="124.44" height="10" fill="#4c78a8" opacity="0.15"/>
<rect x="378.36" y="563" width="124.44" height="10" fill="#4c78a8" opacity="0.15"/>
<rect x="433.67" y="563" width="124.44" height="10" fill="#4c78a8" opacity="0.15"/>
<rect x="613.41" y="563" width="124.44" height="10" fill="#4c78a8" opacity="0.15"/>
<rect x="793.16" y="563" width="124.44" height="10" fill="#4c78a8" opacity="0.15"/>
<rect x="820.81" y="563" width="124.44" height="10" fill="#4c78a8" opacity="0.15"/>
<rect x="1097.35" y="563" width="124.44" height="10" fill="#4c78a8" opacity="0.15"/>
<rect x="88.00" y="578" width="179.75" height="10" fill="#72b7b2" opacity="0.63"/>
<rect x="88.00" y="578" width="179.75" height="10" fill="#72b7b2" opacity="0.66"/>
<rect x="585.76" y="578" width="179.75" height="10" fill="#72b7b2" opacity="0.34"/>
<rect x="585.76" y="578" width="179.75" height="10" fill="#72b7b2" opacity="0.46"/>
<rect x="115.65" y="593" width="110.61" height="10" fill="#9a4f34" opacity="0.32"/>
<rect x="129.48" y="593" width="110.61" height="10" fill="#9a4f34" opacity="0.22"/>
<rect x="447.49" y="593" width="110.61" height="10" fill="#9a4f34" opacity="0.30"/>
<rect x="613.41" y="593" width="110.61" height="10" fill="#9a4f34" opacity="0.49"/>
<rect x="627.24" y="593" width="110.61" height="10" fill="#9a4f34" opacity="0.15"/>
<rect x="917.60" y="593" width="110.61" height="10" fill="#9a4f34" opacity="0.19"/>
<rect x="931.43" y="593" width="110.61" height="10" fill="#9a4f34" opacity="0.19"/>
<rect x="101.83" y="608" width="124.44" height="10" fill="#b279a2" opacity="0.28"/>
<rect x="129.48" y="608" width="124.44" height="10" fill="#b279a2" opacity="0.20"/>
<rect x="599.59" y="608" width="124.44" height="10" fill="#b279a2" opacity="0.28"/>
<line x1="170.96" y1="544" x2="170.96" y2="626" stroke="#c7a66f" stroke-dasharray="3 3"/>
<line x1="267.75" y1="544" x2="267.75" y2="626" stroke="#c7a66f" stroke-dasharray="3 3"/>
<line x1="972.91" y1="544" x2="972.91" y2="626" stroke="#c7a66f" stroke-dasharray="3 3"/>
<line x1="1069.69" y1="544" x2="1069.69" y2="626" stroke="#c7a66f" stroke-dasharray="3 3"/>
<text x="606.5" y="686" text-anchor="middle" font-family="Arial" font-size="15">Sequence coordinate in full construct; CRE1 = 31-38, CRE4 = 89-96</text>
</svg>