<svg xmlns="http://www.w3.org/2000/svg" width="1040" height="560" viewBox="0 0 1040 560">
<rect width="100%" height="100%" fill="#ffffff"/>
<text x="520.0" y="36" text-anchor="middle" font-family="Arial" font-size="22" font-weight="700">4TF scramble 3</text>
<rect x="95" y="72" width="903" height="406" fill="#fbfbfb" stroke="#222" stroke-width="1"/>
<line x1="95.00" y1="72" x2="95.00" y2="478" stroke="#e1e1e1" stroke-width="1"/>
<text x="95.00" y="503" text-anchor="middle" font-family="Arial" font-size="13" fill="#444">0</text>
<line x1="224.00" y1="72" x2="224.00" y2="478" stroke="#e1e1e1" stroke-width="1"/>
<text x="224.00" y="503" text-anchor="middle" font-family="Arial" font-size="13" fill="#444">12</text>
<line x1="353.00" y1="72" x2="353.00" y2="478" stroke="#e1e1e1" stroke-width="1"/>
<text x="353.00" y="503" text-anchor="middle" font-family="Arial" font-size="13" fill="#444">25</text>
<line x1="482.00" y1="72" x2="482.00" y2="478" stroke="#e1e1e1" stroke-width="1"/>
<text x="482.00" y="503" text-anchor="middle" font-family="Arial" font-size="13" fill="#444">37</text>
<line x1="611.00" y1="72" x2="611.00" y2="478" stroke="#e1e1e1" stroke-width="1"/>
<text x="611.00" y="503" text-anchor="middle" font-family="Arial" font-size="13" fill="#444">49</text>
<line x1="740.00" y1="72" x2="740.00" y2="478" stroke="#e1e1e1" stroke-width="1"/>
<text x="740.00" y="503" text-anchor="middle" font-family="Arial" font-size="13" fill="#444">61</text>
<line x1="869.00" y1="72" x2="869.00" y2="478" stroke="#e1e1e1" stroke-width="1"/>
<text x="869.00" y="503" text-anchor="middle" font-family="Arial" font-size="13" fill="#444">74</text>
<line x1="998.00" y1="72" x2="998.00" y2="478" stroke="#e1e1e1" stroke-width="1"/>
<text x="998.00" y="503" text-anchor="middle" font-family="Arial" font-size="13" fill="#444">86</text>
<line x1="95" y1="478.00" x2="998" y2="478.00" stroke="#e1e1e1" stroke-width="1"/>
<text x="83" y="482.00" text-anchor="end" font-family="Arial" font-size="13" fill="#444">-2</text>
<line x1="95" y1="376.50" x2="998" y2="376.50" stroke="#e1e1e1" stroke-width="1"/>
<text x="83" y="380.50" text-anchor="end" font-family="Arial" font-size="13" fill="#444">-1</text>
<line x1="95" y1="275.00" x2="998" y2="275.00" stroke="#e1e1e1" stroke-width="1"/>
<text x="83" y="279.00" text-anchor="end" font-family="Arial" font-size="13" fill="#444">-1</text>
<line x1="95" y1="173.50" x2="998" y2="173.50" stroke="#e1e1e1" stroke-width="1"/>
<text x="83" y="177.50" text-anchor="end" font-family="Arial" font-size="13" fill="#444">-0</text>
<line x1="95" y1="72.00" x2="998" y2="72.00" stroke="#e1e1e1" stroke-width="1"/>
<text x="83" y="76.00" text-anchor="end" font-family="Arial" font-size="13" fill="#444">1</text>
<polyline fill="none" stroke="#2f6f73" stroke-width="3" points="95.00,199.77 105.50,217.83 116.00,127.66 126.50,186.58 137.00,177.18 147.50,207.11 158.00,248.29 168.50,232.98 179.00,227.41 189.50,228.34 200.00,122.66 210.50,181.80 221.00,165.48 231.50,212.25 242.00,228.40 252.50,235.70 263.00,221.51 273.50,200.85 284.00,194.85 294.50,204.32 305.00,205.58 315.50,202.65 326.00,183.13 336.50,166.53 347.00,170.72 357.50,162.66 368.00,135.70 378.50,182.70 389.00,196.53 399.50,187.33 410.00,199.14 420.50,203.66 431.00,208.52 441.50,211.06 452.00,155.72 462.50,151.23 473.00,152.04 483.50,265.01 494.00,265.86 504.50,286.64 515.00,282.98 525.50,267.65 536.00,212.60 546.50,160.00 557.00,184.24 567.50,146.40 578.00,177.97 588.50,261.63 599.00,270.33 609.50,290.07 620.00,314.76 630.50,302.13 641.00,200.40 651.50,204.99 662.00,276.42 672.50,156.87 683.00,229.42 693.50,163.38 704.00,170.83 714.50,129.09 725.00,157.54 735.50,163.25 746.00,129.91 756.50,102.50 767.00,100.00 777.50,146.09 788.00,116.23 798.50,238.94 809.00,291.42 819.50,310.57 830.00,329.54 840.50,361.06 851.00,450.00 861.50,414.95 872.00,375.93 882.50,306.45 893.00,319.87 903.50,298.95 914.00,288.16 924.50,191.92 935.00,183.04 945.50,191.88 956.00,171.80 966.50,169.94 977.00,121.72 987.50,166.62 998.00,169.86"/>
<polyline fill="none" stroke="#9a4f34" stroke-width="3" points="95.00,152.77 105.50,155.10 116.00,122.09 126.50,159.54 137.00,169.02 147.50,153.09 158.00,158.36 168.50,168.22 179.00,166.98 189.50,168.63 200.00,171.98 210.50,173.91 221.00,173.90 231.50,170.85 242.00,171.72 252.50,173.87 263.00,159.43 273.50,158.56 284.00,172.09 294.50,182.01 305.00,178.56 315.50,169.50 326.00,171.15 336.50,178.18 347.00,167.85 357.50,175.66 368.00,175.85 378.50,159.40 389.00,160.28 399.50,183.97 410.00,184.64 420.50,180.40 431.00,161.85 441.50,168.76 452.00,170.49 462.50,171.74 473.00,164.60 483.50,181.66 494.00,176.19 504.50,182.91 515.00,184.13 525.50,172.77 536.00,174.72 546.50,167.00 557.00,166.70 567.50,167.19 578.00,173.26 588.50,172.50 599.00,176.97 609.50,185.52 620.00,172.72 630.50,171.70 641.00,163.10 651.50,164.87 662.00,175.03 672.50,170.01 683.00,170.04 693.50,168.11 704.00,177.93 714.50,172.50 725.00,163.84 735.50,176.48 746.00,153.92 756.50,200.90 767.00,171.59 777.50,179.98 788.00,177.65 798.50,160.82 809.00,171.07 819.50,172.57 830.00,172.90 840.50,178.52 851.00,180.76 861.50,183.44 872.00,180.19 882.50,176.47 893.00,177.24 903.50,168.72 914.00,169.52 924.50,176.50 935.00,183.42 945.50,183.11 956.00,181.04 966.50,190.06 977.00,174.56 987.50,163.19 998.00,171.26"/>
<line x1="820" y1="34" x2="860" y2="34" stroke="#2f6f73" stroke-width="3"/><text x="870" y="39" font-family="Arial" font-size="14">Observed</text>
<line x1="820" y1="58" x2="860" y2="58" stroke="#9a4f34" stroke-width="3"/><text x="870" y="63" font-family="Arial" font-size="14">Predicted</text>
<text x="546.5" y="534" text-anchor="middle" font-family="Arial" font-size="16">Single-hit mutation position</text>
<text x="25" y="275.0" text-anchor="middle" font-family="Arial" font-size="16" transform="rotate(-90 25 275.0)">Mean Dactivity</text>
</svg>