<svg xmlns="http://www.w3.org/2000/svg" width="1080" height="620" viewBox="0 0 1080 620">
<rect width="100%" height="100%" fill="#ffffff"/>
<text x="540.0" y="34" text-anchor="middle" font-family="Arial" font-size="22" font-weight="700">Figure 5A/G: A/T substitution activity profiles</text>
<rect x="92" y="72" width="943" height="466" fill="#fbfbfb" stroke="#222"/>
<rect x="212.62" y="72" width="76.76" height="466" fill="#f2e7d8" opacity="0.65"/>
<text x="246.62" y="90" text-anchor="middle" font-family="Arial" font-size="12" fill="#6b4a29">CRE1</text>
<rect x="848.59" y="72" width="76.76" height="466" fill="#f2e7d8" opacity="0.65"/>
<text x="882.59" y="90" text-anchor="middle" font-family="Arial" font-size="12" fill="#6b4a29">CRE4</text>
<line x1="92" y1="524.25" x2="1035" y2="524.25" stroke="#e1e1e1"/>
<text x="80" y="528.25" text-anchor="end" font-family="Arial" font-size="13">-2</text>
<line x1="92" y1="358.65" x2="1035" y2="358.65" stroke="#e1e1e1"/>
<text x="80" y="362.65" text-anchor="end" font-family="Arial" font-size="13">-1</text>
<line x1="92" y1="193.06" x2="1035" y2="193.06" stroke="#e1e1e1"/>
<text x="80" y="197.06" text-anchor="end" font-family="Arial" font-size="13">0</text>
<line x1="92" y1="27.47" x2="1035" y2="27.47" stroke="#e1e1e1"/>
<text x="80" y="31.47" text-anchor="end" font-family="Arial" font-size="13">1</text>
<line x1="92.00" y1="72" x2="92.00" y2="538" stroke="#ececec"/>
<text x="92.00" y="563" text-anchor="middle" font-family="Arial" font-size="13">0</text>
<line x1="201.65" y1="72" x2="201.65" y2="538" stroke="#ececec"/>
<text x="201.65" y="563" text-anchor="middle" font-family="Arial" font-size="13">10</text>
<line x1="311.30" y1="72" x2="311.30" y2="538" stroke="#ececec"/>
<text x="311.30" y="563" text-anchor="middle" font-family="Arial" font-size="13">20</text>
<line x1="420.95" y1="72" x2="420.95" y2="538" stroke="#ececec"/>
<text x="420.95" y="563" text-anchor="middle" font-family="Arial" font-size="13">30</text>
<line x1="530.60" y1="72" x2="530.60" y2="538" stroke="#ececec"/>
<text x="530.60" y="563" text-anchor="middle" font-family="Arial" font-size="13">40</text>
<line x1="640.26" y1="72" x2="640.26" y2="538" stroke="#ececec"/>
<text x="640.26" y="563" text-anchor="middle" font-family="Arial" font-size="13">50</text>
<line x1="749.91" y1="72" x2="749.91" y2="538" stroke="#ececec"/>
<text x="749.91" y="563" text-anchor="middle" font-family="Arial" font-size="13">60</text>
<line x1="859.56" y1="72" x2="859.56" y2="538" stroke="#ececec"/>
<text x="859.56" y="563" text-anchor="middle" font-family="Arial" font-size="13">70</text>
<line x1="969.21" y1="72" x2="969.21" y2="538" stroke="#ececec"/>
<text x="969.21" y="563" text-anchor="middle" font-family="Arial" font-size="13">80</text>
<polyline fill="none" stroke="#2f6f73" stroke-width="2.5" opacity="0.55" points="92.00,181.40 102.97,218.23 124.90,212.98 135.86,240.47 157.79,274.88 179.72,237.57 201.65,207.84 212.62,183.69 223.58,210.40 245.51,243.40 256.48,218.23 267.44,220.90 278.41,226.33 300.34,197.89 311.30,264.99 322.27,218.23 333.23,215.59 344.20,190.68 355.16,190.68 377.09,143.60 399.02,215.59 409.99,215.59 420.95,176.90 431.92,220.90 453.85,240.47 464.81,188.33 475.78,123.14 486.74,172.47 497.71,271.54 508.67,281.71 519.64,299.68 530.60,261.79 552.53,292.33 574.47,193.06 585.43,161.76 596.40,252.42 607.36,261.79 618.33,315.10 640.26,363.48 651.22,295.97 662.19,234.71 673.15,212.98 684.12,340.27 695.08,183.69 706.05,252.42 717.01,197.89 738.94,181.40 760.87,188.33 782.80,145.55 793.77,141.67 804.73,174.67 815.70,135.96 837.63,340.27 848.59,315.10 859.56,400.31 881.49,505.86 892.45,373.44 903.42,363.48 914.38,258.62 947.28,319.11 958.24,223.60 969.21,212.98 980.17,207.84 1002.10,190.68 1035.00,188.33"/>
<polyline fill="none" stroke="#2f6f73" stroke-width="3.5"  points="92.00,163.29 102.97,231.61 124.90,205.43 135.86,181.95 157.79,200.96 179.72,179.68 201.65,217.68 212.62,208.38 223.58,234.75 245.51,277.02 256.48,246.89 267.44,204.53 278.41,172.71 300.34,164.96 311.30,169.66 322.27,208.47 333.23,195.77 344.20,174.11 355.16,190.02 377.09,167.95 399.02,174.00 409.99,183.42 420.95,158.77 431.92,209.23 453.85,181.88 464.81,190.44 475.78,193.43 486.74,104.14 497.71,246.05 508.67,240.97 519.64,230.31 530.60,236.45 552.53,235.47 574.47,167.70 585.43,197.83 596.40,201.66 607.36,298.96 618.33,320.85 640.26,277.63 651.22,245.28 662.19,223.15 673.15,160.76 684.12,270.07 695.08,150.36 706.05,194.97 717.01,173.62 738.94,177.25 760.87,167.26 782.80,182.79 793.77,165.04 804.73,164.38 815.70,199.34 837.63,266.68 848.59,324.95 859.56,361.83 881.49,428.87 892.45,364.61 903.42,353.87 914.38,231.92 947.28,206.25 958.24,189.10 969.21,188.03 980.17,182.11 1002.10,188.51 1035.00,160.02"/>
<polyline fill="none" stroke="#9a4f34" stroke-width="2.5" opacity="0.55" points="92.00,261.79 113.93,188.33 124.90,195.46 135.86,223.60 146.83,186.00 157.79,261.79 168.76,237.57 179.72,255.50 190.69,268.25 201.65,112.68 223.58,168.13 234.55,218.23 245.51,255.50 256.48,307.26 278.41,200.34 289.37,202.81 300.34,255.50 311.30,183.69 333.23,212.98 344.20,195.46 355.16,190.68 366.13,176.90 377.09,159.67 388.06,188.33 409.99,202.81 420.95,223.60 431.92,207.84 442.88,218.23 464.81,145.55 475.78,207.84 486.74,186.00 497.71,292.33 508.67,311.15 530.60,319.11 541.57,292.33 563.50,188.33 574.47,229.09 596.40,200.34 618.33,249.37 629.29,307.26 640.26,303.44 651.22,358.65 673.15,255.50 717.01,188.33 727.98,145.55 738.94,174.67 749.91,172.47 760.87,193.06 771.84,179.14 782.80,123.14 793.77,128.55 804.73,183.69 815.70,168.13 826.66,231.89 859.56,268.25 870.52,358.65 881.49,430.59 892.45,488.79 914.38,358.65 925.35,319.11 936.31,340.27 958.24,210.40 969.21,212.98 980.17,220.90 991.14,200.34 1002.10,186.00 1013.07,179.14 1024.03,197.89 1035.00,197.89"/>
<polyline fill="none" stroke="#9a4f34" stroke-width="3.5" stroke-dasharray="6 5" points="92.00,175.55 113.93,217.81 124.90,164.97 135.86,212.09 146.83,201.62 157.79,188.46 168.76,183.51 179.72,190.95 190.69,196.60 201.65,154.70 223.58,175.89 234.55,218.86 245.51,248.95 256.48,270.45 278.41,197.59 289.37,149.05 300.34,270.01 311.30,173.83 333.23,201.52 344.20,180.21 355.16,196.79 366.13,182.06 377.09,170.76 388.06,200.45 409.99,190.93 420.95,180.24 431.92,197.59 442.88,202.87 464.81,177.33 475.78,181.57 486.74,178.16 497.71,232.52 508.67,252.33 530.60,275.95 541.57,266.45 563.50,199.80 574.47,186.80 596.40,191.46 618.33,231.83 629.29,261.82 640.26,250.32 651.22,286.53 673.15,201.13 717.01,190.12 727.98,158.88 738.94,189.80 749.91,164.88 760.87,191.68 771.84,189.40 782.80,178.14 793.77,193.84 804.73,186.08 815.70,199.18 826.66,193.16 859.56,213.18 870.52,354.01 881.49,364.50 892.45,428.87 914.38,361.21 925.35,322.86 936.31,261.67 958.24,184.92 969.21,182.11 980.17,182.39 991.14,173.28 1002.10,168.31 1013.07,148.05 1024.03,183.51 1035.00,184.14"/>
<text x="563.5" y="594" text-anchor="middle" font-family="Arial" font-size="16">Single-hit mutation position</text>
<text x="25" y="305.0" text-anchor="middle" font-family="Arial" font-size="16" transform="rotate(-90 25 305.0)">Delta activity, log2(variant / WT)</text>
<text x="792" y="42" font-family="Arial" font-size="13" fill="#2f6f73">A substitution</text>
<text x="914" y="42" font-family="Arial" font-size="13" fill="#9a4f34">T substitution</text>
<text x="792" y="60" font-family="Arial" font-size="12" fill="#555">thin: observed, thick/dashed: model</text>
</svg>