<svg xmlns="http://www.w3.org/2000/svg" width="900" height="720" viewBox="0 0 900 720">
<rect width="100%" height="100%" fill="#ffffff"/>
<text x="450.0" y="34" text-anchor="middle" font-family="Arial" font-size="22" font-weight="700">4TF scramble 9</text>
<text x="450.0" y="62" text-anchor="middle" font-family="Arial" font-size="16" fill="#555">Pearson r = 0.280, n = 261</text>
<rect x="105" y="92" width="755" height="533" fill="#fbfbfb" stroke="#222" stroke-width="1"/>
<line x1="105.00" y1="92" x2="105.00" y2="625" stroke="#dddddd" stroke-width="1"/>
<line x1="105" y1="625.00" x2="860" y2="625.00" stroke="#dddddd" stroke-width="1"/>
<text x="105.00" y="651" text-anchor="middle" font-family="Arial" font-size="13" fill="#444">-2</text>
<text x="92" y="629.00" text-anchor="end" font-family="Arial" font-size="13" fill="#444">-2</text>
<line x1="293.75" y1="92" x2="293.75" y2="625" stroke="#dddddd" stroke-width="1"/>
<line x1="105" y1="491.75" x2="860" y2="491.75" stroke="#dddddd" stroke-width="1"/>
<text x="293.75" y="651" text-anchor="middle" font-family="Arial" font-size="13" fill="#444">-1</text>
<text x="92" y="495.75" text-anchor="end" font-family="Arial" font-size="13" fill="#444">-1</text>
<line x1="482.50" y1="92" x2="482.50" y2="625" stroke="#dddddd" stroke-width="1"/>
<line x1="105" y1="358.50" x2="860" y2="358.50" stroke="#dddddd" stroke-width="1"/>
<text x="482.50" y="651" text-anchor="middle" font-family="Arial" font-size="13" fill="#444">-1</text>
<text x="92" y="362.50" text-anchor="end" font-family="Arial" font-size="13" fill="#444">-1</text>
<line x1="671.25" y1="92" x2="671.25" y2="625" stroke="#dddddd" stroke-width="1"/>
<line x1="105" y1="225.25" x2="860" y2="225.25" stroke="#dddddd" stroke-width="1"/>
<text x="671.25" y="651" text-anchor="middle" font-family="Arial" font-size="13" fill="#444">0</text>
<text x="92" y="229.25" text-anchor="end" font-family="Arial" font-size="13" fill="#444">0</text>
<line x1="860.00" y1="92" x2="860.00" y2="625" stroke="#dddddd" stroke-width="1"/>
<line x1="105" y1="92.00" x2="860" y2="92.00" stroke="#dddddd" stroke-width="1"/>
<text x="860.00" y="651" text-anchor="middle" font-family="Arial" font-size="13" fill="#444">1</text>
<text x="92" y="96.00" text-anchor="end" font-family="Arial" font-size="13" fill="#444">1</text>
<line x1="105" y1="625" x2="860" y2="92" stroke="#9a4f34" stroke-width="2" stroke-dasharray="7 6"/>
<circle cx="646.82" cy="242.49" r="4.0" fill="#2f6f73" opacity="0.72"/>
<circle cx="665.51" cy="162.18" r="4.0" fill="#2f6f73" opacity="0.72"/>
<circle cx="602.20" cy="242.50" r="4.0" fill="#2f6f73" opacity="0.72"/>
<circle cx="536.66" cy="241.80" r="4.0" fill="#2f6f73" opacity="0.72"/>
<circle cx="606.48" cy="243.44" r="4.0" fill="#2f6f73" opacity="0.72"/>
<circle cx="541.74" cy="242.97" r="4.0" fill="#2f6f73" opacity="0.72"/>
<circle cx="658.14" cy="242.78" r="4.0" fill="#2f6f73" opacity="0.72"/>
<circle cx="819.55" cy="145.34" r="4.0" fill="#2f6f73" opacity="0.72"/>
<circle cx="654.41" cy="242.86" r="4.0" fill="#2f6f73" opacity="0.72"/>
<circle cx="614.90" cy="242.56" r="4.0" fill="#2f6f73" opacity="0.72"/>
<circle cx="606.48" cy="242.38" r="4.0" fill="#2f6f73" opacity="0.72"/>
<circle cx="642.98" cy="161.57" r="4.0" fill="#2f6f73" opacity="0.72"/>
<circle cx="570.83" cy="242.93" r="4.0" fill="#2f6f73" opacity="0.72"/>
<circle cx="738.35" cy="242.99" r="4.0" fill="#2f6f73" opacity="0.72"/>
<circle cx="597.87" cy="243.44" r="4.0" fill="#2f6f73" opacity="0.72"/>
<circle cx="566.13" cy="243.44" r="4.0" fill="#2f6f73" opacity="0.72"/>
<circle cx="546.74" cy="243.44" r="4.0" fill="#2f6f73" opacity="0.72"/>
<circle cx="658.14" cy="242.81" r="4.0" fill="#2f6f73" opacity="0.72"/>
<circle cx="515.68" cy="242.88" r="4.0" fill="#2f6f73" opacity="0.72"/>
<circle cx="531.52" cy="240.84" r="4.0" fill="#2f6f73" opacity="0.72"/>
<circle cx="536.66" cy="240.55" r="4.0" fill="#2f6f73" opacity="0.72"/>
<circle cx="526.31" cy="242.37" r="4.0" fill="#2f6f73" opacity="0.72"/>
<circle cx="551.68" cy="242.66" r="4.0" fill="#2f6f73" opacity="0.72"/>
<circle cx="575.47" cy="242.55" r="4.0" fill="#2f6f73" opacity="0.72"/>
<circle cx="575.47" cy="252.57" r="4.0" fill="#2f6f73" opacity="0.72"/>
<circle cx="556.56" cy="247.65" r="4.0" fill="#2f6f73" opacity="0.72"/>
<circle cx="546.74" cy="245.70" r="4.0" fill="#2f6f73" opacity="0.72"/>
<circle cx="541.74" cy="252.31" r="4.0" fill="#2f6f73" opacity="0.72"/>
<circle cx="606.48" cy="235.11" r="4.0" fill="#2f6f73" opacity="0.72"/>
<circle cx="526.31" cy="246.07" r="4.0" fill="#2f6f73" opacity="0.72"/>
<circle cx="623.13" cy="232.37" r="4.0" fill="#2f6f73" opacity="0.72"/>
<circle cx="756.03" cy="272.76" r="4.0" fill="#2f6f73" opacity="0.72"/>
<circle cx="775.67" cy="290.71" r="4.0" fill="#2f6f73" opacity="0.72"/>
<circle cx="661.84" cy="288.38" r="4.0" fill="#2f6f73" opacity="0.72"/>
<circle cx="635.16" cy="282.20" r="4.0" fill="#2f6f73" opacity="0.72"/>
<circle cx="589.07" cy="285.49" r="4.0" fill="#2f6f73" opacity="0.72"/>
<circle cx="619.04" cy="291.03" r="4.0" fill="#2f6f73" opacity="0.72"/>
<circle cx="654.41" cy="279.00" r="4.0" fill="#2f6f73" opacity="0.72"/>
<circle cx="686.79" cy="271.73" r="4.0" fill="#2f6f73" opacity="0.72"/>
<circle cx="526.31" cy="268.42" r="4.0" fill="#2f6f73" opacity="0.72"/>
<circle cx="614.90" cy="265.68" r="4.0" fill="#2f6f73" opacity="0.72"/>
<circle cx="606.48" cy="270.01" r="4.0" fill="#2f6f73" opacity="0.72"/>
<circle cx="566.13" cy="276.11" r="4.0" fill="#2f6f73" opacity="0.72"/>
<circle cx="561.38" cy="283.02" r="4.0" fill="#2f6f73" opacity="0.72"/>
<circle cx="546.74" cy="261.03" r="4.0" fill="#2f6f73" opacity="0.72"/>
<circle cx="606.48" cy="261.22" r="4.0" fill="#2f6f73" opacity="0.72"/>
<circle cx="570.83" cy="279.72" r="4.0" fill="#2f6f73" opacity="0.72"/>
<circle cx="463.77" cy="275.61" r="4.0" fill="#2f6f73" opacity="0.72"/>
<circle cx="602.20" cy="269.57" r="4.0" fill="#2f6f73" opacity="0.72"/>
<circle cx="551.68" cy="265.29" r="4.0" fill="#2f6f73" opacity="0.72"/>
<circle cx="551.68" cy="268.40" r="4.0" fill="#2f6f73" opacity="0.72"/>
<circle cx="593.50" cy="273.29" r="4.0" fill="#2f6f73" opacity="0.72"/>
<circle cx="570.83" cy="280.16" r="4.0" fill="#2f6f73" opacity="0.72"/>
<circle cx="635.16" cy="289.08" r="4.0" fill="#2f6f73" opacity="0.72"/>
<circle cx="589.07" cy="286.29" r="4.0" fill="#2f6f73" opacity="0.72"/>
<circle cx="606.48" cy="283.55" r="4.0" fill="#2f6f73" opacity="0.72"/>
<circle cx="631.19" cy="293.81" r="4.0" fill="#2f6f73" opacity="0.72"/>
<circle cx="639.09" cy="269.58" r="4.0" fill="#2f6f73" opacity="0.72"/>
<circle cx="597.87" cy="198.92" r="4.0" fill="#2f6f73" opacity="0.72"/>
<circle cx="546.74" cy="182.67" r="4.0" fill="#2f6f73" opacity="0.72"/>
<circle cx="531.52" cy="251.32" r="4.0" fill="#2f6f73" opacity="0.72"/>
<circle cx="584.59" cy="258.18" r="4.0" fill="#2f6f73" opacity="0.72"/>
<circle cx="661.84" cy="249.28" r="4.0" fill="#2f6f73" opacity="0.72"/>
<circle cx="606.48" cy="234.72" r="4.0" fill="#2f6f73" opacity="0.72"/>
<circle cx="669.14" cy="237.02" r="4.0" fill="#2f6f73" opacity="0.72"/>
<circle cx="515.68" cy="231.22" r="4.0" fill="#2f6f73" opacity="0.72"/>
<circle cx="610.71" cy="242.57" r="4.0" fill="#2f6f73" opacity="0.72"/>
<circle cx="654.41" cy="242.46" r="4.0" fill="#2f6f73" opacity="0.72"/>
<circle cx="614.90" cy="242.49" r="4.0" fill="#2f6f73" opacity="0.72"/>
<circle cx="650.64" cy="241.33" r="4.0" fill="#2f6f73" opacity="0.72"/>
<circle cx="661.84" cy="242.29" r="4.0" fill="#2f6f73" opacity="0.72"/>
<circle cx="642.98" cy="241.51" r="4.0" fill="#2f6f73" opacity="0.72"/>
<circle cx="650.64" cy="242.13" r="4.0" fill="#2f6f73" opacity="0.72"/>
<circle cx="635.16" cy="241.65" r="4.0" fill="#2f6f73" opacity="0.72"/>
<circle cx="650.64" cy="242.28" r="4.0" fill="#2f6f73" opacity="0.72"/>
<circle cx="669.14" cy="242.45" r="4.0" fill="#2f6f73" opacity="0.72"/>
<circle cx="631.19" cy="241.80" r="4.0" fill="#2f6f73" opacity="0.72"/>
<circle cx="672.73" cy="241.35" r="4.0" fill="#2f6f73" opacity="0.72"/>
<circle cx="726.10" cy="242.60" r="4.0" fill="#2f6f73" opacity="0.72"/>
<circle cx="669.14" cy="241.70" r="4.0" fill="#2f6f73" opacity="0.72"/>
<circle cx="700.34" cy="241.55" r="4.0" fill="#2f6f73" opacity="0.72"/>
<circle cx="642.98" cy="187.29" r="4.0" fill="#2f6f73" opacity="0.72"/>
<circle cx="584.59" cy="242.08" r="4.0" fill="#2f6f73" opacity="0.72"/>
<circle cx="654.41" cy="242.60" r="4.0" fill="#2f6f73" opacity="0.72"/>
<circle cx="610.71" cy="250.56" r="4.0" fill="#2f6f73" opacity="0.72"/>
<circle cx="593.50" cy="241.84" r="4.0" fill="#2f6f73" opacity="0.72"/>
<circle cx="614.90" cy="250.77" r="4.0" fill="#2f6f73" opacity="0.72"/>
<circle cx="610.71" cy="242.47" r="4.0" fill="#2f6f73" opacity="0.72"/>
<circle cx="619.04" cy="167.98" r="4.0" fill="#2f6f73" opacity="0.72"/>
<circle cx="631.19" cy="242.16" r="4.0" fill="#2f6f73" opacity="0.72"/>
<circle cx="672.73" cy="228.60" r="4.0" fill="#2f6f73" opacity="0.72"/>
<circle cx="536.66" cy="242.60" r="4.0" fill="#2f6f73" opacity="0.72"/>
<circle cx="597.87" cy="241.69" r="4.0" fill="#2f6f73" opacity="0.72"/>
<circle cx="602.20" cy="243.32" r="4.0" fill="#2f6f73" opacity="0.72"/>
<circle cx="561.38" cy="242.99" r="4.0" fill="#2f6f73" opacity="0.72"/>
<circle cx="623.13" cy="242.84" r="4.0" fill="#2f6f73" opacity="0.72"/>
<circle cx="551.68" cy="243.31" r="4.0" fill="#2f6f73" opacity="0.72"/>
<circle cx="606.48" cy="241.33" r="4.0" fill="#2f6f73" opacity="0.72"/>
<circle cx="606.48" cy="242.38" r="4.0" fill="#2f6f73" opacity="0.72"/>
<circle cx="570.83" cy="240.34" r="4.0" fill="#2f6f73" opacity="0.72"/>
<circle cx="602.20" cy="239.51" r="4.0" fill="#2f6f73" opacity="0.72"/>
<circle cx="580.06" cy="231.80" r="4.0" fill="#2f6f73" opacity="0.72"/>
<circle cx="654.41" cy="239.39" r="4.0" fill="#2f6f73" opacity="0.72"/>
<circle cx="627.18" cy="238.57" r="4.0" fill="#2f6f73" opacity="0.72"/>
<circle cx="722.97" cy="214.42" r="4.0" fill="#2f6f73" opacity="0.72"/>
<circle cx="758.90" cy="250.09" r="4.0" fill="#2f6f73" opacity="0.72"/>
<circle cx="642.98" cy="247.69" r="4.0" fill="#2f6f73" opacity="0.72"/>
<circle cx="623.13" cy="242.16" r="4.0" fill="#2f6f73" opacity="0.72"/>
<circle cx="679.82" cy="242.24" r="4.0" fill="#2f6f73" opacity="0.72"/>
<circle cx="683.32" cy="232.92" r="4.0" fill="#2f6f73" opacity="0.72"/>
<circle cx="658.14" cy="237.77" r="4.0" fill="#2f6f73" opacity="0.72"/>
<circle cx="521.03" cy="366.13" r="4.0" fill="#2f6f73" opacity="0.72"/>
<circle cx="499.14" cy="365.80" r="4.0" fill="#2f6f73" opacity="0.72"/>
<circle cx="487.71" cy="267.23" r="4.0" fill="#2f6f73" opacity="0.72"/>
<circle cx="504.73" cy="266.66" r="4.0" fill="#2f6f73" opacity="0.72"/>
<circle cx="541.74" cy="289.63" r="4.0" fill="#2f6f73" opacity="0.72"/>
<circle cx="457.55" cy="366.17" r="4.0" fill="#2f6f73" opacity="0.72"/>
<circle cx="475.93" cy="365.02" r="4.0" fill="#2f6f73" opacity="0.72"/>
<circle cx="463.77" cy="266.29" r="4.0" fill="#2f6f73" opacity="0.72"/>
<circle cx="469.90" cy="365.40" r="4.0" fill="#2f6f73" opacity="0.72"/>
<circle cx="536.66" cy="254.84" r="4.0" fill="#2f6f73" opacity="0.72"/>
<circle cx="444.78" cy="268.77" r="4.0" fill="#2f6f73" opacity="0.72"/>
<circle cx="444.78" cy="365.60" r="4.0" fill="#2f6f73" opacity="0.72"/>
<circle cx="526.31" cy="366.12" r="4.0" fill="#2f6f73" opacity="0.72"/>
<circle cx="481.87" cy="268.52" r="4.0" fill="#2f6f73" opacity="0.72"/>
<circle cx="487.71" cy="366.29" r="4.0" fill="#2f6f73" opacity="0.72"/>
<circle cx="487.71" cy="258.71" r="4.0" fill="#2f6f73" opacity="0.72"/>
<circle cx="631.19" cy="243.77" r="4.0" fill="#2f6f73" opacity="0.72"/>
<circle cx="627.18" cy="253.19" r="4.0" fill="#2f6f73" opacity="0.72"/>
<circle cx="676.30" cy="241.88" r="4.0" fill="#2f6f73" opacity="0.72"/>
<circle cx="654.41" cy="243.21" r="4.0" fill="#2f6f73" opacity="0.72"/>
<circle cx="654.41" cy="242.63" r="4.0" fill="#2f6f73" opacity="0.72"/>
<circle cx="646.82" cy="244.07" r="4.0" fill="#2f6f73" opacity="0.72"/>
<circle cx="639.09" cy="245.10" r="4.0" fill="#2f6f73" opacity="0.72"/>
<circle cx="589.07" cy="244.57" r="4.0" fill="#2f6f73" opacity="0.72"/>
<circle cx="697.00" cy="238.80" r="4.0" fill="#2f6f73" opacity="0.72"/>
<circle cx="642.98" cy="243.66" r="4.0" fill="#2f6f73" opacity="0.72"/>
<circle cx="706.95" cy="235.15" r="4.0" fill="#2f6f73" opacity="0.72"/>
<circle cx="551.68" cy="243.16" r="4.0" fill="#2f6f73" opacity="0.72"/>
<circle cx="716.64" cy="259.67" r="4.0" fill="#2f6f73" opacity="0.72"/>
<circle cx="635.16" cy="271.29" r="4.0" fill="#2f6f73" opacity="0.72"/>
<circle cx="536.66" cy="272.79" r="4.0" fill="#2f6f73" opacity="0.72"/>
<circle cx="504.73" cy="263.47" r="4.0" fill="#2f6f73" opacity="0.72"/>
<circle cx="481.87" cy="280.92" r="4.0" fill="#2f6f73" opacity="0.72"/>
<circle cx="451.22" cy="358.70" r="4.0" fill="#2f6f73" opacity="0.72"/>
<circle cx="475.93" cy="257.73" r="4.0" fill="#2f6f73" opacity="0.72"/>
<circle cx="556.56" cy="255.21" r="4.0" fill="#2f6f73" opacity="0.72"/>
<circle cx="373.66" cy="284.67" r="4.0" fill="#2f6f73" opacity="0.72"/>
<circle cx="556.56" cy="272.32" r="4.0" fill="#2f6f73" opacity="0.72"/>
<circle cx="463.77" cy="279.52" r="4.0" fill="#2f6f73" opacity="0.72"/>
<circle cx="373.66" cy="298.07" r="4.0" fill="#2f6f73" opacity="0.72"/>
<circle cx="438.23" cy="364.45" r="4.0" fill="#2f6f73" opacity="0.72"/>
<circle cx="469.90" cy="268.53" r="4.0" fill="#2f6f73" opacity="0.72"/>
<circle cx="481.87" cy="269.03" r="4.0" fill="#2f6f73" opacity="0.72"/>
<circle cx="475.93" cy="281.67" r="4.0" fill="#2f6f73" opacity="0.72"/>
<circle cx="381.40" cy="280.86" r="4.0" fill="#2f6f73" opacity="0.72"/>
<circle cx="580.06" cy="269.75" r="4.0" fill="#2f6f73" opacity="0.72"/>
<circle cx="650.64" cy="264.12" r="4.0" fill="#2f6f73" opacity="0.72"/>
<circle cx="570.83" cy="287.21" r="4.0" fill="#2f6f73" opacity="0.72"/>
<circle cx="614.90" cy="270.88" r="4.0" fill="#2f6f73" opacity="0.72"/>
<circle cx="619.04" cy="275.44" r="4.0" fill="#2f6f73" opacity="0.72"/>
<circle cx="546.74" cy="277.63" r="4.0" fill="#2f6f73" opacity="0.72"/>
<circle cx="410.87" cy="168.05" r="4.0" fill="#2f6f73" opacity="0.72"/>
<circle cx="551.68" cy="237.96" r="4.0" fill="#2f6f73" opacity="0.72"/>
<circle cx="493.47" cy="238.54" r="4.0" fill="#2f6f73" opacity="0.72"/>
<circle cx="661.84" cy="284.44" r="4.0" fill="#2f6f73" opacity="0.72"/>
<circle cx="602.20" cy="254.63" r="4.0" fill="#2f6f73" opacity="0.72"/>
<circle cx="735.32" cy="276.56" r="4.0" fill="#2f6f73" opacity="0.72"/>
<circle cx="551.68" cy="241.27" r="4.0" fill="#2f6f73" opacity="0.72"/>
<circle cx="561.38" cy="236.34" r="4.0" fill="#2f6f73" opacity="0.72"/>
<circle cx="556.56" cy="248.53" r="4.0" fill="#2f6f73" opacity="0.72"/>
<circle cx="639.09" cy="239.95" r="4.0" fill="#2f6f73" opacity="0.72"/>
<circle cx="676.30" cy="238.44" r="4.0" fill="#2f6f73" opacity="0.72"/>
<circle cx="654.41" cy="245.46" r="4.0" fill="#2f6f73" opacity="0.72"/>
<circle cx="606.48" cy="185.95" r="4.0" fill="#2f6f73" opacity="0.72"/>
<circle cx="606.48" cy="242.68" r="4.0" fill="#2f6f73" opacity="0.72"/>
<circle cx="722.97" cy="165.63" r="4.0" fill="#2f6f73" opacity="0.72"/>
<circle cx="665.51" cy="186.95" r="4.0" fill="#2f6f73" opacity="0.72"/>
<circle cx="783.79" cy="242.89" r="4.0" fill="#2f6f73" opacity="0.72"/>
<circle cx="676.30" cy="242.94" r="4.0" fill="#2f6f73" opacity="0.72"/>
<circle cx="722.97" cy="242.72" r="4.0" fill="#2f6f73" opacity="0.72"/>
<circle cx="593.50" cy="242.72" r="4.0" fill="#2f6f73" opacity="0.72"/>
<circle cx="679.82" cy="185.74" r="4.0" fill="#2f6f73" opacity="0.72"/>
<circle cx="654.41" cy="214.37" r="4.0" fill="#2f6f73" opacity="0.72"/>
<circle cx="669.14" cy="242.05" r="4.0" fill="#2f6f73" opacity="0.72"/>
<circle cx="646.82" cy="248.70" r="4.0" fill="#2f6f73" opacity="0.72"/>
<circle cx="679.82" cy="181.34" r="4.0" fill="#2f6f73" opacity="0.72"/>
<circle cx="772.92" cy="241.11" r="4.0" fill="#2f6f73" opacity="0.72"/>
<circle cx="669.14" cy="188.47" r="4.0" fill="#2f6f73" opacity="0.72"/>
<circle cx="722.97" cy="250.09" r="4.0" fill="#2f6f73" opacity="0.72"/>
<circle cx="764.57" cy="249.53" r="4.0" fill="#2f6f73" opacity="0.72"/>
<circle cx="758.90" cy="240.68" r="4.0" fill="#2f6f73" opacity="0.72"/>
<circle cx="729.20" cy="172.38" r="4.0" fill="#2f6f73" opacity="0.72"/>
<circle cx="778.39" cy="157.25" r="4.0" fill="#2f6f73" opacity="0.72"/>
<circle cx="750.23" cy="242.80" r="4.0" fill="#2f6f73" opacity="0.72"/>
<circle cx="676.30" cy="165.25" r="4.0" fill="#2f6f73" opacity="0.72"/>
<circle cx="710.20" cy="242.74" r="4.0" fill="#2f6f73" opacity="0.72"/>
<circle cx="661.84" cy="242.07" r="4.0" fill="#2f6f73" opacity="0.72"/>
<circle cx="738.35" cy="245.30" r="4.0" fill="#2f6f73" opacity="0.72"/>
<circle cx="758.90" cy="244.21" r="4.0" fill="#2f6f73" opacity="0.72"/>
<circle cx="686.79" cy="243.28" r="4.0" fill="#2f6f73" opacity="0.72"/>
<circle cx="510.24" cy="251.26" r="4.0" fill="#2f6f73" opacity="0.72"/>
<circle cx="531.52" cy="242.61" r="4.0" fill="#2f6f73" opacity="0.72"/>
<circle cx="584.59" cy="252.34" r="4.0" fill="#2f6f73" opacity="0.72"/>
<circle cx="410.87" cy="210.43" r="4.0" fill="#2f6f73" opacity="0.72"/>
<circle cx="566.13" cy="231.32" r="4.0" fill="#2f6f73" opacity="0.72"/>
<circle cx="410.87" cy="213.39" r="4.0" fill="#2f6f73" opacity="0.72"/>
<circle cx="451.22" cy="258.21" r="4.0" fill="#2f6f73" opacity="0.72"/>
<circle cx="424.80" cy="243.18" r="4.0" fill="#2f6f73" opacity="0.72"/>
<circle cx="424.80" cy="246.60" r="4.0" fill="#2f6f73" opacity="0.72"/>
<circle cx="314.64" cy="244.86" r="4.0" fill="#2f6f73" opacity="0.72"/>
<circle cx="373.66" cy="231.27" r="4.0" fill="#2f6f73" opacity="0.72"/>
<circle cx="526.31" cy="256.08" r="4.0" fill="#2f6f73" opacity="0.72"/>
<circle cx="286.26" cy="256.42" r="4.0" fill="#2f6f73" opacity="0.72"/>
<circle cx="403.71" cy="232.67" r="4.0" fill="#2f6f73" opacity="0.72"/>
<circle cx="381.40" cy="237.13" r="4.0" fill="#2f6f73" opacity="0.72"/>
<circle cx="145.45" cy="265.68" r="4.0" fill="#2f6f73" opacity="0.72"/>
<circle cx="255.61" cy="267.81" r="4.0" fill="#2f6f73" opacity="0.72"/>
<circle cx="266.10" cy="236.01" r="4.0" fill="#2f6f73" opacity="0.72"/>
<circle cx="357.71" cy="236.01" r="4.0" fill="#2f6f73" opacity="0.72"/>
<circle cx="295.95" cy="267.81" r="4.0" fill="#2f6f73" opacity="0.72"/>
<circle cx="172.81" cy="265.68" r="4.0" fill="#2f6f73" opacity="0.72"/>
<circle cx="373.66" cy="237.13" r="4.0" fill="#2f6f73" opacity="0.72"/>
<circle cx="396.42" cy="232.67" r="4.0" fill="#2f6f73" opacity="0.72"/>
<circle cx="233.72" cy="256.42" r="4.0" fill="#2f6f73" opacity="0.72"/>
<circle cx="541.74" cy="251.44" r="4.0" fill="#2f6f73" opacity="0.72"/>
<circle cx="396.42" cy="231.22" r="4.0" fill="#2f6f73" opacity="0.72"/>
<circle cx="381.40" cy="244.86" r="4.0" fill="#2f6f73" opacity="0.72"/>
<circle cx="388.98" cy="246.57" r="4.0" fill="#2f6f73" opacity="0.72"/>
<circle cx="424.80" cy="243.22" r="4.0" fill="#2f6f73" opacity="0.72"/>
<circle cx="444.78" cy="258.26" r="4.0" fill="#2f6f73" opacity="0.72"/>
<circle cx="381.40" cy="213.41" r="4.0" fill="#2f6f73" opacity="0.72"/>
<circle cx="561.38" cy="231.29" r="4.0" fill="#2f6f73" opacity="0.72"/>
<circle cx="410.87" cy="210.39" r="4.0" fill="#2f6f73" opacity="0.72"/>
<circle cx="444.78" cy="246.45" r="4.0" fill="#2f6f73" opacity="0.72"/>
<circle cx="526.31" cy="242.30" r="4.0" fill="#2f6f73" opacity="0.72"/>
<circle cx="431.57" cy="245.00" r="4.0" fill="#2f6f73" opacity="0.72"/>
<circle cx="597.87" cy="243.39" r="4.0" fill="#2f6f73" opacity="0.72"/>
<circle cx="623.13" cy="243.90" r="4.0" fill="#2f6f73" opacity="0.72"/>
<circle cx="619.04" cy="245.00" r="4.0" fill="#2f6f73" opacity="0.72"/>
<circle cx="614.90" cy="242.00" r="4.0" fill="#2f6f73" opacity="0.72"/>
<circle cx="650.64" cy="242.33" r="4.0" fill="#2f6f73" opacity="0.72"/>
<circle cx="614.90" cy="242.18" r="4.0" fill="#2f6f73" opacity="0.72"/>
<circle cx="623.13" cy="243.04" r="4.0" fill="#2f6f73" opacity="0.72"/>
<circle cx="614.90" cy="242.57" r="4.0" fill="#2f6f73" opacity="0.72"/>
<circle cx="602.20" cy="242.65" r="4.0" fill="#2f6f73" opacity="0.72"/>
<circle cx="669.14" cy="243.82" r="4.0" fill="#2f6f73" opacity="0.72"/>
<circle cx="627.18" cy="242.90" r="4.0" fill="#2f6f73" opacity="0.72"/>
<circle cx="635.16" cy="244.24" r="4.0" fill="#2f6f73" opacity="0.72"/>
<circle cx="650.64" cy="242.76" r="4.0" fill="#2f6f73" opacity="0.72"/>
<circle cx="631.19" cy="242.35" r="4.0" fill="#2f6f73" opacity="0.72"/>
<circle cx="658.14" cy="232.62" r="4.0" fill="#2f6f73" opacity="0.72"/>
<circle cx="719.82" cy="242.59" r="4.0" fill="#2f6f73" opacity="0.72"/>
<circle cx="770.16" cy="233.59" r="4.0" fill="#2f6f73" opacity="0.72"/>
<circle cx="669.14" cy="207.29" r="4.0" fill="#2f6f73" opacity="0.72"/>
<circle cx="669.14" cy="244.11" r="4.0" fill="#2f6f73" opacity="0.72"/>
<circle cx="646.82" cy="244.22" r="4.0" fill="#2f6f73" opacity="0.72"/>
<circle cx="639.09" cy="243.85" r="4.0" fill="#2f6f73" opacity="0.72"/>
<circle cx="654.41" cy="244.09" r="4.0" fill="#2f6f73" opacity="0.72"/>
<circle cx="646.82" cy="183.38" r="4.0" fill="#2f6f73" opacity="0.72"/>
<circle cx="639.09" cy="243.89" r="4.0" fill="#2f6f73" opacity="0.72"/>
<text x="482.5" y="688" text-anchor="middle" font-family="Arial" font-size="16">Observed Dactivity, log2(variant / WT)</text>
<text x="24" y="358.5" text-anchor="middle" font-family="Arial" font-size="16" transform="rotate(-90 24 358.5)">Predicted Dactivity, log2(variant / WT)</text>
</svg>