<svg xmlns="http://www.w3.org/2000/svg" width="900" height="720" viewBox="0 0 900 720">
<rect width="100%" height="100%" fill="#ffffff"/>
<text x="450.0" y="34" text-anchor="middle" font-family="Arial" font-size="22" font-weight="700">4TF scramble 1</text>
<text x="450.0" y="62" text-anchor="middle" font-family="Arial" font-size="16" fill="#555">Pearson r = -0.128, n = 261</text>
<rect x="105" y="92" width="755" height="533" fill="#fbfbfb" stroke="#222" stroke-width="1"/>
<line x1="105.00" y1="92" x2="105.00" y2="625" stroke="#dddddd" stroke-width="1"/>
<line x1="105" y1="625.00" x2="860" y2="625.00" stroke="#dddddd" stroke-width="1"/>
<text x="105.00" y="651" text-anchor="middle" font-family="Arial" font-size="13" fill="#444">-2</text>
<text x="92" y="629.00" text-anchor="end" font-family="Arial" font-size="13" fill="#444">-2</text>
<line x1="293.75" y1="92" x2="293.75" y2="625" stroke="#dddddd" stroke-width="1"/>
<line x1="105" y1="491.75" x2="860" y2="491.75" stroke="#dddddd" stroke-width="1"/>
<text x="293.75" y="651" text-anchor="middle" font-family="Arial" font-size="13" fill="#444">-1</text>
<text x="92" y="495.75" text-anchor="end" font-family="Arial" font-size="13" fill="#444">-1</text>
<line x1="482.50" y1="92" x2="482.50" y2="625" stroke="#dddddd" stroke-width="1"/>
<line x1="105" y1="358.50" x2="860" y2="358.50" stroke="#dddddd" stroke-width="1"/>
<text x="482.50" y="651" text-anchor="middle" font-family="Arial" font-size="13" fill="#444">-1</text>
<text x="92" y="362.50" text-anchor="end" font-family="Arial" font-size="13" fill="#444">-1</text>
<line x1="671.25" y1="92" x2="671.25" y2="625" stroke="#dddddd" stroke-width="1"/>
<line x1="105" y1="225.25" x2="860" y2="225.25" stroke="#dddddd" stroke-width="1"/>
<text x="671.25" y="651" text-anchor="middle" font-family="Arial" font-size="13" fill="#444">0</text>
<text x="92" y="229.25" text-anchor="end" font-family="Arial" font-size="13" fill="#444">0</text>
<line x1="860.00" y1="92" x2="860.00" y2="625" stroke="#dddddd" stroke-width="1"/>
<line x1="105" y1="92.00" x2="860" y2="92.00" stroke="#dddddd" stroke-width="1"/>
<text x="860.00" y="651" text-anchor="middle" font-family="Arial" font-size="13" fill="#444">1</text>
<text x="92" y="96.00" text-anchor="end" font-family="Arial" font-size="13" fill="#444">1</text>
<line x1="105" y1="625" x2="860" y2="92" stroke="#9a4f34" stroke-width="2" stroke-dasharray="7 6"/>
<circle cx="646.82" cy="242.49" r="4.0" fill="#2f6f73" opacity="0.72"/>
<circle cx="665.51" cy="242.65" r="4.0" fill="#2f6f73" opacity="0.72"/>
<circle cx="602.20" cy="247.18" r="4.0" fill="#2f6f73" opacity="0.72"/>
<circle cx="536.66" cy="248.32" r="4.0" fill="#2f6f73" opacity="0.72"/>
<circle cx="606.48" cy="244.85" r="4.0" fill="#2f6f73" opacity="0.72"/>
<circle cx="541.74" cy="235.30" r="4.0" fill="#2f6f73" opacity="0.72"/>
<circle cx="658.14" cy="213.91" r="4.0" fill="#2f6f73" opacity="0.72"/>
<circle cx="819.55" cy="229.50" r="4.0" fill="#2f6f73" opacity="0.72"/>
<circle cx="654.41" cy="224.46" r="4.0" fill="#2f6f73" opacity="0.72"/>
<circle cx="614.90" cy="247.19" r="4.0" fill="#2f6f73" opacity="0.72"/>
<circle cx="606.48" cy="247.40" r="4.0" fill="#2f6f73" opacity="0.72"/>
<circle cx="642.98" cy="254.07" r="4.0" fill="#2f6f73" opacity="0.72"/>
<circle cx="570.83" cy="257.08" r="4.0" fill="#2f6f73" opacity="0.72"/>
<circle cx="738.35" cy="254.44" r="4.0" fill="#2f6f73" opacity="0.72"/>
<circle cx="597.87" cy="236.48" r="4.0" fill="#2f6f73" opacity="0.72"/>
<circle cx="566.13" cy="229.36" r="4.0" fill="#2f6f73" opacity="0.72"/>
<circle cx="546.74" cy="238.73" r="4.0" fill="#2f6f73" opacity="0.72"/>
<circle cx="658.14" cy="227.08" r="4.0" fill="#2f6f73" opacity="0.72"/>
<circle cx="515.68" cy="248.22" r="4.0" fill="#2f6f73" opacity="0.72"/>
<circle cx="531.52" cy="232.23" r="4.0" fill="#2f6f73" opacity="0.72"/>
<circle cx="536.66" cy="237.25" r="4.0" fill="#2f6f73" opacity="0.72"/>
<circle cx="526.31" cy="221.80" r="4.0" fill="#2f6f73" opacity="0.72"/>
<circle cx="551.68" cy="233.70" r="4.0" fill="#2f6f73" opacity="0.72"/>
<circle cx="575.47" cy="228.34" r="4.0" fill="#2f6f73" opacity="0.72"/>
<circle cx="575.47" cy="243.90" r="4.0" fill="#2f6f73" opacity="0.72"/>
<circle cx="556.56" cy="241.85" r="4.0" fill="#2f6f73" opacity="0.72"/>
<circle cx="546.74" cy="242.61" r="4.0" fill="#2f6f73" opacity="0.72"/>
<circle cx="541.74" cy="228.51" r="4.0" fill="#2f6f73" opacity="0.72"/>
<circle cx="606.48" cy="239.11" r="4.0" fill="#2f6f73" opacity="0.72"/>
<circle cx="526.31" cy="232.27" r="4.0" fill="#2f6f73" opacity="0.72"/>
<circle cx="623.13" cy="256.32" r="4.0" fill="#2f6f73" opacity="0.72"/>
<circle cx="756.03" cy="234.05" r="4.0" fill="#2f6f73" opacity="0.72"/>
<circle cx="775.67" cy="237.64" r="4.0" fill="#2f6f73" opacity="0.72"/>
<circle cx="661.84" cy="237.05" r="4.0" fill="#2f6f73" opacity="0.72"/>
<circle cx="635.16" cy="232.30" r="4.0" fill="#2f6f73" opacity="0.72"/>
<circle cx="589.07" cy="230.94" r="4.0" fill="#2f6f73" opacity="0.72"/>
<circle cx="619.04" cy="247.88" r="4.0" fill="#2f6f73" opacity="0.72"/>
<circle cx="654.41" cy="229.18" r="4.0" fill="#2f6f73" opacity="0.72"/>
<circle cx="686.79" cy="234.13" r="4.0" fill="#2f6f73" opacity="0.72"/>
<circle cx="526.31" cy="222.24" r="4.0" fill="#2f6f73" opacity="0.72"/>
<circle cx="614.90" cy="231.24" r="4.0" fill="#2f6f73" opacity="0.72"/>
<circle cx="606.48" cy="232.69" r="4.0" fill="#2f6f73" opacity="0.72"/>
<circle cx="566.13" cy="223.18" r="4.0" fill="#2f6f73" opacity="0.72"/>
<circle cx="561.38" cy="218.25" r="4.0" fill="#2f6f73" opacity="0.72"/>
<circle cx="546.74" cy="241.18" r="4.0" fill="#2f6f73" opacity="0.72"/>
<circle cx="606.48" cy="235.20" r="4.0" fill="#2f6f73" opacity="0.72"/>
<circle cx="570.83" cy="218.46" r="4.0" fill="#2f6f73" opacity="0.72"/>
<circle cx="463.77" cy="212.70" r="4.0" fill="#2f6f73" opacity="0.72"/>
<circle cx="602.20" cy="227.04" r="4.0" fill="#2f6f73" opacity="0.72"/>
<circle cx="551.68" cy="225.86" r="4.0" fill="#2f6f73" opacity="0.72"/>
<circle cx="551.68" cy="227.27" r="4.0" fill="#2f6f73" opacity="0.72"/>
<circle cx="593.50" cy="236.52" r="4.0" fill="#2f6f73" opacity="0.72"/>
<circle cx="570.83" cy="229.60" r="4.0" fill="#2f6f73" opacity="0.72"/>
<circle cx="635.16" cy="236.18" r="4.0" fill="#2f6f73" opacity="0.72"/>
<circle cx="589.07" cy="244.19" r="4.0" fill="#2f6f73" opacity="0.72"/>
<circle cx="606.48" cy="231.44" r="4.0" fill="#2f6f73" opacity="0.72"/>
<circle cx="631.19" cy="240.51" r="4.0" fill="#2f6f73" opacity="0.72"/>
<circle cx="639.09" cy="242.33" r="4.0" fill="#2f6f73" opacity="0.72"/>
<circle cx="597.87" cy="270.42" r="4.0" fill="#2f6f73" opacity="0.72"/>
<circle cx="546.74" cy="306.55" r="4.0" fill="#2f6f73" opacity="0.72"/>
<circle cx="531.52" cy="254.28" r="4.0" fill="#2f6f73" opacity="0.72"/>
<circle cx="584.59" cy="241.17" r="4.0" fill="#2f6f73" opacity="0.72"/>
<circle cx="661.84" cy="248.46" r="4.0" fill="#2f6f73" opacity="0.72"/>
<circle cx="606.48" cy="234.96" r="4.0" fill="#2f6f73" opacity="0.72"/>
<circle cx="669.14" cy="232.77" r="4.0" fill="#2f6f73" opacity="0.72"/>
<circle cx="515.68" cy="237.79" r="4.0" fill="#2f6f73" opacity="0.72"/>
<circle cx="610.71" cy="249.88" r="4.0" fill="#2f6f73" opacity="0.72"/>
<circle cx="654.41" cy="235.37" r="4.0" fill="#2f6f73" opacity="0.72"/>
<circle cx="614.90" cy="246.49" r="4.0" fill="#2f6f73" opacity="0.72"/>
<circle cx="650.64" cy="239.37" r="4.0" fill="#2f6f73" opacity="0.72"/>
<circle cx="661.84" cy="241.71" r="4.0" fill="#2f6f73" opacity="0.72"/>
<circle cx="642.98" cy="249.52" r="4.0" fill="#2f6f73" opacity="0.72"/>
<circle cx="650.64" cy="234.57" r="4.0" fill="#2f6f73" opacity="0.72"/>
<circle cx="635.16" cy="240.43" r="4.0" fill="#2f6f73" opacity="0.72"/>
<circle cx="650.64" cy="241.10" r="4.0" fill="#2f6f73" opacity="0.72"/>
<circle cx="669.14" cy="247.00" r="4.0" fill="#2f6f73" opacity="0.72"/>
<circle cx="631.19" cy="239.89" r="4.0" fill="#2f6f73" opacity="0.72"/>
<circle cx="672.73" cy="248.30" r="4.0" fill="#2f6f73" opacity="0.72"/>
<circle cx="726.10" cy="243.49" r="4.0" fill="#2f6f73" opacity="0.72"/>
<circle cx="669.14" cy="244.96" r="4.0" fill="#2f6f73" opacity="0.72"/>
<circle cx="700.34" cy="253.16" r="4.0" fill="#2f6f73" opacity="0.72"/>
<circle cx="642.98" cy="223.65" r="4.0" fill="#2f6f73" opacity="0.72"/>
<circle cx="584.59" cy="228.02" r="4.0" fill="#2f6f73" opacity="0.72"/>
<circle cx="654.41" cy="236.39" r="4.0" fill="#2f6f73" opacity="0.72"/>
<circle cx="610.71" cy="225.08" r="4.0" fill="#2f6f73" opacity="0.72"/>
<circle cx="593.50" cy="228.13" r="4.0" fill="#2f6f73" opacity="0.72"/>
<circle cx="614.90" cy="221.86" r="4.0" fill="#2f6f73" opacity="0.72"/>
<circle cx="610.71" cy="267.91" r="4.0" fill="#2f6f73" opacity="0.72"/>
<circle cx="619.04" cy="247.28" r="4.0" fill="#2f6f73" opacity="0.72"/>
<circle cx="631.19" cy="255.94" r="4.0" fill="#2f6f73" opacity="0.72"/>
<circle cx="672.73" cy="256.44" r="4.0" fill="#2f6f73" opacity="0.72"/>
<circle cx="536.66" cy="267.83" r="4.0" fill="#2f6f73" opacity="0.72"/>
<circle cx="597.87" cy="240.69" r="4.0" fill="#2f6f73" opacity="0.72"/>
<circle cx="602.20" cy="248.23" r="4.0" fill="#2f6f73" opacity="0.72"/>
<circle cx="561.38" cy="249.35" r="4.0" fill="#2f6f73" opacity="0.72"/>
<circle cx="623.13" cy="243.30" r="4.0" fill="#2f6f73" opacity="0.72"/>
<circle cx="551.68" cy="231.73" r="4.0" fill="#2f6f73" opacity="0.72"/>
<circle cx="606.48" cy="240.09" r="4.0" fill="#2f6f73" opacity="0.72"/>
<circle cx="606.48" cy="234.10" r="4.0" fill="#2f6f73" opacity="0.72"/>
<circle cx="570.83" cy="229.66" r="4.0" fill="#2f6f73" opacity="0.72"/>
<circle cx="602.20" cy="248.39" r="4.0" fill="#2f6f73" opacity="0.72"/>
<circle cx="580.06" cy="238.00" r="4.0" fill="#2f6f73" opacity="0.72"/>
<circle cx="654.41" cy="233.73" r="4.0" fill="#2f6f73" opacity="0.72"/>
<circle cx="627.18" cy="263.15" r="4.0" fill="#2f6f73" opacity="0.72"/>
<circle cx="722.97" cy="264.63" r="4.0" fill="#2f6f73" opacity="0.72"/>
<circle cx="758.90" cy="253.43" r="4.0" fill="#2f6f73" opacity="0.72"/>
<circle cx="642.98" cy="247.66" r="4.0" fill="#2f6f73" opacity="0.72"/>
<circle cx="623.13" cy="263.06" r="4.0" fill="#2f6f73" opacity="0.72"/>
<circle cx="679.82" cy="253.85" r="4.0" fill="#2f6f73" opacity="0.72"/>
<circle cx="683.32" cy="247.43" r="4.0" fill="#2f6f73" opacity="0.72"/>
<circle cx="658.14" cy="256.63" r="4.0" fill="#2f6f73" opacity="0.72"/>
<circle cx="521.03" cy="249.16" r="4.0" fill="#2f6f73" opacity="0.72"/>
<circle cx="499.14" cy="245.80" r="4.0" fill="#2f6f73" opacity="0.72"/>
<circle cx="487.71" cy="253.84" r="4.0" fill="#2f6f73" opacity="0.72"/>
<circle cx="504.73" cy="252.91" r="4.0" fill="#2f6f73" opacity="0.72"/>
<circle cx="541.74" cy="223.48" r="4.0" fill="#2f6f73" opacity="0.72"/>
<circle cx="457.55" cy="229.62" r="4.0" fill="#2f6f73" opacity="0.72"/>
<circle cx="475.93" cy="242.93" r="4.0" fill="#2f6f73" opacity="0.72"/>
<circle cx="463.77" cy="242.90" r="4.0" fill="#2f6f73" opacity="0.72"/>
<circle cx="469.90" cy="244.91" r="4.0" fill="#2f6f73" opacity="0.72"/>
<circle cx="536.66" cy="258.11" r="4.0" fill="#2f6f73" opacity="0.72"/>
<circle cx="444.78" cy="255.09" r="4.0" fill="#2f6f73" opacity="0.72"/>
<circle cx="444.78" cy="248.15" r="4.0" fill="#2f6f73" opacity="0.72"/>
<circle cx="526.31" cy="227.64" r="4.0" fill="#2f6f73" opacity="0.72"/>
<circle cx="481.87" cy="229.91" r="4.0" fill="#2f6f73" opacity="0.72"/>
<circle cx="487.71" cy="229.13" r="4.0" fill="#2f6f73" opacity="0.72"/>
<circle cx="487.71" cy="236.97" r="4.0" fill="#2f6f73" opacity="0.72"/>
<circle cx="631.19" cy="243.82" r="4.0" fill="#2f6f73" opacity="0.72"/>
<circle cx="627.18" cy="233.47" r="4.0" fill="#2f6f73" opacity="0.72"/>
<circle cx="676.30" cy="235.92" r="4.0" fill="#2f6f73" opacity="0.72"/>
<circle cx="654.41" cy="235.23" r="4.0" fill="#2f6f73" opacity="0.72"/>
<circle cx="654.41" cy="240.78" r="4.0" fill="#2f6f73" opacity="0.72"/>
<circle cx="646.82" cy="239.20" r="4.0" fill="#2f6f73" opacity="0.72"/>
<circle cx="639.09" cy="241.17" r="4.0" fill="#2f6f73" opacity="0.72"/>
<circle cx="589.07" cy="242.73" r="4.0" fill="#2f6f73" opacity="0.72"/>
<circle cx="697.00" cy="232.42" r="4.0" fill="#2f6f73" opacity="0.72"/>
<circle cx="642.98" cy="232.38" r="4.0" fill="#2f6f73" opacity="0.72"/>
<circle cx="706.95" cy="238.44" r="4.0" fill="#2f6f73" opacity="0.72"/>
<circle cx="551.68" cy="246.04" r="4.0" fill="#2f6f73" opacity="0.72"/>
<circle cx="716.64" cy="240.78" r="4.0" fill="#2f6f73" opacity="0.72"/>
<circle cx="635.16" cy="242.95" r="4.0" fill="#2f6f73" opacity="0.72"/>
<circle cx="536.66" cy="219.95" r="4.0" fill="#2f6f73" opacity="0.72"/>
<circle cx="504.73" cy="238.30" r="4.0" fill="#2f6f73" opacity="0.72"/>
<circle cx="481.87" cy="224.02" r="4.0" fill="#2f6f73" opacity="0.72"/>
<circle cx="451.22" cy="238.74" r="4.0" fill="#2f6f73" opacity="0.72"/>
<circle cx="475.93" cy="251.83" r="4.0" fill="#2f6f73" opacity="0.72"/>
<circle cx="556.56" cy="255.53" r="4.0" fill="#2f6f73" opacity="0.72"/>
<circle cx="373.66" cy="239.84" r="4.0" fill="#2f6f73" opacity="0.72"/>
<circle cx="556.56" cy="235.51" r="4.0" fill="#2f6f73" opacity="0.72"/>
<circle cx="463.77" cy="252.40" r="4.0" fill="#2f6f73" opacity="0.72"/>
<circle cx="373.66" cy="211.65" r="4.0" fill="#2f6f73" opacity="0.72"/>
<circle cx="438.23" cy="205.04" r="4.0" fill="#2f6f73" opacity="0.72"/>
<circle cx="469.90" cy="242.28" r="4.0" fill="#2f6f73" opacity="0.72"/>
<circle cx="481.87" cy="252.71" r="4.0" fill="#2f6f73" opacity="0.72"/>
<circle cx="475.93" cy="219.43" r="4.0" fill="#2f6f73" opacity="0.72"/>
<circle cx="381.40" cy="230.70" r="4.0" fill="#2f6f73" opacity="0.72"/>
<circle cx="580.06" cy="230.37" r="4.0" fill="#2f6f73" opacity="0.72"/>
<circle cx="650.64" cy="229.14" r="4.0" fill="#2f6f73" opacity="0.72"/>
<circle cx="570.83" cy="207.71" r="4.0" fill="#2f6f73" opacity="0.72"/>
<circle cx="614.90" cy="255.70" r="4.0" fill="#2f6f73" opacity="0.72"/>
<circle cx="619.04" cy="242.59" r="4.0" fill="#2f6f73" opacity="0.72"/>
<circle cx="546.74" cy="247.18" r="4.0" fill="#2f6f73" opacity="0.72"/>
<circle cx="410.87" cy="302.74" r="4.0" fill="#2f6f73" opacity="0.72"/>
<circle cx="551.68" cy="243.81" r="4.0" fill="#2f6f73" opacity="0.72"/>
<circle cx="493.47" cy="255.79" r="4.0" fill="#2f6f73" opacity="0.72"/>
<circle cx="661.84" cy="255.00" r="4.0" fill="#2f6f73" opacity="0.72"/>
<circle cx="602.20" cy="248.24" r="4.0" fill="#2f6f73" opacity="0.72"/>
<circle cx="735.32" cy="252.07" r="4.0" fill="#2f6f73" opacity="0.72"/>
<circle cx="551.68" cy="241.61" r="4.0" fill="#2f6f73" opacity="0.72"/>
<circle cx="561.38" cy="244.46" r="4.0" fill="#2f6f73" opacity="0.72"/>
<circle cx="556.56" cy="244.24" r="4.0" fill="#2f6f73" opacity="0.72"/>
<circle cx="639.09" cy="228.78" r="4.0" fill="#2f6f73" opacity="0.72"/>
<circle cx="676.30" cy="241.64" r="4.0" fill="#2f6f73" opacity="0.72"/>
<circle cx="654.41" cy="239.37" r="4.0" fill="#2f6f73" opacity="0.72"/>
<circle cx="606.48" cy="259.91" r="4.0" fill="#2f6f73" opacity="0.72"/>
<circle cx="606.48" cy="248.79" r="4.0" fill="#2f6f73" opacity="0.72"/>
<circle cx="722.97" cy="258.31" r="4.0" fill="#2f6f73" opacity="0.72"/>
<circle cx="665.51" cy="221.50" r="4.0" fill="#2f6f73" opacity="0.72"/>
<circle cx="783.79" cy="251.78" r="4.0" fill="#2f6f73" opacity="0.72"/>
<circle cx="676.30" cy="250.78" r="4.0" fill="#2f6f73" opacity="0.72"/>
<circle cx="722.97" cy="236.57" r="4.0" fill="#2f6f73" opacity="0.72"/>
<circle cx="593.50" cy="245.95" r="4.0" fill="#2f6f73" opacity="0.72"/>
<circle cx="679.82" cy="259.26" r="4.0" fill="#2f6f73" opacity="0.72"/>
<circle cx="654.41" cy="221.77" r="4.0" fill="#2f6f73" opacity="0.72"/>
<circle cx="669.14" cy="223.96" r="4.0" fill="#2f6f73" opacity="0.72"/>
<circle cx="646.82" cy="265.32" r="4.0" fill="#2f6f73" opacity="0.72"/>
<circle cx="679.82" cy="192.47" r="4.0" fill="#2f6f73" opacity="0.72"/>
<circle cx="772.92" cy="239.98" r="4.0" fill="#2f6f73" opacity="0.72"/>
<circle cx="669.14" cy="227.83" r="4.0" fill="#2f6f73" opacity="0.72"/>
<circle cx="722.97" cy="242.46" r="4.0" fill="#2f6f73" opacity="0.72"/>
<circle cx="764.57" cy="235.65" r="4.0" fill="#2f6f73" opacity="0.72"/>
<circle cx="758.90" cy="260.65" r="4.0" fill="#2f6f73" opacity="0.72"/>
<circle cx="729.20" cy="265.99" r="4.0" fill="#2f6f73" opacity="0.72"/>
<circle cx="778.39" cy="256.66" r="4.0" fill="#2f6f73" opacity="0.72"/>
<circle cx="750.23" cy="254.44" r="4.0" fill="#2f6f73" opacity="0.72"/>
<circle cx="676.30" cy="269.39" r="4.0" fill="#2f6f73" opacity="0.72"/>
<circle cx="710.20" cy="264.66" r="4.0" fill="#2f6f73" opacity="0.72"/>
<circle cx="661.84" cy="240.47" r="4.0" fill="#2f6f73" opacity="0.72"/>
<circle cx="738.35" cy="251.76" r="4.0" fill="#2f6f73" opacity="0.72"/>
<circle cx="758.90" cy="255.55" r="4.0" fill="#2f6f73" opacity="0.72"/>
<circle cx="686.79" cy="237.89" r="4.0" fill="#2f6f73" opacity="0.72"/>
<circle cx="510.24" cy="225.45" r="4.0" fill="#2f6f73" opacity="0.72"/>
<circle cx="531.52" cy="234.19" r="4.0" fill="#2f6f73" opacity="0.72"/>
<circle cx="584.59" cy="226.28" r="4.0" fill="#2f6f73" opacity="0.72"/>
<circle cx="410.87" cy="248.85" r="4.0" fill="#2f6f73" opacity="0.72"/>
<circle cx="566.13" cy="240.59" r="4.0" fill="#2f6f73" opacity="0.72"/>
<circle cx="410.87" cy="241.73" r="4.0" fill="#2f6f73" opacity="0.72"/>
<circle cx="451.22" cy="229.61" r="4.0" fill="#2f6f73" opacity="0.72"/>
<circle cx="424.80" cy="238.83" r="4.0" fill="#2f6f73" opacity="0.72"/>
<circle cx="424.80" cy="231.36" r="4.0" fill="#2f6f73" opacity="0.72"/>
<circle cx="314.64" cy="237.64" r="4.0" fill="#2f6f73" opacity="0.72"/>
<circle cx="373.66" cy="248.23" r="4.0" fill="#2f6f73" opacity="0.72"/>
<circle cx="526.31" cy="246.63" r="4.0" fill="#2f6f73" opacity="0.72"/>
<circle cx="286.26" cy="243.88" r="4.0" fill="#2f6f73" opacity="0.72"/>
<circle cx="403.71" cy="236.10" r="4.0" fill="#2f6f73" opacity="0.72"/>
<circle cx="381.40" cy="247.29" r="4.0" fill="#2f6f73" opacity="0.72"/>
<circle cx="145.45" cy="220.76" r="4.0" fill="#2f6f73" opacity="0.72"/>
<circle cx="255.61" cy="224.41" r="4.0" fill="#2f6f73" opacity="0.72"/>
<circle cx="266.10" cy="257.51" r="4.0" fill="#2f6f73" opacity="0.72"/>
<circle cx="357.71" cy="255.94" r="4.0" fill="#2f6f73" opacity="0.72"/>
<circle cx="295.95" cy="223.03" r="4.0" fill="#2f6f73" opacity="0.72"/>
<circle cx="172.81" cy="235.12" r="4.0" fill="#2f6f73" opacity="0.72"/>
<circle cx="373.66" cy="240.49" r="4.0" fill="#2f6f73" opacity="0.72"/>
<circle cx="396.42" cy="229.40" r="4.0" fill="#2f6f73" opacity="0.72"/>
<circle cx="233.72" cy="241.40" r="4.0" fill="#2f6f73" opacity="0.72"/>
<circle cx="541.74" cy="250.52" r="4.0" fill="#2f6f73" opacity="0.72"/>
<circle cx="396.42" cy="243.44" r="4.0" fill="#2f6f73" opacity="0.72"/>
<circle cx="381.40" cy="249.96" r="4.0" fill="#2f6f73" opacity="0.72"/>
<circle cx="388.98" cy="223.87" r="4.0" fill="#2f6f73" opacity="0.72"/>
<circle cx="424.80" cy="232.54" r="4.0" fill="#2f6f73" opacity="0.72"/>
<circle cx="444.78" cy="227.05" r="4.0" fill="#2f6f73" opacity="0.72"/>
<circle cx="381.40" cy="226.02" r="4.0" fill="#2f6f73" opacity="0.72"/>
<circle cx="561.38" cy="239.10" r="4.0" fill="#2f6f73" opacity="0.72"/>
<circle cx="410.87" cy="239.68" r="4.0" fill="#2f6f73" opacity="0.72"/>
<circle cx="444.78" cy="240.49" r="4.0" fill="#2f6f73" opacity="0.72"/>
<circle cx="526.31" cy="244.89" r="4.0" fill="#2f6f73" opacity="0.72"/>
<circle cx="431.57" cy="236.29" r="4.0" fill="#2f6f73" opacity="0.72"/>
<circle cx="597.87" cy="242.05" r="4.0" fill="#2f6f73" opacity="0.72"/>
<circle cx="623.13" cy="247.32" r="4.0" fill="#2f6f73" opacity="0.72"/>
<circle cx="619.04" cy="239.48" r="4.0" fill="#2f6f73" opacity="0.72"/>
<circle cx="614.90" cy="249.16" r="4.0" fill="#2f6f73" opacity="0.72"/>
<circle cx="650.64" cy="251.36" r="4.0" fill="#2f6f73" opacity="0.72"/>
<circle cx="614.90" cy="245.95" r="4.0" fill="#2f6f73" opacity="0.72"/>
<circle cx="623.13" cy="240.03" r="4.0" fill="#2f6f73" opacity="0.72"/>
<circle cx="614.90" cy="245.97" r="4.0" fill="#2f6f73" opacity="0.72"/>
<circle cx="602.20" cy="248.79" r="4.0" fill="#2f6f73" opacity="0.72"/>
<circle cx="669.14" cy="228.58" r="4.0" fill="#2f6f73" opacity="0.72"/>
<circle cx="627.18" cy="234.46" r="4.0" fill="#2f6f73" opacity="0.72"/>
<circle cx="635.16" cy="226.38" r="4.0" fill="#2f6f73" opacity="0.72"/>
<circle cx="650.64" cy="247.58" r="4.0" fill="#2f6f73" opacity="0.72"/>
<circle cx="631.19" cy="241.48" r="4.0" fill="#2f6f73" opacity="0.72"/>
<circle cx="658.14" cy="243.23" r="4.0" fill="#2f6f73" opacity="0.72"/>
<circle cx="719.82" cy="238.49" r="4.0" fill="#2f6f73" opacity="0.72"/>
<circle cx="770.16" cy="237.10" r="4.0" fill="#2f6f73" opacity="0.72"/>
<circle cx="669.14" cy="226.27" r="4.0" fill="#2f6f73" opacity="0.72"/>
<circle cx="669.14" cy="228.88" r="4.0" fill="#2f6f73" opacity="0.72"/>
<circle cx="646.82" cy="230.83" r="4.0" fill="#2f6f73" opacity="0.72"/>
<circle cx="639.09" cy="235.32" r="4.0" fill="#2f6f73" opacity="0.72"/>
<circle cx="654.41" cy="241.86" r="4.0" fill="#2f6f73" opacity="0.72"/>
<circle cx="646.82" cy="215.23" r="4.0" fill="#2f6f73" opacity="0.72"/>
<circle cx="639.09" cy="249.01" r="4.0" fill="#2f6f73" opacity="0.72"/>
<text x="482.5" y="688" text-anchor="middle" font-family="Arial" font-size="16">Observed Dactivity, log2(variant / WT)</text>
<text x="24" y="358.5" text-anchor="middle" font-family="Arial" font-size="16" transform="rotate(-90 24 358.5)">Predicted Dactivity, log2(variant / WT)</text>
</svg>