<svg xmlns="http://www.w3.org/2000/svg" width="3120" height="1760" viewBox="0 0 780 440">
<rect width="100%" height="100%" fill="#ffffff"/>
<text x="390.00" y="28.00" font-family="Arial, Helvetica, sans-serif" font-size="20" font-weight="400" text-anchor="middle" fill="#222222">4TF model performance against scrambled-label controls</text>
<text x="71.00" y="54.00" font-family="Arial, Helvetica, sans-serif" font-size="20" font-weight="700" text-anchor="start" fill="#222222">L</text>
<rect x="105.00" y="72.00" width="260.00" height="265.00" fill="#FFFFFF" stroke="none" stroke-width="1.0" opacity="1.0"/>
<line x1="105.00" y1="320.44" x2="365.00" y2="320.44" stroke="#E7E7E7" stroke-width="1.0"/>
<text x="96.00" y="325.44" font-family="Arial, Helvetica, sans-serif" font-size="14" font-weight="400" text-anchor="end" fill="#4c4c4c">-0.6</text>
<line x1="105.00" y1="270.75" x2="365.00" y2="270.75" stroke="#E7E7E7" stroke-width="1.0"/>
<text x="96.00" y="275.75" font-family="Arial, Helvetica, sans-serif" font-size="14" font-weight="400" text-anchor="end" fill="#4c4c4c">-0.3</text>
<line x1="105.00" y1="221.06" x2="365.00" y2="221.06" stroke="#E7E7E7" stroke-width="1.0"/>
<text x="96.00" y="226.06" font-family="Arial, Helvetica, sans-serif" font-size="14" font-weight="400" text-anchor="end" fill="#4c4c4c">0.0</text>
<line x1="105.00" y1="171.38" x2="365.00" y2="171.38" stroke="#E7E7E7" stroke-width="1.0"/>
<text x="96.00" y="176.38" font-family="Arial, Helvetica, sans-serif" font-size="14" font-weight="400" text-anchor="end" fill="#4c4c4c">0.3</text>
<line x1="105.00" y1="121.69" x2="365.00" y2="121.69" stroke="#E7E7E7" stroke-width="1.0"/>
<text x="96.00" y="126.69" font-family="Arial, Helvetica, sans-serif" font-size="14" font-weight="400" text-anchor="end" fill="#4c4c4c">0.6</text>
<line x1="105.00" y1="72.00" x2="365.00" y2="72.00" stroke="#E7E7E7" stroke-width="1.0"/>
<text x="96.00" y="77.00" font-family="Arial, Helvetica, sans-serif" font-size="14" font-weight="400" text-anchor="end" fill="#4c4c4c">0.9</text>
<line x1="105.00" y1="221.06" x2="365.00" y2="221.06" stroke="#999999" stroke-width="1.2" stroke-dasharray="4 4"/>
<line x1="105.00" y1="337.00" x2="365.00" y2="337.00" stroke="#222222" stroke-width="1.2"/>
<line x1="105.00" y1="72.00" x2="105.00" y2="337.00" stroke="#222222" stroke-width="1.2"/>
<circle cx="175.40" cy="83.17" r="4.2" fill="#F8766D" opacity="0.82"/>
<circle cx="184.40" cy="82.86" r="4.2" fill="#F8766D" opacity="0.82"/>
<circle cx="193.40" cy="86.12" r="4.2" fill="#F8766D" opacity="0.82"/>
<circle cx="202.40" cy="84.13" r="4.2" fill="#F8766D" opacity="0.82"/>
<circle cx="211.40" cy="83.22" r="4.2" fill="#F8766D" opacity="0.82"/>
<line x1="193.40" y1="84.49" x2="193.40" y2="83.30" stroke="#F8766D" stroke-width="2.0"/>
<line x1="178.40" y1="84.49" x2="208.40" y2="84.49" stroke="#F8766D" stroke-width="2.0"/>
<line x1="178.40" y1="83.30" x2="208.40" y2="83.30" stroke="#F8766D" stroke-width="2.0"/>
<line x1="169.40" y1="83.90" x2="217.40" y2="83.90" stroke="#F8766D" stroke-width="4.0"/>
<text x="193.40" y="101.90" font-family="Arial, Helvetica, sans-serif" font-size="12" font-weight="700" text-anchor="middle" fill="#F8766D">0.83</text>
<circle cx="269.00" cy="185.71" r="4.2" fill="#00BFC4" opacity="0.82"/>
<circle cx="273.00" cy="227.08" r="4.2" fill="#00BFC4" opacity="0.82"/>
<circle cx="277.00" cy="266.95" r="4.2" fill="#00BFC4" opacity="0.82"/>
<circle cx="281.00" cy="317.59" r="4.2" fill="#00BFC4" opacity="0.82"/>
<circle cx="285.00" cy="267.59" r="4.2" fill="#00BFC4" opacity="0.82"/>
<circle cx="289.00" cy="223.18" r="4.2" fill="#00BFC4" opacity="0.82"/>
<circle cx="293.00" cy="214.36" r="4.2" fill="#00BFC4" opacity="0.82"/>
<circle cx="297.00" cy="245.98" r="4.2" fill="#00BFC4" opacity="0.82"/>
<circle cx="301.00" cy="174.72" r="4.2" fill="#00BFC4" opacity="0.82"/>
<circle cx="305.00" cy="242.22" r="4.2" fill="#00BFC4" opacity="0.82"/>
<line x1="287.00" y1="249.77" x2="287.00" y2="223.31" stroke="#00BFC4" stroke-width="2.0"/>
<line x1="272.00" y1="249.77" x2="302.00" y2="249.77" stroke="#00BFC4" stroke-width="2.0"/>
<line x1="272.00" y1="223.31" x2="302.00" y2="223.31" stroke="#00BFC4" stroke-width="2.0"/>
<line x1="263.00" y1="236.54" x2="311.00" y2="236.54" stroke="#00BFC4" stroke-width="4.0"/>
<text x="287.00" y="224.54" font-family="Arial, Helvetica, sans-serif" font-size="12" font-weight="700" text-anchor="middle" fill="#00BFC4">-0.09</text>
<text x="193.40" y="361.00" font-family="Arial, Helvetica, sans-serif" font-size="15" font-weight="400" text-anchor="middle" fill="#222222">4TF</text>
<text x="287.00" y="361.00" font-family="Arial, Helvetica, sans-serif" font-size="15" font-weight="400" text-anchor="middle" fill="#222222">scramble</text>
<text x="235.00" y="68.00" font-family="Arial, Helvetica, sans-serif" font-size="13" font-weight="400" text-anchor="middle" fill="#333333">single-hit training set</text>
<text x="47.00" y="204.50" font-family="Arial, Helvetica, sans-serif" font-size="19" text-anchor="middle" fill="#222222" transform="rotate(-90 47.00 204.50)">Pearson's R</text>
<text x="421.00" y="54.00" font-family="Arial, Helvetica, sans-serif" font-size="20" font-weight="700" text-anchor="start" fill="#222222">M</text>
<rect x="455.00" y="72.00" width="260.00" height="265.00" fill="#FFFFFF" stroke="none" stroke-width="1.0" opacity="1.0"/>
<line x1="455.00" y1="320.44" x2="715.00" y2="320.44" stroke="#E7E7E7" stroke-width="1.0"/>
<line x1="455.00" y1="270.75" x2="715.00" y2="270.75" stroke="#E7E7E7" stroke-width="1.0"/>
<line x1="455.00" y1="221.06" x2="715.00" y2="221.06" stroke="#E7E7E7" stroke-width="1.0"/>
<line x1="455.00" y1="171.38" x2="715.00" y2="171.38" stroke="#E7E7E7" stroke-width="1.0"/>
<line x1="455.00" y1="121.69" x2="715.00" y2="121.69" stroke="#E7E7E7" stroke-width="1.0"/>
<line x1="455.00" y1="72.00" x2="715.00" y2="72.00" stroke="#E7E7E7" stroke-width="1.0"/>
<line x1="455.00" y1="221.06" x2="715.00" y2="221.06" stroke="#999999" stroke-width="1.2" stroke-dasharray="4 4"/>
<line x1="455.00" y1="337.00" x2="715.00" y2="337.00" stroke="#222222" stroke-width="1.2"/>
<line x1="455.00" y1="72.00" x2="455.00" y2="337.00" stroke="#222222" stroke-width="1.2"/>
<circle cx="525.40" cy="98.79" r="4.2" fill="#F8766D" opacity="0.82"/>
<circle cx="534.40" cy="94.57" r="4.2" fill="#F8766D" opacity="0.82"/>
<circle cx="543.40" cy="103.44" r="4.2" fill="#F8766D" opacity="0.82"/>
<circle cx="552.40" cy="96.35" r="4.2" fill="#F8766D" opacity="0.82"/>
<circle cx="561.40" cy="98.15" r="4.2" fill="#F8766D" opacity="0.82"/>
<line x1="543.40" y1="99.75" x2="543.40" y2="96.77" stroke="#F8766D" stroke-width="2.0"/>
<line x1="528.40" y1="99.75" x2="558.40" y2="99.75" stroke="#F8766D" stroke-width="2.0"/>
<line x1="528.40" y1="96.77" x2="558.40" y2="96.77" stroke="#F8766D" stroke-width="2.0"/>
<line x1="519.40" y1="98.26" x2="567.40" y2="98.26" stroke="#F8766D" stroke-width="4.0"/>
<text x="543.40" y="116.26" font-family="Arial, Helvetica, sans-serif" font-size="12" font-weight="700" text-anchor="middle" fill="#F8766D">0.74</text>
<circle cx="619.00" cy="318.98" r="4.2" fill="#00BFC4" opacity="0.82"/>
<circle cx="623.00" cy="244.83" r="4.2" fill="#00BFC4" opacity="0.82"/>
<circle cx="627.00" cy="280.80" r="4.2" fill="#00BFC4" opacity="0.82"/>
<circle cx="631.00" cy="180.59" r="4.2" fill="#00BFC4" opacity="0.82"/>
<circle cx="635.00" cy="228.68" r="4.2" fill="#00BFC4" opacity="0.82"/>
<circle cx="639.00" cy="266.95" r="4.2" fill="#00BFC4" opacity="0.82"/>
<circle cx="643.00" cy="251.60" r="4.2" fill="#00BFC4" opacity="0.82"/>
<circle cx="647.00" cy="199.46" r="4.2" fill="#00BFC4" opacity="0.82"/>
<circle cx="651.00" cy="218.72" r="4.2" fill="#00BFC4" opacity="0.82"/>
<circle cx="655.00" cy="165.36" r="4.2" fill="#00BFC4" opacity="0.82"/>
<line x1="637.00" y1="250.47" x2="637.00" y2="220.72" stroke="#00BFC4" stroke-width="2.0"/>
<line x1="622.00" y1="250.47" x2="652.00" y2="250.47" stroke="#00BFC4" stroke-width="2.0"/>
<line x1="622.00" y1="220.72" x2="652.00" y2="220.72" stroke="#00BFC4" stroke-width="2.0"/>
<line x1="613.00" y1="235.60" x2="661.00" y2="235.60" stroke="#00BFC4" stroke-width="4.0"/>
<text x="637.00" y="223.60" font-family="Arial, Helvetica, sans-serif" font-size="12" font-weight="700" text-anchor="middle" fill="#00BFC4">-0.09</text>
<text x="543.40" y="361.00" font-family="Arial, Helvetica, sans-serif" font-size="15" font-weight="400" text-anchor="middle" fill="#222222">4TF</text>
<text x="637.00" y="361.00" font-family="Arial, Helvetica, sans-serif" font-size="15" font-weight="400" text-anchor="middle" fill="#222222">scramble</text>
<text x="585.00" y="68.00" font-family="Arial, Helvetica, sans-serif" font-size="13" font-weight="400" text-anchor="middle" fill="#333333">multi-hit validation set</text>
<text x="390.00" y="407.00" font-family="Arial, Helvetica, sans-serif" font-size="13" font-weight="400" text-anchor="middle" fill="#555555">Each point is one independent fit/control; thick line = mean, whiskers = SE.</text>
</svg>
