<svg xmlns="http://www.w3.org/2000/svg" width="900" height="720" viewBox="0 0 900 720">
<rect width="100%" height="100%" fill="#ffffff"/>
<text x="450.0" y="34" text-anchor="middle" font-family="Arial" font-size="22" font-weight="700">4TF scramble 5</text>
<text x="450.0" y="62" text-anchor="middle" font-family="Arial" font-size="16" fill="#555">Pearson r = -0.281, n = 261</text>
<rect x="105" y="92" width="755" height="533" fill="#fbfbfb" stroke="#222" stroke-width="1"/>
<line x1="105.00" y1="92" x2="105.00" y2="625" stroke="#dddddd" stroke-width="1"/>
<line x1="105" y1="625.00" x2="860" y2="625.00" stroke="#dddddd" stroke-width="1"/>
<text x="105.00" y="651" text-anchor="middle" font-family="Arial" font-size="13" fill="#444">-2</text>
<text x="92" y="629.00" text-anchor="end" font-family="Arial" font-size="13" fill="#444">-2</text>
<line x1="293.75" y1="92" x2="293.75" y2="625" stroke="#dddddd" stroke-width="1"/>
<line x1="105" y1="491.75" x2="860" y2="491.75" stroke="#dddddd" stroke-width="1"/>
<text x="293.75" y="651" text-anchor="middle" font-family="Arial" font-size="13" fill="#444">-1</text>
<text x="92" y="495.75" text-anchor="end" font-family="Arial" font-size="13" fill="#444">-1</text>
<line x1="482.50" y1="92" x2="482.50" y2="625" stroke="#dddddd" stroke-width="1"/>
<line x1="105" y1="358.50" x2="860" y2="358.50" stroke="#dddddd" stroke-width="1"/>
<text x="482.50" y="651" text-anchor="middle" font-family="Arial" font-size="13" fill="#444">-1</text>
<text x="92" y="362.50" text-anchor="end" font-family="Arial" font-size="13" fill="#444">-1</text>
<line x1="671.25" y1="92" x2="671.25" y2="625" stroke="#dddddd" stroke-width="1"/>
<line x1="105" y1="225.25" x2="860" y2="225.25" stroke="#dddddd" stroke-width="1"/>
<text x="671.25" y="651" text-anchor="middle" font-family="Arial" font-size="13" fill="#444">0</text>
<text x="92" y="229.25" text-anchor="end" font-family="Arial" font-size="13" fill="#444">0</text>
<line x1="860.00" y1="92" x2="860.00" y2="625" stroke="#dddddd" stroke-width="1"/>
<line x1="105" y1="92.00" x2="860" y2="92.00" stroke="#dddddd" stroke-width="1"/>
<text x="860.00" y="651" text-anchor="middle" font-family="Arial" font-size="13" fill="#444">1</text>
<text x="92" y="96.00" text-anchor="end" font-family="Arial" font-size="13" fill="#444">1</text>
<line x1="105" y1="625" x2="860" y2="92" stroke="#9a4f34" stroke-width="2" stroke-dasharray="7 6"/>
<circle cx="646.82" cy="242.49" r="4.0" fill="#2f6f73" opacity="0.72"/>
<circle cx="665.51" cy="232.14" r="4.0" fill="#2f6f73" opacity="0.72"/>
<circle cx="602.20" cy="247.95" r="4.0" fill="#2f6f73" opacity="0.72"/>
<circle cx="536.66" cy="232.25" r="4.0" fill="#2f6f73" opacity="0.72"/>
<circle cx="606.48" cy="270.49" r="4.0" fill="#2f6f73" opacity="0.72"/>
<circle cx="541.74" cy="271.57" r="4.0" fill="#2f6f73" opacity="0.72"/>
<circle cx="658.14" cy="252.39" r="4.0" fill="#2f6f73" opacity="0.72"/>
<circle cx="819.55" cy="232.22" r="4.0" fill="#2f6f73" opacity="0.72"/>
<circle cx="654.41" cy="263.92" r="4.0" fill="#2f6f73" opacity="0.72"/>
<circle cx="614.90" cy="247.92" r="4.0" fill="#2f6f73" opacity="0.72"/>
<circle cx="606.48" cy="261.15" r="4.0" fill="#2f6f73" opacity="0.72"/>
<circle cx="642.98" cy="233.80" r="4.0" fill="#2f6f73" opacity="0.72"/>
<circle cx="570.83" cy="231.65" r="4.0" fill="#2f6f73" opacity="0.72"/>
<circle cx="738.35" cy="226.00" r="4.0" fill="#2f6f73" opacity="0.72"/>
<circle cx="597.87" cy="253.74" r="4.0" fill="#2f6f73" opacity="0.72"/>
<circle cx="566.13" cy="246.89" r="4.0" fill="#2f6f73" opacity="0.72"/>
<circle cx="546.74" cy="256.94" r="4.0" fill="#2f6f73" opacity="0.72"/>
<circle cx="658.14" cy="247.55" r="4.0" fill="#2f6f73" opacity="0.72"/>
<circle cx="515.68" cy="248.37" r="4.0" fill="#2f6f73" opacity="0.72"/>
<circle cx="531.52" cy="228.64" r="4.0" fill="#2f6f73" opacity="0.72"/>
<circle cx="536.66" cy="234.23" r="4.0" fill="#2f6f73" opacity="0.72"/>
<circle cx="526.31" cy="248.26" r="4.0" fill="#2f6f73" opacity="0.72"/>
<circle cx="551.68" cy="241.05" r="4.0" fill="#2f6f73" opacity="0.72"/>
<circle cx="575.47" cy="238.89" r="4.0" fill="#2f6f73" opacity="0.72"/>
<circle cx="575.47" cy="247.15" r="4.0" fill="#2f6f73" opacity="0.72"/>
<circle cx="556.56" cy="249.02" r="4.0" fill="#2f6f73" opacity="0.72"/>
<circle cx="546.74" cy="245.00" r="4.0" fill="#2f6f73" opacity="0.72"/>
<circle cx="541.74" cy="246.78" r="4.0" fill="#2f6f73" opacity="0.72"/>
<circle cx="606.48" cy="241.92" r="4.0" fill="#2f6f73" opacity="0.72"/>
<circle cx="526.31" cy="247.85" r="4.0" fill="#2f6f73" opacity="0.72"/>
<circle cx="623.13" cy="238.69" r="4.0" fill="#2f6f73" opacity="0.72"/>
<circle cx="756.03" cy="264.71" r="4.0" fill="#2f6f73" opacity="0.72"/>
<circle cx="775.67" cy="275.66" r="4.0" fill="#2f6f73" opacity="0.72"/>
<circle cx="661.84" cy="269.60" r="4.0" fill="#2f6f73" opacity="0.72"/>
<circle cx="635.16" cy="254.04" r="4.0" fill="#2f6f73" opacity="0.72"/>
<circle cx="589.07" cy="266.52" r="4.0" fill="#2f6f73" opacity="0.72"/>
<circle cx="619.04" cy="273.68" r="4.0" fill="#2f6f73" opacity="0.72"/>
<circle cx="654.41" cy="256.98" r="4.0" fill="#2f6f73" opacity="0.72"/>
<circle cx="686.79" cy="260.57" r="4.0" fill="#2f6f73" opacity="0.72"/>
<circle cx="526.31" cy="254.21" r="4.0" fill="#2f6f73" opacity="0.72"/>
<circle cx="614.90" cy="234.28" r="4.0" fill="#2f6f73" opacity="0.72"/>
<circle cx="606.48" cy="240.04" r="4.0" fill="#2f6f73" opacity="0.72"/>
<circle cx="566.13" cy="255.48" r="4.0" fill="#2f6f73" opacity="0.72"/>
<circle cx="561.38" cy="269.43" r="4.0" fill="#2f6f73" opacity="0.72"/>
<circle cx="546.74" cy="238.04" r="4.0" fill="#2f6f73" opacity="0.72"/>
<circle cx="606.48" cy="235.99" r="4.0" fill="#2f6f73" opacity="0.72"/>
<circle cx="570.83" cy="252.54" r="4.0" fill="#2f6f73" opacity="0.72"/>
<circle cx="463.77" cy="237.52" r="4.0" fill="#2f6f73" opacity="0.72"/>
<circle cx="602.20" cy="231.50" r="4.0" fill="#2f6f73" opacity="0.72"/>
<circle cx="551.68" cy="228.89" r="4.0" fill="#2f6f73" opacity="0.72"/>
<circle cx="551.68" cy="242.47" r="4.0" fill="#2f6f73" opacity="0.72"/>
<circle cx="593.50" cy="254.53" r="4.0" fill="#2f6f73" opacity="0.72"/>
<circle cx="570.83" cy="251.81" r="4.0" fill="#2f6f73" opacity="0.72"/>
<circle cx="635.16" cy="263.97" r="4.0" fill="#2f6f73" opacity="0.72"/>
<circle cx="589.07" cy="256.11" r="4.0" fill="#2f6f73" opacity="0.72"/>
<circle cx="606.48" cy="251.27" r="4.0" fill="#2f6f73" opacity="0.72"/>
<circle cx="631.19" cy="252.94" r="4.0" fill="#2f6f73" opacity="0.72"/>
<circle cx="639.09" cy="253.82" r="4.0" fill="#2f6f73" opacity="0.72"/>
<circle cx="597.87" cy="225.43" r="4.0" fill="#2f6f73" opacity="0.72"/>
<circle cx="546.74" cy="221.20" r="4.0" fill="#2f6f73" opacity="0.72"/>
<circle cx="531.52" cy="242.92" r="4.0" fill="#2f6f73" opacity="0.72"/>
<circle cx="584.59" cy="244.54" r="4.0" fill="#2f6f73" opacity="0.72"/>
<circle cx="661.84" cy="240.67" r="4.0" fill="#2f6f73" opacity="0.72"/>
<circle cx="606.48" cy="249.88" r="4.0" fill="#2f6f73" opacity="0.72"/>
<circle cx="669.14" cy="244.04" r="4.0" fill="#2f6f73" opacity="0.72"/>
<circle cx="515.68" cy="244.06" r="4.0" fill="#2f6f73" opacity="0.72"/>
<circle cx="610.71" cy="249.98" r="4.0" fill="#2f6f73" opacity="0.72"/>
<circle cx="654.41" cy="245.49" r="4.0" fill="#2f6f73" opacity="0.72"/>
<circle cx="614.90" cy="254.25" r="4.0" fill="#2f6f73" opacity="0.72"/>
<circle cx="650.64" cy="235.62" r="4.0" fill="#2f6f73" opacity="0.72"/>
<circle cx="661.84" cy="245.30" r="4.0" fill="#2f6f73" opacity="0.72"/>
<circle cx="642.98" cy="239.10" r="4.0" fill="#2f6f73" opacity="0.72"/>
<circle cx="650.64" cy="242.14" r="4.0" fill="#2f6f73" opacity="0.72"/>
<circle cx="635.16" cy="232.90" r="4.0" fill="#2f6f73" opacity="0.72"/>
<circle cx="650.64" cy="249.05" r="4.0" fill="#2f6f73" opacity="0.72"/>
<circle cx="669.14" cy="249.27" r="4.0" fill="#2f6f73" opacity="0.72"/>
<circle cx="631.19" cy="239.37" r="4.0" fill="#2f6f73" opacity="0.72"/>
<circle cx="672.73" cy="232.66" r="4.0" fill="#2f6f73" opacity="0.72"/>
<circle cx="726.10" cy="222.36" r="4.0" fill="#2f6f73" opacity="0.72"/>
<circle cx="669.14" cy="212.90" r="4.0" fill="#2f6f73" opacity="0.72"/>
<circle cx="700.34" cy="223.62" r="4.0" fill="#2f6f73" opacity="0.72"/>
<circle cx="642.98" cy="227.53" r="4.0" fill="#2f6f73" opacity="0.72"/>
<circle cx="584.59" cy="221.80" r="4.0" fill="#2f6f73" opacity="0.72"/>
<circle cx="654.41" cy="252.66" r="4.0" fill="#2f6f73" opacity="0.72"/>
<circle cx="610.71" cy="199.76" r="4.0" fill="#2f6f73" opacity="0.72"/>
<circle cx="593.50" cy="213.73" r="4.0" fill="#2f6f73" opacity="0.72"/>
<circle cx="614.90" cy="232.80" r="4.0" fill="#2f6f73" opacity="0.72"/>
<circle cx="610.71" cy="235.41" r="4.0" fill="#2f6f73" opacity="0.72"/>
<circle cx="619.04" cy="216.43" r="4.0" fill="#2f6f73" opacity="0.72"/>
<circle cx="631.19" cy="243.64" r="4.0" fill="#2f6f73" opacity="0.72"/>
<circle cx="672.73" cy="224.98" r="4.0" fill="#2f6f73" opacity="0.72"/>
<circle cx="536.66" cy="242.65" r="4.0" fill="#2f6f73" opacity="0.72"/>
<circle cx="597.87" cy="232.54" r="4.0" fill="#2f6f73" opacity="0.72"/>
<circle cx="602.20" cy="265.51" r="4.0" fill="#2f6f73" opacity="0.72"/>
<circle cx="561.38" cy="252.88" r="4.0" fill="#2f6f73" opacity="0.72"/>
<circle cx="623.13" cy="251.92" r="4.0" fill="#2f6f73" opacity="0.72"/>
<circle cx="551.68" cy="241.02" r="4.0" fill="#2f6f73" opacity="0.72"/>
<circle cx="606.48" cy="241.05" r="4.0" fill="#2f6f73" opacity="0.72"/>
<circle cx="606.48" cy="236.70" r="4.0" fill="#2f6f73" opacity="0.72"/>
<circle cx="570.83" cy="235.63" r="4.0" fill="#2f6f73" opacity="0.72"/>
<circle cx="602.20" cy="249.39" r="4.0" fill="#2f6f73" opacity="0.72"/>
<circle cx="580.06" cy="265.29" r="4.0" fill="#2f6f73" opacity="0.72"/>
<circle cx="654.41" cy="236.53" r="4.0" fill="#2f6f73" opacity="0.72"/>
<circle cx="627.18" cy="242.60" r="4.0" fill="#2f6f73" opacity="0.72"/>
<circle cx="722.97" cy="257.38" r="4.0" fill="#2f6f73" opacity="0.72"/>
<circle cx="758.90" cy="240.20" r="4.0" fill="#2f6f73" opacity="0.72"/>
<circle cx="642.98" cy="231.39" r="4.0" fill="#2f6f73" opacity="0.72"/>
<circle cx="623.13" cy="246.38" r="4.0" fill="#2f6f73" opacity="0.72"/>
<circle cx="679.82" cy="286.38" r="4.0" fill="#2f6f73" opacity="0.72"/>
<circle cx="683.32" cy="243.21" r="4.0" fill="#2f6f73" opacity="0.72"/>
<circle cx="658.14" cy="247.10" r="4.0" fill="#2f6f73" opacity="0.72"/>
<circle cx="521.03" cy="254.98" r="4.0" fill="#2f6f73" opacity="0.72"/>
<circle cx="499.14" cy="247.37" r="4.0" fill="#2f6f73" opacity="0.72"/>
<circle cx="487.71" cy="244.17" r="4.0" fill="#2f6f73" opacity="0.72"/>
<circle cx="504.73" cy="241.72" r="4.0" fill="#2f6f73" opacity="0.72"/>
<circle cx="541.74" cy="225.70" r="4.0" fill="#2f6f73" opacity="0.72"/>
<circle cx="457.55" cy="221.48" r="4.0" fill="#2f6f73" opacity="0.72"/>
<circle cx="475.93" cy="241.19" r="4.0" fill="#2f6f73" opacity="0.72"/>
<circle cx="463.77" cy="247.81" r="4.0" fill="#2f6f73" opacity="0.72"/>
<circle cx="469.90" cy="255.51" r="4.0" fill="#2f6f73" opacity="0.72"/>
<circle cx="536.66" cy="264.65" r="4.0" fill="#2f6f73" opacity="0.72"/>
<circle cx="444.78" cy="252.31" r="4.0" fill="#2f6f73" opacity="0.72"/>
<circle cx="444.78" cy="262.81" r="4.0" fill="#2f6f73" opacity="0.72"/>
<circle cx="526.31" cy="239.06" r="4.0" fill="#2f6f73" opacity="0.72"/>
<circle cx="481.87" cy="218.98" r="4.0" fill="#2f6f73" opacity="0.72"/>
<circle cx="487.71" cy="236.89" r="4.0" fill="#2f6f73" opacity="0.72"/>
<circle cx="487.71" cy="256.13" r="4.0" fill="#2f6f73" opacity="0.72"/>
<circle cx="631.19" cy="239.80" r="4.0" fill="#2f6f73" opacity="0.72"/>
<circle cx="627.18" cy="262.60" r="4.0" fill="#2f6f73" opacity="0.72"/>
<circle cx="676.30" cy="238.62" r="4.0" fill="#2f6f73" opacity="0.72"/>
<circle cx="654.41" cy="235.64" r="4.0" fill="#2f6f73" opacity="0.72"/>
<circle cx="654.41" cy="248.37" r="4.0" fill="#2f6f73" opacity="0.72"/>
<circle cx="646.82" cy="233.45" r="4.0" fill="#2f6f73" opacity="0.72"/>
<circle cx="639.09" cy="241.23" r="4.0" fill="#2f6f73" opacity="0.72"/>
<circle cx="589.07" cy="240.67" r="4.0" fill="#2f6f73" opacity="0.72"/>
<circle cx="697.00" cy="240.68" r="4.0" fill="#2f6f73" opacity="0.72"/>
<circle cx="642.98" cy="234.72" r="4.0" fill="#2f6f73" opacity="0.72"/>
<circle cx="706.95" cy="228.99" r="4.0" fill="#2f6f73" opacity="0.72"/>
<circle cx="551.68" cy="230.25" r="4.0" fill="#2f6f73" opacity="0.72"/>
<circle cx="716.64" cy="251.13" r="4.0" fill="#2f6f73" opacity="0.72"/>
<circle cx="635.16" cy="249.15" r="4.0" fill="#2f6f73" opacity="0.72"/>
<circle cx="536.66" cy="239.64" r="4.0" fill="#2f6f73" opacity="0.72"/>
<circle cx="504.73" cy="216.82" r="4.0" fill="#2f6f73" opacity="0.72"/>
<circle cx="481.87" cy="237.20" r="4.0" fill="#2f6f73" opacity="0.72"/>
<circle cx="451.22" cy="244.23" r="4.0" fill="#2f6f73" opacity="0.72"/>
<circle cx="475.93" cy="218.32" r="4.0" fill="#2f6f73" opacity="0.72"/>
<circle cx="556.56" cy="251.09" r="4.0" fill="#2f6f73" opacity="0.72"/>
<circle cx="373.66" cy="228.84" r="4.0" fill="#2f6f73" opacity="0.72"/>
<circle cx="556.56" cy="217.35" r="4.0" fill="#2f6f73" opacity="0.72"/>
<circle cx="463.77" cy="218.95" r="4.0" fill="#2f6f73" opacity="0.72"/>
<circle cx="373.66" cy="207.76" r="4.0" fill="#2f6f73" opacity="0.72"/>
<circle cx="438.23" cy="216.41" r="4.0" fill="#2f6f73" opacity="0.72"/>
<circle cx="469.90" cy="219.19" r="4.0" fill="#2f6f73" opacity="0.72"/>
<circle cx="481.87" cy="216.08" r="4.0" fill="#2f6f73" opacity="0.72"/>
<circle cx="475.93" cy="218.58" r="4.0" fill="#2f6f73" opacity="0.72"/>
<circle cx="381.40" cy="217.41" r="4.0" fill="#2f6f73" opacity="0.72"/>
<circle cx="580.06" cy="202.40" r="4.0" fill="#2f6f73" opacity="0.72"/>
<circle cx="650.64" cy="208.18" r="4.0" fill="#2f6f73" opacity="0.72"/>
<circle cx="570.83" cy="190.67" r="4.0" fill="#2f6f73" opacity="0.72"/>
<circle cx="614.90" cy="244.00" r="4.0" fill="#2f6f73" opacity="0.72"/>
<circle cx="619.04" cy="228.89" r="4.0" fill="#2f6f73" opacity="0.72"/>
<circle cx="546.74" cy="239.81" r="4.0" fill="#2f6f73" opacity="0.72"/>
<circle cx="410.87" cy="202.00" r="4.0" fill="#2f6f73" opacity="0.72"/>
<circle cx="551.68" cy="228.14" r="4.0" fill="#2f6f73" opacity="0.72"/>
<circle cx="493.47" cy="221.86" r="4.0" fill="#2f6f73" opacity="0.72"/>
<circle cx="661.84" cy="246.76" r="4.0" fill="#2f6f73" opacity="0.72"/>
<circle cx="602.20" cy="243.89" r="4.0" fill="#2f6f73" opacity="0.72"/>
<circle cx="735.32" cy="241.28" r="4.0" fill="#2f6f73" opacity="0.72"/>
<circle cx="551.68" cy="243.31" r="4.0" fill="#2f6f73" opacity="0.72"/>
<circle cx="561.38" cy="234.86" r="4.0" fill="#2f6f73" opacity="0.72"/>
<circle cx="556.56" cy="241.91" r="4.0" fill="#2f6f73" opacity="0.72"/>
<circle cx="639.09" cy="227.29" r="4.0" fill="#2f6f73" opacity="0.72"/>
<circle cx="676.30" cy="223.02" r="4.0" fill="#2f6f73" opacity="0.72"/>
<circle cx="654.41" cy="244.02" r="4.0" fill="#2f6f73" opacity="0.72"/>
<circle cx="606.48" cy="221.50" r="4.0" fill="#2f6f73" opacity="0.72"/>
<circle cx="606.48" cy="241.17" r="4.0" fill="#2f6f73" opacity="0.72"/>
<circle cx="722.97" cy="222.48" r="4.0" fill="#2f6f73" opacity="0.72"/>
<circle cx="665.51" cy="223.31" r="4.0" fill="#2f6f73" opacity="0.72"/>
<circle cx="783.79" cy="248.32" r="4.0" fill="#2f6f73" opacity="0.72"/>
<circle cx="676.30" cy="233.30" r="4.0" fill="#2f6f73" opacity="0.72"/>
<circle cx="722.97" cy="235.95" r="4.0" fill="#2f6f73" opacity="0.72"/>
<circle cx="593.50" cy="251.34" r="4.0" fill="#2f6f73" opacity="0.72"/>
<circle cx="679.82" cy="232.59" r="4.0" fill="#2f6f73" opacity="0.72"/>
<circle cx="654.41" cy="205.40" r="4.0" fill="#2f6f73" opacity="0.72"/>
<circle cx="669.14" cy="242.56" r="4.0" fill="#2f6f73" opacity="0.72"/>
<circle cx="646.82" cy="259.05" r="4.0" fill="#2f6f73" opacity="0.72"/>
<circle cx="679.82" cy="170.64" r="4.0" fill="#2f6f73" opacity="0.72"/>
<circle cx="772.92" cy="242.64" r="4.0" fill="#2f6f73" opacity="0.72"/>
<circle cx="669.14" cy="252.83" r="4.0" fill="#2f6f73" opacity="0.72"/>
<circle cx="722.97" cy="228.59" r="4.0" fill="#2f6f73" opacity="0.72"/>
<circle cx="764.57" cy="257.29" r="4.0" fill="#2f6f73" opacity="0.72"/>
<circle cx="758.90" cy="250.09" r="4.0" fill="#2f6f73" opacity="0.72"/>
<circle cx="729.20" cy="240.27" r="4.0" fill="#2f6f73" opacity="0.72"/>
<circle cx="778.39" cy="226.40" r="4.0" fill="#2f6f73" opacity="0.72"/>
<circle cx="750.23" cy="264.12" r="4.0" fill="#2f6f73" opacity="0.72"/>
<circle cx="676.30" cy="240.65" r="4.0" fill="#2f6f73" opacity="0.72"/>
<circle cx="710.20" cy="258.81" r="4.0" fill="#2f6f73" opacity="0.72"/>
<circle cx="661.84" cy="237.07" r="4.0" fill="#2f6f73" opacity="0.72"/>
<circle cx="738.35" cy="260.88" r="4.0" fill="#2f6f73" opacity="0.72"/>
<circle cx="758.90" cy="265.21" r="4.0" fill="#2f6f73" opacity="0.72"/>
<circle cx="686.79" cy="263.59" r="4.0" fill="#2f6f73" opacity="0.72"/>
<circle cx="510.24" cy="224.37" r="4.0" fill="#2f6f73" opacity="0.72"/>
<circle cx="531.52" cy="240.82" r="4.0" fill="#2f6f73" opacity="0.72"/>
<circle cx="584.59" cy="228.03" r="4.0" fill="#2f6f73" opacity="0.72"/>
<circle cx="410.87" cy="230.51" r="4.0" fill="#2f6f73" opacity="0.72"/>
<circle cx="566.13" cy="248.89" r="4.0" fill="#2f6f73" opacity="0.72"/>
<circle cx="410.87" cy="229.64" r="4.0" fill="#2f6f73" opacity="0.72"/>
<circle cx="451.22" cy="234.36" r="4.0" fill="#2f6f73" opacity="0.72"/>
<circle cx="424.80" cy="217.52" r="4.0" fill="#2f6f73" opacity="0.72"/>
<circle cx="424.80" cy="228.57" r="4.0" fill="#2f6f73" opacity="0.72"/>
<circle cx="314.64" cy="234.24" r="4.0" fill="#2f6f73" opacity="0.72"/>
<circle cx="373.66" cy="220.64" r="4.0" fill="#2f6f73" opacity="0.72"/>
<circle cx="526.31" cy="240.70" r="4.0" fill="#2f6f73" opacity="0.72"/>
<circle cx="286.26" cy="211.90" r="4.0" fill="#2f6f73" opacity="0.72"/>
<circle cx="403.71" cy="205.78" r="4.0" fill="#2f6f73" opacity="0.72"/>
<circle cx="381.40" cy="209.09" r="4.0" fill="#2f6f73" opacity="0.72"/>
<circle cx="145.45" cy="229.03" r="4.0" fill="#2f6f73" opacity="0.72"/>
<circle cx="255.61" cy="229.51" r="4.0" fill="#2f6f73" opacity="0.72"/>
<circle cx="266.10" cy="209.85" r="4.0" fill="#2f6f73" opacity="0.72"/>
<circle cx="357.71" cy="211.15" r="4.0" fill="#2f6f73" opacity="0.72"/>
<circle cx="295.95" cy="229.50" r="4.0" fill="#2f6f73" opacity="0.72"/>
<circle cx="172.81" cy="229.03" r="4.0" fill="#2f6f73" opacity="0.72"/>
<circle cx="373.66" cy="207.61" r="4.0" fill="#2f6f73" opacity="0.72"/>
<circle cx="396.42" cy="206.48" r="4.0" fill="#2f6f73" opacity="0.72"/>
<circle cx="233.72" cy="210.87" r="4.0" fill="#2f6f73" opacity="0.72"/>
<circle cx="541.74" cy="247.89" r="4.0" fill="#2f6f73" opacity="0.72"/>
<circle cx="396.42" cy="227.08" r="4.0" fill="#2f6f73" opacity="0.72"/>
<circle cx="381.40" cy="239.76" r="4.0" fill="#2f6f73" opacity="0.72"/>
<circle cx="388.98" cy="230.83" r="4.0" fill="#2f6f73" opacity="0.72"/>
<circle cx="424.80" cy="222.50" r="4.0" fill="#2f6f73" opacity="0.72"/>
<circle cx="444.78" cy="231.50" r="4.0" fill="#2f6f73" opacity="0.72"/>
<circle cx="381.40" cy="217.37" r="4.0" fill="#2f6f73" opacity="0.72"/>
<circle cx="561.38" cy="242.68" r="4.0" fill="#2f6f73" opacity="0.72"/>
<circle cx="410.87" cy="214.55" r="4.0" fill="#2f6f73" opacity="0.72"/>
<circle cx="444.78" cy="238.66" r="4.0" fill="#2f6f73" opacity="0.72"/>
<circle cx="526.31" cy="240.24" r="4.0" fill="#2f6f73" opacity="0.72"/>
<circle cx="431.57" cy="234.20" r="4.0" fill="#2f6f73" opacity="0.72"/>
<circle cx="597.87" cy="237.76" r="4.0" fill="#2f6f73" opacity="0.72"/>
<circle cx="623.13" cy="242.68" r="4.0" fill="#2f6f73" opacity="0.72"/>
<circle cx="619.04" cy="231.62" r="4.0" fill="#2f6f73" opacity="0.72"/>
<circle cx="614.90" cy="236.27" r="4.0" fill="#2f6f73" opacity="0.72"/>
<circle cx="650.64" cy="224.66" r="4.0" fill="#2f6f73" opacity="0.72"/>
<circle cx="614.90" cy="226.33" r="4.0" fill="#2f6f73" opacity="0.72"/>
<circle cx="623.13" cy="219.95" r="4.0" fill="#2f6f73" opacity="0.72"/>
<circle cx="614.90" cy="217.76" r="4.0" fill="#2f6f73" opacity="0.72"/>
<circle cx="602.20" cy="238.77" r="4.0" fill="#2f6f73" opacity="0.72"/>
<circle cx="669.14" cy="219.27" r="4.0" fill="#2f6f73" opacity="0.72"/>
<circle cx="627.18" cy="233.27" r="4.0" fill="#2f6f73" opacity="0.72"/>
<circle cx="635.16" cy="227.80" r="4.0" fill="#2f6f73" opacity="0.72"/>
<circle cx="650.64" cy="245.68" r="4.0" fill="#2f6f73" opacity="0.72"/>
<circle cx="631.19" cy="215.98" r="4.0" fill="#2f6f73" opacity="0.72"/>
<circle cx="658.14" cy="226.39" r="4.0" fill="#2f6f73" opacity="0.72"/>
<circle cx="719.82" cy="227.48" r="4.0" fill="#2f6f73" opacity="0.72"/>
<circle cx="770.16" cy="231.52" r="4.0" fill="#2f6f73" opacity="0.72"/>
<circle cx="669.14" cy="204.97" r="4.0" fill="#2f6f73" opacity="0.72"/>
<circle cx="669.14" cy="251.52" r="4.0" fill="#2f6f73" opacity="0.72"/>
<circle cx="646.82" cy="224.11" r="4.0" fill="#2f6f73" opacity="0.72"/>
<circle cx="639.09" cy="247.99" r="4.0" fill="#2f6f73" opacity="0.72"/>
<circle cx="654.41" cy="220.99" r="4.0" fill="#2f6f73" opacity="0.72"/>
<circle cx="646.82" cy="139.48" r="4.0" fill="#2f6f73" opacity="0.72"/>
<circle cx="639.09" cy="251.52" r="4.0" fill="#2f6f73" opacity="0.72"/>
<text x="482.5" y="688" text-anchor="middle" font-family="Arial" font-size="16">Observed Dactivity, log2(variant / WT)</text>
<text x="24" y="358.5" text-anchor="middle" font-family="Arial" font-size="16" transform="rotate(-90 24 358.5)">Predicted Dactivity, log2(variant / WT)</text>
</svg>