<svg xmlns="http://www.w3.org/2000/svg" width="900" height="720" viewBox="0 0 900 720">
<rect width="100%" height="100%" fill="#ffffff"/>
<text x="450.0" y="34" text-anchor="middle" font-family="Arial" font-size="22" font-weight="700">4TF scramble 8</text>
<text x="450.0" y="62" text-anchor="middle" font-family="Arial" font-size="16" fill="#555">Pearson r = -0.013, n = 261</text>
<rect x="105" y="92" width="755" height="533" fill="#fbfbfb" stroke="#222" stroke-width="1"/>
<line x1="105.00" y1="92" x2="105.00" y2="625" stroke="#dddddd" stroke-width="1"/>
<line x1="105" y1="625.00" x2="860" y2="625.00" stroke="#dddddd" stroke-width="1"/>
<text x="105.00" y="651" text-anchor="middle" font-family="Arial" font-size="13" fill="#444">-2</text>
<text x="92" y="629.00" text-anchor="end" font-family="Arial" font-size="13" fill="#444">-2</text>
<line x1="293.75" y1="92" x2="293.75" y2="625" stroke="#dddddd" stroke-width="1"/>
<line x1="105" y1="491.75" x2="860" y2="491.75" stroke="#dddddd" stroke-width="1"/>
<text x="293.75" y="651" text-anchor="middle" font-family="Arial" font-size="13" fill="#444">-1</text>
<text x="92" y="495.75" text-anchor="end" font-family="Arial" font-size="13" fill="#444">-1</text>
<line x1="482.50" y1="92" x2="482.50" y2="625" stroke="#dddddd" stroke-width="1"/>
<line x1="105" y1="358.50" x2="860" y2="358.50" stroke="#dddddd" stroke-width="1"/>
<text x="482.50" y="651" text-anchor="middle" font-family="Arial" font-size="13" fill="#444">-1</text>
<text x="92" y="362.50" text-anchor="end" font-family="Arial" font-size="13" fill="#444">-1</text>
<line x1="671.25" y1="92" x2="671.25" y2="625" stroke="#dddddd" stroke-width="1"/>
<line x1="105" y1="225.25" x2="860" y2="225.25" stroke="#dddddd" stroke-width="1"/>
<text x="671.25" y="651" text-anchor="middle" font-family="Arial" font-size="13" fill="#444">0</text>
<text x="92" y="229.25" text-anchor="end" font-family="Arial" font-size="13" fill="#444">0</text>
<line x1="860.00" y1="92" x2="860.00" y2="625" stroke="#dddddd" stroke-width="1"/>
<line x1="105" y1="92.00" x2="860" y2="92.00" stroke="#dddddd" stroke-width="1"/>
<text x="860.00" y="651" text-anchor="middle" font-family="Arial" font-size="13" fill="#444">1</text>
<text x="92" y="96.00" text-anchor="end" font-family="Arial" font-size="13" fill="#444">1</text>
<line x1="105" y1="625" x2="860" y2="92" stroke="#9a4f34" stroke-width="2" stroke-dasharray="7 6"/>
<circle cx="646.82" cy="242.49" r="4.0" fill="#2f6f73" opacity="0.72"/>
<circle cx="665.51" cy="237.78" r="4.0" fill="#2f6f73" opacity="0.72"/>
<circle cx="602.20" cy="243.52" r="4.0" fill="#2f6f73" opacity="0.72"/>
<circle cx="536.66" cy="241.47" r="4.0" fill="#2f6f73" opacity="0.72"/>
<circle cx="606.48" cy="258.55" r="4.0" fill="#2f6f73" opacity="0.72"/>
<circle cx="541.74" cy="251.04" r="4.0" fill="#2f6f73" opacity="0.72"/>
<circle cx="658.14" cy="255.04" r="4.0" fill="#2f6f73" opacity="0.72"/>
<circle cx="819.55" cy="236.45" r="4.0" fill="#2f6f73" opacity="0.72"/>
<circle cx="654.41" cy="246.63" r="4.0" fill="#2f6f73" opacity="0.72"/>
<circle cx="614.90" cy="244.68" r="4.0" fill="#2f6f73" opacity="0.72"/>
<circle cx="606.48" cy="247.96" r="4.0" fill="#2f6f73" opacity="0.72"/>
<circle cx="642.98" cy="237.66" r="4.0" fill="#2f6f73" opacity="0.72"/>
<circle cx="570.83" cy="236.85" r="4.0" fill="#2f6f73" opacity="0.72"/>
<circle cx="738.35" cy="236.28" r="4.0" fill="#2f6f73" opacity="0.72"/>
<circle cx="597.87" cy="247.00" r="4.0" fill="#2f6f73" opacity="0.72"/>
<circle cx="566.13" cy="240.18" r="4.0" fill="#2f6f73" opacity="0.72"/>
<circle cx="546.74" cy="246.17" r="4.0" fill="#2f6f73" opacity="0.72"/>
<circle cx="658.14" cy="243.17" r="4.0" fill="#2f6f73" opacity="0.72"/>
<circle cx="515.68" cy="244.86" r="4.0" fill="#2f6f73" opacity="0.72"/>
<circle cx="531.52" cy="237.84" r="4.0" fill="#2f6f73" opacity="0.72"/>
<circle cx="536.66" cy="244.91" r="4.0" fill="#2f6f73" opacity="0.72"/>
<circle cx="526.31" cy="241.57" r="4.0" fill="#2f6f73" opacity="0.72"/>
<circle cx="551.68" cy="244.50" r="4.0" fill="#2f6f73" opacity="0.72"/>
<circle cx="575.47" cy="238.64" r="4.0" fill="#2f6f73" opacity="0.72"/>
<circle cx="575.47" cy="246.23" r="4.0" fill="#2f6f73" opacity="0.72"/>
<circle cx="556.56" cy="246.59" r="4.0" fill="#2f6f73" opacity="0.72"/>
<circle cx="546.74" cy="244.51" r="4.0" fill="#2f6f73" opacity="0.72"/>
<circle cx="541.74" cy="245.72" r="4.0" fill="#2f6f73" opacity="0.72"/>
<circle cx="606.48" cy="245.82" r="4.0" fill="#2f6f73" opacity="0.72"/>
<circle cx="526.31" cy="246.37" r="4.0" fill="#2f6f73" opacity="0.72"/>
<circle cx="623.13" cy="242.51" r="4.0" fill="#2f6f73" opacity="0.72"/>
<circle cx="756.03" cy="244.99" r="4.0" fill="#2f6f73" opacity="0.72"/>
<circle cx="775.67" cy="245.44" r="4.0" fill="#2f6f73" opacity="0.72"/>
<circle cx="661.84" cy="240.51" r="4.0" fill="#2f6f73" opacity="0.72"/>
<circle cx="635.16" cy="234.31" r="4.0" fill="#2f6f73" opacity="0.72"/>
<circle cx="589.07" cy="237.56" r="4.0" fill="#2f6f73" opacity="0.72"/>
<circle cx="619.04" cy="241.65" r="4.0" fill="#2f6f73" opacity="0.72"/>
<circle cx="654.41" cy="234.01" r="4.0" fill="#2f6f73" opacity="0.72"/>
<circle cx="686.79" cy="242.75" r="4.0" fill="#2f6f73" opacity="0.72"/>
<circle cx="526.31" cy="239.70" r="4.0" fill="#2f6f73" opacity="0.72"/>
<circle cx="614.90" cy="236.06" r="4.0" fill="#2f6f73" opacity="0.72"/>
<circle cx="606.48" cy="235.86" r="4.0" fill="#2f6f73" opacity="0.72"/>
<circle cx="566.13" cy="242.26" r="4.0" fill="#2f6f73" opacity="0.72"/>
<circle cx="561.38" cy="247.05" r="4.0" fill="#2f6f73" opacity="0.72"/>
<circle cx="546.74" cy="235.95" r="4.0" fill="#2f6f73" opacity="0.72"/>
<circle cx="606.48" cy="234.07" r="4.0" fill="#2f6f73" opacity="0.72"/>
<circle cx="570.83" cy="239.18" r="4.0" fill="#2f6f73" opacity="0.72"/>
<circle cx="463.77" cy="238.43" r="4.0" fill="#2f6f73" opacity="0.72"/>
<circle cx="602.20" cy="234.58" r="4.0" fill="#2f6f73" opacity="0.72"/>
<circle cx="551.68" cy="231.91" r="4.0" fill="#2f6f73" opacity="0.72"/>
<circle cx="551.68" cy="236.46" r="4.0" fill="#2f6f73" opacity="0.72"/>
<circle cx="593.50" cy="238.41" r="4.0" fill="#2f6f73" opacity="0.72"/>
<circle cx="570.83" cy="230.49" r="4.0" fill="#2f6f73" opacity="0.72"/>
<circle cx="635.16" cy="231.81" r="4.0" fill="#2f6f73" opacity="0.72"/>
<circle cx="589.07" cy="231.32" r="4.0" fill="#2f6f73" opacity="0.72"/>
<circle cx="606.48" cy="231.53" r="4.0" fill="#2f6f73" opacity="0.72"/>
<circle cx="631.19" cy="229.99" r="4.0" fill="#2f6f73" opacity="0.72"/>
<circle cx="639.09" cy="243.92" r="4.0" fill="#2f6f73" opacity="0.72"/>
<circle cx="597.87" cy="234.98" r="4.0" fill="#2f6f73" opacity="0.72"/>
<circle cx="546.74" cy="209.44" r="4.0" fill="#2f6f73" opacity="0.72"/>
<circle cx="531.52" cy="237.25" r="4.0" fill="#2f6f73" opacity="0.72"/>
<circle cx="584.59" cy="237.72" r="4.0" fill="#2f6f73" opacity="0.72"/>
<circle cx="661.84" cy="233.63" r="4.0" fill="#2f6f73" opacity="0.72"/>
<circle cx="606.48" cy="249.90" r="4.0" fill="#2f6f73" opacity="0.72"/>
<circle cx="669.14" cy="242.78" r="4.0" fill="#2f6f73" opacity="0.72"/>
<circle cx="515.68" cy="242.68" r="4.0" fill="#2f6f73" opacity="0.72"/>
<circle cx="610.71" cy="242.44" r="4.0" fill="#2f6f73" opacity="0.72"/>
<circle cx="654.41" cy="263.04" r="4.0" fill="#2f6f73" opacity="0.72"/>
<circle cx="614.90" cy="261.60" r="4.0" fill="#2f6f73" opacity="0.72"/>
<circle cx="650.64" cy="234.85" r="4.0" fill="#2f6f73" opacity="0.72"/>
<circle cx="661.84" cy="241.70" r="4.0" fill="#2f6f73" opacity="0.72"/>
<circle cx="642.98" cy="236.51" r="4.0" fill="#2f6f73" opacity="0.72"/>
<circle cx="650.64" cy="236.76" r="4.0" fill="#2f6f73" opacity="0.72"/>
<circle cx="635.16" cy="232.61" r="4.0" fill="#2f6f73" opacity="0.72"/>
<circle cx="650.64" cy="261.59" r="4.0" fill="#2f6f73" opacity="0.72"/>
<circle cx="669.14" cy="265.45" r="4.0" fill="#2f6f73" opacity="0.72"/>
<circle cx="631.19" cy="246.09" r="4.0" fill="#2f6f73" opacity="0.72"/>
<circle cx="672.73" cy="246.22" r="4.0" fill="#2f6f73" opacity="0.72"/>
<circle cx="726.10" cy="241.79" r="4.0" fill="#2f6f73" opacity="0.72"/>
<circle cx="669.14" cy="231.50" r="4.0" fill="#2f6f73" opacity="0.72"/>
<circle cx="700.34" cy="234.03" r="4.0" fill="#2f6f73" opacity="0.72"/>
<circle cx="642.98" cy="252.76" r="4.0" fill="#2f6f73" opacity="0.72"/>
<circle cx="584.59" cy="239.93" r="4.0" fill="#2f6f73" opacity="0.72"/>
<circle cx="654.41" cy="265.66" r="4.0" fill="#2f6f73" opacity="0.72"/>
<circle cx="610.71" cy="266.75" r="4.0" fill="#2f6f73" opacity="0.72"/>
<circle cx="593.50" cy="242.39" r="4.0" fill="#2f6f73" opacity="0.72"/>
<circle cx="614.90" cy="252.89" r="4.0" fill="#2f6f73" opacity="0.72"/>
<circle cx="610.71" cy="240.62" r="4.0" fill="#2f6f73" opacity="0.72"/>
<circle cx="619.04" cy="231.88" r="4.0" fill="#2f6f73" opacity="0.72"/>
<circle cx="631.19" cy="241.48" r="4.0" fill="#2f6f73" opacity="0.72"/>
<circle cx="672.73" cy="233.93" r="4.0" fill="#2f6f73" opacity="0.72"/>
<circle cx="536.66" cy="239.23" r="4.0" fill="#2f6f73" opacity="0.72"/>
<circle cx="597.87" cy="238.92" r="4.0" fill="#2f6f73" opacity="0.72"/>
<circle cx="602.20" cy="260.03" r="4.0" fill="#2f6f73" opacity="0.72"/>
<circle cx="561.38" cy="246.65" r="4.0" fill="#2f6f73" opacity="0.72"/>
<circle cx="623.13" cy="245.81" r="4.0" fill="#2f6f73" opacity="0.72"/>
<circle cx="551.68" cy="249.54" r="4.0" fill="#2f6f73" opacity="0.72"/>
<circle cx="606.48" cy="238.13" r="4.0" fill="#2f6f73" opacity="0.72"/>
<circle cx="606.48" cy="247.77" r="4.0" fill="#2f6f73" opacity="0.72"/>
<circle cx="570.83" cy="249.78" r="4.0" fill="#2f6f73" opacity="0.72"/>
<circle cx="602.20" cy="244.64" r="4.0" fill="#2f6f73" opacity="0.72"/>
<circle cx="580.06" cy="250.08" r="4.0" fill="#2f6f73" opacity="0.72"/>
<circle cx="654.41" cy="241.43" r="4.0" fill="#2f6f73" opacity="0.72"/>
<circle cx="627.18" cy="238.92" r="4.0" fill="#2f6f73" opacity="0.72"/>
<circle cx="722.97" cy="244.99" r="4.0" fill="#2f6f73" opacity="0.72"/>
<circle cx="758.90" cy="237.12" r="4.0" fill="#2f6f73" opacity="0.72"/>
<circle cx="642.98" cy="240.65" r="4.0" fill="#2f6f73" opacity="0.72"/>
<circle cx="623.13" cy="241.06" r="4.0" fill="#2f6f73" opacity="0.72"/>
<circle cx="679.82" cy="254.30" r="4.0" fill="#2f6f73" opacity="0.72"/>
<circle cx="683.32" cy="245.49" r="4.0" fill="#2f6f73" opacity="0.72"/>
<circle cx="658.14" cy="241.92" r="4.0" fill="#2f6f73" opacity="0.72"/>
<circle cx="521.03" cy="246.40" r="4.0" fill="#2f6f73" opacity="0.72"/>
<circle cx="499.14" cy="245.18" r="4.0" fill="#2f6f73" opacity="0.72"/>
<circle cx="487.71" cy="242.28" r="4.0" fill="#2f6f73" opacity="0.72"/>
<circle cx="504.73" cy="247.66" r="4.0" fill="#2f6f73" opacity="0.72"/>
<circle cx="541.74" cy="251.21" r="4.0" fill="#2f6f73" opacity="0.72"/>
<circle cx="457.55" cy="248.92" r="4.0" fill="#2f6f73" opacity="0.72"/>
<circle cx="475.93" cy="243.34" r="4.0" fill="#2f6f73" opacity="0.72"/>
<circle cx="463.77" cy="249.20" r="4.0" fill="#2f6f73" opacity="0.72"/>
<circle cx="469.90" cy="248.65" r="4.0" fill="#2f6f73" opacity="0.72"/>
<circle cx="536.66" cy="256.07" r="4.0" fill="#2f6f73" opacity="0.72"/>
<circle cx="444.78" cy="249.36" r="4.0" fill="#2f6f73" opacity="0.72"/>
<circle cx="444.78" cy="258.34" r="4.0" fill="#2f6f73" opacity="0.72"/>
<circle cx="526.31" cy="255.09" r="4.0" fill="#2f6f73" opacity="0.72"/>
<circle cx="481.87" cy="242.43" r="4.0" fill="#2f6f73" opacity="0.72"/>
<circle cx="487.71" cy="251.29" r="4.0" fill="#2f6f73" opacity="0.72"/>
<circle cx="487.71" cy="257.13" r="4.0" fill="#2f6f73" opacity="0.72"/>
<circle cx="631.19" cy="244.20" r="4.0" fill="#2f6f73" opacity="0.72"/>
<circle cx="627.18" cy="256.19" r="4.0" fill="#2f6f73" opacity="0.72"/>
<circle cx="676.30" cy="242.44" r="4.0" fill="#2f6f73" opacity="0.72"/>
<circle cx="654.41" cy="241.01" r="4.0" fill="#2f6f73" opacity="0.72"/>
<circle cx="654.41" cy="246.69" r="4.0" fill="#2f6f73" opacity="0.72"/>
<circle cx="646.82" cy="239.52" r="4.0" fill="#2f6f73" opacity="0.72"/>
<circle cx="639.09" cy="242.75" r="4.0" fill="#2f6f73" opacity="0.72"/>
<circle cx="589.07" cy="241.97" r="4.0" fill="#2f6f73" opacity="0.72"/>
<circle cx="697.00" cy="236.26" r="4.0" fill="#2f6f73" opacity="0.72"/>
<circle cx="642.98" cy="234.80" r="4.0" fill="#2f6f73" opacity="0.72"/>
<circle cx="706.95" cy="235.86" r="4.0" fill="#2f6f73" opacity="0.72"/>
<circle cx="551.68" cy="244.70" r="4.0" fill="#2f6f73" opacity="0.72"/>
<circle cx="716.64" cy="238.62" r="4.0" fill="#2f6f73" opacity="0.72"/>
<circle cx="635.16" cy="239.25" r="4.0" fill="#2f6f73" opacity="0.72"/>
<circle cx="536.66" cy="245.10" r="4.0" fill="#2f6f73" opacity="0.72"/>
<circle cx="504.73" cy="238.51" r="4.0" fill="#2f6f73" opacity="0.72"/>
<circle cx="481.87" cy="242.92" r="4.0" fill="#2f6f73" opacity="0.72"/>
<circle cx="451.22" cy="247.32" r="4.0" fill="#2f6f73" opacity="0.72"/>
<circle cx="475.93" cy="238.68" r="4.0" fill="#2f6f73" opacity="0.72"/>
<circle cx="556.56" cy="238.70" r="4.0" fill="#2f6f73" opacity="0.72"/>
<circle cx="373.66" cy="245.79" r="4.0" fill="#2f6f73" opacity="0.72"/>
<circle cx="556.56" cy="240.84" r="4.0" fill="#2f6f73" opacity="0.72"/>
<circle cx="463.77" cy="241.66" r="4.0" fill="#2f6f73" opacity="0.72"/>
<circle cx="373.66" cy="245.30" r="4.0" fill="#2f6f73" opacity="0.72"/>
<circle cx="438.23" cy="252.60" r="4.0" fill="#2f6f73" opacity="0.72"/>
<circle cx="469.90" cy="241.62" r="4.0" fill="#2f6f73" opacity="0.72"/>
<circle cx="481.87" cy="240.20" r="4.0" fill="#2f6f73" opacity="0.72"/>
<circle cx="475.93" cy="246.81" r="4.0" fill="#2f6f73" opacity="0.72"/>
<circle cx="381.40" cy="244.72" r="4.0" fill="#2f6f73" opacity="0.72"/>
<circle cx="580.06" cy="239.45" r="4.0" fill="#2f6f73" opacity="0.72"/>
<circle cx="650.64" cy="238.46" r="4.0" fill="#2f6f73" opacity="0.72"/>
<circle cx="570.83" cy="261.40" r="4.0" fill="#2f6f73" opacity="0.72"/>
<circle cx="614.90" cy="243.72" r="4.0" fill="#2f6f73" opacity="0.72"/>
<circle cx="619.04" cy="236.67" r="4.0" fill="#2f6f73" opacity="0.72"/>
<circle cx="546.74" cy="239.65" r="4.0" fill="#2f6f73" opacity="0.72"/>
<circle cx="410.87" cy="208.42" r="4.0" fill="#2f6f73" opacity="0.72"/>
<circle cx="551.68" cy="241.69" r="4.0" fill="#2f6f73" opacity="0.72"/>
<circle cx="493.47" cy="240.74" r="4.0" fill="#2f6f73" opacity="0.72"/>
<circle cx="661.84" cy="243.88" r="4.0" fill="#2f6f73" opacity="0.72"/>
<circle cx="602.20" cy="243.25" r="4.0" fill="#2f6f73" opacity="0.72"/>
<circle cx="735.32" cy="243.33" r="4.0" fill="#2f6f73" opacity="0.72"/>
<circle cx="551.68" cy="243.64" r="4.0" fill="#2f6f73" opacity="0.72"/>
<circle cx="561.38" cy="242.59" r="4.0" fill="#2f6f73" opacity="0.72"/>
<circle cx="556.56" cy="242.65" r="4.0" fill="#2f6f73" opacity="0.72"/>
<circle cx="639.09" cy="236.68" r="4.0" fill="#2f6f73" opacity="0.72"/>
<circle cx="676.30" cy="240.41" r="4.0" fill="#2f6f73" opacity="0.72"/>
<circle cx="654.41" cy="242.56" r="4.0" fill="#2f6f73" opacity="0.72"/>
<circle cx="606.48" cy="234.73" r="4.0" fill="#2f6f73" opacity="0.72"/>
<circle cx="606.48" cy="241.96" r="4.0" fill="#2f6f73" opacity="0.72"/>
<circle cx="722.97" cy="235.91" r="4.0" fill="#2f6f73" opacity="0.72"/>
<circle cx="665.51" cy="273.82" r="4.0" fill="#2f6f73" opacity="0.72"/>
<circle cx="783.79" cy="241.70" r="4.0" fill="#2f6f73" opacity="0.72"/>
<circle cx="676.30" cy="244.54" r="4.0" fill="#2f6f73" opacity="0.72"/>
<circle cx="722.97" cy="243.24" r="4.0" fill="#2f6f73" opacity="0.72"/>
<circle cx="593.50" cy="242.24" r="4.0" fill="#2f6f73" opacity="0.72"/>
<circle cx="679.82" cy="236.40" r="4.0" fill="#2f6f73" opacity="0.72"/>
<circle cx="654.41" cy="284.22" r="4.0" fill="#2f6f73" opacity="0.72"/>
<circle cx="669.14" cy="257.30" r="4.0" fill="#2f6f73" opacity="0.72"/>
<circle cx="646.82" cy="259.47" r="4.0" fill="#2f6f73" opacity="0.72"/>
<circle cx="679.82" cy="289.83" r="4.0" fill="#2f6f73" opacity="0.72"/>
<circle cx="772.92" cy="244.57" r="4.0" fill="#2f6f73" opacity="0.72"/>
<circle cx="669.14" cy="260.44" r="4.0" fill="#2f6f73" opacity="0.72"/>
<circle cx="722.97" cy="257.94" r="4.0" fill="#2f6f73" opacity="0.72"/>
<circle cx="764.57" cy="271.58" r="4.0" fill="#2f6f73" opacity="0.72"/>
<circle cx="758.90" cy="241.74" r="4.0" fill="#2f6f73" opacity="0.72"/>
<circle cx="729.20" cy="236.68" r="4.0" fill="#2f6f73" opacity="0.72"/>
<circle cx="778.39" cy="230.17" r="4.0" fill="#2f6f73" opacity="0.72"/>
<circle cx="750.23" cy="244.66" r="4.0" fill="#2f6f73" opacity="0.72"/>
<circle cx="676.30" cy="240.26" r="4.0" fill="#2f6f73" opacity="0.72"/>
<circle cx="710.20" cy="245.39" r="4.0" fill="#2f6f73" opacity="0.72"/>
<circle cx="661.84" cy="241.31" r="4.0" fill="#2f6f73" opacity="0.72"/>
<circle cx="738.35" cy="248.97" r="4.0" fill="#2f6f73" opacity="0.72"/>
<circle cx="758.90" cy="249.28" r="4.0" fill="#2f6f73" opacity="0.72"/>
<circle cx="686.79" cy="246.90" r="4.0" fill="#2f6f73" opacity="0.72"/>
<circle cx="510.24" cy="257.59" r="4.0" fill="#2f6f73" opacity="0.72"/>
<circle cx="531.52" cy="247.22" r="4.0" fill="#2f6f73" opacity="0.72"/>
<circle cx="584.59" cy="258.65" r="4.0" fill="#2f6f73" opacity="0.72"/>
<circle cx="410.87" cy="247.02" r="4.0" fill="#2f6f73" opacity="0.72"/>
<circle cx="566.13" cy="242.22" r="4.0" fill="#2f6f73" opacity="0.72"/>
<circle cx="410.87" cy="245.22" r="4.0" fill="#2f6f73" opacity="0.72"/>
<circle cx="451.22" cy="234.49" r="4.0" fill="#2f6f73" opacity="0.72"/>
<circle cx="424.80" cy="231.67" r="4.0" fill="#2f6f73" opacity="0.72"/>
<circle cx="424.80" cy="234.50" r="4.0" fill="#2f6f73" opacity="0.72"/>
<circle cx="314.64" cy="237.96" r="4.0" fill="#2f6f73" opacity="0.72"/>
<circle cx="373.66" cy="233.54" r="4.0" fill="#2f6f73" opacity="0.72"/>
<circle cx="526.31" cy="240.10" r="4.0" fill="#2f6f73" opacity="0.72"/>
<circle cx="286.26" cy="238.24" r="4.0" fill="#2f6f73" opacity="0.72"/>
<circle cx="403.71" cy="234.24" r="4.0" fill="#2f6f73" opacity="0.72"/>
<circle cx="381.40" cy="235.84" r="4.0" fill="#2f6f73" opacity="0.72"/>
<circle cx="145.45" cy="242.89" r="4.0" fill="#2f6f73" opacity="0.72"/>
<circle cx="255.61" cy="248.94" r="4.0" fill="#2f6f73" opacity="0.72"/>
<circle cx="266.10" cy="235.57" r="4.0" fill="#2f6f73" opacity="0.72"/>
<circle cx="357.71" cy="236.41" r="4.0" fill="#2f6f73" opacity="0.72"/>
<circle cx="295.95" cy="248.94" r="4.0" fill="#2f6f73" opacity="0.72"/>
<circle cx="172.81" cy="242.89" r="4.0" fill="#2f6f73" opacity="0.72"/>
<circle cx="373.66" cy="234.91" r="4.0" fill="#2f6f73" opacity="0.72"/>
<circle cx="396.42" cy="234.66" r="4.0" fill="#2f6f73" opacity="0.72"/>
<circle cx="233.72" cy="237.05" r="4.0" fill="#2f6f73" opacity="0.72"/>
<circle cx="541.74" cy="240.53" r="4.0" fill="#2f6f73" opacity="0.72"/>
<circle cx="396.42" cy="232.56" r="4.0" fill="#2f6f73" opacity="0.72"/>
<circle cx="381.40" cy="238.52" r="4.0" fill="#2f6f73" opacity="0.72"/>
<circle cx="388.98" cy="234.93" r="4.0" fill="#2f6f73" opacity="0.72"/>
<circle cx="424.80" cy="227.48" r="4.0" fill="#2f6f73" opacity="0.72"/>
<circle cx="444.78" cy="230.10" r="4.0" fill="#2f6f73" opacity="0.72"/>
<circle cx="381.40" cy="239.80" r="4.0" fill="#2f6f73" opacity="0.72"/>
<circle cx="561.38" cy="242.48" r="4.0" fill="#2f6f73" opacity="0.72"/>
<circle cx="410.87" cy="242.57" r="4.0" fill="#2f6f73" opacity="0.72"/>
<circle cx="444.78" cy="243.22" r="4.0" fill="#2f6f73" opacity="0.72"/>
<circle cx="526.31" cy="240.37" r="4.0" fill="#2f6f73" opacity="0.72"/>
<circle cx="431.57" cy="241.34" r="4.0" fill="#2f6f73" opacity="0.72"/>
<circle cx="597.87" cy="242.46" r="4.0" fill="#2f6f73" opacity="0.72"/>
<circle cx="623.13" cy="243.39" r="4.0" fill="#2f6f73" opacity="0.72"/>
<circle cx="619.04" cy="221.74" r="4.0" fill="#2f6f73" opacity="0.72"/>
<circle cx="614.90" cy="240.54" r="4.0" fill="#2f6f73" opacity="0.72"/>
<circle cx="650.64" cy="212.18" r="4.0" fill="#2f6f73" opacity="0.72"/>
<circle cx="614.90" cy="224.04" r="4.0" fill="#2f6f73" opacity="0.72"/>
<circle cx="623.13" cy="240.51" r="4.0" fill="#2f6f73" opacity="0.72"/>
<circle cx="614.90" cy="203.26" r="4.0" fill="#2f6f73" opacity="0.72"/>
<circle cx="602.20" cy="221.41" r="4.0" fill="#2f6f73" opacity="0.72"/>
<circle cx="669.14" cy="208.86" r="4.0" fill="#2f6f73" opacity="0.72"/>
<circle cx="627.18" cy="223.56" r="4.0" fill="#2f6f73" opacity="0.72"/>
<circle cx="635.16" cy="215.35" r="4.0" fill="#2f6f73" opacity="0.72"/>
<circle cx="650.64" cy="225.31" r="4.0" fill="#2f6f73" opacity="0.72"/>
<circle cx="631.19" cy="198.96" r="4.0" fill="#2f6f73" opacity="0.72"/>
<circle cx="658.14" cy="206.76" r="4.0" fill="#2f6f73" opacity="0.72"/>
<circle cx="719.82" cy="229.98" r="4.0" fill="#2f6f73" opacity="0.72"/>
<circle cx="770.16" cy="223.86" r="4.0" fill="#2f6f73" opacity="0.72"/>
<circle cx="669.14" cy="215.24" r="4.0" fill="#2f6f73" opacity="0.72"/>
<circle cx="669.14" cy="224.64" r="4.0" fill="#2f6f73" opacity="0.72"/>
<circle cx="646.82" cy="233.47" r="4.0" fill="#2f6f73" opacity="0.72"/>
<circle cx="639.09" cy="216.10" r="4.0" fill="#2f6f73" opacity="0.72"/>
<circle cx="654.41" cy="216.82" r="4.0" fill="#2f6f73" opacity="0.72"/>
<circle cx="646.82" cy="255.21" r="4.0" fill="#2f6f73" opacity="0.72"/>
<circle cx="639.09" cy="223.93" r="4.0" fill="#2f6f73" opacity="0.72"/>
<text x="482.5" y="688" text-anchor="middle" font-family="Arial" font-size="16">Observed Dactivity, log2(variant / WT)</text>
<text x="24" y="358.5" text-anchor="middle" font-family="Arial" font-size="16" transform="rotate(-90 24 358.5)">Predicted Dactivity, log2(variant / WT)</text>
</svg>