<svg xmlns="http://www.w3.org/2000/svg" width="1280" height="270" viewBox="0 0 1280 270">
<rect width="100%" height="100%" fill="#ffffff"/>
<text x="36.00" y="45.00" font-family="Arial, Helvetica, sans-serif" font-size="19" font-weight="700" text-anchor="start" fill="#111111">B</text>
<rect x="124.00" y="46.00" width="452.00" height="178.00" fill="#FFFFFF" stroke="#222222" stroke-width="1.2" opacity="1.0"/>
<text x="106.00" y="76.00" font-family="Arial, Helvetica, sans-serif" font-size="17" font-weight="400" text-anchor="end" fill="#111111">ATF7</text>
<rect x="226.73" y="58.00" width="53.42" height="24.00" fill="#B442FF" stroke="none" stroke-width="1.0" opacity="0.7658536247085878"/>
<rect x="226.73" y="58.00" width="53.42" height="24.00" fill="none" stroke="#B442FF" stroke-width="2.0" opacity="1.0"/>
<rect x="226.73" y="58.00" width="53.42" height="24.00" fill="#B442FF" stroke="none" stroke-width="1.0" opacity="0.8"/>
<rect x="226.73" y="58.00" width="53.42" height="24.00" fill="none" stroke="#B442FF" stroke-width="2.0" opacity="1.0"/>
<rect x="374.65" y="58.00" width="53.42" height="24.00" fill="#B442FF" stroke="none" stroke-width="1.0" opacity="0.4702173119455463"/>
<rect x="374.65" y="58.00" width="53.42" height="24.00" fill="none" stroke="#B442FF" stroke-width="2.0" opacity="1.0"/>
<rect x="374.65" y="58.00" width="53.42" height="24.00" fill="#B442FF" stroke="none" stroke-width="1.0" opacity="0.5745936081011036"/>
<rect x="374.65" y="58.00" width="53.42" height="24.00" fill="none" stroke="#B442FF" stroke-width="2.0" opacity="1.0"/>
<text x="106.00" y="105.00" font-family="Arial, Helvetica, sans-serif" font-size="17" font-weight="400" text-anchor="end" fill="#111111">ATF1</text>
<rect x="444.51" y="87.00" width="36.98" height="24.00" fill="#20208F" stroke="none" stroke-width="1.0" opacity="0.6291350327828641"/>
<rect x="444.51" y="87.00" width="36.98" height="24.00" fill="none" stroke="#20208F" stroke-width="2.0" opacity="1.0"/>
<text x="106.00" y="134.00" font-family="Arial, Helvetica, sans-serif" font-size="17" font-weight="400" text-anchor="end" fill="#111111">CREM</text>
<rect x="230.84" y="116.00" width="36.98" height="24.00" fill="#49A000" stroke="none" stroke-width="1.0" opacity="0.19444145704837634"/>
<rect x="230.84" y="116.00" width="36.98" height="24.00" fill="none" stroke="#49A000" stroke-width="2.0" opacity="1.0"/>
<rect x="239.05" y="116.00" width="36.98" height="24.00" fill="#49A000" stroke="none" stroke-width="1.0" opacity="0.19128672402126926"/>
<rect x="239.05" y="116.00" width="36.98" height="24.00" fill="none" stroke="#49A000" stroke-width="2.0" opacity="1.0"/>
<rect x="325.35" y="116.00" width="36.98" height="24.00" fill="#49A000" stroke="none" stroke-width="1.0" opacity="0.160766115330353"/>
<rect x="325.35" y="116.00" width="36.98" height="24.00" fill="none" stroke="#49A000" stroke-width="2.0" opacity="1.0"/>
<rect x="333.56" y="116.00" width="36.98" height="24.00" fill="#49A000" stroke="none" stroke-width="1.0" opacity="0.17115861879566888"/>
<rect x="333.56" y="116.00" width="36.98" height="24.00" fill="none" stroke="#49A000" stroke-width="2.0" opacity="1.0"/>
<rect x="378.76" y="116.00" width="36.98" height="24.00" fill="#49A000" stroke="none" stroke-width="1.0" opacity="0.20596862405087363"/>
<rect x="378.76" y="116.00" width="36.98" height="24.00" fill="none" stroke="#49A000" stroke-width="2.0" opacity="1.0"/>
<rect x="386.98" y="116.00" width="36.98" height="24.00" fill="#49A000" stroke="none" stroke-width="1.0" opacity="0.168118229610344"/>
<rect x="386.98" y="116.00" width="36.98" height="24.00" fill="none" stroke="#49A000" stroke-width="2.0" opacity="1.0"/>
<rect x="469.16" y="116.00" width="36.98" height="24.00" fill="#49A000" stroke="none" stroke-width="1.0" opacity="0.20729375573041167"/>
<rect x="469.16" y="116.00" width="36.98" height="24.00" fill="none" stroke="#49A000" stroke-width="2.0" opacity="1.0"/>
<rect x="477.38" y="116.00" width="36.98" height="24.00" fill="#49A000" stroke="none" stroke-width="1.0" opacity="0.20729375573041167"/>
<rect x="477.38" y="116.00" width="36.98" height="24.00" fill="none" stroke="#49A000" stroke-width="2.0" opacity="1.0"/>
<rect x="555.45" y="116.00" width="20.55" height="24.00" fill="#49A000" stroke="none" stroke-width="1.0" opacity="0.16084429869020647"/>
<rect x="555.45" y="116.00" width="20.55" height="24.00" fill="none" stroke="#49A000" stroke-width="2.0" opacity="1.0"/>
<text x="106.00" y="163.00" font-family="Arial, Helvetica, sans-serif" font-size="17" font-weight="400" text-anchor="end" fill="#111111">CREB1</text>
<rect x="148.65" y="145.00" width="32.87" height="24.00" fill="#FF9900" stroke="none" stroke-width="1.0" opacity="0.24114850292909287"/>
<rect x="148.65" y="145.00" width="32.87" height="24.00" fill="none" stroke="#FF9900" stroke-width="2.0" opacity="1.0"/>
<rect x="234.95" y="145.00" width="32.87" height="24.00" fill="#FF9900" stroke="none" stroke-width="1.0" opacity="0.2787341001342877"/>
<rect x="234.95" y="145.00" width="32.87" height="24.00" fill="none" stroke="#FF9900" stroke-width="2.0" opacity="1.0"/>
<rect x="239.05" y="145.00" width="32.87" height="24.00" fill="#FF9900" stroke="none" stroke-width="1.0" opacity="0.25463936416649824"/>
<rect x="239.05" y="145.00" width="32.87" height="24.00" fill="none" stroke="#FF9900" stroke-width="2.0" opacity="1.0"/>
<rect x="333.56" y="145.00" width="32.87" height="24.00" fill="#FF9900" stroke="none" stroke-width="1.0" opacity="0.30593504259616155"/>
<rect x="333.56" y="145.00" width="32.87" height="24.00" fill="none" stroke="#FF9900" stroke-width="2.0" opacity="1.0"/>
<rect x="382.87" y="145.00" width="32.87" height="24.00" fill="#FF9900" stroke="none" stroke-width="1.0" opacity="0.3355021483923517"/>
<rect x="382.87" y="145.00" width="32.87" height="24.00" fill="none" stroke="#FF9900" stroke-width="2.0" opacity="1.0"/>
<rect x="386.98" y="145.00" width="32.87" height="24.00" fill="#FF9900" stroke="none" stroke-width="1.0" opacity="0.21579602631335912"/>
<rect x="386.98" y="145.00" width="32.87" height="24.00" fill="none" stroke="#FF9900" stroke-width="2.0" opacity="1.0"/>
<rect x="473.27" y="145.00" width="32.87" height="24.00" fill="#FF9900" stroke="none" stroke-width="1.0" opacity="0.30058576595769393"/>
<rect x="473.27" y="145.00" width="32.87" height="24.00" fill="none" stroke="#FF9900" stroke-width="2.0" opacity="1.0"/>
<rect x="477.38" y="145.00" width="32.87" height="24.00" fill="#FF9900" stroke="none" stroke-width="1.0" opacity="0.30058576595769393"/>
<rect x="477.38" y="145.00" width="32.87" height="24.00" fill="none" stroke="#FF9900" stroke-width="2.0" opacity="1.0"/>
<line x1="124.00" y1="206.00" x2="576.00" y2="206.00" stroke="#333333" stroke-width="1.2"/>
<rect x="124.00" y="201.00" width="22.00" height="10.00" fill="#C9C9C9" stroke="none" stroke-width="1.0" opacity="0.9"/>
<rect x="554.00" y="201.00" width="22.00" height="10.00" fill="#C9C9C9" stroke="none" stroke-width="1.0" opacity="0.9"/>
<rect x="251.38" y="198.00" width="28.76" height="16.00" fill="#FF1F2D" stroke="none" stroke-width="1.0" opacity="0.95"/>
<rect x="358.22" y="198.00" width="16.44" height="16.00" fill="#FF1F2D" stroke="none" stroke-width="1.0" opacity="0.95"/>
<rect x="399.31" y="198.00" width="16.44" height="16.00" fill="#FF1F2D" stroke="none" stroke-width="1.0" opacity="0.95"/>
<rect x="465.05" y="198.00" width="16.44" height="16.00" fill="#3030DD" stroke="none" stroke-width="1.0" opacity="0.95"/>
<rect x="489.71" y="198.00" width="28.76" height="16.00" fill="#FF1F2D" stroke="none" stroke-width="1.0" opacity="0.95"/>
<text x="636.00" y="45.00" font-family="Arial, Helvetica, sans-serif" font-size="19" font-weight="700" text-anchor="start" fill="#111111">H</text>
<rect x="724.00" y="46.00" width="452.00" height="178.00" fill="#FFFFFF" stroke="#222222" stroke-width="1.2" opacity="1.0"/>
<text x="706.00" y="76.00" font-family="Arial, Helvetica, sans-serif" font-size="17" font-weight="400" text-anchor="end" fill="#111111">ATF7</text>
<rect x="826.73" y="58.00" width="53.42" height="24.00" fill="#B442FF" stroke="none" stroke-width="1.0" opacity="0.7658536247085878"/>
<rect x="826.73" y="58.00" width="53.42" height="24.00" fill="none" stroke="#B442FF" stroke-width="2.0" opacity="1.0"/>
<rect x="826.73" y="58.00" width="53.42" height="24.00" fill="#B442FF" stroke="none" stroke-width="1.0" opacity="0.8"/>
<rect x="826.73" y="58.00" width="53.42" height="24.00" fill="none" stroke="#B442FF" stroke-width="2.0" opacity="1.0"/>
<rect x="974.65" y="58.00" width="53.42" height="24.00" fill="#B442FF" stroke="none" stroke-width="1.0" opacity="0.4702173119455463"/>
<rect x="974.65" y="58.00" width="53.42" height="24.00" fill="none" stroke="#B442FF" stroke-width="2.0" opacity="1.0"/>
<rect x="974.65" y="58.00" width="53.42" height="24.00" fill="#B442FF" stroke="none" stroke-width="1.0" opacity="0.5745936081011036"/>
<rect x="974.65" y="58.00" width="53.42" height="24.00" fill="none" stroke="#B442FF" stroke-width="2.0" opacity="1.0"/>
<text x="706.00" y="105.00" font-family="Arial, Helvetica, sans-serif" font-size="17" font-weight="400" text-anchor="end" fill="#111111">ATF1</text>
<rect x="1044.51" y="87.00" width="36.98" height="24.00" fill="#20208F" stroke="none" stroke-width="1.0" opacity="0.6291350327828641"/>
<rect x="1044.51" y="87.00" width="36.98" height="24.00" fill="none" stroke="#20208F" stroke-width="2.0" opacity="1.0"/>
<text x="706.00" y="134.00" font-family="Arial, Helvetica, sans-serif" font-size="17" font-weight="400" text-anchor="end" fill="#111111">CREM</text>
<rect x="830.84" y="116.00" width="36.98" height="24.00" fill="#49A000" stroke="none" stroke-width="1.0" opacity="0.19444145704837634"/>
<rect x="830.84" y="116.00" width="36.98" height="24.00" fill="none" stroke="#49A000" stroke-width="2.0" opacity="1.0"/>
<rect x="839.05" y="116.00" width="36.98" height="24.00" fill="#49A000" stroke="none" stroke-width="1.0" opacity="0.19128672402126926"/>
<rect x="839.05" y="116.00" width="36.98" height="24.00" fill="none" stroke="#49A000" stroke-width="2.0" opacity="1.0"/>
<rect x="925.35" y="116.00" width="36.98" height="24.00" fill="#49A000" stroke="none" stroke-width="1.0" opacity="0.160766115330353"/>
<rect x="925.35" y="116.00" width="36.98" height="24.00" fill="none" stroke="#49A000" stroke-width="2.0" opacity="1.0"/>
<rect x="933.56" y="116.00" width="36.98" height="24.00" fill="#49A000" stroke="none" stroke-width="1.0" opacity="0.17115861879566888"/>
<rect x="933.56" y="116.00" width="36.98" height="24.00" fill="none" stroke="#49A000" stroke-width="2.0" opacity="1.0"/>
<rect x="978.76" y="116.00" width="36.98" height="24.00" fill="#49A000" stroke="none" stroke-width="1.0" opacity="0.20596862405087363"/>
<rect x="978.76" y="116.00" width="36.98" height="24.00" fill="none" stroke="#49A000" stroke-width="2.0" opacity="1.0"/>
<rect x="986.98" y="116.00" width="36.98" height="24.00" fill="#49A000" stroke="none" stroke-width="1.0" opacity="0.168118229610344"/>
<rect x="986.98" y="116.00" width="36.98" height="24.00" fill="none" stroke="#49A000" stroke-width="2.0" opacity="1.0"/>
<rect x="1069.16" y="116.00" width="36.98" height="24.00" fill="#49A000" stroke="none" stroke-width="1.0" opacity="0.20729375573041167"/>
<rect x="1069.16" y="116.00" width="36.98" height="24.00" fill="none" stroke="#49A000" stroke-width="2.0" opacity="1.0"/>
<rect x="1077.38" y="116.00" width="36.98" height="24.00" fill="#49A000" stroke="none" stroke-width="1.0" opacity="0.20729375573041167"/>
<rect x="1077.38" y="116.00" width="36.98" height="24.00" fill="none" stroke="#49A000" stroke-width="2.0" opacity="1.0"/>
<rect x="1155.45" y="116.00" width="20.55" height="24.00" fill="#49A000" stroke="none" stroke-width="1.0" opacity="0.16084429869020647"/>
<rect x="1155.45" y="116.00" width="20.55" height="24.00" fill="none" stroke="#49A000" stroke-width="2.0" opacity="1.0"/>
<text x="706.00" y="163.00" font-family="Arial, Helvetica, sans-serif" font-size="17" font-weight="400" text-anchor="end" fill="#111111">CREB1</text>
<rect x="748.65" y="145.00" width="32.87" height="24.00" fill="#FF9900" stroke="none" stroke-width="1.0" opacity="0.24114850292909287"/>
<rect x="748.65" y="145.00" width="32.87" height="24.00" fill="none" stroke="#FF9900" stroke-width="2.0" opacity="1.0"/>
<rect x="834.95" y="145.00" width="32.87" height="24.00" fill="#FF9900" stroke="none" stroke-width="1.0" opacity="0.2787341001342877"/>
<rect x="834.95" y="145.00" width="32.87" height="24.00" fill="none" stroke="#FF9900" stroke-width="2.0" opacity="1.0"/>
<rect x="839.05" y="145.00" width="32.87" height="24.00" fill="#FF9900" stroke="none" stroke-width="1.0" opacity="0.25463936416649824"/>
<rect x="839.05" y="145.00" width="32.87" height="24.00" fill="none" stroke="#FF9900" stroke-width="2.0" opacity="1.0"/>
<rect x="933.56" y="145.00" width="32.87" height="24.00" fill="#FF9900" stroke="none" stroke-width="1.0" opacity="0.30593504259616155"/>
<rect x="933.56" y="145.00" width="32.87" height="24.00" fill="none" stroke="#FF9900" stroke-width="2.0" opacity="1.0"/>
<rect x="982.87" y="145.00" width="32.87" height="24.00" fill="#FF9900" stroke="none" stroke-width="1.0" opacity="0.3355021483923517"/>
<rect x="982.87" y="145.00" width="32.87" height="24.00" fill="none" stroke="#FF9900" stroke-width="2.0" opacity="1.0"/>
<rect x="986.98" y="145.00" width="32.87" height="24.00" fill="#FF9900" stroke="none" stroke-width="1.0" opacity="0.21579602631335912"/>
<rect x="986.98" y="145.00" width="32.87" height="24.00" fill="none" stroke="#FF9900" stroke-width="2.0" opacity="1.0"/>
<rect x="1073.27" y="145.00" width="32.87" height="24.00" fill="#FF9900" stroke="none" stroke-width="1.0" opacity="0.30058576595769393"/>
<rect x="1073.27" y="145.00" width="32.87" height="24.00" fill="none" stroke="#FF9900" stroke-width="2.0" opacity="1.0"/>
<rect x="1077.38" y="145.00" width="32.87" height="24.00" fill="#FF9900" stroke="none" stroke-width="1.0" opacity="0.30058576595769393"/>
<rect x="1077.38" y="145.00" width="32.87" height="24.00" fill="none" stroke="#FF9900" stroke-width="2.0" opacity="1.0"/>
<line x1="724.00" y1="206.00" x2="1176.00" y2="206.00" stroke="#333333" stroke-width="1.2"/>
<rect x="724.00" y="201.00" width="22.00" height="10.00" fill="#C9C9C9" stroke="none" stroke-width="1.0" opacity="0.9"/>
<rect x="1154.00" y="201.00" width="22.00" height="10.00" fill="#C9C9C9" stroke="none" stroke-width="1.0" opacity="0.9"/>
<rect x="851.38" y="198.00" width="28.76" height="16.00" fill="#FF1F2D" stroke="none" stroke-width="1.0" opacity="0.95"/>
<rect x="958.22" y="198.00" width="16.44" height="16.00" fill="#FF1F2D" stroke="none" stroke-width="1.0" opacity="0.95"/>
<rect x="999.31" y="198.00" width="16.44" height="16.00" fill="#FF1F2D" stroke="none" stroke-width="1.0" opacity="0.95"/>
<rect x="1065.05" y="198.00" width="16.44" height="16.00" fill="#3030DD" stroke="none" stroke-width="1.0" opacity="0.95"/>
<rect x="1089.71" y="198.00" width="28.76" height="16.00" fill="#FF1F2D" stroke="none" stroke-width="1.0" opacity="0.95"/>
<text x="1210.00" y="45.00" font-family="Arial, Helvetica, sans-serif" font-size="16" font-weight="400" text-anchor="start" fill="#111111">High F</text>
<defs><linearGradient id="frac_grad" x1="0" x2="0" y1="0" y2="1"><stop offset="0%" stop-color="#111111" stop-opacity="1"/><stop offset="100%" stop-color="#111111" stop-opacity="0.08"/></linearGradient></defs>
<polygon points="1216.00,65.00 1256.00,65.00 1216.00,165.00" fill="url(#frac_grad)" stroke="#222222" stroke-width="0.8"/>
<text x="1210.00" y="187.00" font-family="Arial, Helvetica, sans-serif" font-size="16" font-weight="400" text-anchor="start" fill="#111111">Low F</text>
</svg>
