<svg xmlns="http://www.w3.org/2000/svg" width="1080" height="620" viewBox="0 0 1080 620">
<rect width="100%" height="100%" fill="#ffffff"/>
<text x="540.0" y="34" text-anchor="middle" font-family="Arial" font-size="22" font-weight="700">Figure 5A/G: A/T substitution activity profiles</text>
<rect x="92" y="72" width="943" height="466" fill="#fbfbfb" stroke="#222"/>
<rect x="212.62" y="72" width="76.76" height="466" fill="#f2e7d8" opacity="0.65"/>
<text x="246.62" y="90" text-anchor="middle" font-family="Arial" font-size="12" fill="#6b4a29">CRE1</text>
<rect x="848.59" y="72" width="76.76" height="466" fill="#f2e7d8" opacity="0.65"/>
<text x="882.59" y="90" text-anchor="middle" font-family="Arial" font-size="12" fill="#6b4a29">CRE4</text>
<line x1="92" y1="524.65" x2="1035" y2="524.65" stroke="#e1e1e1"/>
<text x="80" y="528.65" text-anchor="end" font-family="Arial" font-size="13">-2</text>
<line x1="92" y1="355.46" x2="1035" y2="355.46" stroke="#e1e1e1"/>
<text x="80" y="359.46" text-anchor="end" font-family="Arial" font-size="13">-1</text>
<line x1="92" y1="186.27" x2="1035" y2="186.27" stroke="#e1e1e1"/>
<text x="80" y="190.27" text-anchor="end" font-family="Arial" font-size="13">0</text>
<line x1="92" y1="17.08" x2="1035" y2="17.08" stroke="#e1e1e1"/>
<text x="80" y="21.08" text-anchor="end" font-family="Arial" font-size="13">1</text>
<line x1="92.00" y1="72" x2="92.00" y2="538" stroke="#ececec"/>
<text x="92.00" y="563" text-anchor="middle" font-family="Arial" font-size="13">0</text>
<line x1="201.65" y1="72" x2="201.65" y2="538" stroke="#ececec"/>
<text x="201.65" y="563" text-anchor="middle" font-family="Arial" font-size="13">10</text>
<line x1="311.30" y1="72" x2="311.30" y2="538" stroke="#ececec"/>
<text x="311.30" y="563" text-anchor="middle" font-family="Arial" font-size="13">20</text>
<line x1="420.95" y1="72" x2="420.95" y2="538" stroke="#ececec"/>
<text x="420.95" y="563" text-anchor="middle" font-family="Arial" font-size="13">30</text>
<line x1="530.60" y1="72" x2="530.60" y2="538" stroke="#ececec"/>
<text x="530.60" y="563" text-anchor="middle" font-family="Arial" font-size="13">40</text>
<line x1="640.26" y1="72" x2="640.26" y2="538" stroke="#ececec"/>
<text x="640.26" y="563" text-anchor="middle" font-family="Arial" font-size="13">50</text>
<line x1="749.91" y1="72" x2="749.91" y2="538" stroke="#ececec"/>
<text x="749.91" y="563" text-anchor="middle" font-family="Arial" font-size="13">60</text>
<line x1="859.56" y1="72" x2="859.56" y2="538" stroke="#ececec"/>
<text x="859.56" y="563" text-anchor="middle" font-family="Arial" font-size="13">70</text>
<line x1="969.21" y1="72" x2="969.21" y2="538" stroke="#ececec"/>
<text x="969.21" y="563" text-anchor="middle" font-family="Arial" font-size="13">80</text>
<polyline fill="none" stroke="#2f6f73" stroke-width="2.5" opacity="0.55" points="92.00,174.36 102.97,211.98 124.90,206.62 135.86,234.71 157.79,269.87 179.72,231.75 201.65,201.37 212.62,176.69 223.58,203.98 245.51,237.70 256.48,211.98 267.44,214.71 278.41,220.26 300.34,191.20 311.30,259.76 322.27,211.98 333.23,209.29 344.20,183.84 355.16,183.84 377.09,135.74 399.02,209.29 409.99,209.29 420.95,169.75 431.92,214.71 453.85,234.71 464.81,181.43 475.78,114.83 486.74,165.23 497.71,266.45 508.67,276.84 519.64,295.20 530.60,256.49 552.53,287.69 574.47,186.27 585.43,154.28 596.40,246.91 607.36,256.49 618.33,310.95 640.26,360.39 651.22,291.42 662.19,228.83 673.15,206.62 684.12,336.67 695.08,176.69 706.05,246.91 717.01,191.20 738.94,174.36 760.87,181.43 782.80,137.73 793.77,133.76 804.73,167.48 815.70,127.93 837.63,336.67 848.59,310.95 859.56,398.02 881.49,505.86 892.45,370.56 903.42,360.39 914.38,253.25 947.28,315.06 958.24,217.47 969.21,206.62 980.17,201.37 1002.10,183.84 1035.00,181.43"/>
<polyline fill="none" stroke="#2f6f73" stroke-width="3.5"  points="92.00,118.64 102.97,186.27 124.90,186.27 135.86,186.27 157.79,186.27 179.72,175.25 201.65,232.81 212.62,176.52 223.58,229.67 245.51,260.52 256.48,226.04 267.44,178.81 278.41,168.18 300.34,173.73 311.30,175.16 322.27,197.13 333.23,191.12 344.20,170.37 355.16,179.78 377.09,184.96 399.02,181.08 409.99,206.43 420.95,179.36 431.92,205.87 453.85,176.85 464.81,170.83 475.78,204.91 486.74,148.17 497.71,268.69 508.67,238.52 519.64,267.57 530.60,222.52 552.53,226.55 574.47,148.55 585.43,168.65 596.40,229.43 607.36,283.98 618.33,352.18 640.26,298.33 651.22,280.67 662.19,233.10 673.15,185.23 684.12,255.63 695.08,176.21 706.05,187.50 717.01,174.29 738.94,170.88 760.87,179.74 782.80,188.78 793.77,156.46 804.73,159.07 815.70,191.09 837.63,316.01 848.59,319.10 859.56,343.01 881.49,392.05 892.45,349.33 903.42,339.67 914.38,251.33 947.28,230.12 958.24,186.27 969.21,186.27 980.17,175.03 1002.10,186.98 1035.00,183.85"/>
<polyline fill="none" stroke="#9a4f34" stroke-width="2.5" opacity="0.55" points="92.00,256.49 113.93,181.43 124.90,188.72 135.86,217.47 146.83,179.05 157.79,256.49 168.76,231.75 179.72,250.06 190.69,263.08 201.65,104.14 223.58,160.79 234.55,211.98 245.51,250.06 256.48,302.95 278.41,193.70 289.37,196.23 300.34,250.06 311.30,176.69 333.23,206.62 344.20,188.72 355.16,183.84 366.13,169.75 377.09,152.15 388.06,181.43 409.99,196.23 420.95,217.47 431.92,201.37 442.88,211.98 464.81,137.73 475.78,201.37 486.74,179.05 497.71,287.69 508.67,306.92 530.60,315.06 541.57,287.69 563.50,181.43 574.47,223.08 596.40,193.70 618.33,243.80 629.29,302.95 640.26,299.05 651.22,355.46 673.15,250.06 717.01,181.43 727.98,137.73 738.94,167.48 749.91,165.23 760.87,186.27 771.84,172.04 782.80,114.83 793.77,120.36 804.73,176.69 815.70,160.79 826.66,225.94 859.56,263.08 870.52,355.46 881.49,428.95 892.45,488.42 914.38,355.46 925.35,315.06 936.31,336.67 958.24,203.98 969.21,206.62 980.17,214.71 991.14,193.70 1002.10,179.05 1013.07,172.04 1024.03,191.20 1035.00,191.20"/>
<polyline fill="none" stroke="#9a4f34" stroke-width="3.5" stroke-dasharray="6 5" points="92.00,157.32 113.93,167.39 124.90,118.15 135.86,186.27 146.83,186.27 157.79,156.87 168.76,186.27 179.72,183.71 190.69,202.25 201.65,163.84 223.58,175.75 234.55,196.27 245.51,225.16 256.48,247.83 278.41,172.09 289.37,140.76 300.34,262.47 311.30,171.83 333.23,179.86 344.20,176.99 355.16,186.02 366.13,196.49 377.09,196.13 388.06,183.96 409.99,207.76 420.95,206.05 431.92,186.61 442.88,188.33 464.81,165.16 475.78,183.42 486.74,172.14 497.71,254.97 508.67,263.19 530.60,284.90 541.57,258.70 563.50,178.44 574.47,184.85 596.40,200.61 618.33,208.07 629.29,289.49 640.26,274.62 651.22,290.92 673.15,188.13 717.01,174.09 727.98,149.29 738.94,184.86 749.91,153.17 760.87,188.47 771.84,170.02 782.80,156.25 793.77,190.40 804.73,188.42 815.70,178.23 826.66,227.90 859.56,247.63 870.52,339.67 881.49,349.33 892.45,392.67 914.38,342.85 925.35,316.99 936.31,309.09 958.24,186.27 969.21,186.27 980.17,186.85 991.14,178.05 1002.10,180.68 1013.07,176.28 1024.03,176.16 1035.00,178.38"/>
<text x="563.5" y="594" text-anchor="middle" font-family="Arial" font-size="16">Single-hit mutation position</text>
<text x="25" y="305.0" text-anchor="middle" font-family="Arial" font-size="16" transform="rotate(-90 25 305.0)">Delta activity, log2(variant / WT)</text>
<text x="792" y="42" font-family="Arial" font-size="13" fill="#2f6f73">A substitution</text>
<text x="914" y="42" font-family="Arial" font-size="13" fill="#9a4f34">T substitution</text>
<text x="792" y="60" font-family="Arial" font-size="12" fill="#555">thin: observed, thick/dashed: model</text>
</svg>