<svg xmlns="http://www.w3.org/2000/svg" width="1040" height="560" viewBox="0 0 1040 560">
<rect width="100%" height="100%" fill="#ffffff"/>
<text x="520.0" y="36" text-anchor="middle" font-family="Arial" font-size="22" font-weight="700">4TF full seed 4</text>
<rect x="95" y="72" width="903" height="406" fill="#fbfbfb" stroke="#222" stroke-width="1"/>
<line x1="95.00" y1="72" x2="95.00" y2="478" stroke="#e1e1e1" stroke-width="1"/>
<text x="95.00" y="503" text-anchor="middle" font-family="Arial" font-size="13" fill="#444">0</text>
<line x1="224.00" y1="72" x2="224.00" y2="478" stroke="#e1e1e1" stroke-width="1"/>
<text x="224.00" y="503" text-anchor="middle" font-family="Arial" font-size="13" fill="#444">12</text>
<line x1="353.00" y1="72" x2="353.00" y2="478" stroke="#e1e1e1" stroke-width="1"/>
<text x="353.00" y="503" text-anchor="middle" font-family="Arial" font-size="13" fill="#444">25</text>
<line x1="482.00" y1="72" x2="482.00" y2="478" stroke="#e1e1e1" stroke-width="1"/>
<text x="482.00" y="503" text-anchor="middle" font-family="Arial" font-size="13" fill="#444">37</text>
<line x1="611.00" y1="72" x2="611.00" y2="478" stroke="#e1e1e1" stroke-width="1"/>
<text x="611.00" y="503" text-anchor="middle" font-family="Arial" font-size="13" fill="#444">49</text>
<line x1="740.00" y1="72" x2="740.00" y2="478" stroke="#e1e1e1" stroke-width="1"/>
<text x="740.00" y="503" text-anchor="middle" font-family="Arial" font-size="13" fill="#444">61</text>
<line x1="869.00" y1="72" x2="869.00" y2="478" stroke="#e1e1e1" stroke-width="1"/>
<text x="869.00" y="503" text-anchor="middle" font-family="Arial" font-size="13" fill="#444">74</text>
<line x1="998.00" y1="72" x2="998.00" y2="478" stroke="#e1e1e1" stroke-width="1"/>
<text x="998.00" y="503" text-anchor="middle" font-family="Arial" font-size="13" fill="#444">86</text>
<line x1="95" y1="478.00" x2="998" y2="478.00" stroke="#e1e1e1" stroke-width="1"/>
<text x="83" y="482.00" text-anchor="end" font-family="Arial" font-size="13" fill="#444">-2</text>
<line x1="95" y1="376.50" x2="998" y2="376.50" stroke="#e1e1e1" stroke-width="1"/>
<text x="83" y="380.50" text-anchor="end" font-family="Arial" font-size="13" fill="#444">-1</text>
<line x1="95" y1="275.00" x2="998" y2="275.00" stroke="#e1e1e1" stroke-width="1"/>
<text x="83" y="279.00" text-anchor="end" font-family="Arial" font-size="13" fill="#444">-1</text>
<line x1="95" y1="173.50" x2="998" y2="173.50" stroke="#e1e1e1" stroke-width="1"/>
<text x="83" y="177.50" text-anchor="end" font-family="Arial" font-size="13" fill="#444">-0</text>
<line x1="95" y1="72.00" x2="998" y2="72.00" stroke="#e1e1e1" stroke-width="1"/>
<text x="83" y="76.00" text-anchor="end" font-family="Arial" font-size="13" fill="#444">1</text>
<polyline fill="none" stroke="#2f6f73" stroke-width="3" points="95.00,199.77 105.50,217.83 116.00,127.66 126.50,186.58 137.00,177.18 147.50,207.11 158.00,248.29 168.50,232.98 179.00,227.41 189.50,228.34 200.00,122.66 210.50,181.80 221.00,165.48 231.50,212.25 242.00,228.40 252.50,235.70 263.00,221.51 273.50,200.85 284.00,194.85 294.50,204.32 305.00,205.58 315.50,202.65 326.00,183.13 336.50,166.53 347.00,170.72 357.50,162.66 368.00,135.70 378.50,182.70 389.00,196.53 399.50,187.33 410.00,199.14 420.50,203.66 431.00,208.52 441.50,211.06 452.00,155.72 462.50,151.23 473.00,152.04 483.50,265.01 494.00,265.86 504.50,286.64 515.00,282.98 525.50,267.65 536.00,212.60 546.50,160.00 557.00,184.24 567.50,146.40 578.00,177.97 588.50,261.63 599.00,270.33 609.50,290.07 620.00,314.76 630.50,302.13 641.00,200.40 651.50,204.99 662.00,276.42 672.50,156.87 683.00,229.42 693.50,163.38 704.00,170.83 714.50,129.09 725.00,157.54 735.50,163.25 746.00,129.91 756.50,102.50 767.00,100.00 777.50,146.09 788.00,116.23 798.50,238.94 809.00,291.42 819.50,310.57 830.00,329.54 840.50,361.06 851.00,450.00 861.50,414.95 872.00,375.93 882.50,306.45 893.00,319.87 903.50,298.95 914.00,288.16 924.50,191.92 935.00,183.04 945.50,191.88 956.00,171.80 966.50,169.94 977.00,121.72 987.50,166.62 998.00,169.86"/>
<polyline fill="none" stroke="#9a4f34" stroke-width="3" points="95.00,154.82 105.50,203.44 116.00,168.83 126.50,169.04 137.00,168.48 147.50,181.13 158.00,163.83 168.50,166.94 179.00,165.46 189.50,178.90 200.00,171.60 210.50,144.43 221.00,159.20 231.50,194.99 242.00,264.71 252.50,249.24 263.00,169.90 273.50,126.35 284.00,105.72 294.50,202.36 305.00,141.89 315.50,175.82 326.00,168.76 336.50,158.38 347.00,165.00 357.50,167.94 368.00,151.51 378.50,161.93 389.00,173.22 399.50,151.50 410.00,152.07 420.50,174.87 431.00,169.34 441.50,173.86 452.00,149.77 462.50,170.21 473.00,128.32 483.50,238.84 494.00,244.75 504.50,248.21 515.00,248.43 525.50,238.55 536.00,204.10 546.50,167.73 557.00,157.73 567.50,143.81 578.00,192.27 588.50,270.34 599.00,248.59 609.50,273.16 620.00,299.76 630.50,276.30 641.00,200.67 651.50,138.12 662.00,196.24 672.50,142.80 683.00,170.80 693.50,161.35 704.00,147.33 714.50,153.99 725.00,155.43 735.50,178.44 746.00,129.21 756.50,167.13 767.00,110.93 777.50,135.23 788.00,152.49 798.50,179.32 809.00,212.28 819.50,248.58 830.00,256.59 840.50,311.17 851.00,369.38 861.50,370.28 872.00,309.45 882.50,256.82 893.00,252.15 903.50,215.81 914.00,202.70 924.50,167.53 935.00,160.98 945.50,149.67 956.00,166.39 966.50,154.81 977.00,149.84 987.50,157.65 998.00,148.38"/>
<line x1="820" y1="34" x2="860" y2="34" stroke="#2f6f73" stroke-width="3"/><text x="870" y="39" font-family="Arial" font-size="14">Observed</text>
<line x1="820" y1="58" x2="860" y2="58" stroke="#9a4f34" stroke-width="3"/><text x="870" y="63" font-family="Arial" font-size="14">Predicted</text>
<text x="546.5" y="534" text-anchor="middle" font-family="Arial" font-size="16">Single-hit mutation position</text>
<text x="25" y="275.0" text-anchor="middle" font-family="Arial" font-size="16" transform="rotate(-90 25 275.0)">Mean Dactivity</text>
</svg>