<svg xmlns="http://www.w3.org/2000/svg" width="900" height="720" viewBox="0 0 900 720">
<rect width="100%" height="100%" fill="#ffffff"/>
<text x="450.0" y="34" text-anchor="middle" font-family="Arial" font-size="22" font-weight="700">4TF full seed 1</text>
<text x="450.0" y="62" text-anchor="middle" font-family="Arial" font-size="16" fill="#555">Pearson r = 0.833, n = 261</text>
<rect x="105" y="92" width="755" height="533" fill="#fbfbfb" stroke="#222" stroke-width="1"/>
<line x1="105.00" y1="92" x2="105.00" y2="625" stroke="#dddddd" stroke-width="1"/>
<line x1="105" y1="625.00" x2="860" y2="625.00" stroke="#dddddd" stroke-width="1"/>
<text x="105.00" y="651" text-anchor="middle" font-family="Arial" font-size="13" fill="#444">-2</text>
<text x="92" y="629.00" text-anchor="end" font-family="Arial" font-size="13" fill="#444">-2</text>
<line x1="293.75" y1="92" x2="293.75" y2="625" stroke="#dddddd" stroke-width="1"/>
<line x1="105" y1="491.75" x2="860" y2="491.75" stroke="#dddddd" stroke-width="1"/>
<text x="293.75" y="651" text-anchor="middle" font-family="Arial" font-size="13" fill="#444">-1</text>
<text x="92" y="495.75" text-anchor="end" font-family="Arial" font-size="13" fill="#444">-1</text>
<line x1="482.50" y1="92" x2="482.50" y2="625" stroke="#dddddd" stroke-width="1"/>
<line x1="105" y1="358.50" x2="860" y2="358.50" stroke="#dddddd" stroke-width="1"/>
<text x="482.50" y="651" text-anchor="middle" font-family="Arial" font-size="13" fill="#444">-1</text>
<text x="92" y="362.50" text-anchor="end" font-family="Arial" font-size="13" fill="#444">-1</text>
<line x1="671.25" y1="92" x2="671.25" y2="625" stroke="#dddddd" stroke-width="1"/>
<line x1="105" y1="225.25" x2="860" y2="225.25" stroke="#dddddd" stroke-width="1"/>
<text x="671.25" y="651" text-anchor="middle" font-family="Arial" font-size="13" fill="#444">0</text>
<text x="92" y="229.25" text-anchor="end" font-family="Arial" font-size="13" fill="#444">0</text>
<line x1="860.00" y1="92" x2="860.00" y2="625" stroke="#dddddd" stroke-width="1"/>
<line x1="105" y1="92.00" x2="860" y2="92.00" stroke="#dddddd" stroke-width="1"/>
<text x="860.00" y="651" text-anchor="middle" font-family="Arial" font-size="13" fill="#444">1</text>
<text x="92" y="96.00" text-anchor="end" font-family="Arial" font-size="13" fill="#444">1</text>
<line x1="105" y1="625" x2="860" y2="92" stroke="#9a4f34" stroke-width="2" stroke-dasharray="7 6"/>
<circle cx="646.82" cy="242.49" r="4.0" fill="#2f6f73" opacity="0.72"/>
<circle cx="665.51" cy="167.60" r="4.0" fill="#2f6f73" opacity="0.72"/>
<circle cx="602.20" cy="242.49" r="4.0" fill="#2f6f73" opacity="0.72"/>
<circle cx="536.66" cy="210.44" r="4.0" fill="#2f6f73" opacity="0.72"/>
<circle cx="606.48" cy="242.49" r="4.0" fill="#2f6f73" opacity="0.72"/>
<circle cx="541.74" cy="229.81" r="4.0" fill="#2f6f73" opacity="0.72"/>
<circle cx="658.14" cy="216.61" r="4.0" fill="#2f6f73" opacity="0.72"/>
<circle cx="819.55" cy="144.80" r="4.0" fill="#2f6f73" opacity="0.72"/>
<circle cx="654.41" cy="221.58" r="4.0" fill="#2f6f73" opacity="0.72"/>
<circle cx="614.90" cy="242.49" r="4.0" fill="#2f6f73" opacity="0.72"/>
<circle cx="606.48" cy="242.49" r="4.0" fill="#2f6f73" opacity="0.72"/>
<circle cx="642.98" cy="167.05" r="4.0" fill="#2f6f73" opacity="0.72"/>
<circle cx="570.83" cy="242.49" r="4.0" fill="#2f6f73" opacity="0.72"/>
<circle cx="738.35" cy="242.49" r="4.0" fill="#2f6f73" opacity="0.72"/>
<circle cx="597.87" cy="242.49" r="4.0" fill="#2f6f73" opacity="0.72"/>
<circle cx="566.13" cy="235.86" r="4.0" fill="#2f6f73" opacity="0.72"/>
<circle cx="546.74" cy="242.49" r="4.0" fill="#2f6f73" opacity="0.72"/>
<circle cx="658.14" cy="242.49" r="4.0" fill="#2f6f73" opacity="0.72"/>
<circle cx="515.68" cy="242.49" r="4.0" fill="#2f6f73" opacity="0.72"/>
<circle cx="531.52" cy="209.79" r="4.0" fill="#2f6f73" opacity="0.72"/>
<circle cx="536.66" cy="209.94" r="4.0" fill="#2f6f73" opacity="0.72"/>
<circle cx="526.31" cy="239.42" r="4.0" fill="#2f6f73" opacity="0.72"/>
<circle cx="551.68" cy="242.49" r="4.0" fill="#2f6f73" opacity="0.72"/>
<circle cx="575.47" cy="242.49" r="4.0" fill="#2f6f73" opacity="0.72"/>
<circle cx="575.47" cy="230.29" r="4.0" fill="#2f6f73" opacity="0.72"/>
<circle cx="556.56" cy="233.59" r="4.0" fill="#2f6f73" opacity="0.72"/>
<circle cx="546.74" cy="239.66" r="4.0" fill="#2f6f73" opacity="0.72"/>
<circle cx="541.74" cy="222.61" r="4.0" fill="#2f6f73" opacity="0.72"/>
<circle cx="606.48" cy="255.97" r="4.0" fill="#2f6f73" opacity="0.72"/>
<circle cx="526.31" cy="260.20" r="4.0" fill="#2f6f73" opacity="0.72"/>
<circle cx="623.13" cy="294.03" r="4.0" fill="#2f6f73" opacity="0.72"/>
<circle cx="756.03" cy="219.65" r="4.0" fill="#2f6f73" opacity="0.72"/>
<circle cx="775.67" cy="217.66" r="4.0" fill="#2f6f73" opacity="0.72"/>
<circle cx="661.84" cy="231.70" r="4.0" fill="#2f6f73" opacity="0.72"/>
<circle cx="635.16" cy="205.75" r="4.0" fill="#2f6f73" opacity="0.72"/>
<circle cx="589.07" cy="225.83" r="4.0" fill="#2f6f73" opacity="0.72"/>
<circle cx="619.04" cy="290.56" r="4.0" fill="#2f6f73" opacity="0.72"/>
<circle cx="654.41" cy="206.73" r="4.0" fill="#2f6f73" opacity="0.72"/>
<circle cx="686.79" cy="230.84" r="4.0" fill="#2f6f73" opacity="0.72"/>
<circle cx="526.31" cy="327.30" r="4.0" fill="#2f6f73" opacity="0.72"/>
<circle cx="614.90" cy="228.17" r="4.0" fill="#2f6f73" opacity="0.72"/>
<circle cx="606.48" cy="253.57" r="4.0" fill="#2f6f73" opacity="0.72"/>
<circle cx="566.13" cy="324.73" r="4.0" fill="#2f6f73" opacity="0.72"/>
<circle cx="561.38" cy="362.76" r="4.0" fill="#2f6f73" opacity="0.72"/>
<circle cx="546.74" cy="285.56" r="4.0" fill="#2f6f73" opacity="0.72"/>
<circle cx="606.48" cy="286.54" r="4.0" fill="#2f6f73" opacity="0.72"/>
<circle cx="570.83" cy="345.43" r="4.0" fill="#2f6f73" opacity="0.72"/>
<circle cx="463.77" cy="310.68" r="4.0" fill="#2f6f73" opacity="0.72"/>
<circle cx="602.20" cy="234.24" r="4.0" fill="#2f6f73" opacity="0.72"/>
<circle cx="551.68" cy="212.12" r="4.0" fill="#2f6f73" opacity="0.72"/>
<circle cx="551.68" cy="277.27" r="4.0" fill="#2f6f73" opacity="0.72"/>
<circle cx="593.50" cy="222.46" r="4.0" fill="#2f6f73" opacity="0.72"/>
<circle cx="570.83" cy="167.68" r="4.0" fill="#2f6f73" opacity="0.72"/>
<circle cx="635.16" cy="226.80" r="4.0" fill="#2f6f73" opacity="0.72"/>
<circle cx="589.07" cy="206.32" r="4.0" fill="#2f6f73" opacity="0.72"/>
<circle cx="606.48" cy="174.53" r="4.0" fill="#2f6f73" opacity="0.72"/>
<circle cx="631.19" cy="192.10" r="4.0" fill="#2f6f73" opacity="0.72"/>
<circle cx="639.09" cy="228.61" r="4.0" fill="#2f6f73" opacity="0.72"/>
<circle cx="597.87" cy="274.92" r="4.0" fill="#2f6f73" opacity="0.72"/>
<circle cx="546.74" cy="326.89" r="4.0" fill="#2f6f73" opacity="0.72"/>
<circle cx="531.52" cy="230.19" r="4.0" fill="#2f6f73" opacity="0.72"/>
<circle cx="584.59" cy="217.17" r="4.0" fill="#2f6f73" opacity="0.72"/>
<circle cx="661.84" cy="226.51" r="4.0" fill="#2f6f73" opacity="0.72"/>
<circle cx="606.48" cy="254.53" r="4.0" fill="#2f6f73" opacity="0.72"/>
<circle cx="669.14" cy="226.65" r="4.0" fill="#2f6f73" opacity="0.72"/>
<circle cx="515.68" cy="254.10" r="4.0" fill="#2f6f73" opacity="0.72"/>
<circle cx="610.71" cy="247.87" r="4.0" fill="#2f6f73" opacity="0.72"/>
<circle cx="654.41" cy="235.69" r="4.0" fill="#2f6f73" opacity="0.72"/>
<circle cx="614.90" cy="235.40" r="4.0" fill="#2f6f73" opacity="0.72"/>
<circle cx="650.64" cy="224.88" r="4.0" fill="#2f6f73" opacity="0.72"/>
<circle cx="661.84" cy="247.87" r="4.0" fill="#2f6f73" opacity="0.72"/>
<circle cx="642.98" cy="232.22" r="4.0" fill="#2f6f73" opacity="0.72"/>
<circle cx="650.64" cy="235.30" r="4.0" fill="#2f6f73" opacity="0.72"/>
<circle cx="635.16" cy="247.87" r="4.0" fill="#2f6f73" opacity="0.72"/>
<circle cx="650.64" cy="242.22" r="4.0" fill="#2f6f73" opacity="0.72"/>
<circle cx="669.14" cy="238.03" r="4.0" fill="#2f6f73" opacity="0.72"/>
<circle cx="631.19" cy="254.93" r="4.0" fill="#2f6f73" opacity="0.72"/>
<circle cx="672.73" cy="253.81" r="4.0" fill="#2f6f73" opacity="0.72"/>
<circle cx="726.10" cy="241.05" r="4.0" fill="#2f6f73" opacity="0.72"/>
<circle cx="669.14" cy="216.24" r="4.0" fill="#2f6f73" opacity="0.72"/>
<circle cx="700.34" cy="253.41" r="4.0" fill="#2f6f73" opacity="0.72"/>
<circle cx="642.98" cy="232.67" r="4.0" fill="#2f6f73" opacity="0.72"/>
<circle cx="584.59" cy="240.84" r="4.0" fill="#2f6f73" opacity="0.72"/>
<circle cx="654.41" cy="239.94" r="4.0" fill="#2f6f73" opacity="0.72"/>
<circle cx="610.71" cy="236.75" r="4.0" fill="#2f6f73" opacity="0.72"/>
<circle cx="593.50" cy="223.68" r="4.0" fill="#2f6f73" opacity="0.72"/>
<circle cx="614.90" cy="237.19" r="4.0" fill="#2f6f73" opacity="0.72"/>
<circle cx="610.71" cy="264.83" r="4.0" fill="#2f6f73" opacity="0.72"/>
<circle cx="619.04" cy="221.31" r="4.0" fill="#2f6f73" opacity="0.72"/>
<circle cx="631.19" cy="266.30" r="4.0" fill="#2f6f73" opacity="0.72"/>
<circle cx="672.73" cy="234.84" r="4.0" fill="#2f6f73" opacity="0.72"/>
<circle cx="536.66" cy="265.66" r="4.0" fill="#2f6f73" opacity="0.72"/>
<circle cx="597.87" cy="264.40" r="4.0" fill="#2f6f73" opacity="0.72"/>
<circle cx="602.20" cy="264.20" r="4.0" fill="#2f6f73" opacity="0.72"/>
<circle cx="561.38" cy="263.60" r="4.0" fill="#2f6f73" opacity="0.72"/>
<circle cx="623.13" cy="242.87" r="4.0" fill="#2f6f73" opacity="0.72"/>
<circle cx="551.68" cy="244.81" r="4.0" fill="#2f6f73" opacity="0.72"/>
<circle cx="606.48" cy="251.27" r="4.0" fill="#2f6f73" opacity="0.72"/>
<circle cx="606.48" cy="244.78" r="4.0" fill="#2f6f73" opacity="0.72"/>
<circle cx="570.83" cy="232.06" r="4.0" fill="#2f6f73" opacity="0.72"/>
<circle cx="602.20" cy="252.13" r="4.0" fill="#2f6f73" opacity="0.72"/>
<circle cx="580.06" cy="234.15" r="4.0" fill="#2f6f73" opacity="0.72"/>
<circle cx="654.41" cy="225.39" r="4.0" fill="#2f6f73" opacity="0.72"/>
<circle cx="627.18" cy="249.44" r="4.0" fill="#2f6f73" opacity="0.72"/>
<circle cx="722.97" cy="219.12" r="4.0" fill="#2f6f73" opacity="0.72"/>
<circle cx="758.90" cy="263.14" r="4.0" fill="#2f6f73" opacity="0.72"/>
<circle cx="642.98" cy="254.65" r="4.0" fill="#2f6f73" opacity="0.72"/>
<circle cx="623.13" cy="239.34" r="4.0" fill="#2f6f73" opacity="0.72"/>
<circle cx="679.82" cy="200.31" r="4.0" fill="#2f6f73" opacity="0.72"/>
<circle cx="683.32" cy="199.34" r="4.0" fill="#2f6f73" opacity="0.72"/>
<circle cx="658.14" cy="226.85" r="4.0" fill="#2f6f73" opacity="0.72"/>
<circle cx="521.03" cy="333.78" r="4.0" fill="#2f6f73" opacity="0.72"/>
<circle cx="499.14" cy="313.83" r="4.0" fill="#2f6f73" opacity="0.72"/>
<circle cx="487.71" cy="318.58" r="4.0" fill="#2f6f73" opacity="0.72"/>
<circle cx="504.73" cy="300.36" r="4.0" fill="#2f6f73" opacity="0.72"/>
<circle cx="541.74" cy="324.76" r="4.0" fill="#2f6f73" opacity="0.72"/>
<circle cx="457.55" cy="327.68" r="4.0" fill="#2f6f73" opacity="0.72"/>
<circle cx="475.93" cy="332.54" r="4.0" fill="#2f6f73" opacity="0.72"/>
<circle cx="463.77" cy="302.60" r="4.0" fill="#2f6f73" opacity="0.72"/>
<circle cx="469.90" cy="355.67" r="4.0" fill="#2f6f73" opacity="0.72"/>
<circle cx="536.66" cy="282.64" r="4.0" fill="#2f6f73" opacity="0.72"/>
<circle cx="444.78" cy="309.59" r="4.0" fill="#2f6f73" opacity="0.72"/>
<circle cx="444.78" cy="351.73" r="4.0" fill="#2f6f73" opacity="0.72"/>
<circle cx="526.31" cy="300.56" r="4.0" fill="#2f6f73" opacity="0.72"/>
<circle cx="481.87" cy="304.21" r="4.0" fill="#2f6f73" opacity="0.72"/>
<circle cx="487.71" cy="322.71" r="4.0" fill="#2f6f73" opacity="0.72"/>
<circle cx="487.71" cy="287.10" r="4.0" fill="#2f6f73" opacity="0.72"/>
<circle cx="631.19" cy="243.23" r="4.0" fill="#2f6f73" opacity="0.72"/>
<circle cx="627.18" cy="273.15" r="4.0" fill="#2f6f73" opacity="0.72"/>
<circle cx="676.30" cy="238.28" r="4.0" fill="#2f6f73" opacity="0.72"/>
<circle cx="654.41" cy="242.49" r="4.0" fill="#2f6f73" opacity="0.72"/>
<circle cx="654.41" cy="233.83" r="4.0" fill="#2f6f73" opacity="0.72"/>
<circle cx="646.82" cy="200.73" r="4.0" fill="#2f6f73" opacity="0.72"/>
<circle cx="639.09" cy="239.75" r="4.0" fill="#2f6f73" opacity="0.72"/>
<circle cx="589.07" cy="240.92" r="4.0" fill="#2f6f73" opacity="0.72"/>
<circle cx="697.00" cy="222.98" r="4.0" fill="#2f6f73" opacity="0.72"/>
<circle cx="642.98" cy="201.50" r="4.0" fill="#2f6f73" opacity="0.72"/>
<circle cx="706.95" cy="230.00" r="4.0" fill="#2f6f73" opacity="0.72"/>
<circle cx="551.68" cy="290.29" r="4.0" fill="#2f6f73" opacity="0.72"/>
<circle cx="716.64" cy="235.38" r="4.0" fill="#2f6f73" opacity="0.72"/>
<circle cx="635.16" cy="258.38" r="4.0" fill="#2f6f73" opacity="0.72"/>
<circle cx="536.66" cy="350.72" r="4.0" fill="#2f6f73" opacity="0.72"/>
<circle cx="504.73" cy="306.69" r="4.0" fill="#2f6f73" opacity="0.72"/>
<circle cx="481.87" cy="325.30" r="4.0" fill="#2f6f73" opacity="0.72"/>
<circle cx="451.22" cy="426.24" r="4.0" fill="#2f6f73" opacity="0.72"/>
<circle cx="475.93" cy="285.63" r="4.0" fill="#2f6f73" opacity="0.72"/>
<circle cx="556.56" cy="266.64" r="4.0" fill="#2f6f73" opacity="0.72"/>
<circle cx="373.66" cy="418.55" r="4.0" fill="#2f6f73" opacity="0.72"/>
<circle cx="556.56" cy="297.97" r="4.0" fill="#2f6f73" opacity="0.72"/>
<circle cx="463.77" cy="356.81" r="4.0" fill="#2f6f73" opacity="0.72"/>
<circle cx="373.66" cy="366.60" r="4.0" fill="#2f6f73" opacity="0.72"/>
<circle cx="438.23" cy="425.38" r="4.0" fill="#2f6f73" opacity="0.72"/>
<circle cx="469.90" cy="340.35" r="4.0" fill="#2f6f73" opacity="0.72"/>
<circle cx="481.87" cy="347.05" r="4.0" fill="#2f6f73" opacity="0.72"/>
<circle cx="475.93" cy="352.77" r="4.0" fill="#2f6f73" opacity="0.72"/>
<circle cx="381.40" cy="358.40" r="4.0" fill="#2f6f73" opacity="0.72"/>
<circle cx="580.06" cy="294.37" r="4.0" fill="#2f6f73" opacity="0.72"/>
<circle cx="650.64" cy="242.70" r="4.0" fill="#2f6f73" opacity="0.72"/>
<circle cx="570.83" cy="314.14" r="4.0" fill="#2f6f73" opacity="0.72"/>
<circle cx="614.90" cy="241.35" r="4.0" fill="#2f6f73" opacity="0.72"/>
<circle cx="619.04" cy="209.45" r="4.0" fill="#2f6f73" opacity="0.72"/>
<circle cx="546.74" cy="244.55" r="4.0" fill="#2f6f73" opacity="0.72"/>
<circle cx="410.87" cy="319.32" r="4.0" fill="#2f6f73" opacity="0.72"/>
<circle cx="551.68" cy="241.81" r="4.0" fill="#2f6f73" opacity="0.72"/>
<circle cx="493.47" cy="224.49" r="4.0" fill="#2f6f73" opacity="0.72"/>
<circle cx="661.84" cy="231.36" r="4.0" fill="#2f6f73" opacity="0.72"/>
<circle cx="602.20" cy="237.14" r="4.0" fill="#2f6f73" opacity="0.72"/>
<circle cx="735.32" cy="200.85" r="4.0" fill="#2f6f73" opacity="0.72"/>
<circle cx="551.68" cy="243.86" r="4.0" fill="#2f6f73" opacity="0.72"/>
<circle cx="561.38" cy="248.22" r="4.0" fill="#2f6f73" opacity="0.72"/>
<circle cx="556.56" cy="236.87" r="4.0" fill="#2f6f73" opacity="0.72"/>
<circle cx="639.09" cy="229.23" r="4.0" fill="#2f6f73" opacity="0.72"/>
<circle cx="676.30" cy="235.57" r="4.0" fill="#2f6f73" opacity="0.72"/>
<circle cx="654.41" cy="229.01" r="4.0" fill="#2f6f73" opacity="0.72"/>
<circle cx="606.48" cy="212.37" r="4.0" fill="#2f6f73" opacity="0.72"/>
<circle cx="606.48" cy="242.49" r="4.0" fill="#2f6f73" opacity="0.72"/>
<circle cx="722.97" cy="201.54" r="4.0" fill="#2f6f73" opacity="0.72"/>
<circle cx="665.51" cy="225.45" r="4.0" fill="#2f6f73" opacity="0.72"/>
<circle cx="783.79" cy="231.12" r="4.0" fill="#2f6f73" opacity="0.72"/>
<circle cx="676.30" cy="240.94" r="4.0" fill="#2f6f73" opacity="0.72"/>
<circle cx="722.97" cy="227.51" r="4.0" fill="#2f6f73" opacity="0.72"/>
<circle cx="593.50" cy="233.16" r="4.0" fill="#2f6f73" opacity="0.72"/>
<circle cx="679.82" cy="205.84" r="4.0" fill="#2f6f73" opacity="0.72"/>
<circle cx="654.41" cy="235.26" r="4.0" fill="#2f6f73" opacity="0.72"/>
<circle cx="669.14" cy="222.43" r="4.0" fill="#2f6f73" opacity="0.72"/>
<circle cx="646.82" cy="244.94" r="4.0" fill="#2f6f73" opacity="0.72"/>
<circle cx="679.82" cy="212.06" r="4.0" fill="#2f6f73" opacity="0.72"/>
<circle cx="772.92" cy="205.53" r="4.0" fill="#2f6f73" opacity="0.72"/>
<circle cx="669.14" cy="224.49" r="4.0" fill="#2f6f73" opacity="0.72"/>
<circle cx="722.97" cy="245.28" r="4.0" fill="#2f6f73" opacity="0.72"/>
<circle cx="764.57" cy="245.96" r="4.0" fill="#2f6f73" opacity="0.72"/>
<circle cx="758.90" cy="209.25" r="4.0" fill="#2f6f73" opacity="0.72"/>
<circle cx="729.20" cy="209.48" r="4.0" fill="#2f6f73" opacity="0.72"/>
<circle cx="778.39" cy="165.83" r="4.0" fill="#2f6f73" opacity="0.72"/>
<circle cx="750.23" cy="247.07" r="4.0" fill="#2f6f73" opacity="0.72"/>
<circle cx="676.30" cy="212.37" r="4.0" fill="#2f6f73" opacity="0.72"/>
<circle cx="710.20" cy="256.95" r="4.0" fill="#2f6f73" opacity="0.72"/>
<circle cx="661.84" cy="244.88" r="4.0" fill="#2f6f73" opacity="0.72"/>
<circle cx="738.35" cy="247.84" r="4.0" fill="#2f6f73" opacity="0.72"/>
<circle cx="758.90" cy="248.82" r="4.0" fill="#2f6f73" opacity="0.72"/>
<circle cx="686.79" cy="233.59" r="4.0" fill="#2f6f73" opacity="0.72"/>
<circle cx="510.24" cy="236.12" r="4.0" fill="#2f6f73" opacity="0.72"/>
<circle cx="531.52" cy="308.65" r="4.0" fill="#2f6f73" opacity="0.72"/>
<circle cx="584.59" cy="288.60" r="4.0" fill="#2f6f73" opacity="0.72"/>
<circle cx="410.87" cy="386.18" r="4.0" fill="#2f6f73" opacity="0.72"/>
<circle cx="566.13" cy="271.99" r="4.0" fill="#2f6f73" opacity="0.72"/>
<circle cx="410.87" cy="303.72" r="4.0" fill="#2f6f73" opacity="0.72"/>
<circle cx="451.22" cy="389.61" r="4.0" fill="#2f6f73" opacity="0.72"/>
<circle cx="424.80" cy="329.20" r="4.0" fill="#2f6f73" opacity="0.72"/>
<circle cx="424.80" cy="363.28" r="4.0" fill="#2f6f73" opacity="0.72"/>
<circle cx="314.64" cy="416.09" r="4.0" fill="#2f6f73" opacity="0.72"/>
<circle cx="373.66" cy="330.04" r="4.0" fill="#2f6f73" opacity="0.72"/>
<circle cx="526.31" cy="310.46" r="4.0" fill="#2f6f73" opacity="0.72"/>
<circle cx="286.26" cy="462.86" r="4.0" fill="#2f6f73" opacity="0.72"/>
<circle cx="403.71" cy="363.56" r="4.0" fill="#2f6f73" opacity="0.72"/>
<circle cx="381.40" cy="412.39" r="4.0" fill="#2f6f73" opacity="0.72"/>
<circle cx="145.45" cy="470.40" r="4.0" fill="#2f6f73" opacity="0.72"/>
<circle cx="255.61" cy="513.33" r="4.0" fill="#2f6f73" opacity="0.72"/>
<circle cx="266.10" cy="423.08" r="4.0" fill="#2f6f73" opacity="0.72"/>
<circle cx="357.71" cy="423.08" r="4.0" fill="#2f6f73" opacity="0.72"/>
<circle cx="295.95" cy="512.33" r="4.0" fill="#2f6f73" opacity="0.72"/>
<circle cx="172.81" cy="471.09" r="4.0" fill="#2f6f73" opacity="0.72"/>
<circle cx="373.66" cy="412.39" r="4.0" fill="#2f6f73" opacity="0.72"/>
<circle cx="396.42" cy="363.56" r="4.0" fill="#2f6f73" opacity="0.72"/>
<circle cx="233.72" cy="462.86" r="4.0" fill="#2f6f73" opacity="0.72"/>
<circle cx="541.74" cy="314.56" r="4.0" fill="#2f6f73" opacity="0.72"/>
<circle cx="396.42" cy="330.53" r="4.0" fill="#2f6f73" opacity="0.72"/>
<circle cx="381.40" cy="415.91" r="4.0" fill="#2f6f73" opacity="0.72"/>
<circle cx="388.98" cy="362.74" r="4.0" fill="#2f6f73" opacity="0.72"/>
<circle cx="424.80" cy="329.56" r="4.0" fill="#2f6f73" opacity="0.72"/>
<circle cx="444.78" cy="387.27" r="4.0" fill="#2f6f73" opacity="0.72"/>
<circle cx="381.40" cy="299.33" r="4.0" fill="#2f6f73" opacity="0.72"/>
<circle cx="561.38" cy="271.12" r="4.0" fill="#2f6f73" opacity="0.72"/>
<circle cx="410.87" cy="378.52" r="4.0" fill="#2f6f73" opacity="0.72"/>
<circle cx="444.78" cy="291.06" r="4.0" fill="#2f6f73" opacity="0.72"/>
<circle cx="526.31" cy="298.10" r="4.0" fill="#2f6f73" opacity="0.72"/>
<circle cx="431.57" cy="231.75" r="4.0" fill="#2f6f73" opacity="0.72"/>
<circle cx="597.87" cy="242.49" r="4.0" fill="#2f6f73" opacity="0.72"/>
<circle cx="623.13" cy="242.49" r="4.0" fill="#2f6f73" opacity="0.72"/>
<circle cx="619.04" cy="242.49" r="4.0" fill="#2f6f73" opacity="0.72"/>
<circle cx="614.90" cy="242.49" r="4.0" fill="#2f6f73" opacity="0.72"/>
<circle cx="650.64" cy="242.49" r="4.0" fill="#2f6f73" opacity="0.72"/>
<circle cx="614.90" cy="242.49" r="4.0" fill="#2f6f73" opacity="0.72"/>
<circle cx="623.13" cy="230.05" r="4.0" fill="#2f6f73" opacity="0.72"/>
<circle cx="614.90" cy="243.00" r="4.0" fill="#2f6f73" opacity="0.72"/>
<circle cx="602.20" cy="243.14" r="4.0" fill="#2f6f73" opacity="0.72"/>
<circle cx="669.14" cy="233.61" r="4.0" fill="#2f6f73" opacity="0.72"/>
<circle cx="627.18" cy="230.40" r="4.0" fill="#2f6f73" opacity="0.72"/>
<circle cx="635.16" cy="233.39" r="4.0" fill="#2f6f73" opacity="0.72"/>
<circle cx="650.64" cy="243.28" r="4.0" fill="#2f6f73" opacity="0.72"/>
<circle cx="631.19" cy="238.16" r="4.0" fill="#2f6f73" opacity="0.72"/>
<circle cx="658.14" cy="236.30" r="4.0" fill="#2f6f73" opacity="0.72"/>
<circle cx="719.82" cy="233.23" r="4.0" fill="#2f6f73" opacity="0.72"/>
<circle cx="770.16" cy="204.49" r="4.0" fill="#2f6f73" opacity="0.72"/>
<circle cx="669.14" cy="231.43" r="4.0" fill="#2f6f73" opacity="0.72"/>
<circle cx="669.14" cy="223.19" r="4.0" fill="#2f6f73" opacity="0.72"/>
<circle cx="646.82" cy="226.72" r="4.0" fill="#2f6f73" opacity="0.72"/>
<circle cx="639.09" cy="231.30" r="4.0" fill="#2f6f73" opacity="0.72"/>
<circle cx="654.41" cy="239.82" r="4.0" fill="#2f6f73" opacity="0.72"/>
<circle cx="646.82" cy="232.04" r="4.0" fill="#2f6f73" opacity="0.72"/>
<circle cx="639.09" cy="233.76" r="4.0" fill="#2f6f73" opacity="0.72"/>
<text x="482.5" y="688" text-anchor="middle" font-family="Arial" font-size="16">Observed Dactivity, log2(variant / WT)</text>
<text x="24" y="358.5" text-anchor="middle" font-family="Arial" font-size="16" transform="rotate(-90 24 358.5)">Predicted Dactivity, log2(variant / WT)</text>
</svg>