<svg xmlns="http://www.w3.org/2000/svg" width="1080" height="620" viewBox="0 0 1080 620">
<rect width="100%" height="100%" fill="#ffffff"/>
<text x="540.0" y="34" text-anchor="middle" font-family="Arial" font-size="22" font-weight="700">Figure 5A/G: A/T substitution activity profiles</text>
<rect x="92" y="72" width="943" height="466" fill="#fbfbfb" stroke="#222"/>
<rect x="212.62" y="72" width="76.76" height="466" fill="#f2e7d8" opacity="0.65"/>
<text x="246.62" y="90" text-anchor="middle" font-family="Arial" font-size="12" fill="#6b4a29">CRE1</text>
<rect x="848.59" y="72" width="76.76" height="466" fill="#f2e7d8" opacity="0.65"/>
<text x="882.59" y="90" text-anchor="middle" font-family="Arial" font-size="12" fill="#6b4a29">CRE4</text>
<line x1="92" y1="523.12" x2="1035" y2="523.12" stroke="#e1e1e1"/>
<text x="80" y="527.12" text-anchor="end" font-family="Arial" font-size="13">-2</text>
<line x1="92" y1="367.71" x2="1035" y2="367.71" stroke="#e1e1e1"/>
<text x="80" y="371.71" text-anchor="end" font-family="Arial" font-size="13">-1</text>
<line x1="92" y1="212.30" x2="1035" y2="212.30" stroke="#e1e1e1"/>
<text x="80" y="216.30" text-anchor="end" font-family="Arial" font-size="13">0</text>
<line x1="92" y1="56.89" x2="1035" y2="56.89" stroke="#e1e1e1"/>
<text x="80" y="60.89" text-anchor="end" font-family="Arial" font-size="13">1</text>
<line x1="92.00" y1="72" x2="92.00" y2="538" stroke="#ececec"/>
<text x="92.00" y="563" text-anchor="middle" font-family="Arial" font-size="13">0</text>
<line x1="201.65" y1="72" x2="201.65" y2="538" stroke="#ececec"/>
<text x="201.65" y="563" text-anchor="middle" font-family="Arial" font-size="13">10</text>
<line x1="311.30" y1="72" x2="311.30" y2="538" stroke="#ececec"/>
<text x="311.30" y="563" text-anchor="middle" font-family="Arial" font-size="13">20</text>
<line x1="420.95" y1="72" x2="420.95" y2="538" stroke="#ececec"/>
<text x="420.95" y="563" text-anchor="middle" font-family="Arial" font-size="13">30</text>
<line x1="530.60" y1="72" x2="530.60" y2="538" stroke="#ececec"/>
<text x="530.60" y="563" text-anchor="middle" font-family="Arial" font-size="13">40</text>
<line x1="640.26" y1="72" x2="640.26" y2="538" stroke="#ececec"/>
<text x="640.26" y="563" text-anchor="middle" font-family="Arial" font-size="13">50</text>
<line x1="749.91" y1="72" x2="749.91" y2="538" stroke="#ececec"/>
<text x="749.91" y="563" text-anchor="middle" font-family="Arial" font-size="13">60</text>
<line x1="859.56" y1="72" x2="859.56" y2="538" stroke="#ececec"/>
<text x="859.56" y="563" text-anchor="middle" font-family="Arial" font-size="13">70</text>
<line x1="969.21" y1="72" x2="969.21" y2="538" stroke="#ececec"/>
<text x="969.21" y="563" text-anchor="middle" font-family="Arial" font-size="13">80</text>
<polyline fill="none" stroke="#2f6f73" stroke-width="2.5" opacity="0.55" points="92.00,201.36 102.97,235.92 124.90,230.99 135.86,256.79 157.79,289.09 179.72,254.07 201.65,226.17 212.62,203.50 223.58,228.57 245.51,259.54 256.48,235.92 267.44,238.43 278.41,243.52 300.34,216.83 311.30,279.81 322.27,235.92 333.23,233.44 344.20,210.07 355.16,210.07 377.09,165.88 399.02,233.44 409.99,233.44 420.95,197.13 431.92,238.43 453.85,256.79 464.81,207.86 475.78,146.68 486.74,192.98 497.71,285.95 508.67,295.49 519.64,312.36 530.60,276.80 552.53,305.46 574.47,212.30 585.43,182.92 596.40,268.00 607.36,276.80 618.33,326.83 640.26,372.24 651.22,308.88 662.19,251.39 673.15,230.99 684.12,350.45 695.08,203.50 706.05,268.00 717.01,216.83 738.94,201.36 760.87,207.86 782.80,167.71 793.77,164.07 804.73,195.04 815.70,158.71 837.63,350.45 848.59,326.83 859.56,406.80 881.49,505.86 892.45,381.58 903.42,372.24 914.38,273.83 947.28,330.60 958.24,240.96 969.21,230.99 980.17,226.17 1002.10,210.07 1035.00,207.86"/>
<polyline fill="none" stroke="#2f6f73" stroke-width="3.5"  points="92.00,171.24 102.97,212.30 124.90,212.30 135.86,212.30 157.79,212.30 179.72,199.04 201.65,230.05 212.62,191.43 223.58,232.54 245.51,266.80 256.48,263.59 267.44,230.72 278.41,177.94 300.34,180.34 311.30,200.29 322.27,221.91 333.23,212.30 344.20,211.92 355.16,212.30 377.09,211.30 399.02,211.19 409.99,212.30 420.95,183.39 431.92,212.30 453.85,210.86 464.81,206.97 475.78,224.21 486.74,104.14 497.71,293.47 508.67,250.25 519.64,291.89 530.60,230.49 552.53,235.19 574.47,181.58 585.43,217.32 596.40,213.16 607.36,281.75 618.33,375.82 640.26,317.50 651.22,298.70 662.19,280.15 673.15,200.02 684.12,273.12 695.08,185.32 706.05,212.52 717.01,213.11 738.94,200.11 760.87,219.03 782.80,220.62 793.77,153.00 804.73,149.32 815.70,181.04 837.63,270.04 848.59,321.38 859.56,348.63 881.49,423.38 892.45,363.93 903.42,361.26 914.38,224.22 947.28,220.69 958.24,212.30 969.21,212.30 980.17,195.84 1002.10,212.30 1035.00,195.41"/>
<polyline fill="none" stroke="#9a4f34" stroke-width="2.5" opacity="0.55" points="92.00,276.80 113.93,207.86 124.90,214.55 135.86,240.96 146.83,205.67 157.79,276.80 168.76,254.07 179.72,270.90 190.69,282.86 201.65,136.86 223.58,188.90 234.55,235.92 245.51,270.90 256.48,319.48 278.41,219.13 289.37,221.45 300.34,270.90 311.30,203.50 333.23,230.99 344.20,214.55 355.16,210.07 366.13,197.13 377.09,180.96 388.06,207.86 409.99,221.45 420.95,240.96 431.92,226.17 442.88,235.92 464.81,167.71 475.78,226.17 486.74,205.67 497.71,305.46 508.67,323.12 530.60,330.60 541.57,305.46 563.50,207.86 574.47,246.11 596.40,219.13 618.33,265.15 629.29,319.48 640.26,315.89 651.22,367.71 673.15,270.90 717.01,207.86 727.98,167.71 738.94,195.04 749.91,192.98 760.87,212.30 771.84,199.23 782.80,146.68 793.77,151.75 804.73,203.50 815.70,188.90 826.66,248.74 859.56,282.86 870.52,367.71 881.49,435.22 892.45,489.84 914.38,367.71 925.35,330.60 936.31,350.45 958.24,228.57 969.21,230.99 980.17,238.43 991.14,219.13 1002.10,205.67 1013.07,199.23 1024.03,216.83 1035.00,216.83"/>
<polyline fill="none" stroke="#9a4f34" stroke-width="3.5" stroke-dasharray="6 5" points="92.00,212.30 113.93,212.30 124.90,170.51 135.86,212.30 146.83,212.30 157.79,212.30 168.76,212.30 179.72,208.26 190.69,210.10 201.65,161.49 223.58,182.66 234.55,235.51 245.51,263.38 256.48,271.27 278.41,211.00 289.37,197.60 300.34,280.55 311.30,202.91 333.23,212.30 344.20,211.99 355.16,212.30 366.13,212.30 377.09,211.92 388.06,212.30 409.99,212.30 420.95,211.31 431.92,212.30 442.88,211.18 464.81,195.63 475.78,206.85 486.74,202.09 497.71,250.28 508.67,272.38 530.60,293.32 541.57,272.97 563.50,213.81 574.47,210.24 596.40,189.75 618.33,205.62 629.29,311.30 640.26,296.24 651.22,311.30 673.15,221.84 717.01,209.14 727.98,181.47 738.94,201.59 749.91,189.24 760.87,213.74 771.84,175.83 782.80,179.88 793.77,181.04 804.73,176.64 815.70,181.04 826.66,213.85 859.56,226.50 870.52,361.26 881.49,363.93 892.45,423.38 914.38,348.68 925.35,336.61 936.31,282.00 958.24,212.30 969.21,212.30 980.17,212.30 991.14,239.01 1002.10,210.47 1013.07,214.75 1024.03,212.30 1035.00,212.30"/>
<text x="563.5" y="594" text-anchor="middle" font-family="Arial" font-size="16">Single-hit mutation position</text>
<text x="25" y="305.0" text-anchor="middle" font-family="Arial" font-size="16" transform="rotate(-90 25 305.0)">Delta activity, log2(variant / WT)</text>
<text x="792" y="42" font-family="Arial" font-size="13" fill="#2f6f73">A substitution</text>
<text x="914" y="42" font-family="Arial" font-size="13" fill="#9a4f34">T substitution</text>
<text x="792" y="60" font-family="Arial" font-size="12" fill="#555">thin: observed, thick/dashed: model</text>
</svg>