<svg xmlns="http://www.w3.org/2000/svg" width="1080" height="620" viewBox="0 0 1080 620">
<rect width="100%" height="100%" fill="#ffffff"/>
<text x="540.0" y="34" text-anchor="middle" font-family="Arial" font-size="22" font-weight="700">Figure 5A/G: A/T substitution activity profiles</text>
<rect x="92" y="72" width="943" height="466" fill="#fbfbfb" stroke="#222"/>
<rect x="212.62" y="72" width="76.76" height="466" fill="#f2e7d8" opacity="0.65"/>
<text x="246.62" y="90" text-anchor="middle" font-family="Arial" font-size="12" fill="#6b4a29">CRE1</text>
<rect x="848.59" y="72" width="76.76" height="466" fill="#f2e7d8" opacity="0.65"/>
<text x="882.59" y="90" text-anchor="middle" font-family="Arial" font-size="12" fill="#6b4a29">CRE4</text>
<line x1="92" y1="523.52" x2="1035" y2="523.52" stroke="#e1e1e1"/>
<text x="80" y="527.52" text-anchor="end" font-family="Arial" font-size="13">-2</text>
<line x1="92" y1="364.50" x2="1035" y2="364.50" stroke="#e1e1e1"/>
<text x="80" y="368.50" text-anchor="end" font-family="Arial" font-size="13">-1</text>
<line x1="92" y1="205.48" x2="1035" y2="205.48" stroke="#e1e1e1"/>
<text x="80" y="209.48" text-anchor="end" font-family="Arial" font-size="13">0</text>
<line x1="92" y1="46.46" x2="1035" y2="46.46" stroke="#e1e1e1"/>
<text x="80" y="50.46" text-anchor="end" font-family="Arial" font-size="13">1</text>
<line x1="92.00" y1="72" x2="92.00" y2="538" stroke="#ececec"/>
<text x="92.00" y="563" text-anchor="middle" font-family="Arial" font-size="13">0</text>
<line x1="201.65" y1="72" x2="201.65" y2="538" stroke="#ececec"/>
<text x="201.65" y="563" text-anchor="middle" font-family="Arial" font-size="13">10</text>
<line x1="311.30" y1="72" x2="311.30" y2="538" stroke="#ececec"/>
<text x="311.30" y="563" text-anchor="middle" font-family="Arial" font-size="13">20</text>
<line x1="420.95" y1="72" x2="420.95" y2="538" stroke="#ececec"/>
<text x="420.95" y="563" text-anchor="middle" font-family="Arial" font-size="13">30</text>
<line x1="530.60" y1="72" x2="530.60" y2="538" stroke="#ececec"/>
<text x="530.60" y="563" text-anchor="middle" font-family="Arial" font-size="13">40</text>
<line x1="640.26" y1="72" x2="640.26" y2="538" stroke="#ececec"/>
<text x="640.26" y="563" text-anchor="middle" font-family="Arial" font-size="13">50</text>
<line x1="749.91" y1="72" x2="749.91" y2="538" stroke="#ececec"/>
<text x="749.91" y="563" text-anchor="middle" font-family="Arial" font-size="13">60</text>
<line x1="859.56" y1="72" x2="859.56" y2="538" stroke="#ececec"/>
<text x="859.56" y="563" text-anchor="middle" font-family="Arial" font-size="13">70</text>
<line x1="969.21" y1="72" x2="969.21" y2="538" stroke="#ececec"/>
<text x="969.21" y="563" text-anchor="middle" font-family="Arial" font-size="13">80</text>
<polyline fill="none" stroke="#2f6f73" stroke-width="2.5" opacity="0.55" points="92.00,194.29 102.97,229.65 124.90,224.61 135.86,251.01 157.79,284.05 179.72,248.23 201.65,219.68 212.62,196.48 223.58,222.13 245.51,253.82 256.48,229.65 267.44,232.22 278.41,237.43 300.34,210.12 311.30,274.56 322.27,229.65 333.23,227.12 344.20,203.20 355.16,203.20 377.09,157.99 399.02,227.12 409.99,227.12 420.95,189.96 431.92,232.22 453.85,251.01 464.81,200.94 475.78,138.34 486.74,185.71 497.71,280.84 508.67,290.61 519.64,307.87 530.60,271.48 552.53,300.81 574.47,205.48 585.43,175.42 596.40,262.48 607.36,271.48 618.33,322.67 640.26,369.13 651.22,304.31 662.19,245.48 673.15,224.61 684.12,346.84 695.08,196.48 706.05,262.48 717.01,210.12 738.94,194.29 760.87,200.94 782.80,159.86 793.77,156.13 804.73,187.82 815.70,150.65 837.63,346.84 848.59,322.67 859.56,404.50 881.49,505.86 892.45,378.69 903.42,369.13 914.38,268.44 947.28,326.53 958.24,234.81 969.21,224.61 980.17,219.68 1002.10,203.20 1035.00,200.94"/>
<polyline fill="none" stroke="#2f6f73" stroke-width="3.5"  points="92.00,181.00 102.97,240.29 124.90,216.85 135.86,194.08 157.79,213.00 179.72,190.24 201.65,225.95 212.62,189.85 223.58,210.66 245.51,282.60 256.48,268.15 267.44,227.00 278.41,166.39 300.34,169.25 311.30,180.99 322.27,221.72 333.23,208.27 344.20,190.87 355.16,202.25 377.09,201.41 399.02,210.26 409.99,197.16 420.95,175.17 431.92,224.34 453.85,218.66 464.81,209.25 475.78,209.35 486.74,104.14 497.71,259.93 508.67,256.57 519.64,246.07 530.60,245.29 552.53,244.77 574.47,181.00 585.43,214.91 596.40,206.12 607.36,297.01 618.33,314.96 640.26,312.51 651.22,266.13 662.19,249.80 673.15,169.51 684.12,289.51 695.08,158.79 706.05,205.48 717.01,191.63 738.94,198.42 760.87,219.97 782.80,221.83 793.77,150.69 804.73,148.91 815.70,174.27 837.63,255.04 848.59,284.29 859.56,335.13 881.49,416.03 892.45,376.08 903.42,363.86 914.38,220.81 947.28,213.46 958.24,202.09 969.21,199.53 980.17,173.05 1002.10,201.61 1035.00,175.87"/>
<polyline fill="none" stroke="#9a4f34" stroke-width="2.5" opacity="0.55" points="92.00,271.48 113.93,200.94 124.90,207.79 135.86,234.81 146.83,198.70 157.79,271.48 168.76,248.23 179.72,265.44 190.69,277.68 201.65,128.29 223.58,181.54 234.55,229.65 245.51,265.44 256.48,315.15 278.41,212.47 289.37,214.85 300.34,265.44 311.30,196.48 333.23,224.61 344.20,207.79 355.16,203.20 366.13,189.96 377.09,173.42 388.06,200.94 409.99,214.85 420.95,234.81 431.92,219.68 442.88,229.65 464.81,159.86 475.78,219.68 486.74,198.70 497.71,300.81 508.67,318.88 530.60,326.53 541.57,300.81 563.50,200.94 574.47,240.08 596.40,212.47 618.33,259.56 629.29,315.15 640.26,311.48 651.22,364.50 673.15,265.44 717.01,200.94 727.98,159.86 738.94,187.82 749.91,185.71 760.87,205.48 771.84,192.11 782.80,138.34 793.77,143.53 804.73,196.48 815.70,181.54 826.66,242.77 859.56,277.68 870.52,364.50 881.49,433.58 892.45,489.47 914.38,364.50 925.35,326.53 936.31,346.84 958.24,222.13 969.21,224.61 980.17,232.22 991.14,212.47 1002.10,198.70 1013.07,192.11 1024.03,210.12 1035.00,210.12"/>
<polyline fill="none" stroke="#9a4f34" stroke-width="3.5" stroke-dasharray="6 5" points="92.00,189.36 113.93,229.47 124.90,183.06 135.86,222.23 146.83,211.90 157.79,203.14 168.76,198.43 179.72,202.59 190.69,205.18 201.65,152.31 223.58,178.59 234.55,238.49 245.51,270.39 256.48,278.86 278.41,186.80 289.37,160.16 300.34,287.65 311.30,187.05 333.23,213.06 344.20,195.16 355.16,208.82 366.13,193.88 377.09,183.61 388.06,212.69 409.99,204.38 420.95,190.12 431.92,210.92 442.88,213.38 464.81,185.86 475.78,196.26 486.74,197.28 497.71,248.96 508.67,250.55 530.60,284.84 541.57,257.56 563.50,214.60 574.47,199.02 596.40,186.34 618.33,209.75 629.29,279.71 640.26,271.49 651.22,300.96 673.15,201.12 717.01,203.58 727.98,181.21 738.94,188.09 749.91,183.99 760.87,217.99 771.84,178.33 782.80,159.15 793.77,173.16 804.73,159.36 815.70,175.55 826.66,205.68 859.56,221.98 870.52,369.87 881.49,371.05 892.45,416.03 914.38,335.67 925.35,305.26 936.31,265.87 958.24,196.43 969.21,192.33 980.17,194.89 991.14,211.26 1002.10,178.01 1013.07,178.94 1024.03,195.63 1035.00,197.22"/>
<text x="563.5" y="594" text-anchor="middle" font-family="Arial" font-size="16">Single-hit mutation position</text>
<text x="25" y="305.0" text-anchor="middle" font-family="Arial" font-size="16" transform="rotate(-90 25 305.0)">Delta activity, log2(variant / WT)</text>
<text x="792" y="42" font-family="Arial" font-size="13" fill="#2f6f73">A substitution</text>
<text x="914" y="42" font-family="Arial" font-size="13" fill="#9a4f34">T substitution</text>
<text x="792" y="60" font-family="Arial" font-size="12" fill="#555">thin: observed, thick/dashed: model</text>
</svg>