<svg xmlns="http://www.w3.org/2000/svg" width="1200" height="1360" viewBox="0 0 300 340">
<rect width="100%" height="100%" fill="#ffffff"/>
<text x="15.00" y="22.00" font-family="Arial, Helvetica, sans-serif" font-size="20" font-weight="700" text-anchor="start" fill="#111111" >E</text>
<line x1="80.00" y1="20.00" x2="80.00" y2="232.00" stroke="#222222" stroke-width="1.1"/>
<line x1="80.00" y1="232.00" x2="280.00" y2="232.00" stroke="#222222" stroke-width="1.1"/>
<line x1="75.00" y1="52.85" x2="80.00" y2="52.85" stroke="#222222" stroke-width="1.0"/>
<text x="71.00" y="56.85" font-family="Arial, Helvetica, sans-serif" font-size="15" font-weight="400" text-anchor="end" fill="#111111" >0.8</text>
<line x1="75.00" y1="112.56" x2="80.00" y2="112.56" stroke="#222222" stroke-width="1.0"/>
<text x="71.00" y="116.56" font-family="Arial, Helvetica, sans-serif" font-size="15" font-weight="400" text-anchor="end" fill="#111111" >-0.2</text>
<line x1="75.00" y1="172.28" x2="80.00" y2="172.28" stroke="#222222" stroke-width="1.0"/>
<text x="71.00" y="176.28" font-family="Arial, Helvetica, sans-serif" font-size="15" font-weight="400" text-anchor="end" fill="#111111" >-1.2</text>
<line x1="75.00" y1="232.00" x2="80.00" y2="232.00" stroke="#222222" stroke-width="1.0"/>
<text x="71.00" y="236.00" font-family="Arial, Helvetica, sans-serif" font-size="15" font-weight="400" text-anchor="end" fill="#111111" >-2.2</text>
<rect x="96.00" y="44.20" width="29.00" height="187.80" fill="#FF9900" stroke="none" stroke-width="1.0"/>
<line x1="110.50" y1="232.00" x2="110.50" y2="237.00" stroke="#222222" stroke-width="1.0"/>
<text x="113.98" y="296.00" font-family="Arial, Helvetica, sans-serif" font-size="15" font-weight="400" text-anchor="end" fill="#111111" transform="rotate(-45 113.98 296.00)">CREB1</text>
<rect x="141.00" y="23.04" width="29.00" height="208.96" fill="#49A000" stroke="none" stroke-width="1.0"/>
<line x1="155.50" y1="232.00" x2="155.50" y2="237.00" stroke="#222222" stroke-width="1.0"/>
<text x="158.98" y="296.00" font-family="Arial, Helvetica, sans-serif" font-size="15" font-weight="400" text-anchor="end" fill="#111111" transform="rotate(-45 158.98 296.00)">CREM</text>
<rect x="186.00" y="111.97" width="29.00" height="120.03" fill="#20208F" stroke="none" stroke-width="1.0"/>
<line x1="200.50" y1="232.00" x2="200.50" y2="237.00" stroke="#222222" stroke-width="1.0"/>
<text x="203.98" y="296.00" font-family="Arial, Helvetica, sans-serif" font-size="15" font-weight="400" text-anchor="end" fill="#111111" transform="rotate(-45 203.98 296.00)">ATF1</text>
<rect x="231.00" y="222.00" width="29.00" height="10.00" fill="#B442FF" stroke="none" stroke-width="1.0"/>
<line x1="245.50" y1="232.00" x2="245.50" y2="237.00" stroke="#222222" stroke-width="1.0"/>
<text x="248.98" y="296.00" font-family="Arial, Helvetica, sans-serif" font-size="15" font-weight="400" text-anchor="end" fill="#111111" transform="rotate(-45 248.98 296.00)">ATF7</text>
<text x="18.00" y="126.00" font-family="Arial, Helvetica, sans-serif" font-size="16" font-weight="400" text-anchor="middle" fill="#111111" transform="rotate(-90 18.00 126.00)">log10(coef)</text>
</svg>
