<svg xmlns="http://www.w3.org/2000/svg" width="1080" height="620" viewBox="0 0 1080 620">
<rect width="100%" height="100%" fill="#ffffff"/>
<text x="540.0" y="34" text-anchor="middle" font-family="Arial" font-size="22" font-weight="700">Figure 5A/G: A/T substitution activity profiles</text>
<rect x="92" y="72" width="943" height="466" fill="#fbfbfb" stroke="#222"/>
<rect x="212.62" y="72" width="76.76" height="466" fill="#f2e7d8" opacity="0.65"/>
<text x="246.62" y="90" text-anchor="middle" font-family="Arial" font-size="12" fill="#6b4a29">CRE1</text>
<rect x="848.59" y="72" width="76.76" height="466" fill="#f2e7d8" opacity="0.65"/>
<text x="882.59" y="90" text-anchor="middle" font-family="Arial" font-size="12" fill="#6b4a29">CRE4</text>
<line x1="92" y1="524.65" x2="1035" y2="524.65" stroke="#e1e1e1"/>
<text x="80" y="528.65" text-anchor="end" font-family="Arial" font-size="13">-2</text>
<line x1="92" y1="355.46" x2="1035" y2="355.46" stroke="#e1e1e1"/>
<text x="80" y="359.46" text-anchor="end" font-family="Arial" font-size="13">-1</text>
<line x1="92" y1="186.27" x2="1035" y2="186.27" stroke="#e1e1e1"/>
<text x="80" y="190.27" text-anchor="end" font-family="Arial" font-size="13">0</text>
<line x1="92" y1="17.08" x2="1035" y2="17.08" stroke="#e1e1e1"/>
<text x="80" y="21.08" text-anchor="end" font-family="Arial" font-size="13">1</text>
<line x1="92.00" y1="72" x2="92.00" y2="538" stroke="#ececec"/>
<text x="92.00" y="563" text-anchor="middle" font-family="Arial" font-size="13">0</text>
<line x1="201.65" y1="72" x2="201.65" y2="538" stroke="#ececec"/>
<text x="201.65" y="563" text-anchor="middle" font-family="Arial" font-size="13">10</text>
<line x1="311.30" y1="72" x2="311.30" y2="538" stroke="#ececec"/>
<text x="311.30" y="563" text-anchor="middle" font-family="Arial" font-size="13">20</text>
<line x1="420.95" y1="72" x2="420.95" y2="538" stroke="#ececec"/>
<text x="420.95" y="563" text-anchor="middle" font-family="Arial" font-size="13">30</text>
<line x1="530.60" y1="72" x2="530.60" y2="538" stroke="#ececec"/>
<text x="530.60" y="563" text-anchor="middle" font-family="Arial" font-size="13">40</text>
<line x1="640.26" y1="72" x2="640.26" y2="538" stroke="#ececec"/>
<text x="640.26" y="563" text-anchor="middle" font-family="Arial" font-size="13">50</text>
<line x1="749.91" y1="72" x2="749.91" y2="538" stroke="#ececec"/>
<text x="749.91" y="563" text-anchor="middle" font-family="Arial" font-size="13">60</text>
<line x1="859.56" y1="72" x2="859.56" y2="538" stroke="#ececec"/>
<text x="859.56" y="563" text-anchor="middle" font-family="Arial" font-size="13">70</text>
<line x1="969.21" y1="72" x2="969.21" y2="538" stroke="#ececec"/>
<text x="969.21" y="563" text-anchor="middle" font-family="Arial" font-size="13">80</text>
<polyline fill="none" stroke="#2f6f73" stroke-width="2.5" opacity="0.55" points="92.00,174.36 102.97,211.98 124.90,206.62 135.86,234.71 157.79,269.87 179.72,231.75 201.65,201.37 212.62,176.69 223.58,203.98 245.51,237.70 256.48,211.98 267.44,214.71 278.41,220.26 300.34,191.20 311.30,259.76 322.27,211.98 333.23,209.29 344.20,183.84 355.16,183.84 377.09,135.74 399.02,209.29 409.99,209.29 420.95,169.75 431.92,214.71 453.85,234.71 464.81,181.43 475.78,114.83 486.74,165.23 497.71,266.45 508.67,276.84 519.64,295.20 530.60,256.49 552.53,287.69 574.47,186.27 585.43,154.28 596.40,246.91 607.36,256.49 618.33,310.95 640.26,360.39 651.22,291.42 662.19,228.83 673.15,206.62 684.12,336.67 695.08,176.69 706.05,246.91 717.01,191.20 738.94,174.36 760.87,181.43 782.80,137.73 793.77,133.76 804.73,167.48 815.70,127.93 837.63,336.67 848.59,310.95 859.56,398.02 881.49,505.86 892.45,370.56 903.42,360.39 914.38,253.25 947.28,315.06 958.24,217.47 969.21,206.62 980.17,201.37 1002.10,183.84 1035.00,181.43"/>
<polyline fill="none" stroke="#2f6f73" stroke-width="3.5"  points="92.00,148.41 102.97,219.90 124.90,197.56 135.86,179.19 157.79,192.43 179.72,177.40 201.65,236.82 212.62,166.34 223.58,201.10 245.51,276.66 256.48,220.30 267.44,172.79 278.41,167.55 300.34,175.97 311.30,172.60 322.27,196.37 333.23,188.52 344.20,166.93 355.16,185.13 377.09,184.02 399.02,189.27 409.99,177.78 420.95,150.87 431.92,195.67 453.85,191.32 464.81,177.96 475.78,193.51 486.74,147.74 497.71,262.71 508.67,254.03 519.64,244.59 530.60,238.76 552.53,242.87 574.47,161.53 585.43,163.94 596.40,236.27 607.36,327.92 618.33,355.42 640.26,327.63 651.22,249.44 662.19,209.29 673.15,169.38 684.12,274.36 695.08,155.25 706.05,187.22 717.01,169.99 738.94,167.42 760.87,195.13 782.80,199.38 793.77,136.52 804.73,135.28 815.70,169.68 837.63,275.93 848.59,258.56 859.56,309.34 881.49,390.79 892.45,331.53 903.42,315.55 914.38,246.16 947.28,235.88 958.24,184.26 969.21,183.40 980.17,158.88 1002.10,183.86 1035.00,158.72"/>
<polyline fill="none" stroke="#9a4f34" stroke-width="2.5" opacity="0.55" points="92.00,256.49 113.93,181.43 124.90,188.72 135.86,217.47 146.83,179.05 157.79,256.49 168.76,231.75 179.72,250.06 190.69,263.08 201.65,104.14 223.58,160.79 234.55,211.98 245.51,250.06 256.48,302.95 278.41,193.70 289.37,196.23 300.34,250.06 311.30,176.69 333.23,206.62 344.20,188.72 355.16,183.84 366.13,169.75 377.09,152.15 388.06,181.43 409.99,196.23 420.95,217.47 431.92,201.37 442.88,211.98 464.81,137.73 475.78,201.37 486.74,179.05 497.71,287.69 508.67,306.92 530.60,315.06 541.57,287.69 563.50,181.43 574.47,223.08 596.40,193.70 618.33,243.80 629.29,302.95 640.26,299.05 651.22,355.46 673.15,250.06 717.01,181.43 727.98,137.73 738.94,167.48 749.91,165.23 760.87,186.27 771.84,172.04 782.80,114.83 793.77,120.36 804.73,176.69 815.70,160.79 826.66,225.94 859.56,263.08 870.52,355.46 881.49,428.95 892.45,488.42 914.38,355.46 925.35,315.06 936.31,336.67 958.24,203.98 969.21,206.62 980.17,214.71 991.14,193.70 1002.10,179.05 1013.07,172.04 1024.03,191.20 1035.00,191.20"/>
<polyline fill="none" stroke="#9a4f34" stroke-width="3.5" stroke-dasharray="6 5" points="92.00,168.10 113.93,207.19 124.90,149.49 135.86,204.67 146.83,196.10 157.79,178.78 168.76,177.24 179.72,184.74 190.69,205.20 201.65,162.95 223.58,181.98 234.55,194.65 245.51,221.26 256.48,264.46 278.41,146.15 289.37,116.14 300.34,264.65 311.30,157.37 333.23,192.30 344.20,173.86 355.16,189.32 366.13,179.51 377.09,169.74 388.06,191.45 409.99,183.57 420.95,177.54 431.92,188.79 442.88,190.60 464.81,159.27 475.78,169.05 486.74,158.03 497.71,245.91 508.67,252.49 530.60,294.77 541.57,265.43 563.50,190.67 574.47,181.33 596.40,199.77 618.33,204.26 629.29,274.76 640.26,252.69 651.22,302.80 673.15,162.01 717.01,183.19 727.98,153.36 738.94,162.47 749.91,160.12 760.87,198.18 771.84,155.73 782.80,148.87 793.77,161.77 804.73,159.90 815.70,168.05 826.66,210.18 859.56,246.42 870.52,318.96 881.49,328.89 892.45,390.79 914.38,309.35 925.35,272.31 936.31,276.92 958.24,181.41 969.21,176.85 980.17,179.80 991.14,190.70 1002.10,170.42 1013.07,165.02 1024.03,180.34 1035.00,179.35"/>
<text x="563.5" y="594" text-anchor="middle" font-family="Arial" font-size="16">Single-hit mutation position</text>
<text x="25" y="305.0" text-anchor="middle" font-family="Arial" font-size="16" transform="rotate(-90 25 305.0)">Delta activity, log2(variant / WT)</text>
<text x="792" y="42" font-family="Arial" font-size="13" fill="#2f6f73">A substitution</text>
<text x="914" y="42" font-family="Arial" font-size="13" fill="#9a4f34">T substitution</text>
<text x="792" y="60" font-family="Arial" font-size="12" fill="#555">thin: observed, thick/dashed: model</text>
</svg>