<svg xmlns="http://www.w3.org/2000/svg" width="900" height="720" viewBox="0 0 900 720">
<rect width="100%" height="100%" fill="#ffffff"/>
<text x="450.0" y="34" text-anchor="middle" font-family="Arial" font-size="22" font-weight="700">4TF scramble 3</text>
<text x="450.0" y="62" text-anchor="middle" font-family="Arial" font-size="16" fill="#555">Pearson r = 0.213, n = 261</text>
<rect x="105" y="92" width="755" height="533" fill="#fbfbfb" stroke="#222" stroke-width="1"/>
<line x1="105.00" y1="92" x2="105.00" y2="625" stroke="#dddddd" stroke-width="1"/>
<line x1="105" y1="625.00" x2="860" y2="625.00" stroke="#dddddd" stroke-width="1"/>
<text x="105.00" y="651" text-anchor="middle" font-family="Arial" font-size="13" fill="#444">-2</text>
<text x="92" y="629.00" text-anchor="end" font-family="Arial" font-size="13" fill="#444">-2</text>
<line x1="293.75" y1="92" x2="293.75" y2="625" stroke="#dddddd" stroke-width="1"/>
<line x1="105" y1="491.75" x2="860" y2="491.75" stroke="#dddddd" stroke-width="1"/>
<text x="293.75" y="651" text-anchor="middle" font-family="Arial" font-size="13" fill="#444">-1</text>
<text x="92" y="495.75" text-anchor="end" font-family="Arial" font-size="13" fill="#444">-1</text>
<line x1="482.50" y1="92" x2="482.50" y2="625" stroke="#dddddd" stroke-width="1"/>
<line x1="105" y1="358.50" x2="860" y2="358.50" stroke="#dddddd" stroke-width="1"/>
<text x="482.50" y="651" text-anchor="middle" font-family="Arial" font-size="13" fill="#444">-1</text>
<text x="92" y="362.50" text-anchor="end" font-family="Arial" font-size="13" fill="#444">-1</text>
<line x1="671.25" y1="92" x2="671.25" y2="625" stroke="#dddddd" stroke-width="1"/>
<line x1="105" y1="225.25" x2="860" y2="225.25" stroke="#dddddd" stroke-width="1"/>
<text x="671.25" y="651" text-anchor="middle" font-family="Arial" font-size="13" fill="#444">0</text>
<text x="92" y="229.25" text-anchor="end" font-family="Arial" font-size="13" fill="#444">0</text>
<line x1="860.00" y1="92" x2="860.00" y2="625" stroke="#dddddd" stroke-width="1"/>
<line x1="105" y1="92.00" x2="860" y2="92.00" stroke="#dddddd" stroke-width="1"/>
<text x="860.00" y="651" text-anchor="middle" font-family="Arial" font-size="13" fill="#444">1</text>
<text x="92" y="96.00" text-anchor="end" font-family="Arial" font-size="13" fill="#444">1</text>
<line x1="105" y1="625" x2="860" y2="92" stroke="#9a4f34" stroke-width="2" stroke-dasharray="7 6"/>
<circle cx="646.82" cy="242.49" r="4.0" fill="#2f6f73" opacity="0.72"/>
<circle cx="665.51" cy="202.42" r="4.0" fill="#2f6f73" opacity="0.72"/>
<circle cx="602.20" cy="242.49" r="4.0" fill="#2f6f73" opacity="0.72"/>
<circle cx="536.66" cy="227.86" r="4.0" fill="#2f6f73" opacity="0.72"/>
<circle cx="606.48" cy="242.45" r="4.0" fill="#2f6f73" opacity="0.72"/>
<circle cx="541.74" cy="211.03" r="4.0" fill="#2f6f73" opacity="0.72"/>
<circle cx="658.14" cy="189.45" r="4.0" fill="#2f6f73" opacity="0.72"/>
<circle cx="819.55" cy="183.23" r="4.0" fill="#2f6f73" opacity="0.72"/>
<circle cx="654.41" cy="201.65" r="4.0" fill="#2f6f73" opacity="0.72"/>
<circle cx="614.90" cy="239.98" r="4.0" fill="#2f6f73" opacity="0.72"/>
<circle cx="606.48" cy="242.50" r="4.0" fill="#2f6f73" opacity="0.72"/>
<circle cx="642.98" cy="212.01" r="4.0" fill="#2f6f73" opacity="0.72"/>
<circle cx="570.83" cy="240.00" r="4.0" fill="#2f6f73" opacity="0.72"/>
<circle cx="738.35" cy="242.44" r="4.0" fill="#2f6f73" opacity="0.72"/>
<circle cx="597.87" cy="242.45" r="4.0" fill="#2f6f73" opacity="0.72"/>
<circle cx="566.13" cy="216.77" r="4.0" fill="#2f6f73" opacity="0.72"/>
<circle cx="546.74" cy="242.45" r="4.0" fill="#2f6f73" opacity="0.72"/>
<circle cx="658.14" cy="214.56" r="4.0" fill="#2f6f73" opacity="0.72"/>
<circle cx="515.68" cy="242.48" r="4.0" fill="#2f6f73" opacity="0.72"/>
<circle cx="531.52" cy="224.03" r="4.0" fill="#2f6f73" opacity="0.72"/>
<circle cx="536.66" cy="224.19" r="4.0" fill="#2f6f73" opacity="0.72"/>
<circle cx="526.31" cy="239.86" r="4.0" fill="#2f6f73" opacity="0.72"/>
<circle cx="551.68" cy="239.98" r="4.0" fill="#2f6f73" opacity="0.72"/>
<circle cx="575.47" cy="242.49" r="4.0" fill="#2f6f73" opacity="0.72"/>
<circle cx="575.47" cy="238.09" r="4.0" fill="#2f6f73" opacity="0.72"/>
<circle cx="556.56" cy="238.37" r="4.0" fill="#2f6f73" opacity="0.72"/>
<circle cx="546.74" cy="241.90" r="4.0" fill="#2f6f73" opacity="0.72"/>
<circle cx="541.74" cy="238.11" r="4.0" fill="#2f6f73" opacity="0.72"/>
<circle cx="606.48" cy="242.07" r="4.0" fill="#2f6f73" opacity="0.72"/>
<circle cx="526.31" cy="243.47" r="4.0" fill="#2f6f73" opacity="0.72"/>
<circle cx="623.13" cy="247.73" r="4.0" fill="#2f6f73" opacity="0.72"/>
<circle cx="756.03" cy="243.02" r="4.0" fill="#2f6f73" opacity="0.72"/>
<circle cx="775.67" cy="243.64" r="4.0" fill="#2f6f73" opacity="0.72"/>
<circle cx="661.84" cy="253.17" r="4.0" fill="#2f6f73" opacity="0.72"/>
<circle cx="635.16" cy="244.42" r="4.0" fill="#2f6f73" opacity="0.72"/>
<circle cx="589.07" cy="242.98" r="4.0" fill="#2f6f73" opacity="0.72"/>
<circle cx="619.04" cy="254.95" r="4.0" fill="#2f6f73" opacity="0.72"/>
<circle cx="654.41" cy="243.97" r="4.0" fill="#2f6f73" opacity="0.72"/>
<circle cx="686.79" cy="241.64" r="4.0" fill="#2f6f73" opacity="0.72"/>
<circle cx="526.31" cy="247.53" r="4.0" fill="#2f6f73" opacity="0.72"/>
<circle cx="614.90" cy="241.34" r="4.0" fill="#2f6f73" opacity="0.72"/>
<circle cx="606.48" cy="241.91" r="4.0" fill="#2f6f73" opacity="0.72"/>
<circle cx="566.13" cy="241.49" r="4.0" fill="#2f6f73" opacity="0.72"/>
<circle cx="561.38" cy="240.98" r="4.0" fill="#2f6f73" opacity="0.72"/>
<circle cx="546.74" cy="251.09" r="4.0" fill="#2f6f73" opacity="0.72"/>
<circle cx="606.48" cy="251.61" r="4.0" fill="#2f6f73" opacity="0.72"/>
<circle cx="570.83" cy="242.39" r="4.0" fill="#2f6f73" opacity="0.72"/>
<circle cx="463.77" cy="246.47" r="4.0" fill="#2f6f73" opacity="0.72"/>
<circle cx="602.20" cy="232.86" r="4.0" fill="#2f6f73" opacity="0.72"/>
<circle cx="551.68" cy="227.27" r="4.0" fill="#2f6f73" opacity="0.72"/>
<circle cx="551.68" cy="234.00" r="4.0" fill="#2f6f73" opacity="0.72"/>
<circle cx="593.50" cy="232.41" r="4.0" fill="#2f6f73" opacity="0.72"/>
<circle cx="570.83" cy="224.06" r="4.0" fill="#2f6f73" opacity="0.72"/>
<circle cx="635.16" cy="234.85" r="4.0" fill="#2f6f73" opacity="0.72"/>
<circle cx="589.07" cy="247.67" r="4.0" fill="#2f6f73" opacity="0.72"/>
<circle cx="606.48" cy="239.73" r="4.0" fill="#2f6f73" opacity="0.72"/>
<circle cx="631.19" cy="247.33" r="4.0" fill="#2f6f73" opacity="0.72"/>
<circle cx="639.09" cy="237.85" r="4.0" fill="#2f6f73" opacity="0.72"/>
<circle cx="597.87" cy="260.01" r="4.0" fill="#2f6f73" opacity="0.72"/>
<circle cx="546.74" cy="268.71" r="4.0" fill="#2f6f73" opacity="0.72"/>
<circle cx="531.52" cy="254.62" r="4.0" fill="#2f6f73" opacity="0.72"/>
<circle cx="584.59" cy="249.63" r="4.0" fill="#2f6f73" opacity="0.72"/>
<circle cx="661.84" cy="251.26" r="4.0" fill="#2f6f73" opacity="0.72"/>
<circle cx="606.48" cy="237.17" r="4.0" fill="#2f6f73" opacity="0.72"/>
<circle cx="669.14" cy="234.07" r="4.0" fill="#2f6f73" opacity="0.72"/>
<circle cx="515.68" cy="255.20" r="4.0" fill="#2f6f73" opacity="0.72"/>
<circle cx="610.71" cy="255.57" r="4.0" fill="#2f6f73" opacity="0.72"/>
<circle cx="654.41" cy="237.38" r="4.0" fill="#2f6f73" opacity="0.72"/>
<circle cx="614.90" cy="238.76" r="4.0" fill="#2f6f73" opacity="0.72"/>
<circle cx="650.64" cy="243.07" r="4.0" fill="#2f6f73" opacity="0.72"/>
<circle cx="661.84" cy="255.60" r="4.0" fill="#2f6f73" opacity="0.72"/>
<circle cx="642.98" cy="255.63" r="4.0" fill="#2f6f73" opacity="0.72"/>
<circle cx="650.64" cy="236.46" r="4.0" fill="#2f6f73" opacity="0.72"/>
<circle cx="635.16" cy="255.63" r="4.0" fill="#2f6f73" opacity="0.72"/>
<circle cx="650.64" cy="229.04" r="4.0" fill="#2f6f73" opacity="0.72"/>
<circle cx="669.14" cy="235.09" r="4.0" fill="#2f6f73" opacity="0.72"/>
<circle cx="631.19" cy="256.24" r="4.0" fill="#2f6f73" opacity="0.72"/>
<circle cx="672.73" cy="254.86" r="4.0" fill="#2f6f73" opacity="0.72"/>
<circle cx="726.10" cy="252.66" r="4.0" fill="#2f6f73" opacity="0.72"/>
<circle cx="669.14" cy="238.86" r="4.0" fill="#2f6f73" opacity="0.72"/>
<circle cx="700.34" cy="255.27" r="4.0" fill="#2f6f73" opacity="0.72"/>
<circle cx="642.98" cy="224.88" r="4.0" fill="#2f6f73" opacity="0.72"/>
<circle cx="584.59" cy="240.66" r="4.0" fill="#2f6f73" opacity="0.72"/>
<circle cx="654.41" cy="228.48" r="4.0" fill="#2f6f73" opacity="0.72"/>
<circle cx="610.71" cy="237.37" r="4.0" fill="#2f6f73" opacity="0.72"/>
<circle cx="593.50" cy="225.98" r="4.0" fill="#2f6f73" opacity="0.72"/>
<circle cx="614.90" cy="233.51" r="4.0" fill="#2f6f73" opacity="0.72"/>
<circle cx="610.71" cy="262.58" r="4.0" fill="#2f6f73" opacity="0.72"/>
<circle cx="619.04" cy="246.85" r="4.0" fill="#2f6f73" opacity="0.72"/>
<circle cx="631.19" cy="263.43" r="4.0" fill="#2f6f73" opacity="0.72"/>
<circle cx="672.73" cy="258.79" r="4.0" fill="#2f6f73" opacity="0.72"/>
<circle cx="536.66" cy="263.01" r="4.0" fill="#2f6f73" opacity="0.72"/>
<circle cx="597.87" cy="253.22" r="4.0" fill="#2f6f73" opacity="0.72"/>
<circle cx="602.20" cy="257.40" r="4.0" fill="#2f6f73" opacity="0.72"/>
<circle cx="561.38" cy="261.85" r="4.0" fill="#2f6f73" opacity="0.72"/>
<circle cx="623.13" cy="242.15" r="4.0" fill="#2f6f73" opacity="0.72"/>
<circle cx="551.68" cy="227.64" r="4.0" fill="#2f6f73" opacity="0.72"/>
<circle cx="606.48" cy="243.21" r="4.0" fill="#2f6f73" opacity="0.72"/>
<circle cx="606.48" cy="231.05" r="4.0" fill="#2f6f73" opacity="0.72"/>
<circle cx="570.83" cy="240.90" r="4.0" fill="#2f6f73" opacity="0.72"/>
<circle cx="602.20" cy="243.32" r="4.0" fill="#2f6f73" opacity="0.72"/>
<circle cx="580.06" cy="239.83" r="4.0" fill="#2f6f73" opacity="0.72"/>
<circle cx="654.41" cy="234.34" r="4.0" fill="#2f6f73" opacity="0.72"/>
<circle cx="627.18" cy="251.08" r="4.0" fill="#2f6f73" opacity="0.72"/>
<circle cx="722.97" cy="244.19" r="4.0" fill="#2f6f73" opacity="0.72"/>
<circle cx="758.90" cy="241.93" r="4.0" fill="#2f6f73" opacity="0.72"/>
<circle cx="642.98" cy="247.33" r="4.0" fill="#2f6f73" opacity="0.72"/>
<circle cx="623.13" cy="244.37" r="4.0" fill="#2f6f73" opacity="0.72"/>
<circle cx="679.82" cy="237.73" r="4.0" fill="#2f6f73" opacity="0.72"/>
<circle cx="683.32" cy="231.45" r="4.0" fill="#2f6f73" opacity="0.72"/>
<circle cx="658.14" cy="241.54" r="4.0" fill="#2f6f73" opacity="0.72"/>
<circle cx="521.03" cy="262.00" r="4.0" fill="#2f6f73" opacity="0.72"/>
<circle cx="499.14" cy="246.70" r="4.0" fill="#2f6f73" opacity="0.72"/>
<circle cx="487.71" cy="256.75" r="4.0" fill="#2f6f73" opacity="0.72"/>
<circle cx="504.73" cy="254.39" r="4.0" fill="#2f6f73" opacity="0.72"/>
<circle cx="541.74" cy="245.76" r="4.0" fill="#2f6f73" opacity="0.72"/>
<circle cx="457.55" cy="247.74" r="4.0" fill="#2f6f73" opacity="0.72"/>
<circle cx="475.93" cy="267.42" r="4.0" fill="#2f6f73" opacity="0.72"/>
<circle cx="463.77" cy="243.65" r="4.0" fill="#2f6f73" opacity="0.72"/>
<circle cx="469.90" cy="258.37" r="4.0" fill="#2f6f73" opacity="0.72"/>
<circle cx="536.66" cy="250.12" r="4.0" fill="#2f6f73" opacity="0.72"/>
<circle cx="444.78" cy="257.54" r="4.0" fill="#2f6f73" opacity="0.72"/>
<circle cx="444.78" cy="265.72" r="4.0" fill="#2f6f73" opacity="0.72"/>
<circle cx="526.31" cy="237.91" r="4.0" fill="#2f6f73" opacity="0.72"/>
<circle cx="481.87" cy="255.10" r="4.0" fill="#2f6f73" opacity="0.72"/>
<circle cx="487.71" cy="243.93" r="4.0" fill="#2f6f73" opacity="0.72"/>
<circle cx="487.71" cy="252.04" r="4.0" fill="#2f6f73" opacity="0.72"/>
<circle cx="631.19" cy="242.26" r="4.0" fill="#2f6f73" opacity="0.72"/>
<circle cx="627.18" cy="248.90" r="4.0" fill="#2f6f73" opacity="0.72"/>
<circle cx="676.30" cy="241.58" r="4.0" fill="#2f6f73" opacity="0.72"/>
<circle cx="654.41" cy="242.38" r="4.0" fill="#2f6f73" opacity="0.72"/>
<circle cx="654.41" cy="234.46" r="4.0" fill="#2f6f73" opacity="0.72"/>
<circle cx="646.82" cy="233.33" r="4.0" fill="#2f6f73" opacity="0.72"/>
<circle cx="639.09" cy="242.00" r="4.0" fill="#2f6f73" opacity="0.72"/>
<circle cx="589.07" cy="242.13" r="4.0" fill="#2f6f73" opacity="0.72"/>
<circle cx="697.00" cy="237.83" r="4.0" fill="#2f6f73" opacity="0.72"/>
<circle cx="642.98" cy="238.30" r="4.0" fill="#2f6f73" opacity="0.72"/>
<circle cx="706.95" cy="242.89" r="4.0" fill="#2f6f73" opacity="0.72"/>
<circle cx="551.68" cy="247.27" r="4.0" fill="#2f6f73" opacity="0.72"/>
<circle cx="716.64" cy="242.07" r="4.0" fill="#2f6f73" opacity="0.72"/>
<circle cx="635.16" cy="249.16" r="4.0" fill="#2f6f73" opacity="0.72"/>
<circle cx="536.66" cy="237.91" r="4.0" fill="#2f6f73" opacity="0.72"/>
<circle cx="504.73" cy="250.96" r="4.0" fill="#2f6f73" opacity="0.72"/>
<circle cx="481.87" cy="247.20" r="4.0" fill="#2f6f73" opacity="0.72"/>
<circle cx="451.22" cy="252.30" r="4.0" fill="#2f6f73" opacity="0.72"/>
<circle cx="475.93" cy="248.67" r="4.0" fill="#2f6f73" opacity="0.72"/>
<circle cx="556.56" cy="249.42" r="4.0" fill="#2f6f73" opacity="0.72"/>
<circle cx="373.66" cy="273.07" r="4.0" fill="#2f6f73" opacity="0.72"/>
<circle cx="556.56" cy="238.94" r="4.0" fill="#2f6f73" opacity="0.72"/>
<circle cx="463.77" cy="265.82" r="4.0" fill="#2f6f73" opacity="0.72"/>
<circle cx="373.66" cy="241.93" r="4.0" fill="#2f6f73" opacity="0.72"/>
<circle cx="438.23" cy="244.63" r="4.0" fill="#2f6f73" opacity="0.72"/>
<circle cx="469.90" cy="250.21" r="4.0" fill="#2f6f73" opacity="0.72"/>
<circle cx="481.87" cy="251.97" r="4.0" fill="#2f6f73" opacity="0.72"/>
<circle cx="475.93" cy="240.48" r="4.0" fill="#2f6f73" opacity="0.72"/>
<circle cx="381.40" cy="241.03" r="4.0" fill="#2f6f73" opacity="0.72"/>
<circle cx="580.06" cy="238.18" r="4.0" fill="#2f6f73" opacity="0.72"/>
<circle cx="650.64" cy="226.38" r="4.0" fill="#2f6f73" opacity="0.72"/>
<circle cx="570.83" cy="241.34" r="4.0" fill="#2f6f73" opacity="0.72"/>
<circle cx="614.90" cy="239.39" r="4.0" fill="#2f6f73" opacity="0.72"/>
<circle cx="619.04" cy="235.53" r="4.0" fill="#2f6f73" opacity="0.72"/>
<circle cx="546.74" cy="236.66" r="4.0" fill="#2f6f73" opacity="0.72"/>
<circle cx="410.87" cy="259.21" r="4.0" fill="#2f6f73" opacity="0.72"/>
<circle cx="551.68" cy="242.35" r="4.0" fill="#2f6f73" opacity="0.72"/>
<circle cx="493.47" cy="242.60" r="4.0" fill="#2f6f73" opacity="0.72"/>
<circle cx="661.84" cy="242.55" r="4.0" fill="#2f6f73" opacity="0.72"/>
<circle cx="602.20" cy="241.73" r="4.0" fill="#2f6f73" opacity="0.72"/>
<circle cx="735.32" cy="243.80" r="4.0" fill="#2f6f73" opacity="0.72"/>
<circle cx="551.68" cy="242.97" r="4.0" fill="#2f6f73" opacity="0.72"/>
<circle cx="561.38" cy="243.81" r="4.0" fill="#2f6f73" opacity="0.72"/>
<circle cx="556.56" cy="241.38" r="4.0" fill="#2f6f73" opacity="0.72"/>
<circle cx="639.09" cy="238.44" r="4.0" fill="#2f6f73" opacity="0.72"/>
<circle cx="676.30" cy="242.89" r="4.0" fill="#2f6f73" opacity="0.72"/>
<circle cx="654.41" cy="240.65" r="4.0" fill="#2f6f73" opacity="0.72"/>
<circle cx="606.48" cy="246.33" r="4.0" fill="#2f6f73" opacity="0.72"/>
<circle cx="606.48" cy="262.59" r="4.0" fill="#2f6f73" opacity="0.72"/>
<circle cx="722.97" cy="244.55" r="4.0" fill="#2f6f73" opacity="0.72"/>
<circle cx="665.51" cy="237.47" r="4.0" fill="#2f6f73" opacity="0.72"/>
<circle cx="783.79" cy="240.81" r="4.0" fill="#2f6f73" opacity="0.72"/>
<circle cx="676.30" cy="257.79" r="4.0" fill="#2f6f73" opacity="0.72"/>
<circle cx="722.97" cy="234.18" r="4.0" fill="#2f6f73" opacity="0.72"/>
<circle cx="593.50" cy="242.40" r="4.0" fill="#2f6f73" opacity="0.72"/>
<circle cx="679.82" cy="231.72" r="4.0" fill="#2f6f73" opacity="0.72"/>
<circle cx="654.41" cy="249.12" r="4.0" fill="#2f6f73" opacity="0.72"/>
<circle cx="669.14" cy="233.04" r="4.0" fill="#2f6f73" opacity="0.72"/>
<circle cx="646.82" cy="266.68" r="4.0" fill="#2f6f73" opacity="0.72"/>
<circle cx="679.82" cy="217.61" r="4.0" fill="#2f6f73" opacity="0.72"/>
<circle cx="772.92" cy="235.13" r="4.0" fill="#2f6f73" opacity="0.72"/>
<circle cx="669.14" cy="223.69" r="4.0" fill="#2f6f73" opacity="0.72"/>
<circle cx="722.97" cy="290.77" r="4.0" fill="#2f6f73" opacity="0.72"/>
<circle cx="764.57" cy="290.80" r="4.0" fill="#2f6f73" opacity="0.72"/>
<circle cx="758.90" cy="245.60" r="4.0" fill="#2f6f73" opacity="0.72"/>
<circle cx="729.20" cy="253.48" r="4.0" fill="#2f6f73" opacity="0.72"/>
<circle cx="778.39" cy="235.39" r="4.0" fill="#2f6f73" opacity="0.72"/>
<circle cx="750.23" cy="244.27" r="4.0" fill="#2f6f73" opacity="0.72"/>
<circle cx="676.30" cy="250.46" r="4.0" fill="#2f6f73" opacity="0.72"/>
<circle cx="710.20" cy="267.08" r="4.0" fill="#2f6f73" opacity="0.72"/>
<circle cx="661.84" cy="242.51" r="4.0" fill="#2f6f73" opacity="0.72"/>
<circle cx="738.35" cy="265.52" r="4.0" fill="#2f6f73" opacity="0.72"/>
<circle cx="758.90" cy="245.18" r="4.0" fill="#2f6f73" opacity="0.72"/>
<circle cx="686.79" cy="241.87" r="4.0" fill="#2f6f73" opacity="0.72"/>
<circle cx="510.24" cy="227.26" r="4.0" fill="#2f6f73" opacity="0.72"/>
<circle cx="531.52" cy="242.72" r="4.0" fill="#2f6f73" opacity="0.72"/>
<circle cx="584.59" cy="228.60" r="4.0" fill="#2f6f73" opacity="0.72"/>
<circle cx="410.87" cy="248.00" r="4.0" fill="#2f6f73" opacity="0.72"/>
<circle cx="566.13" cy="242.09" r="4.0" fill="#2f6f73" opacity="0.72"/>
<circle cx="410.87" cy="241.38" r="4.0" fill="#2f6f73" opacity="0.72"/>
<circle cx="451.22" cy="248.11" r="4.0" fill="#2f6f73" opacity="0.72"/>
<circle cx="424.80" cy="241.73" r="4.0" fill="#2f6f73" opacity="0.72"/>
<circle cx="424.80" cy="246.43" r="4.0" fill="#2f6f73" opacity="0.72"/>
<circle cx="314.64" cy="252.45" r="4.0" fill="#2f6f73" opacity="0.72"/>
<circle cx="373.66" cy="241.56" r="4.0" fill="#2f6f73" opacity="0.72"/>
<circle cx="526.31" cy="243.33" r="4.0" fill="#2f6f73" opacity="0.72"/>
<circle cx="286.26" cy="257.39" r="4.0" fill="#2f6f73" opacity="0.72"/>
<circle cx="403.71" cy="244.35" r="4.0" fill="#2f6f73" opacity="0.72"/>
<circle cx="381.40" cy="253.64" r="4.0" fill="#2f6f73" opacity="0.72"/>
<circle cx="145.45" cy="255.06" r="4.0" fill="#2f6f73" opacity="0.72"/>
<circle cx="255.61" cy="251.01" r="4.0" fill="#2f6f73" opacity="0.72"/>
<circle cx="266.10" cy="256.50" r="4.0" fill="#2f6f73" opacity="0.72"/>
<circle cx="357.71" cy="256.50" r="4.0" fill="#2f6f73" opacity="0.72"/>
<circle cx="295.95" cy="249.55" r="4.0" fill="#2f6f73" opacity="0.72"/>
<circle cx="172.81" cy="265.12" r="4.0" fill="#2f6f73" opacity="0.72"/>
<circle cx="373.66" cy="253.64" r="4.0" fill="#2f6f73" opacity="0.72"/>
<circle cx="396.42" cy="244.35" r="4.0" fill="#2f6f73" opacity="0.72"/>
<circle cx="233.72" cy="262.73" r="4.0" fill="#2f6f73" opacity="0.72"/>
<circle cx="541.74" cy="245.53" r="4.0" fill="#2f6f73" opacity="0.72"/>
<circle cx="396.42" cy="245.50" r="4.0" fill="#2f6f73" opacity="0.72"/>
<circle cx="381.40" cy="257.75" r="4.0" fill="#2f6f73" opacity="0.72"/>
<circle cx="388.98" cy="251.59" r="4.0" fill="#2f6f73" opacity="0.72"/>
<circle cx="424.80" cy="246.27" r="4.0" fill="#2f6f73" opacity="0.72"/>
<circle cx="444.78" cy="253.41" r="4.0" fill="#2f6f73" opacity="0.72"/>
<circle cx="381.40" cy="239.08" r="4.0" fill="#2f6f73" opacity="0.72"/>
<circle cx="561.38" cy="241.03" r="4.0" fill="#2f6f73" opacity="0.72"/>
<circle cx="410.87" cy="243.83" r="4.0" fill="#2f6f73" opacity="0.72"/>
<circle cx="444.78" cy="241.67" r="4.0" fill="#2f6f73" opacity="0.72"/>
<circle cx="526.31" cy="243.24" r="4.0" fill="#2f6f73" opacity="0.72"/>
<circle cx="431.57" cy="241.58" r="4.0" fill="#2f6f73" opacity="0.72"/>
<circle cx="597.87" cy="242.58" r="4.0" fill="#2f6f73" opacity="0.72"/>
<circle cx="623.13" cy="242.83" r="4.0" fill="#2f6f73" opacity="0.72"/>
<circle cx="619.04" cy="263.49" r="4.0" fill="#2f6f73" opacity="0.72"/>
<circle cx="614.90" cy="243.13" r="4.0" fill="#2f6f73" opacity="0.72"/>
<circle cx="650.64" cy="263.98" r="4.0" fill="#2f6f73" opacity="0.72"/>
<circle cx="614.90" cy="263.97" r="4.0" fill="#2f6f73" opacity="0.72"/>
<circle cx="623.13" cy="240.93" r="4.0" fill="#2f6f73" opacity="0.72"/>
<circle cx="614.90" cy="264.57" r="4.0" fill="#2f6f73" opacity="0.72"/>
<circle cx="602.20" cy="264.60" r="4.0" fill="#2f6f73" opacity="0.72"/>
<circle cx="669.14" cy="260.81" r="4.0" fill="#2f6f73" opacity="0.72"/>
<circle cx="627.18" cy="240.84" r="4.0" fill="#2f6f73" opacity="0.72"/>
<circle cx="635.16" cy="261.82" r="4.0" fill="#2f6f73" opacity="0.72"/>
<circle cx="650.64" cy="264.73" r="4.0" fill="#2f6f73" opacity="0.72"/>
<circle cx="631.19" cy="264.07" r="4.0" fill="#2f6f73" opacity="0.72"/>
<circle cx="658.14" cy="263.59" r="4.0" fill="#2f6f73" opacity="0.72"/>
<circle cx="719.82" cy="251.63" r="4.0" fill="#2f6f73" opacity="0.72"/>
<circle cx="770.16" cy="240.28" r="4.0" fill="#2f6f73" opacity="0.72"/>
<circle cx="669.14" cy="250.76" r="4.0" fill="#2f6f73" opacity="0.72"/>
<circle cx="669.14" cy="223.13" r="4.0" fill="#2f6f73" opacity="0.72"/>
<circle cx="646.82" cy="237.87" r="4.0" fill="#2f6f73" opacity="0.72"/>
<circle cx="639.09" cy="245.19" r="4.0" fill="#2f6f73" opacity="0.72"/>
<circle cx="654.41" cy="246.81" r="4.0" fill="#2f6f73" opacity="0.72"/>
<circle cx="646.82" cy="242.52" r="4.0" fill="#2f6f73" opacity="0.72"/>
<circle cx="639.09" cy="242.76" r="4.0" fill="#2f6f73" opacity="0.72"/>
<text x="482.5" y="688" text-anchor="middle" font-family="Arial" font-size="16">Observed Dactivity, log2(variant / WT)</text>
<text x="24" y="358.5" text-anchor="middle" font-family="Arial" font-size="16" transform="rotate(-90 24 358.5)">Predicted Dactivity, log2(variant / WT)</text>
</svg>