<svg xmlns="http://www.w3.org/2000/svg" width="3520" height="940" viewBox="0 0 880 235">
<rect width="100%" height="100%" fill="#ffffff"/>
<text x="11.00" y="15.00" font-family="Arial, Helvetica, sans-serif" font-size="19" font-weight="700" text-anchor="start" fill="#111111" >F</text>
<text x="86.00" y="54.00" font-family="Arial, Helvetica, sans-serif" font-size="20" font-weight="700" text-anchor="start" fill="#111111" >→A</text>
<rect x="102.00" y="20.00" width="140.15" height="18.00" fill="#D0D0D0" stroke="none" stroke-width="1.0" opacity="1.0"/>
<rect x="255.55" y="20.00" width="157.45" height="18.00" fill="#D0D0D0" stroke="none" stroke-width="1.0" opacity="1.0"/>
<text x="172.07" y="34.00" font-family="Arial, Helvetica, sans-serif" font-size="13" font-weight="400" text-anchor="middle" fill="#111111" >CRE1</text>
<text x="334.27" y="34.00" font-family="Arial, Helvetica, sans-serif" font-size="13" font-weight="400" text-anchor="middle" fill="#111111" >CRE4</text>
<line x1="78.00" y1="48.00" x2="78.00" y2="175.00" stroke="#222222" stroke-width="1.1"/>
<line x1="78.00" y1="175.00" x2="413.00" y2="175.00" stroke="#222222" stroke-width="1.1"/>
<line x1="73.00" y1="175.00" x2="78.00" y2="175.00" stroke="#222222" stroke-width="1.0"/>
<text x="70.00" y="179.00" font-family="Arial, Helvetica, sans-serif" font-size="12" font-weight="400" text-anchor="end" fill="#111111" >0.0</text>
<line x1="73.00" y1="140.68" x2="78.00" y2="140.68" stroke="#222222" stroke-width="1.0"/>
<text x="70.00" y="144.68" font-family="Arial, Helvetica, sans-serif" font-size="12" font-weight="400" text-anchor="end" fill="#111111" >0.5</text>
<line x1="73.00" y1="106.35" x2="78.00" y2="106.35" stroke="#222222" stroke-width="1.0"/>
<text x="70.00" y="110.35" font-family="Arial, Helvetica, sans-serif" font-size="12" font-weight="400" text-anchor="end" fill="#111111" >1.0</text>
<line x1="73.00" y1="72.03" x2="78.00" y2="72.03" stroke="#222222" stroke-width="1.0"/>
<text x="70.00" y="76.03" font-family="Arial, Helvetica, sans-serif" font-size="12" font-weight="400" text-anchor="end" fill="#111111" >1.5</text>
<text x="16.00" y="111.50" font-family="Arial, Helvetica, sans-serif" font-size="16" font-weight="400" text-anchor="middle" fill="#111111" transform="rotate(-90 16.00 111.50)">ΔΔA</text>
<rect x="114.00" y="146.38" width="28.00" height="28.62" fill="#FF9900" stroke="#222222" stroke-width="0.55" opacity="0.95"/>
<line x1="114.00" y1="146.38" x2="142.00" y2="146.38" stroke="#222222" stroke-width="0.45"/>
<rect x="114.00" y="123.57" width="28.00" height="22.81" fill="#FF9900" stroke="#222222" stroke-width="0.55" opacity="0.95"/>
<line x1="114.00" y1="123.57" x2="142.00" y2="123.57" stroke="#222222" stroke-width="0.45"/>
<rect x="114.00" y="104.80" width="28.00" height="18.77" fill="#49A000" stroke="#222222" stroke-width="0.55" opacity="0.95"/>
<line x1="114.00" y1="104.80" x2="142.00" y2="104.80" stroke="#222222" stroke-width="0.45"/>
<rect x="114.00" y="87.76" width="28.00" height="17.05" fill="#49A000" stroke="#222222" stroke-width="0.55" opacity="0.95"/>
<line x1="114.00" y1="87.76" x2="142.00" y2="87.76" stroke="#222222" stroke-width="0.45"/>
<text x="128.00" y="200.00" font-family="Arial, Helvetica, sans-serif" font-size="11" font-weight="400" text-anchor="middle" fill="#111111" >WT</text>
<rect x="143.38" y="155.49" width="28.00" height="19.51" fill="#FF9900" stroke="#222222" stroke-width="0.55" opacity="0.95"/>
<line x1="143.38" y1="155.49" x2="171.38" y2="155.49" stroke="#222222" stroke-width="0.45"/>
<rect x="143.38" y="106.71" width="28.00" height="48.78" fill="#FF9900" stroke="#222222" stroke-width="0.55" opacity="0.95"/>
<line x1="143.38" y1="106.71" x2="171.38" y2="106.71" stroke="#222222" stroke-width="0.45"/>
<rect x="143.38" y="102.28" width="28.00" height="4.43" fill="#49A000" stroke="#222222" stroke-width="0.55" opacity="0.95"/>
<line x1="143.38" y1="102.28" x2="171.38" y2="102.28" stroke="#222222" stroke-width="0.45"/>
<rect x="143.38" y="75.26" width="28.00" height="27.02" fill="#49A000" stroke="#222222" stroke-width="0.55" opacity="0.95"/>
<line x1="143.38" y1="75.26" x2="171.38" y2="75.26" stroke="#222222" stroke-width="0.45"/>
<text x="157.38" y="200.00" font-family="Arial, Helvetica, sans-serif" font-size="11" font-weight="400" text-anchor="middle" fill="#111111" >11A</text>
<rect x="172.77" y="150.00" width="28.00" height="25.00" fill="#FF9900" stroke="#222222" stroke-width="0.55" opacity="0.95"/>
<line x1="172.77" y1="150.00" x2="200.77" y2="150.00" stroke="#222222" stroke-width="0.45"/>
<rect x="172.77" y="125.18" width="28.00" height="24.82" fill="#FF9900" stroke="#222222" stroke-width="0.55" opacity="0.95"/>
<line x1="172.77" y1="125.18" x2="200.77" y2="125.18" stroke="#222222" stroke-width="0.45"/>
<rect x="172.77" y="120.51" width="28.00" height="4.67" fill="#49A000" stroke="#222222" stroke-width="0.55" opacity="0.95"/>
<line x1="172.77" y1="120.51" x2="200.77" y2="120.51" stroke="#222222" stroke-width="0.45"/>
<rect x="172.77" y="116.27" width="28.00" height="4.24" fill="#49A000" stroke="#222222" stroke-width="0.55" opacity="0.95"/>
<line x1="172.77" y1="116.27" x2="200.77" y2="116.27" stroke="#222222" stroke-width="0.45"/>
<text x="186.77" y="200.00" font-family="Arial, Helvetica, sans-serif" font-size="11" font-weight="400" text-anchor="middle" fill="#111111" >14A</text>
<rect x="202.15" y="134.45" width="28.00" height="40.55" fill="#FF9900" stroke="#222222" stroke-width="0.55" opacity="0.95"/>
<line x1="202.15" y1="134.45" x2="230.15" y2="134.45" stroke="#222222" stroke-width="0.45"/>
<rect x="202.15" y="112.31" width="28.00" height="22.14" fill="#FF9900" stroke="#222222" stroke-width="0.55" opacity="0.95"/>
<line x1="202.15" y1="112.31" x2="230.15" y2="112.31" stroke="#222222" stroke-width="0.45"/>
<rect x="202.15" y="83.47" width="28.00" height="28.84" fill="#49A000" stroke="#222222" stroke-width="0.55" opacity="0.95"/>
<line x1="202.15" y1="83.47" x2="230.15" y2="83.47" stroke="#222222" stroke-width="0.45"/>
<rect x="202.15" y="66.53" width="28.00" height="16.93" fill="#49A000" stroke="#222222" stroke-width="0.55" opacity="0.95"/>
<line x1="202.15" y1="66.53" x2="230.15" y2="66.53" stroke="#222222" stroke-width="0.45"/>
<text x="216.15" y="200.00" font-family="Arial, Helvetica, sans-serif" font-size="11" font-weight="400" text-anchor="middle" fill="#111111" >17A</text>
<rect x="267.55" y="141.11" width="28.00" height="33.89" fill="#FF9900" stroke="#222222" stroke-width="0.55" opacity="0.95"/>
<line x1="267.55" y1="141.11" x2="295.55" y2="141.11" stroke="#222222" stroke-width="0.45"/>
<rect x="267.55" y="107.23" width="28.00" height="33.89" fill="#FF9900" stroke="#222222" stroke-width="0.55" opacity="0.95"/>
<line x1="267.55" y1="107.23" x2="295.55" y2="107.23" stroke="#222222" stroke-width="0.45"/>
<rect x="267.55" y="81.46" width="28.00" height="25.77" fill="#49A000" stroke="#222222" stroke-width="0.55" opacity="0.95"/>
<line x1="267.55" y1="81.46" x2="295.55" y2="81.46" stroke="#222222" stroke-width="0.45"/>
<rect x="267.55" y="55.69" width="28.00" height="25.77" fill="#49A000" stroke="#222222" stroke-width="0.55" opacity="0.95"/>
<line x1="267.55" y1="55.69" x2="295.55" y2="55.69" stroke="#222222" stroke-width="0.45"/>
<text x="281.55" y="200.00" font-family="Arial, Helvetica, sans-serif" font-size="11" font-weight="400" text-anchor="middle" fill="#111111" >WT</text>
<rect x="302.70" y="130.16" width="28.00" height="44.84" fill="#FF9900" stroke="#222222" stroke-width="0.55" opacity="0.95"/>
<line x1="302.70" y1="130.16" x2="330.70" y2="130.16" stroke="#222222" stroke-width="0.45"/>
<rect x="302.70" y="126.39" width="28.00" height="3.76" fill="#49A000" stroke="#222222" stroke-width="0.55" opacity="0.95"/>
<line x1="302.70" y1="126.39" x2="330.70" y2="126.39" stroke="#222222" stroke-width="0.45"/>
<rect x="302.70" y="101.12" width="28.00" height="25.28" fill="#49A000" stroke="#222222" stroke-width="0.55" opacity="0.95"/>
<line x1="302.70" y1="101.12" x2="330.70" y2="101.12" stroke="#222222" stroke-width="0.45"/>
<text x="316.70" y="200.00" font-family="Arial, Helvetica, sans-serif" font-size="11" font-weight="400" text-anchor="middle" fill="#111111" >69A</text>
<rect x="337.85" y="156.98" width="28.00" height="18.02" fill="#FF9900" stroke="#222222" stroke-width="0.55" opacity="0.95"/>
<line x1="337.85" y1="156.98" x2="365.85" y2="156.98" stroke="#222222" stroke-width="0.45"/>
<rect x="337.85" y="153.85" width="28.00" height="3.13" fill="#49A000" stroke="#222222" stroke-width="0.55" opacity="0.95"/>
<line x1="337.85" y1="153.85" x2="365.85" y2="153.85" stroke="#222222" stroke-width="0.45"/>
<rect x="337.85" y="150.71" width="28.00" height="3.13" fill="#49A000" stroke="#222222" stroke-width="0.55" opacity="0.95"/>
<line x1="337.85" y1="150.71" x2="365.85" y2="150.71" stroke="#222222" stroke-width="0.45"/>
<text x="351.85" y="200.00" font-family="Arial, Helvetica, sans-serif" font-size="11" font-weight="400" text-anchor="middle" fill="#111111" >72A</text>
<rect x="373.00" y="138.02" width="28.00" height="36.98" fill="#FF9900" stroke="#222222" stroke-width="0.55" opacity="0.95"/>
<line x1="373.00" y1="138.02" x2="401.00" y2="138.02" stroke="#222222" stroke-width="0.45"/>
<rect x="373.00" y="112.69" width="28.00" height="25.33" fill="#FF9900" stroke="#222222" stroke-width="0.55" opacity="0.95"/>
<line x1="373.00" y1="112.69" x2="401.00" y2="112.69" stroke="#222222" stroke-width="0.45"/>
<rect x="373.00" y="82.18" width="28.00" height="30.51" fill="#49A000" stroke="#222222" stroke-width="0.55" opacity="0.95"/>
<line x1="373.00" y1="82.18" x2="401.00" y2="82.18" stroke="#222222" stroke-width="0.45"/>
<rect x="373.00" y="62.47" width="28.00" height="19.71" fill="#49A000" stroke="#222222" stroke-width="0.55" opacity="0.95"/>
<line x1="373.00" y1="62.47" x2="401.00" y2="62.47" stroke="#222222" stroke-width="0.45"/>
<text x="387.00" y="200.00" font-family="Arial, Helvetica, sans-serif" font-size="11" font-weight="400" text-anchor="middle" fill="#111111" >75A</text>
<line x1="142.00" y1="146.38" x2="143.38" y2="155.49" stroke="#333333" stroke-width="0.75"/>
<line x1="142.00" y1="123.57" x2="143.38" y2="106.71" stroke="#333333" stroke-width="0.75"/>
<line x1="142.00" y1="104.80" x2="143.38" y2="102.28" stroke="#333333" stroke-width="0.75"/>
<line x1="142.00" y1="87.76" x2="143.38" y2="75.26" stroke="#333333" stroke-width="0.75"/>
<line x1="171.38" y1="155.49" x2="172.77" y2="150.00" stroke="#333333" stroke-width="0.75"/>
<line x1="171.38" y1="106.71" x2="172.77" y2="125.18" stroke="#333333" stroke-width="0.75"/>
<line x1="171.38" y1="102.28" x2="172.77" y2="120.51" stroke="#333333" stroke-width="0.75"/>
<line x1="171.38" y1="75.26" x2="172.77" y2="116.27" stroke="#333333" stroke-width="0.75"/>
<line x1="200.77" y1="150.00" x2="202.15" y2="134.45" stroke="#333333" stroke-width="0.75"/>
<line x1="200.77" y1="125.18" x2="202.15" y2="112.31" stroke="#333333" stroke-width="0.75"/>
<line x1="200.77" y1="120.51" x2="202.15" y2="83.47" stroke="#333333" stroke-width="0.75"/>
<line x1="200.77" y1="116.27" x2="202.15" y2="66.53" stroke="#333333" stroke-width="0.75"/>
<line x1="295.55" y1="141.11" x2="302.70" y2="130.16" stroke="#333333" stroke-width="0.75"/>
<line x1="295.55" y1="107.23" x2="302.70" y2="126.39" stroke="#333333" stroke-width="0.75"/>
<line x1="295.55" y1="81.46" x2="302.70" y2="101.12" stroke="#333333" stroke-width="0.75"/>
<line x1="330.70" y1="130.16" x2="337.85" y2="156.98" stroke="#333333" stroke-width="0.75"/>
<line x1="330.70" y1="126.39" x2="337.85" y2="153.85" stroke="#333333" stroke-width="0.75"/>
<line x1="330.70" y1="101.12" x2="337.85" y2="150.71" stroke="#333333" stroke-width="0.75"/>
<line x1="365.85" y1="156.98" x2="373.00" y2="138.02" stroke="#333333" stroke-width="0.75"/>
<line x1="365.85" y1="153.85" x2="373.00" y2="112.69" stroke="#333333" stroke-width="0.75"/>
<line x1="365.85" y1="150.71" x2="373.00" y2="82.18" stroke="#333333" stroke-width="0.75"/>
<text x="452.00" y="15.00" font-family="Arial, Helvetica, sans-serif" font-size="19" font-weight="700" text-anchor="start" fill="#111111" >K</text>
<text x="527.00" y="54.00" font-family="Arial, Helvetica, sans-serif" font-size="20" font-weight="700" text-anchor="start" fill="#111111" >→T</text>
<rect x="543.00" y="20.00" width="140.15" height="18.00" fill="#D0D0D0" stroke="none" stroke-width="1.0" opacity="1.0"/>
<rect x="696.55" y="20.00" width="157.45" height="18.00" fill="#D0D0D0" stroke="none" stroke-width="1.0" opacity="1.0"/>
<text x="613.08" y="34.00" font-family="Arial, Helvetica, sans-serif" font-size="13" font-weight="400" text-anchor="middle" fill="#111111" >CRE1</text>
<text x="775.27" y="34.00" font-family="Arial, Helvetica, sans-serif" font-size="13" font-weight="400" text-anchor="middle" fill="#111111" >CRE4</text>
<line x1="519.00" y1="48.00" x2="519.00" y2="175.00" stroke="#222222" stroke-width="1.1"/>
<line x1="519.00" y1="175.00" x2="854.00" y2="175.00" stroke="#222222" stroke-width="1.1"/>
<line x1="514.00" y1="175.00" x2="519.00" y2="175.00" stroke="#222222" stroke-width="1.0"/>
<text x="511.00" y="179.00" font-family="Arial, Helvetica, sans-serif" font-size="12" font-weight="400" text-anchor="end" fill="#111111" >0.0</text>
<line x1="514.00" y1="140.68" x2="519.00" y2="140.68" stroke="#222222" stroke-width="1.0"/>
<text x="511.00" y="144.68" font-family="Arial, Helvetica, sans-serif" font-size="12" font-weight="400" text-anchor="end" fill="#111111" >0.5</text>
<line x1="514.00" y1="106.35" x2="519.00" y2="106.35" stroke="#222222" stroke-width="1.0"/>
<text x="511.00" y="110.35" font-family="Arial, Helvetica, sans-serif" font-size="12" font-weight="400" text-anchor="end" fill="#111111" >1.0</text>
<line x1="514.00" y1="72.03" x2="519.00" y2="72.03" stroke="#222222" stroke-width="1.0"/>
<text x="511.00" y="76.03" font-family="Arial, Helvetica, sans-serif" font-size="12" font-weight="400" text-anchor="end" fill="#111111" >1.5</text>
<text x="457.00" y="111.50" font-family="Arial, Helvetica, sans-serif" font-size="16" font-weight="400" text-anchor="middle" fill="#111111" transform="rotate(-90 457.00 111.50)">ΔΔA</text>
<rect x="555.00" y="146.38" width="28.00" height="28.62" fill="#FF9900" stroke="#222222" stroke-width="0.55" opacity="0.95"/>
<line x1="555.00" y1="146.38" x2="583.00" y2="146.38" stroke="#222222" stroke-width="0.45"/>
<rect x="555.00" y="123.57" width="28.00" height="22.81" fill="#FF9900" stroke="#222222" stroke-width="0.55" opacity="0.95"/>
<line x1="555.00" y1="123.57" x2="583.00" y2="123.57" stroke="#222222" stroke-width="0.45"/>
<rect x="555.00" y="104.80" width="28.00" height="18.77" fill="#49A000" stroke="#222222" stroke-width="0.55" opacity="0.95"/>
<line x1="555.00" y1="104.80" x2="583.00" y2="104.80" stroke="#222222" stroke-width="0.45"/>
<rect x="555.00" y="87.76" width="28.00" height="17.05" fill="#49A000" stroke="#222222" stroke-width="0.55" opacity="0.95"/>
<line x1="555.00" y1="87.76" x2="583.00" y2="87.76" stroke="#222222" stroke-width="0.45"/>
<text x="569.00" y="200.00" font-family="Arial, Helvetica, sans-serif" font-size="11" font-weight="400" text-anchor="middle" fill="#111111" >WT</text>
<rect x="584.38" y="147.11" width="28.00" height="27.89" fill="#FF9900" stroke="#222222" stroke-width="0.55" opacity="0.95"/>
<line x1="584.38" y1="147.11" x2="612.38" y2="147.11" stroke="#222222" stroke-width="0.45"/>
<rect x="584.38" y="114.67" width="28.00" height="32.44" fill="#FF9900" stroke="#222222" stroke-width="0.55" opacity="0.95"/>
<line x1="584.38" y1="114.67" x2="612.38" y2="114.67" stroke="#222222" stroke-width="0.45"/>
<rect x="584.38" y="95.96" width="28.00" height="18.71" fill="#49A000" stroke="#222222" stroke-width="0.55" opacity="0.95"/>
<line x1="584.38" y1="95.96" x2="612.38" y2="95.96" stroke="#222222" stroke-width="0.45"/>
<rect x="584.38" y="69.66" width="28.00" height="26.30" fill="#49A000" stroke="#222222" stroke-width="0.55" opacity="0.95"/>
<line x1="584.38" y1="69.66" x2="612.38" y2="69.66" stroke="#222222" stroke-width="0.45"/>
<text x="598.38" y="200.00" font-family="Arial, Helvetica, sans-serif" font-size="11" font-weight="400" text-anchor="middle" fill="#111111" >12T</text>
<rect x="613.77" y="150.46" width="28.00" height="24.54" fill="#FF9900" stroke="#222222" stroke-width="0.55" opacity="0.95"/>
<line x1="613.77" y1="150.46" x2="641.77" y2="150.46" stroke="#222222" stroke-width="0.45"/>
<rect x="613.77" y="134.75" width="28.00" height="15.70" fill="#FF9900" stroke="#222222" stroke-width="0.55" opacity="0.95"/>
<line x1="613.77" y1="134.75" x2="641.77" y2="134.75" stroke="#222222" stroke-width="0.45"/>
<rect x="613.77" y="131.07" width="28.00" height="3.68" fill="#49A000" stroke="#222222" stroke-width="0.55" opacity="0.95"/>
<line x1="613.77" y1="131.07" x2="641.77" y2="131.07" stroke="#222222" stroke-width="0.45"/>
<rect x="613.77" y="127.73" width="28.00" height="3.34" fill="#49A000" stroke="#222222" stroke-width="0.55" opacity="0.95"/>
<line x1="613.77" y1="127.73" x2="641.77" y2="127.73" stroke="#222222" stroke-width="0.45"/>
<rect x="613.77" y="118.41" width="28.00" height="9.32" fill="#20208F" stroke="#222222" stroke-width="0.55" opacity="0.95"/>
<line x1="613.77" y1="118.41" x2="641.77" y2="118.41" stroke="#222222" stroke-width="0.45"/>
<text x="627.77" y="200.00" font-family="Arial, Helvetica, sans-serif" font-size="11" font-weight="400" text-anchor="middle" fill="#111111" >15T</text>
<rect x="643.15" y="113.18" width="28.00" height="61.82" fill="#FF9900" stroke="#222222" stroke-width="0.55" opacity="0.95"/>
<line x1="643.15" y1="113.18" x2="671.15" y2="113.18" stroke="#222222" stroke-width="0.45"/>
<rect x="643.15" y="83.14" width="28.00" height="30.05" fill="#49A000" stroke="#222222" stroke-width="0.55" opacity="0.95"/>
<line x1="643.15" y1="83.14" x2="671.15" y2="83.14" stroke="#222222" stroke-width="0.45"/>
<rect x="643.15" y="79.07" width="28.00" height="4.06" fill="#49A000" stroke="#222222" stroke-width="0.55" opacity="0.95"/>
<line x1="643.15" y1="79.07" x2="671.15" y2="79.07" stroke="#222222" stroke-width="0.45"/>
<text x="657.15" y="200.00" font-family="Arial, Helvetica, sans-serif" font-size="11" font-weight="400" text-anchor="middle" fill="#111111" >18T</text>
<rect x="708.55" y="141.11" width="28.00" height="33.89" fill="#FF9900" stroke="#222222" stroke-width="0.55" opacity="0.95"/>
<line x1="708.55" y1="141.11" x2="736.55" y2="141.11" stroke="#222222" stroke-width="0.45"/>
<rect x="708.55" y="107.23" width="28.00" height="33.89" fill="#FF9900" stroke="#222222" stroke-width="0.55" opacity="0.95"/>
<line x1="708.55" y1="107.23" x2="736.55" y2="107.23" stroke="#222222" stroke-width="0.45"/>
<rect x="708.55" y="81.46" width="28.00" height="25.77" fill="#49A000" stroke="#222222" stroke-width="0.55" opacity="0.95"/>
<line x1="708.55" y1="81.46" x2="736.55" y2="81.46" stroke="#222222" stroke-width="0.45"/>
<rect x="708.55" y="55.69" width="28.00" height="25.77" fill="#49A000" stroke="#222222" stroke-width="0.55" opacity="0.95"/>
<line x1="708.55" y1="55.69" x2="736.55" y2="55.69" stroke="#222222" stroke-width="0.45"/>
<text x="722.55" y="200.00" font-family="Arial, Helvetica, sans-serif" font-size="11" font-weight="400" text-anchor="middle" fill="#111111" >WT</text>
<rect x="743.70" y="150.08" width="28.00" height="24.92" fill="#FF9900" stroke="#222222" stroke-width="0.55" opacity="0.95"/>
<line x1="743.70" y1="150.08" x2="771.70" y2="150.08" stroke="#222222" stroke-width="0.45"/>
<rect x="743.70" y="113.70" width="28.00" height="36.38" fill="#FF9900" stroke="#222222" stroke-width="0.55" opacity="0.95"/>
<line x1="743.70" y1="113.70" x2="771.70" y2="113.70" stroke="#222222" stroke-width="0.45"/>
<rect x="743.70" y="94.31" width="28.00" height="19.39" fill="#49A000" stroke="#222222" stroke-width="0.55" opacity="0.95"/>
<line x1="743.70" y1="94.31" x2="771.70" y2="94.31" stroke="#222222" stroke-width="0.45"/>
<rect x="743.70" y="64.30" width="28.00" height="30.01" fill="#49A000" stroke="#222222" stroke-width="0.55" opacity="0.95"/>
<line x1="743.70" y1="64.30" x2="771.70" y2="64.30" stroke="#222222" stroke-width="0.45"/>
<text x="757.70" y="200.00" font-family="Arial, Helvetica, sans-serif" font-size="11" font-weight="400" text-anchor="middle" fill="#111111" >70T</text>
<rect x="778.85" y="156.98" width="28.00" height="18.02" fill="#FF9900" stroke="#222222" stroke-width="0.55" opacity="0.95"/>
<line x1="778.85" y1="156.98" x2="806.85" y2="156.98" stroke="#222222" stroke-width="0.45"/>
<rect x="778.85" y="153.85" width="28.00" height="3.13" fill="#49A000" stroke="#222222" stroke-width="0.55" opacity="0.95"/>
<line x1="778.85" y1="153.85" x2="806.85" y2="153.85" stroke="#222222" stroke-width="0.45"/>
<rect x="778.85" y="150.71" width="28.00" height="3.13" fill="#49A000" stroke="#222222" stroke-width="0.55" opacity="0.95"/>
<line x1="778.85" y1="150.71" x2="806.85" y2="150.71" stroke="#222222" stroke-width="0.45"/>
<text x="792.85" y="200.00" font-family="Arial, Helvetica, sans-serif" font-size="11" font-weight="400" text-anchor="middle" fill="#111111" >73T</text>
<rect x="814.00" y="139.27" width="28.00" height="35.73" fill="#FF9900" stroke="#222222" stroke-width="0.55" opacity="0.95"/>
<line x1="814.00" y1="139.27" x2="842.00" y2="139.27" stroke="#222222" stroke-width="0.45"/>
<rect x="814.00" y="119.13" width="28.00" height="20.14" fill="#49A000" stroke="#222222" stroke-width="0.55" opacity="0.95"/>
<line x1="814.00" y1="119.13" x2="842.00" y2="119.13" stroke="#222222" stroke-width="0.45"/>
<rect x="814.00" y="116.13" width="28.00" height="3.00" fill="#49A000" stroke="#222222" stroke-width="0.55" opacity="0.95"/>
<line x1="814.00" y1="116.13" x2="842.00" y2="116.13" stroke="#222222" stroke-width="0.45"/>
<text x="828.00" y="200.00" font-family="Arial, Helvetica, sans-serif" font-size="11" font-weight="400" text-anchor="middle" fill="#111111" >76T</text>
<line x1="583.00" y1="146.38" x2="584.38" y2="147.11" stroke="#333333" stroke-width="0.75"/>
<line x1="583.00" y1="123.57" x2="584.38" y2="114.67" stroke="#333333" stroke-width="0.75"/>
<line x1="583.00" y1="104.80" x2="584.38" y2="95.96" stroke="#333333" stroke-width="0.75"/>
<line x1="583.00" y1="87.76" x2="584.38" y2="69.66" stroke="#333333" stroke-width="0.75"/>
<line x1="583.00" y1="87.75" x2="584.38" y2="69.66" stroke="#333333" stroke-width="0.75"/>
<line x1="583.00" y1="87.75" x2="584.38" y2="69.65" stroke="#333333" stroke-width="0.75"/>
<line x1="612.38" y1="147.11" x2="613.77" y2="150.46" stroke="#333333" stroke-width="0.75"/>
<line x1="612.38" y1="114.67" x2="613.77" y2="134.75" stroke="#333333" stroke-width="0.75"/>
<line x1="612.38" y1="95.96" x2="613.77" y2="131.07" stroke="#333333" stroke-width="0.75"/>
<line x1="612.38" y1="69.66" x2="613.77" y2="127.73" stroke="#333333" stroke-width="0.75"/>
<line x1="612.38" y1="69.66" x2="613.77" y2="118.41" stroke="#333333" stroke-width="0.75"/>
<line x1="641.77" y1="150.46" x2="643.15" y2="113.18" stroke="#333333" stroke-width="0.75"/>
<line x1="641.77" y1="134.75" x2="643.15" y2="83.14" stroke="#333333" stroke-width="0.75"/>
<line x1="641.77" y1="131.07" x2="643.15" y2="79.07" stroke="#333333" stroke-width="0.75"/>
<line x1="736.55" y1="141.11" x2="743.70" y2="150.08" stroke="#333333" stroke-width="0.75"/>
<line x1="736.55" y1="107.23" x2="743.70" y2="113.70" stroke="#333333" stroke-width="0.75"/>
<line x1="736.55" y1="81.46" x2="743.70" y2="94.31" stroke="#333333" stroke-width="0.75"/>
<line x1="736.55" y1="55.69" x2="743.70" y2="64.30" stroke="#333333" stroke-width="0.75"/>
<line x1="771.70" y1="150.08" x2="778.85" y2="156.98" stroke="#333333" stroke-width="0.75"/>
<line x1="771.70" y1="113.70" x2="778.85" y2="153.85" stroke="#333333" stroke-width="0.75"/>
<line x1="771.70" y1="94.31" x2="778.85" y2="150.71" stroke="#333333" stroke-width="0.75"/>
<line x1="806.85" y1="156.98" x2="814.00" y2="139.27" stroke="#333333" stroke-width="0.75"/>
<line x1="806.85" y1="153.85" x2="814.00" y2="119.13" stroke="#333333" stroke-width="0.75"/>
<line x1="806.85" y1="150.71" x2="814.00" y2="116.13" stroke="#333333" stroke-width="0.75"/>
</svg>
