<svg xmlns="http://www.w3.org/2000/svg" width="900" height="720" viewBox="0 0 900 720">
<rect width="100%" height="100%" fill="#ffffff"/>
<text x="450.0" y="34" text-anchor="middle" font-family="Arial" font-size="22" font-weight="700">4TF full seed 0</text>
<text x="450.0" y="62" text-anchor="middle" font-family="Arial" font-size="16" fill="#555">Pearson r = 0.834, n = 261</text>
<rect x="105" y="92" width="755" height="533" fill="#fbfbfb" stroke="#222" stroke-width="1"/>
<line x1="105.00" y1="92" x2="105.00" y2="625" stroke="#dddddd" stroke-width="1"/>
<line x1="105" y1="625.00" x2="860" y2="625.00" stroke="#dddddd" stroke-width="1"/>
<text x="105.00" y="651" text-anchor="middle" font-family="Arial" font-size="13" fill="#444">-2</text>
<text x="92" y="629.00" text-anchor="end" font-family="Arial" font-size="13" fill="#444">-2</text>
<line x1="293.75" y1="92" x2="293.75" y2="625" stroke="#dddddd" stroke-width="1"/>
<line x1="105" y1="491.75" x2="860" y2="491.75" stroke="#dddddd" stroke-width="1"/>
<text x="293.75" y="651" text-anchor="middle" font-family="Arial" font-size="13" fill="#444">-1</text>
<text x="92" y="495.75" text-anchor="end" font-family="Arial" font-size="13" fill="#444">-1</text>
<line x1="482.50" y1="92" x2="482.50" y2="625" stroke="#dddddd" stroke-width="1"/>
<line x1="105" y1="358.50" x2="860" y2="358.50" stroke="#dddddd" stroke-width="1"/>
<text x="482.50" y="651" text-anchor="middle" font-family="Arial" font-size="13" fill="#444">-1</text>
<text x="92" y="362.50" text-anchor="end" font-family="Arial" font-size="13" fill="#444">-1</text>
<line x1="671.25" y1="92" x2="671.25" y2="625" stroke="#dddddd" stroke-width="1"/>
<line x1="105" y1="225.25" x2="860" y2="225.25" stroke="#dddddd" stroke-width="1"/>
<text x="671.25" y="651" text-anchor="middle" font-family="Arial" font-size="13" fill="#444">0</text>
<text x="92" y="229.25" text-anchor="end" font-family="Arial" font-size="13" fill="#444">0</text>
<line x1="860.00" y1="92" x2="860.00" y2="625" stroke="#dddddd" stroke-width="1"/>
<line x1="105" y1="92.00" x2="860" y2="92.00" stroke="#dddddd" stroke-width="1"/>
<text x="860.00" y="651" text-anchor="middle" font-family="Arial" font-size="13" fill="#444">1</text>
<text x="92" y="96.00" text-anchor="end" font-family="Arial" font-size="13" fill="#444">1</text>
<line x1="105" y1="625" x2="860" y2="92" stroke="#9a4f34" stroke-width="2" stroke-dasharray="7 6"/>
<circle cx="638.06" cy="248.68" r="4.0" fill="#2f6f73" opacity="0.72"/>
<circle cx="656.41" cy="200.04" r="4.0" fill="#2f6f73" opacity="0.72"/>
<circle cx="594.21" cy="248.68" r="4.0" fill="#2f6f73" opacity="0.72"/>
<circle cx="529.82" cy="248.68" r="4.0" fill="#2f6f73" opacity="0.72"/>
<circle cx="598.42" cy="248.68" r="4.0" fill="#2f6f73" opacity="0.72"/>
<circle cx="534.81" cy="248.68" r="4.0" fill="#2f6f73" opacity="0.72"/>
<circle cx="649.18" cy="248.68" r="4.0" fill="#2f6f73" opacity="0.72"/>
<circle cx="807.77" cy="162.39" r="4.0" fill="#2f6f73" opacity="0.72"/>
<circle cx="645.51" cy="248.68" r="4.0" fill="#2f6f73" opacity="0.72"/>
<circle cx="606.69" cy="248.68" r="4.0" fill="#2f6f73" opacity="0.72"/>
<circle cx="598.42" cy="248.68" r="4.0" fill="#2f6f73" opacity="0.72"/>
<circle cx="634.28" cy="199.18" r="4.0" fill="#2f6f73" opacity="0.72"/>
<circle cx="563.39" cy="248.68" r="4.0" fill="#2f6f73" opacity="0.72"/>
<circle cx="727.98" cy="248.68" r="4.0" fill="#2f6f73" opacity="0.72"/>
<circle cx="589.96" cy="248.68" r="4.0" fill="#2f6f73" opacity="0.72"/>
<circle cx="558.78" cy="248.68" r="4.0" fill="#2f6f73" opacity="0.72"/>
<circle cx="539.72" cy="248.68" r="4.0" fill="#2f6f73" opacity="0.72"/>
<circle cx="649.18" cy="248.68" r="4.0" fill="#2f6f73" opacity="0.72"/>
<circle cx="509.20" cy="248.68" r="4.0" fill="#2f6f73" opacity="0.72"/>
<circle cx="524.77" cy="248.68" r="4.0" fill="#2f6f73" opacity="0.72"/>
<circle cx="529.82" cy="248.68" r="4.0" fill="#2f6f73" opacity="0.72"/>
<circle cx="519.65" cy="248.68" r="4.0" fill="#2f6f73" opacity="0.72"/>
<circle cx="544.58" cy="248.68" r="4.0" fill="#2f6f73" opacity="0.72"/>
<circle cx="567.96" cy="248.68" r="4.0" fill="#2f6f73" opacity="0.72"/>
<circle cx="567.96" cy="232.97" r="4.0" fill="#2f6f73" opacity="0.72"/>
<circle cx="549.37" cy="240.68" r="4.0" fill="#2f6f73" opacity="0.72"/>
<circle cx="539.72" cy="243.90" r="4.0" fill="#2f6f73" opacity="0.72"/>
<circle cx="534.81" cy="233.45" r="4.0" fill="#2f6f73" opacity="0.72"/>
<circle cx="598.42" cy="260.91" r="4.0" fill="#2f6f73" opacity="0.72"/>
<circle cx="519.65" cy="246.07" r="4.0" fill="#2f6f73" opacity="0.72"/>
<circle cx="614.78" cy="269.71" r="4.0" fill="#2f6f73" opacity="0.72"/>
<circle cx="745.35" cy="210.81" r="4.0" fill="#2f6f73" opacity="0.72"/>
<circle cx="764.65" cy="188.50" r="4.0" fill="#2f6f73" opacity="0.72"/>
<circle cx="652.81" cy="223.96" r="4.0" fill="#2f6f73" opacity="0.72"/>
<circle cx="626.60" cy="220.91" r="4.0" fill="#2f6f73" opacity="0.72"/>
<circle cx="581.31" cy="232.23" r="4.0" fill="#2f6f73" opacity="0.72"/>
<circle cx="610.75" cy="272.66" r="4.0" fill="#2f6f73" opacity="0.72"/>
<circle cx="645.51" cy="225.51" r="4.0" fill="#2f6f73" opacity="0.72"/>
<circle cx="677.32" cy="213.58" r="4.0" fill="#2f6f73" opacity="0.72"/>
<circle cx="519.65" cy="320.32" r="4.0" fill="#2f6f73" opacity="0.72"/>
<circle cx="606.69" cy="269.59" r="4.0" fill="#2f6f73" opacity="0.72"/>
<circle cx="598.42" cy="276.19" r="4.0" fill="#2f6f73" opacity="0.72"/>
<circle cx="558.78" cy="313.25" r="4.0" fill="#2f6f73" opacity="0.72"/>
<circle cx="554.10" cy="380.40" r="4.0" fill="#2f6f73" opacity="0.72"/>
<circle cx="539.72" cy="309.19" r="4.0" fill="#2f6f73" opacity="0.72"/>
<circle cx="598.42" cy="309.44" r="4.0" fill="#2f6f73" opacity="0.72"/>
<circle cx="563.39" cy="364.90" r="4.0" fill="#2f6f73" opacity="0.72"/>
<circle cx="458.21" cy="318.54" r="4.0" fill="#2f6f73" opacity="0.72"/>
<circle cx="594.21" cy="270.50" r="4.0" fill="#2f6f73" opacity="0.72"/>
<circle cx="544.58" cy="265.60" r="4.0" fill="#2f6f73" opacity="0.72"/>
<circle cx="544.58" cy="313.23" r="4.0" fill="#2f6f73" opacity="0.72"/>
<circle cx="585.66" cy="207.98" r="4.0" fill="#2f6f73" opacity="0.72"/>
<circle cx="563.39" cy="214.29" r="4.0" fill="#2f6f73" opacity="0.72"/>
<circle cx="626.60" cy="247.15" r="4.0" fill="#2f6f73" opacity="0.72"/>
<circle cx="581.31" cy="221.74" r="4.0" fill="#2f6f73" opacity="0.72"/>
<circle cx="598.42" cy="209.42" r="4.0" fill="#2f6f73" opacity="0.72"/>
<circle cx="622.70" cy="231.28" r="4.0" fill="#2f6f73" opacity="0.72"/>
<circle cx="630.46" cy="210.82" r="4.0" fill="#2f6f73" opacity="0.72"/>
<circle cx="589.96" cy="304.28" r="4.0" fill="#2f6f73" opacity="0.72"/>
<circle cx="539.72" cy="329.53" r="4.0" fill="#2f6f73" opacity="0.72"/>
<circle cx="524.77" cy="234.46" r="4.0" fill="#2f6f73" opacity="0.72"/>
<circle cx="576.91" cy="223.01" r="4.0" fill="#2f6f73" opacity="0.72"/>
<circle cx="652.81" cy="237.56" r="4.0" fill="#2f6f73" opacity="0.72"/>
<circle cx="598.42" cy="260.07" r="4.0" fill="#2f6f73" opacity="0.72"/>
<circle cx="659.98" cy="256.33" r="4.0" fill="#2f6f73" opacity="0.72"/>
<circle cx="509.20" cy="265.19" r="4.0" fill="#2f6f73" opacity="0.72"/>
<circle cx="602.58" cy="248.68" r="4.0" fill="#2f6f73" opacity="0.72"/>
<circle cx="645.51" cy="234.19" r="4.0" fill="#2f6f73" opacity="0.72"/>
<circle cx="606.69" cy="248.68" r="4.0" fill="#2f6f73" opacity="0.72"/>
<circle cx="641.80" cy="248.24" r="4.0" fill="#2f6f73" opacity="0.72"/>
<circle cx="652.81" cy="248.68" r="4.0" fill="#2f6f73" opacity="0.72"/>
<circle cx="634.28" cy="248.31" r="4.0" fill="#2f6f73" opacity="0.72"/>
<circle cx="641.80" cy="248.68" r="4.0" fill="#2f6f73" opacity="0.72"/>
<circle cx="626.60" cy="248.68" r="4.0" fill="#2f6f73" opacity="0.72"/>
<circle cx="641.80" cy="248.68" r="4.0" fill="#2f6f73" opacity="0.72"/>
<circle cx="659.98" cy="248.68" r="4.0" fill="#2f6f73" opacity="0.72"/>
<circle cx="622.70" cy="248.24" r="4.0" fill="#2f6f73" opacity="0.72"/>
<circle cx="663.51" cy="248.68" r="4.0" fill="#2f6f73" opacity="0.72"/>
<circle cx="715.94" cy="247.50" r="4.0" fill="#2f6f73" opacity="0.72"/>
<circle cx="659.98" cy="248.68" r="4.0" fill="#2f6f73" opacity="0.72"/>
<circle cx="690.64" cy="248.24" r="4.0" fill="#2f6f73" opacity="0.72"/>
<circle cx="634.28" cy="228.52" r="4.0" fill="#2f6f73" opacity="0.72"/>
<circle cx="576.91" cy="248.68" r="4.0" fill="#2f6f73" opacity="0.72"/>
<circle cx="645.51" cy="248.68" r="4.0" fill="#2f6f73" opacity="0.72"/>
<circle cx="602.58" cy="247.37" r="4.0" fill="#2f6f73" opacity="0.72"/>
<circle cx="585.66" cy="246.62" r="4.0" fill="#2f6f73" opacity="0.72"/>
<circle cx="606.69" cy="247.47" r="4.0" fill="#2f6f73" opacity="0.72"/>
<circle cx="602.58" cy="248.68" r="4.0" fill="#2f6f73" opacity="0.72"/>
<circle cx="610.75" cy="205.16" r="4.0" fill="#2f6f73" opacity="0.72"/>
<circle cx="622.70" cy="248.68" r="4.0" fill="#2f6f73" opacity="0.72"/>
<circle cx="663.51" cy="214.44" r="4.0" fill="#2f6f73" opacity="0.72"/>
<circle cx="529.82" cy="248.68" r="4.0" fill="#2f6f73" opacity="0.72"/>
<circle cx="589.96" cy="247.51" r="4.0" fill="#2f6f73" opacity="0.72"/>
<circle cx="594.21" cy="248.68" r="4.0" fill="#2f6f73" opacity="0.72"/>
<circle cx="554.10" cy="248.68" r="4.0" fill="#2f6f73" opacity="0.72"/>
<circle cx="614.78" cy="248.68" r="4.0" fill="#2f6f73" opacity="0.72"/>
<circle cx="544.58" cy="247.53" r="4.0" fill="#2f6f73" opacity="0.72"/>
<circle cx="598.42" cy="247.74" r="4.0" fill="#2f6f73" opacity="0.72"/>
<circle cx="598.42" cy="247.36" r="4.0" fill="#2f6f73" opacity="0.72"/>
<circle cx="563.39" cy="246.97" r="4.0" fill="#2f6f73" opacity="0.72"/>
<circle cx="594.21" cy="248.68" r="4.0" fill="#2f6f73" opacity="0.72"/>
<circle cx="572.46" cy="248.49" r="4.0" fill="#2f6f73" opacity="0.72"/>
<circle cx="645.51" cy="242.37" r="4.0" fill="#2f6f73" opacity="0.72"/>
<circle cx="618.76" cy="242.79" r="4.0" fill="#2f6f73" opacity="0.72"/>
<circle cx="712.87" cy="228.94" r="4.0" fill="#2f6f73" opacity="0.72"/>
<circle cx="748.17" cy="262.79" r="4.0" fill="#2f6f73" opacity="0.72"/>
<circle cx="634.28" cy="253.92" r="4.0" fill="#2f6f73" opacity="0.72"/>
<circle cx="614.78" cy="242.23" r="4.0" fill="#2f6f73" opacity="0.72"/>
<circle cx="670.48" cy="120.55" r="4.0" fill="#2f6f73" opacity="0.72"/>
<circle cx="673.92" cy="225.19" r="4.0" fill="#2f6f73" opacity="0.72"/>
<circle cx="649.18" cy="236.59" r="4.0" fill="#2f6f73" opacity="0.72"/>
<circle cx="514.46" cy="344.84" r="4.0" fill="#2f6f73" opacity="0.72"/>
<circle cx="492.96" cy="344.84" r="4.0" fill="#2f6f73" opacity="0.72"/>
<circle cx="481.73" cy="293.68" r="4.0" fill="#2f6f73" opacity="0.72"/>
<circle cx="498.45" cy="293.64" r="4.0" fill="#2f6f73" opacity="0.72"/>
<circle cx="534.81" cy="318.24" r="4.0" fill="#2f6f73" opacity="0.72"/>
<circle cx="452.09" cy="319.85" r="4.0" fill="#2f6f73" opacity="0.72"/>
<circle cx="470.15" cy="342.97" r="4.0" fill="#2f6f73" opacity="0.72"/>
<circle cx="458.21" cy="292.93" r="4.0" fill="#2f6f73" opacity="0.72"/>
<circle cx="464.23" cy="344.84" r="4.0" fill="#2f6f73" opacity="0.72"/>
<circle cx="529.82" cy="270.23" r="4.0" fill="#2f6f73" opacity="0.72"/>
<circle cx="439.55" cy="295.56" r="4.0" fill="#2f6f73" opacity="0.72"/>
<circle cx="439.55" cy="344.67" r="4.0" fill="#2f6f73" opacity="0.72"/>
<circle cx="519.65" cy="320.29" r="4.0" fill="#2f6f73" opacity="0.72"/>
<circle cx="475.98" cy="293.97" r="4.0" fill="#2f6f73" opacity="0.72"/>
<circle cx="481.73" cy="320.56" r="4.0" fill="#2f6f73" opacity="0.72"/>
<circle cx="481.73" cy="275.80" r="4.0" fill="#2f6f73" opacity="0.72"/>
<circle cx="622.70" cy="252.25" r="4.0" fill="#2f6f73" opacity="0.72"/>
<circle cx="618.76" cy="268.46" r="4.0" fill="#2f6f73" opacity="0.72"/>
<circle cx="667.01" cy="249.68" r="4.0" fill="#2f6f73" opacity="0.72"/>
<circle cx="645.51" cy="250.34" r="4.0" fill="#2f6f73" opacity="0.72"/>
<circle cx="645.51" cy="250.47" r="4.0" fill="#2f6f73" opacity="0.72"/>
<circle cx="638.06" cy="212.29" r="4.0" fill="#2f6f73" opacity="0.72"/>
<circle cx="630.46" cy="244.42" r="4.0" fill="#2f6f73" opacity="0.72"/>
<circle cx="581.31" cy="246.24" r="4.0" fill="#2f6f73" opacity="0.72"/>
<circle cx="687.35" cy="254.63" r="4.0" fill="#2f6f73" opacity="0.72"/>
<circle cx="634.28" cy="224.52" r="4.0" fill="#2f6f73" opacity="0.72"/>
<circle cx="697.13" cy="259.01" r="4.0" fill="#2f6f73" opacity="0.72"/>
<circle cx="544.58" cy="249.71" r="4.0" fill="#2f6f73" opacity="0.72"/>
<circle cx="706.65" cy="231.57" r="4.0" fill="#2f6f73" opacity="0.72"/>
<circle cx="626.60" cy="221.97" r="4.0" fill="#2f6f73" opacity="0.72"/>
<circle cx="529.82" cy="330.96" r="4.0" fill="#2f6f73" opacity="0.72"/>
<circle cx="498.45" cy="297.18" r="4.0" fill="#2f6f73" opacity="0.72"/>
<circle cx="475.98" cy="355.04" r="4.0" fill="#2f6f73" opacity="0.72"/>
<circle cx="445.87" cy="442.39" r="4.0" fill="#2f6f73" opacity="0.72"/>
<circle cx="470.15" cy="261.44" r="4.0" fill="#2f6f73" opacity="0.72"/>
<circle cx="549.37" cy="240.78" r="4.0" fill="#2f6f73" opacity="0.72"/>
<circle cx="369.67" cy="386.76" r="4.0" fill="#2f6f73" opacity="0.72"/>
<circle cx="549.37" cy="347.69" r="4.0" fill="#2f6f73" opacity="0.72"/>
<circle cx="458.21" cy="365.96" r="4.0" fill="#2f6f73" opacity="0.72"/>
<circle cx="369.67" cy="373.31" r="4.0" fill="#2f6f73" opacity="0.72"/>
<circle cx="433.11" cy="413.74" r="4.0" fill="#2f6f73" opacity="0.72"/>
<circle cx="464.23" cy="348.13" r="4.0" fill="#2f6f73" opacity="0.72"/>
<circle cx="475.98" cy="351.03" r="4.0" fill="#2f6f73" opacity="0.72"/>
<circle cx="470.15" cy="366.66" r="4.0" fill="#2f6f73" opacity="0.72"/>
<circle cx="377.27" cy="365.96" r="4.0" fill="#2f6f73" opacity="0.72"/>
<circle cx="572.46" cy="329.06" r="4.0" fill="#2f6f73" opacity="0.72"/>
<circle cx="641.80" cy="313.99" r="4.0" fill="#2f6f73" opacity="0.72"/>
<circle cx="563.39" cy="346.33" r="4.0" fill="#2f6f73" opacity="0.72"/>
<circle cx="606.69" cy="234.13" r="4.0" fill="#2f6f73" opacity="0.72"/>
<circle cx="610.75" cy="250.46" r="4.0" fill="#2f6f73" opacity="0.72"/>
<circle cx="539.72" cy="259.98" r="4.0" fill="#2f6f73" opacity="0.72"/>
<circle cx="406.23" cy="320.73" r="4.0" fill="#2f6f73" opacity="0.72"/>
<circle cx="544.58" cy="248.88" r="4.0" fill="#2f6f73" opacity="0.72"/>
<circle cx="487.39" cy="236.16" r="4.0" fill="#2f6f73" opacity="0.72"/>
<circle cx="652.81" cy="216.72" r="4.0" fill="#2f6f73" opacity="0.72"/>
<circle cx="594.21" cy="233.95" r="4.0" fill="#2f6f73" opacity="0.72"/>
<circle cx="725.01" cy="216.05" r="4.0" fill="#2f6f73" opacity="0.72"/>
<circle cx="544.58" cy="248.95" r="4.0" fill="#2f6f73" opacity="0.72"/>
<circle cx="554.10" cy="256.55" r="4.0" fill="#2f6f73" opacity="0.72"/>
<circle cx="549.37" cy="239.94" r="4.0" fill="#2f6f73" opacity="0.72"/>
<circle cx="630.46" cy="249.64" r="4.0" fill="#2f6f73" opacity="0.72"/>
<circle cx="667.01" cy="253.88" r="4.0" fill="#2f6f73" opacity="0.72"/>
<circle cx="645.51" cy="244.94" r="4.0" fill="#2f6f73" opacity="0.72"/>
<circle cx="598.42" cy="222.02" r="4.0" fill="#2f6f73" opacity="0.72"/>
<circle cx="598.42" cy="248.68" r="4.0" fill="#2f6f73" opacity="0.72"/>
<circle cx="712.87" cy="212.17" r="4.0" fill="#2f6f73" opacity="0.72"/>
<circle cx="656.41" cy="234.24" r="4.0" fill="#2f6f73" opacity="0.72"/>
<circle cx="772.63" cy="248.68" r="4.0" fill="#2f6f73" opacity="0.72"/>
<circle cx="667.01" cy="236.00" r="4.0" fill="#2f6f73" opacity="0.72"/>
<circle cx="712.87" cy="225.67" r="4.0" fill="#2f6f73" opacity="0.72"/>
<circle cx="585.66" cy="248.68" r="4.0" fill="#2f6f73" opacity="0.72"/>
<circle cx="670.48" cy="221.37" r="4.0" fill="#2f6f73" opacity="0.72"/>
<circle cx="645.51" cy="256.66" r="4.0" fill="#2f6f73" opacity="0.72"/>
<circle cx="659.98" cy="249.44" r="4.0" fill="#2f6f73" opacity="0.72"/>
<circle cx="638.06" cy="250.39" r="4.0" fill="#2f6f73" opacity="0.72"/>
<circle cx="670.48" cy="191.81" r="4.0" fill="#2f6f73" opacity="0.72"/>
<circle cx="761.95" cy="210.28" r="4.0" fill="#2f6f73" opacity="0.72"/>
<circle cx="659.98" cy="205.48" r="4.0" fill="#2f6f73" opacity="0.72"/>
<circle cx="712.87" cy="258.55" r="4.0" fill="#2f6f73" opacity="0.72"/>
<circle cx="753.74" cy="254.52" r="4.0" fill="#2f6f73" opacity="0.72"/>
<circle cx="748.17" cy="210.28" r="4.0" fill="#2f6f73" opacity="0.72"/>
<circle cx="718.99" cy="178.44" r="4.0" fill="#2f6f73" opacity="0.72"/>
<circle cx="767.33" cy="154.60" r="4.0" fill="#2f6f73" opacity="0.72"/>
<circle cx="739.65" cy="211.66" r="4.0" fill="#2f6f73" opacity="0.72"/>
<circle cx="667.01" cy="174.08" r="4.0" fill="#2f6f73" opacity="0.72"/>
<circle cx="700.33" cy="211.66" r="4.0" fill="#2f6f73" opacity="0.72"/>
<circle cx="652.81" cy="206.44" r="4.0" fill="#2f6f73" opacity="0.72"/>
<circle cx="727.98" cy="211.66" r="4.0" fill="#2f6f73" opacity="0.72"/>
<circle cx="748.17" cy="211.66" r="4.0" fill="#2f6f73" opacity="0.72"/>
<circle cx="677.32" cy="211.66" r="4.0" fill="#2f6f73" opacity="0.72"/>
<circle cx="503.87" cy="241.21" r="4.0" fill="#2f6f73" opacity="0.72"/>
<circle cx="524.77" cy="265.80" r="4.0" fill="#2f6f73" opacity="0.72"/>
<circle cx="576.91" cy="250.52" r="4.0" fill="#2f6f73" opacity="0.72"/>
<circle cx="406.23" cy="317.08" r="4.0" fill="#2f6f73" opacity="0.72"/>
<circle cx="558.78" cy="296.79" r="4.0" fill="#2f6f73" opacity="0.72"/>
<circle cx="406.23" cy="300.04" r="4.0" fill="#2f6f73" opacity="0.72"/>
<circle cx="445.87" cy="377.90" r="4.0" fill="#2f6f73" opacity="0.72"/>
<circle cx="419.91" cy="348.89" r="4.0" fill="#2f6f73" opacity="0.72"/>
<circle cx="419.91" cy="361.99" r="4.0" fill="#2f6f73" opacity="0.72"/>
<circle cx="311.68" cy="410.18" r="4.0" fill="#2f6f73" opacity="0.72"/>
<circle cx="369.67" cy="354.89" r="4.0" fill="#2f6f73" opacity="0.72"/>
<circle cx="519.65" cy="265.51" r="4.0" fill="#2f6f73" opacity="0.72"/>
<circle cx="283.80" cy="485.61" r="4.0" fill="#2f6f73" opacity="0.72"/>
<circle cx="399.20" cy="404.29" r="4.0" fill="#2f6f73" opacity="0.72"/>
<circle cx="377.27" cy="425.14" r="4.0" fill="#2f6f73" opacity="0.72"/>
<circle cx="145.45" cy="498.74" r="4.0" fill="#2f6f73" opacity="0.72"/>
<circle cx="253.68" cy="503.41" r="4.0" fill="#2f6f73" opacity="0.72"/>
<circle cx="263.99" cy="428.30" r="4.0" fill="#2f6f73" opacity="0.72"/>
<circle cx="354.00" cy="428.30" r="4.0" fill="#2f6f73" opacity="0.72"/>
<circle cx="293.32" cy="503.41" r="4.0" fill="#2f6f73" opacity="0.72"/>
<circle cx="172.33" cy="498.74" r="4.0" fill="#2f6f73" opacity="0.72"/>
<circle cx="369.67" cy="425.14" r="4.0" fill="#2f6f73" opacity="0.72"/>
<circle cx="392.03" cy="404.29" r="4.0" fill="#2f6f73" opacity="0.72"/>
<circle cx="232.18" cy="485.61" r="4.0" fill="#2f6f73" opacity="0.72"/>
<circle cx="534.81" cy="262.81" r="4.0" fill="#2f6f73" opacity="0.72"/>
<circle cx="392.03" cy="354.48" r="4.0" fill="#2f6f73" opacity="0.72"/>
<circle cx="377.27" cy="410.25" r="4.0" fill="#2f6f73" opacity="0.72"/>
<circle cx="384.73" cy="362.38" r="4.0" fill="#2f6f73" opacity="0.72"/>
<circle cx="419.91" cy="349.40" r="4.0" fill="#2f6f73" opacity="0.72"/>
<circle cx="439.55" cy="395.95" r="4.0" fill="#2f6f73" opacity="0.72"/>
<circle cx="377.27" cy="318.01" r="4.0" fill="#2f6f73" opacity="0.72"/>
<circle cx="554.10" cy="296.08" r="4.0" fill="#2f6f73" opacity="0.72"/>
<circle cx="406.23" cy="331.26" r="4.0" fill="#2f6f73" opacity="0.72"/>
<circle cx="439.55" cy="258.62" r="4.0" fill="#2f6f73" opacity="0.72"/>
<circle cx="519.65" cy="283.01" r="4.0" fill="#2f6f73" opacity="0.72"/>
<circle cx="426.57" cy="248.68" r="4.0" fill="#2f6f73" opacity="0.72"/>
<circle cx="589.96" cy="248.68" r="4.0" fill="#2f6f73" opacity="0.72"/>
<circle cx="614.78" cy="248.68" r="4.0" fill="#2f6f73" opacity="0.72"/>
<circle cx="610.75" cy="248.68" r="4.0" fill="#2f6f73" opacity="0.72"/>
<circle cx="606.69" cy="248.68" r="4.0" fill="#2f6f73" opacity="0.72"/>
<circle cx="641.80" cy="248.68" r="4.0" fill="#2f6f73" opacity="0.72"/>
<circle cx="606.69" cy="248.68" r="4.0" fill="#2f6f73" opacity="0.72"/>
<circle cx="614.78" cy="229.19" r="4.0" fill="#2f6f73" opacity="0.72"/>
<circle cx="606.69" cy="248.68" r="4.0" fill="#2f6f73" opacity="0.72"/>
<circle cx="594.21" cy="248.68" r="4.0" fill="#2f6f73" opacity="0.72"/>
<circle cx="659.98" cy="248.68" r="4.0" fill="#2f6f73" opacity="0.72"/>
<circle cx="618.76" cy="248.68" r="4.0" fill="#2f6f73" opacity="0.72"/>
<circle cx="626.60" cy="280.33" r="4.0" fill="#2f6f73" opacity="0.72"/>
<circle cx="641.80" cy="248.68" r="4.0" fill="#2f6f73" opacity="0.72"/>
<circle cx="622.70" cy="248.68" r="4.0" fill="#2f6f73" opacity="0.72"/>
<circle cx="649.18" cy="246.52" r="4.0" fill="#2f6f73" opacity="0.72"/>
<circle cx="709.78" cy="252.84" r="4.0" fill="#2f6f73" opacity="0.72"/>
<circle cx="759.24" cy="246.52" r="4.0" fill="#2f6f73" opacity="0.72"/>
<circle cx="659.98" cy="251.59" r="4.0" fill="#2f6f73" opacity="0.72"/>
<circle cx="659.98" cy="248.68" r="4.0" fill="#2f6f73" opacity="0.72"/>
<circle cx="638.06" cy="228.89" r="4.0" fill="#2f6f73" opacity="0.72"/>
<circle cx="630.46" cy="248.68" r="4.0" fill="#2f6f73" opacity="0.72"/>
<circle cx="645.51" cy="228.68" r="4.0" fill="#2f6f73" opacity="0.72"/>
<circle cx="638.06" cy="225.14" r="4.0" fill="#2f6f73" opacity="0.72"/>
<circle cx="630.46" cy="248.68" r="4.0" fill="#2f6f73" opacity="0.72"/>
<text x="482.5" y="688" text-anchor="middle" font-family="Arial" font-size="16">Observed Dactivity, log2(variant / WT)</text>
<text x="24" y="358.5" text-anchor="middle" font-family="Arial" font-size="16" transform="rotate(-90 24 358.5)">Predicted Dactivity, log2(variant / WT)</text>
</svg>