<svg xmlns="http://www.w3.org/2000/svg" width="1040" height="560" viewBox="0 0 1040 560">
<rect width="100%" height="100%" fill="#ffffff"/>
<text x="520.0" y="36" text-anchor="middle" font-family="Arial" font-size="22" font-weight="700">4TF scramble 6</text>
<rect x="95" y="72" width="903" height="406" fill="#fbfbfb" stroke="#222" stroke-width="1"/>
<line x1="95.00" y1="72" x2="95.00" y2="478" stroke="#e1e1e1" stroke-width="1"/>
<text x="95.00" y="503" text-anchor="middle" font-family="Arial" font-size="13" fill="#444">0</text>
<line x1="224.00" y1="72" x2="224.00" y2="478" stroke="#e1e1e1" stroke-width="1"/>
<text x="224.00" y="503" text-anchor="middle" font-family="Arial" font-size="13" fill="#444">12</text>
<line x1="353.00" y1="72" x2="353.00" y2="478" stroke="#e1e1e1" stroke-width="1"/>
<text x="353.00" y="503" text-anchor="middle" font-family="Arial" font-size="13" fill="#444">25</text>
<line x1="482.00" y1="72" x2="482.00" y2="478" stroke="#e1e1e1" stroke-width="1"/>
<text x="482.00" y="503" text-anchor="middle" font-family="Arial" font-size="13" fill="#444">37</text>
<line x1="611.00" y1="72" x2="611.00" y2="478" stroke="#e1e1e1" stroke-width="1"/>
<text x="611.00" y="503" text-anchor="middle" font-family="Arial" font-size="13" fill="#444">49</text>
<line x1="740.00" y1="72" x2="740.00" y2="478" stroke="#e1e1e1" stroke-width="1"/>
<text x="740.00" y="503" text-anchor="middle" font-family="Arial" font-size="13" fill="#444">61</text>
<line x1="869.00" y1="72" x2="869.00" y2="478" stroke="#e1e1e1" stroke-width="1"/>
<text x="869.00" y="503" text-anchor="middle" font-family="Arial" font-size="13" fill="#444">74</text>
<line x1="998.00" y1="72" x2="998.00" y2="478" stroke="#e1e1e1" stroke-width="1"/>
<text x="998.00" y="503" text-anchor="middle" font-family="Arial" font-size="13" fill="#444">86</text>
<line x1="95" y1="478.00" x2="998" y2="478.00" stroke="#e1e1e1" stroke-width="1"/>
<text x="83" y="482.00" text-anchor="end" font-family="Arial" font-size="13" fill="#444">-2</text>
<line x1="95" y1="376.50" x2="998" y2="376.50" stroke="#e1e1e1" stroke-width="1"/>
<text x="83" y="380.50" text-anchor="end" font-family="Arial" font-size="13" fill="#444">-1</text>
<line x1="95" y1="275.00" x2="998" y2="275.00" stroke="#e1e1e1" stroke-width="1"/>
<text x="83" y="279.00" text-anchor="end" font-family="Arial" font-size="13" fill="#444">-1</text>
<line x1="95" y1="173.50" x2="998" y2="173.50" stroke="#e1e1e1" stroke-width="1"/>
<text x="83" y="177.50" text-anchor="end" font-family="Arial" font-size="13" fill="#444">-0</text>
<line x1="95" y1="72.00" x2="998" y2="72.00" stroke="#e1e1e1" stroke-width="1"/>
<text x="83" y="76.00" text-anchor="end" font-family="Arial" font-size="13" fill="#444">1</text>
<polyline fill="none" stroke="#2f6f73" stroke-width="3" points="95.00,199.77 105.50,217.83 116.00,127.66 126.50,186.58 137.00,177.18 147.50,207.11 158.00,248.29 168.50,232.98 179.00,227.41 189.50,228.34 200.00,122.66 210.50,181.80 221.00,165.48 231.50,212.25 242.00,228.40 252.50,235.70 263.00,221.51 273.50,200.85 284.00,194.85 294.50,204.32 305.00,205.58 315.50,202.65 326.00,183.13 336.50,166.53 347.00,170.72 357.50,162.66 368.00,135.70 378.50,182.70 389.00,196.53 399.50,187.33 410.00,199.14 420.50,203.66 431.00,208.52 441.50,211.06 452.00,155.72 462.50,151.23 473.00,152.04 483.50,265.01 494.00,265.86 504.50,286.64 515.00,282.98 525.50,267.65 536.00,212.60 546.50,160.00 557.00,184.24 567.50,146.40 578.00,177.97 588.50,261.63 599.00,270.33 609.50,290.07 620.00,314.76 630.50,302.13 641.00,200.40 651.50,204.99 662.00,276.42 672.50,156.87 683.00,229.42 693.50,163.38 704.00,170.83 714.50,129.09 725.00,157.54 735.50,163.25 746.00,129.91 756.50,102.50 767.00,100.00 777.50,146.09 788.00,116.23 798.50,238.94 809.00,291.42 819.50,310.57 830.00,329.54 840.50,361.06 851.00,450.00 861.50,414.95 872.00,375.93 882.50,306.45 893.00,319.87 903.50,298.95 914.00,288.16 924.50,191.92 935.00,183.04 945.50,191.88 956.00,171.80 966.50,169.94 977.00,121.72 987.50,166.62 998.00,169.86"/>
<polyline fill="none" stroke="#9a4f34" stroke-width="3" points="95.00,169.53 105.50,178.17 116.00,172.76 126.50,171.26 137.00,168.11 147.50,171.05 158.00,168.68 168.50,168.54 179.00,172.19 189.50,171.53 200.00,171.40 210.50,161.37 221.00,166.99 231.50,161.79 242.00,164.94 252.50,162.44 263.00,159.87 273.50,162.49 284.00,166.02 294.50,142.21 305.00,169.71 315.50,173.98 326.00,181.82 336.50,170.22 347.00,169.42 357.50,170.86 368.00,165.41 378.50,171.91 389.00,172.70 399.50,168.08 410.00,167.05 420.50,176.68 431.00,173.81 441.50,176.21 452.00,171.76 462.50,169.50 473.00,175.49 483.50,170.80 494.00,173.67 504.50,172.91 515.00,175.88 525.50,174.87 536.00,175.45 546.50,170.00 557.00,168.84 567.50,168.05 578.00,172.28 588.50,165.59 599.00,165.11 609.50,165.49 620.00,168.22 630.50,166.96 641.00,163.81 651.50,165.39 662.00,145.42 672.50,170.67 683.00,169.62 693.50,167.47 704.00,166.03 714.50,171.62 725.00,168.28 735.50,173.60 746.00,177.60 756.50,135.13 767.00,164.64 777.50,167.79 788.00,173.01 798.50,173.42 809.00,168.56 819.50,155.59 830.00,161.00 840.50,156.71 851.00,161.47 861.50,160.66 872.00,157.86 882.50,159.60 893.00,154.94 903.50,176.11 914.00,174.79 924.50,172.59 935.00,161.86 945.50,156.57 956.00,158.47 966.50,155.48 977.00,166.82 987.50,168.27 998.00,166.73"/>
<line x1="820" y1="34" x2="860" y2="34" stroke="#2f6f73" stroke-width="3"/><text x="870" y="39" font-family="Arial" font-size="14">Observed</text>
<line x1="820" y1="58" x2="860" y2="58" stroke="#9a4f34" stroke-width="3"/><text x="870" y="63" font-family="Arial" font-size="14">Predicted</text>
<text x="546.5" y="534" text-anchor="middle" font-family="Arial" font-size="16">Single-hit mutation position</text>
<text x="25" y="275.0" text-anchor="middle" font-family="Arial" font-size="16" transform="rotate(-90 25 275.0)">Mean Dactivity</text>
</svg>