<svg xmlns="http://www.w3.org/2000/svg" width="900" height="720" viewBox="0 0 900 720">
<rect width="100%" height="100%" fill="#ffffff"/>
<text x="450.0" y="34" text-anchor="middle" font-family="Arial" font-size="22" font-weight="700">4TF scramble 6</text>
<text x="450.0" y="62" text-anchor="middle" font-family="Arial" font-size="16" fill="#555">Pearson r = -0.150, n = 261</text>
<rect x="105" y="92" width="755" height="533" fill="#fbfbfb" stroke="#222" stroke-width="1"/>
<line x1="105.00" y1="92" x2="105.00" y2="625" stroke="#dddddd" stroke-width="1"/>
<line x1="105" y1="625.00" x2="860" y2="625.00" stroke="#dddddd" stroke-width="1"/>
<text x="105.00" y="651" text-anchor="middle" font-family="Arial" font-size="13" fill="#444">-2</text>
<text x="92" y="629.00" text-anchor="end" font-family="Arial" font-size="13" fill="#444">-2</text>
<line x1="293.75" y1="92" x2="293.75" y2="625" stroke="#dddddd" stroke-width="1"/>
<line x1="105" y1="491.75" x2="860" y2="491.75" stroke="#dddddd" stroke-width="1"/>
<text x="293.75" y="651" text-anchor="middle" font-family="Arial" font-size="13" fill="#444">-1</text>
<text x="92" y="495.75" text-anchor="end" font-family="Arial" font-size="13" fill="#444">-1</text>
<line x1="482.50" y1="92" x2="482.50" y2="625" stroke="#dddddd" stroke-width="1"/>
<line x1="105" y1="358.50" x2="860" y2="358.50" stroke="#dddddd" stroke-width="1"/>
<text x="482.50" y="651" text-anchor="middle" font-family="Arial" font-size="13" fill="#444">-1</text>
<text x="92" y="362.50" text-anchor="end" font-family="Arial" font-size="13" fill="#444">-1</text>
<line x1="671.25" y1="92" x2="671.25" y2="625" stroke="#dddddd" stroke-width="1"/>
<line x1="105" y1="225.25" x2="860" y2="225.25" stroke="#dddddd" stroke-width="1"/>
<text x="671.25" y="651" text-anchor="middle" font-family="Arial" font-size="13" fill="#444">0</text>
<text x="92" y="229.25" text-anchor="end" font-family="Arial" font-size="13" fill="#444">0</text>
<line x1="860.00" y1="92" x2="860.00" y2="625" stroke="#dddddd" stroke-width="1"/>
<line x1="105" y1="92.00" x2="860" y2="92.00" stroke="#dddddd" stroke-width="1"/>
<text x="860.00" y="651" text-anchor="middle" font-family="Arial" font-size="13" fill="#444">1</text>
<text x="92" y="96.00" text-anchor="end" font-family="Arial" font-size="13" fill="#444">1</text>
<line x1="105" y1="625" x2="860" y2="92" stroke="#9a4f34" stroke-width="2" stroke-dasharray="7 6"/>
<circle cx="646.82" cy="242.49" r="4.0" fill="#2f6f73" opacity="0.72"/>
<circle cx="665.51" cy="240.29" r="4.0" fill="#2f6f73" opacity="0.72"/>
<circle cx="602.20" cy="244.75" r="4.0" fill="#2f6f73" opacity="0.72"/>
<circle cx="536.66" cy="241.47" r="4.0" fill="#2f6f73" opacity="0.72"/>
<circle cx="606.48" cy="251.93" r="4.0" fill="#2f6f73" opacity="0.72"/>
<circle cx="541.74" cy="250.89" r="4.0" fill="#2f6f73" opacity="0.72"/>
<circle cx="658.14" cy="249.77" r="4.0" fill="#2f6f73" opacity="0.72"/>
<circle cx="819.55" cy="239.28" r="4.0" fill="#2f6f73" opacity="0.72"/>
<circle cx="654.41" cy="247.85" r="4.0" fill="#2f6f73" opacity="0.72"/>
<circle cx="614.90" cy="244.94" r="4.0" fill="#2f6f73" opacity="0.72"/>
<circle cx="606.48" cy="246.96" r="4.0" fill="#2f6f73" opacity="0.72"/>
<circle cx="642.98" cy="240.17" r="4.0" fill="#2f6f73" opacity="0.72"/>
<circle cx="570.83" cy="238.80" r="4.0" fill="#2f6f73" opacity="0.72"/>
<circle cx="738.35" cy="238.08" r="4.0" fill="#2f6f73" opacity="0.72"/>
<circle cx="597.87" cy="245.09" r="4.0" fill="#2f6f73" opacity="0.72"/>
<circle cx="566.13" cy="241.71" r="4.0" fill="#2f6f73" opacity="0.72"/>
<circle cx="546.74" cy="247.27" r="4.0" fill="#2f6f73" opacity="0.72"/>
<circle cx="658.14" cy="242.45" r="4.0" fill="#2f6f73" opacity="0.72"/>
<circle cx="515.68" cy="246.18" r="4.0" fill="#2f6f73" opacity="0.72"/>
<circle cx="531.52" cy="238.01" r="4.0" fill="#2f6f73" opacity="0.72"/>
<circle cx="536.66" cy="239.61" r="4.0" fill="#2f6f73" opacity="0.72"/>
<circle cx="526.31" cy="241.93" r="4.0" fill="#2f6f73" opacity="0.72"/>
<circle cx="551.68" cy="241.95" r="4.0" fill="#2f6f73" opacity="0.72"/>
<circle cx="575.47" cy="239.48" r="4.0" fill="#2f6f73" opacity="0.72"/>
<circle cx="575.47" cy="244.04" r="4.0" fill="#2f6f73" opacity="0.72"/>
<circle cx="556.56" cy="246.39" r="4.0" fill="#2f6f73" opacity="0.72"/>
<circle cx="546.74" cy="244.63" r="4.0" fill="#2f6f73" opacity="0.72"/>
<circle cx="541.74" cy="244.41" r="4.0" fill="#2f6f73" opacity="0.72"/>
<circle cx="606.48" cy="243.08" r="4.0" fill="#2f6f73" opacity="0.72"/>
<circle cx="526.31" cy="245.47" r="4.0" fill="#2f6f73" opacity="0.72"/>
<circle cx="623.13" cy="238.60" r="4.0" fill="#2f6f73" opacity="0.72"/>
<circle cx="756.03" cy="246.28" r="4.0" fill="#2f6f73" opacity="0.72"/>
<circle cx="775.67" cy="247.65" r="4.0" fill="#2f6f73" opacity="0.72"/>
<circle cx="661.84" cy="235.34" r="4.0" fill="#2f6f73" opacity="0.72"/>
<circle cx="635.16" cy="231.33" r="4.0" fill="#2f6f73" opacity="0.72"/>
<circle cx="589.07" cy="233.66" r="4.0" fill="#2f6f73" opacity="0.72"/>
<circle cx="619.04" cy="237.85" r="4.0" fill="#2f6f73" opacity="0.72"/>
<circle cx="654.41" cy="231.76" r="4.0" fill="#2f6f73" opacity="0.72"/>
<circle cx="686.79" cy="248.78" r="4.0" fill="#2f6f73" opacity="0.72"/>
<circle cx="526.31" cy="236.12" r="4.0" fill="#2f6f73" opacity="0.72"/>
<circle cx="614.90" cy="232.65" r="4.0" fill="#2f6f73" opacity="0.72"/>
<circle cx="606.48" cy="232.94" r="4.0" fill="#2f6f73" opacity="0.72"/>
<circle cx="566.13" cy="236.00" r="4.0" fill="#2f6f73" opacity="0.72"/>
<circle cx="561.38" cy="242.21" r="4.0" fill="#2f6f73" opacity="0.72"/>
<circle cx="546.74" cy="233.59" r="4.0" fill="#2f6f73" opacity="0.72"/>
<circle cx="606.48" cy="231.83" r="4.0" fill="#2f6f73" opacity="0.72"/>
<circle cx="570.83" cy="236.37" r="4.0" fill="#2f6f73" opacity="0.72"/>
<circle cx="463.77" cy="235.57" r="4.0" fill="#2f6f73" opacity="0.72"/>
<circle cx="602.20" cy="232.06" r="4.0" fill="#2f6f73" opacity="0.72"/>
<circle cx="551.68" cy="230.13" r="4.0" fill="#2f6f73" opacity="0.72"/>
<circle cx="551.68" cy="233.35" r="4.0" fill="#2f6f73" opacity="0.72"/>
<circle cx="593.50" cy="244.72" r="4.0" fill="#2f6f73" opacity="0.72"/>
<circle cx="570.83" cy="228.88" r="4.0" fill="#2f6f73" opacity="0.72"/>
<circle cx="635.16" cy="230.33" r="4.0" fill="#2f6f73" opacity="0.72"/>
<circle cx="589.07" cy="238.52" r="4.0" fill="#2f6f73" opacity="0.72"/>
<circle cx="606.48" cy="238.52" r="4.0" fill="#2f6f73" opacity="0.72"/>
<circle cx="631.19" cy="238.22" r="4.0" fill="#2f6f73" opacity="0.72"/>
<circle cx="639.09" cy="245.51" r="4.0" fill="#2f6f73" opacity="0.72"/>
<circle cx="597.87" cy="220.71" r="4.0" fill="#2f6f73" opacity="0.72"/>
<circle cx="546.74" cy="172.66" r="4.0" fill="#2f6f73" opacity="0.72"/>
<circle cx="531.52" cy="243.35" r="4.0" fill="#2f6f73" opacity="0.72"/>
<circle cx="584.59" cy="243.90" r="4.0" fill="#2f6f73" opacity="0.72"/>
<circle cx="661.84" cy="239.84" r="4.0" fill="#2f6f73" opacity="0.72"/>
<circle cx="606.48" cy="251.37" r="4.0" fill="#2f6f73" opacity="0.72"/>
<circle cx="669.14" cy="245.60" r="4.0" fill="#2f6f73" opacity="0.72"/>
<circle cx="515.68" cy="243.82" r="4.0" fill="#2f6f73" opacity="0.72"/>
<circle cx="610.71" cy="246.26" r="4.0" fill="#2f6f73" opacity="0.72"/>
<circle cx="654.41" cy="264.38" r="4.0" fill="#2f6f73" opacity="0.72"/>
<circle cx="614.90" cy="255.31" r="4.0" fill="#2f6f73" opacity="0.72"/>
<circle cx="650.64" cy="240.62" r="4.0" fill="#2f6f73" opacity="0.72"/>
<circle cx="661.84" cy="246.22" r="4.0" fill="#2f6f73" opacity="0.72"/>
<circle cx="642.98" cy="241.91" r="4.0" fill="#2f6f73" opacity="0.72"/>
<circle cx="650.64" cy="241.77" r="4.0" fill="#2f6f73" opacity="0.72"/>
<circle cx="635.16" cy="236.53" r="4.0" fill="#2f6f73" opacity="0.72"/>
<circle cx="650.64" cy="247.88" r="4.0" fill="#2f6f73" opacity="0.72"/>
<circle cx="669.14" cy="246.43" r="4.0" fill="#2f6f73" opacity="0.72"/>
<circle cx="631.19" cy="244.20" r="4.0" fill="#2f6f73" opacity="0.72"/>
<circle cx="672.73" cy="240.17" r="4.0" fill="#2f6f73" opacity="0.72"/>
<circle cx="726.10" cy="241.65" r="4.0" fill="#2f6f73" opacity="0.72"/>
<circle cx="669.14" cy="233.96" r="4.0" fill="#2f6f73" opacity="0.72"/>
<circle cx="700.34" cy="237.69" r="4.0" fill="#2f6f73" opacity="0.72"/>
<circle cx="642.98" cy="252.33" r="4.0" fill="#2f6f73" opacity="0.72"/>
<circle cx="584.59" cy="239.89" r="4.0" fill="#2f6f73" opacity="0.72"/>
<circle cx="654.41" cy="241.94" r="4.0" fill="#2f6f73" opacity="0.72"/>
<circle cx="610.71" cy="243.95" r="4.0" fill="#2f6f73" opacity="0.72"/>
<circle cx="593.50" cy="243.65" r="4.0" fill="#2f6f73" opacity="0.72"/>
<circle cx="614.90" cy="249.12" r="4.0" fill="#2f6f73" opacity="0.72"/>
<circle cx="610.71" cy="241.59" r="4.0" fill="#2f6f73" opacity="0.72"/>
<circle cx="619.04" cy="236.88" r="4.0" fill="#2f6f73" opacity="0.72"/>
<circle cx="631.19" cy="243.42" r="4.0" fill="#2f6f73" opacity="0.72"/>
<circle cx="672.73" cy="237.15" r="4.0" fill="#2f6f73" opacity="0.72"/>
<circle cx="536.66" cy="241.87" r="4.0" fill="#2f6f73" opacity="0.72"/>
<circle cx="597.87" cy="239.56" r="4.0" fill="#2f6f73" opacity="0.72"/>
<circle cx="602.20" cy="254.08" r="4.0" fill="#2f6f73" opacity="0.72"/>
<circle cx="561.38" cy="247.69" r="4.0" fill="#2f6f73" opacity="0.72"/>
<circle cx="623.13" cy="247.72" r="4.0" fill="#2f6f73" opacity="0.72"/>
<circle cx="551.68" cy="249.74" r="4.0" fill="#2f6f73" opacity="0.72"/>
<circle cx="606.48" cy="241.00" r="4.0" fill="#2f6f73" opacity="0.72"/>
<circle cx="606.48" cy="249.52" r="4.0" fill="#2f6f73" opacity="0.72"/>
<circle cx="570.83" cy="250.13" r="4.0" fill="#2f6f73" opacity="0.72"/>
<circle cx="602.20" cy="244.89" r="4.0" fill="#2f6f73" opacity="0.72"/>
<circle cx="580.06" cy="252.93" r="4.0" fill="#2f6f73" opacity="0.72"/>
<circle cx="654.41" cy="243.65" r="4.0" fill="#2f6f73" opacity="0.72"/>
<circle cx="627.18" cy="242.01" r="4.0" fill="#2f6f73" opacity="0.72"/>
<circle cx="722.97" cy="248.02" r="4.0" fill="#2f6f73" opacity="0.72"/>
<circle cx="758.90" cy="239.95" r="4.0" fill="#2f6f73" opacity="0.72"/>
<circle cx="642.98" cy="242.73" r="4.0" fill="#2f6f73" opacity="0.72"/>
<circle cx="623.13" cy="243.74" r="4.0" fill="#2f6f73" opacity="0.72"/>
<circle cx="679.82" cy="257.51" r="4.0" fill="#2f6f73" opacity="0.72"/>
<circle cx="683.32" cy="243.28" r="4.0" fill="#2f6f73" opacity="0.72"/>
<circle cx="658.14" cy="244.85" r="4.0" fill="#2f6f73" opacity="0.72"/>
<circle cx="521.03" cy="244.96" r="4.0" fill="#2f6f73" opacity="0.72"/>
<circle cx="499.14" cy="243.62" r="4.0" fill="#2f6f73" opacity="0.72"/>
<circle cx="487.71" cy="242.02" r="4.0" fill="#2f6f73" opacity="0.72"/>
<circle cx="504.73" cy="246.56" r="4.0" fill="#2f6f73" opacity="0.72"/>
<circle cx="541.74" cy="248.00" r="4.0" fill="#2f6f73" opacity="0.72"/>
<circle cx="457.55" cy="245.24" r="4.0" fill="#2f6f73" opacity="0.72"/>
<circle cx="475.93" cy="243.84" r="4.0" fill="#2f6f73" opacity="0.72"/>
<circle cx="463.77" cy="245.98" r="4.0" fill="#2f6f73" opacity="0.72"/>
<circle cx="469.90" cy="247.57" r="4.0" fill="#2f6f73" opacity="0.72"/>
<circle cx="536.66" cy="255.14" r="4.0" fill="#2f6f73" opacity="0.72"/>
<circle cx="444.78" cy="245.37" r="4.0" fill="#2f6f73" opacity="0.72"/>
<circle cx="444.78" cy="246.39" r="4.0" fill="#2f6f73" opacity="0.72"/>
<circle cx="526.31" cy="253.17" r="4.0" fill="#2f6f73" opacity="0.72"/>
<circle cx="481.87" cy="241.07" r="4.0" fill="#2f6f73" opacity="0.72"/>
<circle cx="487.71" cy="249.43" r="4.0" fill="#2f6f73" opacity="0.72"/>
<circle cx="487.71" cy="248.75" r="4.0" fill="#2f6f73" opacity="0.72"/>
<circle cx="631.19" cy="241.46" r="4.0" fill="#2f6f73" opacity="0.72"/>
<circle cx="627.18" cy="255.32" r="4.0" fill="#2f6f73" opacity="0.72"/>
<circle cx="676.30" cy="242.01" r="4.0" fill="#2f6f73" opacity="0.72"/>
<circle cx="654.41" cy="239.90" r="4.0" fill="#2f6f73" opacity="0.72"/>
<circle cx="654.41" cy="246.13" r="4.0" fill="#2f6f73" opacity="0.72"/>
<circle cx="646.82" cy="239.81" r="4.0" fill="#2f6f73" opacity="0.72"/>
<circle cx="639.09" cy="242.68" r="4.0" fill="#2f6f73" opacity="0.72"/>
<circle cx="589.07" cy="241.81" r="4.0" fill="#2f6f73" opacity="0.72"/>
<circle cx="697.00" cy="240.90" r="4.0" fill="#2f6f73" opacity="0.72"/>
<circle cx="642.98" cy="239.23" r="4.0" fill="#2f6f73" opacity="0.72"/>
<circle cx="706.95" cy="241.66" r="4.0" fill="#2f6f73" opacity="0.72"/>
<circle cx="551.68" cy="245.32" r="4.0" fill="#2f6f73" opacity="0.72"/>
<circle cx="716.64" cy="245.18" r="4.0" fill="#2f6f73" opacity="0.72"/>
<circle cx="635.16" cy="244.85" r="4.0" fill="#2f6f73" opacity="0.72"/>
<circle cx="536.66" cy="239.73" r="4.0" fill="#2f6f73" opacity="0.72"/>
<circle cx="504.73" cy="235.48" r="4.0" fill="#2f6f73" opacity="0.72"/>
<circle cx="481.87" cy="238.66" r="4.0" fill="#2f6f73" opacity="0.72"/>
<circle cx="451.22" cy="241.63" r="4.0" fill="#2f6f73" opacity="0.72"/>
<circle cx="475.93" cy="235.58" r="4.0" fill="#2f6f73" opacity="0.72"/>
<circle cx="556.56" cy="235.13" r="4.0" fill="#2f6f73" opacity="0.72"/>
<circle cx="373.66" cy="239.78" r="4.0" fill="#2f6f73" opacity="0.72"/>
<circle cx="556.56" cy="236.60" r="4.0" fill="#2f6f73" opacity="0.72"/>
<circle cx="463.77" cy="237.20" r="4.0" fill="#2f6f73" opacity="0.72"/>
<circle cx="373.66" cy="240.94" r="4.0" fill="#2f6f73" opacity="0.72"/>
<circle cx="438.23" cy="244.27" r="4.0" fill="#2f6f73" opacity="0.72"/>
<circle cx="469.90" cy="237.11" r="4.0" fill="#2f6f73" opacity="0.72"/>
<circle cx="481.87" cy="236.92" r="4.0" fill="#2f6f73" opacity="0.72"/>
<circle cx="475.93" cy="242.31" r="4.0" fill="#2f6f73" opacity="0.72"/>
<circle cx="381.40" cy="239.07" r="4.0" fill="#2f6f73" opacity="0.72"/>
<circle cx="580.06" cy="235.74" r="4.0" fill="#2f6f73" opacity="0.72"/>
<circle cx="650.64" cy="234.99" r="4.0" fill="#2f6f73" opacity="0.72"/>
<circle cx="570.83" cy="237.45" r="4.0" fill="#2f6f73" opacity="0.72"/>
<circle cx="614.90" cy="243.52" r="4.0" fill="#2f6f73" opacity="0.72"/>
<circle cx="619.04" cy="233.81" r="4.0" fill="#2f6f73" opacity="0.72"/>
<circle cx="546.74" cy="235.90" r="4.0" fill="#2f6f73" opacity="0.72"/>
<circle cx="410.87" cy="168.69" r="4.0" fill="#2f6f73" opacity="0.72"/>
<circle cx="551.68" cy="241.41" r="4.0" fill="#2f6f73" opacity="0.72"/>
<circle cx="493.47" cy="239.06" r="4.0" fill="#2f6f73" opacity="0.72"/>
<circle cx="661.84" cy="243.76" r="4.0" fill="#2f6f73" opacity="0.72"/>
<circle cx="602.20" cy="243.01" r="4.0" fill="#2f6f73" opacity="0.72"/>
<circle cx="735.32" cy="243.43" r="4.0" fill="#2f6f73" opacity="0.72"/>
<circle cx="551.68" cy="243.07" r="4.0" fill="#2f6f73" opacity="0.72"/>
<circle cx="561.38" cy="242.30" r="4.0" fill="#2f6f73" opacity="0.72"/>
<circle cx="556.56" cy="241.44" r="4.0" fill="#2f6f73" opacity="0.72"/>
<circle cx="639.09" cy="237.92" r="4.0" fill="#2f6f73" opacity="0.72"/>
<circle cx="676.30" cy="239.61" r="4.0" fill="#2f6f73" opacity="0.72"/>
<circle cx="654.41" cy="242.39" r="4.0" fill="#2f6f73" opacity="0.72"/>
<circle cx="606.48" cy="236.58" r="4.0" fill="#2f6f73" opacity="0.72"/>
<circle cx="606.48" cy="242.15" r="4.0" fill="#2f6f73" opacity="0.72"/>
<circle cx="722.97" cy="236.56" r="4.0" fill="#2f6f73" opacity="0.72"/>
<circle cx="665.51" cy="249.39" r="4.0" fill="#2f6f73" opacity="0.72"/>
<circle cx="783.79" cy="241.89" r="4.0" fill="#2f6f73" opacity="0.72"/>
<circle cx="676.30" cy="241.95" r="4.0" fill="#2f6f73" opacity="0.72"/>
<circle cx="722.97" cy="243.15" r="4.0" fill="#2f6f73" opacity="0.72"/>
<circle cx="593.50" cy="242.37" r="4.0" fill="#2f6f73" opacity="0.72"/>
<circle cx="679.82" cy="237.01" r="4.0" fill="#2f6f73" opacity="0.72"/>
<circle cx="654.41" cy="248.98" r="4.0" fill="#2f6f73" opacity="0.72"/>
<circle cx="669.14" cy="243.96" r="4.0" fill="#2f6f73" opacity="0.72"/>
<circle cx="646.82" cy="246.65" r="4.0" fill="#2f6f73" opacity="0.72"/>
<circle cx="679.82" cy="262.18" r="4.0" fill="#2f6f73" opacity="0.72"/>
<circle cx="772.92" cy="237.78" r="4.0" fill="#2f6f73" opacity="0.72"/>
<circle cx="669.14" cy="252.46" r="4.0" fill="#2f6f73" opacity="0.72"/>
<circle cx="722.97" cy="122.25" r="4.0" fill="#2f6f73" opacity="0.72"/>
<circle cx="764.57" cy="251.87" r="4.0" fill="#2f6f73" opacity="0.72"/>
<circle cx="758.90" cy="242.05" r="4.0" fill="#2f6f73" opacity="0.72"/>
<circle cx="729.20" cy="235.60" r="4.0" fill="#2f6f73" opacity="0.72"/>
<circle cx="778.39" cy="231.53" r="4.0" fill="#2f6f73" opacity="0.72"/>
<circle cx="750.23" cy="243.70" r="4.0" fill="#2f6f73" opacity="0.72"/>
<circle cx="676.30" cy="238.54" r="4.0" fill="#2f6f73" opacity="0.72"/>
<circle cx="710.20" cy="243.52" r="4.0" fill="#2f6f73" opacity="0.72"/>
<circle cx="661.84" cy="238.87" r="4.0" fill="#2f6f73" opacity="0.72"/>
<circle cx="738.35" cy="244.35" r="4.0" fill="#2f6f73" opacity="0.72"/>
<circle cx="758.90" cy="246.84" r="4.0" fill="#2f6f73" opacity="0.72"/>
<circle cx="686.79" cy="246.50" r="4.0" fill="#2f6f73" opacity="0.72"/>
<circle cx="510.24" cy="245.62" r="4.0" fill="#2f6f73" opacity="0.72"/>
<circle cx="531.52" cy="245.86" r="4.0" fill="#2f6f73" opacity="0.72"/>
<circle cx="584.59" cy="247.54" r="4.0" fill="#2f6f73" opacity="0.72"/>
<circle cx="410.87" cy="241.57" r="4.0" fill="#2f6f73" opacity="0.72"/>
<circle cx="566.13" cy="241.63" r="4.0" fill="#2f6f73" opacity="0.72"/>
<circle cx="410.87" cy="240.22" r="4.0" fill="#2f6f73" opacity="0.72"/>
<circle cx="451.22" cy="227.81" r="4.0" fill="#2f6f73" opacity="0.72"/>
<circle cx="424.80" cy="225.50" r="4.0" fill="#2f6f73" opacity="0.72"/>
<circle cx="424.80" cy="228.48" r="4.0" fill="#2f6f73" opacity="0.72"/>
<circle cx="314.64" cy="231.66" r="4.0" fill="#2f6f73" opacity="0.72"/>
<circle cx="373.66" cy="228.02" r="4.0" fill="#2f6f73" opacity="0.72"/>
<circle cx="526.31" cy="239.50" r="4.0" fill="#2f6f73" opacity="0.72"/>
<circle cx="286.26" cy="228.82" r="4.0" fill="#2f6f73" opacity="0.72"/>
<circle cx="403.71" cy="229.01" r="4.0" fill="#2f6f73" opacity="0.72"/>
<circle cx="381.40" cy="227.56" r="4.0" fill="#2f6f73" opacity="0.72"/>
<circle cx="145.45" cy="234.63" r="4.0" fill="#2f6f73" opacity="0.72"/>
<circle cx="255.61" cy="235.24" r="4.0" fill="#2f6f73" opacity="0.72"/>
<circle cx="266.10" cy="230.79" r="4.0" fill="#2f6f73" opacity="0.72"/>
<circle cx="357.71" cy="228.17" r="4.0" fill="#2f6f73" opacity="0.72"/>
<circle cx="295.95" cy="235.28" r="4.0" fill="#2f6f73" opacity="0.72"/>
<circle cx="172.81" cy="234.63" r="4.0" fill="#2f6f73" opacity="0.72"/>
<circle cx="373.66" cy="230.48" r="4.0" fill="#2f6f73" opacity="0.72"/>
<circle cx="396.42" cy="227.66" r="4.0" fill="#2f6f73" opacity="0.72"/>
<circle cx="233.72" cy="230.96" r="4.0" fill="#2f6f73" opacity="0.72"/>
<circle cx="541.74" cy="237.53" r="4.0" fill="#2f6f73" opacity="0.72"/>
<circle cx="396.42" cy="227.03" r="4.0" fill="#2f6f73" opacity="0.72"/>
<circle cx="381.40" cy="230.11" r="4.0" fill="#2f6f73" opacity="0.72"/>
<circle cx="388.98" cy="226.97" r="4.0" fill="#2f6f73" opacity="0.72"/>
<circle cx="424.80" cy="225.74" r="4.0" fill="#2f6f73" opacity="0.72"/>
<circle cx="444.78" cy="227.02" r="4.0" fill="#2f6f73" opacity="0.72"/>
<circle cx="381.40" cy="251.47" r="4.0" fill="#2f6f73" opacity="0.72"/>
<circle cx="561.38" cy="254.33" r="4.0" fill="#2f6f73" opacity="0.72"/>
<circle cx="410.87" cy="241.84" r="4.0" fill="#2f6f73" opacity="0.72"/>
<circle cx="444.78" cy="246.58" r="4.0" fill="#2f6f73" opacity="0.72"/>
<circle cx="526.31" cy="252.26" r="4.0" fill="#2f6f73" opacity="0.72"/>
<circle cx="431.57" cy="244.57" r="4.0" fill="#2f6f73" opacity="0.72"/>
<circle cx="597.87" cy="241.28" r="4.0" fill="#2f6f73" opacity="0.72"/>
<circle cx="623.13" cy="253.75" r="4.0" fill="#2f6f73" opacity="0.72"/>
<circle cx="619.04" cy="241.32" r="4.0" fill="#2f6f73" opacity="0.72"/>
<circle cx="614.90" cy="241.06" r="4.0" fill="#2f6f73" opacity="0.72"/>
<circle cx="650.64" cy="227.82" r="4.0" fill="#2f6f73" opacity="0.72"/>
<circle cx="614.90" cy="233.03" r="4.0" fill="#2f6f73" opacity="0.72"/>
<circle cx="623.13" cy="233.71" r="4.0" fill="#2f6f73" opacity="0.72"/>
<circle cx="614.90" cy="223.19" r="4.0" fill="#2f6f73" opacity="0.72"/>
<circle cx="602.20" cy="228.06" r="4.0" fill="#2f6f73" opacity="0.72"/>
<circle cx="669.14" cy="226.35" r="4.0" fill="#2f6f73" opacity="0.72"/>
<circle cx="627.18" cy="235.11" r="4.0" fill="#2f6f73" opacity="0.72"/>
<circle cx="635.16" cy="229.57" r="4.0" fill="#2f6f73" opacity="0.72"/>
<circle cx="650.64" cy="229.85" r="4.0" fill="#2f6f73" opacity="0.72"/>
<circle cx="631.19" cy="221.73" r="4.0" fill="#2f6f73" opacity="0.72"/>
<circle cx="658.14" cy="229.86" r="4.0" fill="#2f6f73" opacity="0.72"/>
<circle cx="719.82" cy="241.33" r="4.0" fill="#2f6f73" opacity="0.72"/>
<circle cx="770.16" cy="242.73" r="4.0" fill="#2f6f73" opacity="0.72"/>
<circle cx="669.14" cy="233.76" r="4.0" fill="#2f6f73" opacity="0.72"/>
<circle cx="669.14" cy="242.07" r="4.0" fill="#2f6f73" opacity="0.72"/>
<circle cx="646.82" cy="241.05" r="4.0" fill="#2f6f73" opacity="0.72"/>
<circle cx="639.09" cy="239.37" r="4.0" fill="#2f6f73" opacity="0.72"/>
<circle cx="654.41" cy="235.94" r="4.0" fill="#2f6f73" opacity="0.72"/>
<circle cx="646.82" cy="242.40" r="4.0" fill="#2f6f73" opacity="0.72"/>
<circle cx="639.09" cy="239.22" r="4.0" fill="#2f6f73" opacity="0.72"/>
<text x="482.5" y="688" text-anchor="middle" font-family="Arial" font-size="16">Observed Dactivity, log2(variant / WT)</text>
<text x="24" y="358.5" text-anchor="middle" font-family="Arial" font-size="16" transform="rotate(-90 24 358.5)">Predicted Dactivity, log2(variant / WT)</text>
</svg>